<svg width="28" height="28" viewBox="0 0 28 28" fill="none" xmlns="http://www.w3.org/2000/svg">
<path d="M14 1.75C7.23516 1.75 1.75 7.37734 1.75 14.3117C1.75 19.8625 5.26094 24.5656 10.1281 26.2281C10.1964 26.243 10.2661 26.2503 10.3359 26.25C10.7898 26.25 10.9648 25.9164 10.9648 25.6266C10.9648 25.3258 10.9539 24.5383 10.9484 23.4883C10.5432 23.5833 10.1287 23.6328 9.7125 23.6359C7.35547 23.6359 6.81953 21.8039 6.81953 21.8039C6.26172 20.3547 5.45781 19.9664 5.45781 19.9664C4.39141 19.2172 5.45234 19.1953 5.53437 19.1953H5.53984C6.77031 19.3047 7.41563 20.4969 7.41563 20.4969C8.02813 21.5687 8.84844 21.8695 9.58125 21.8695C10.0658 21.8598 10.5429 21.748 10.9812 21.5414C11.0906 20.732 11.4078 20.1797 11.7578 19.8625C9.03984 19.5453 6.17969 18.468 6.17969 13.6555C6.17969 12.2828 6.65547 11.1617 7.4375 10.2867C7.31172 9.96953 6.89062 8.68984 7.55781 6.96172C7.64731 6.9403 7.73929 6.93111 7.83125 6.93438C8.27422 6.93438 9.275 7.10391 10.9266 8.25234C12.9333 7.69087 15.0557 7.69087 17.0625 8.25234C18.7141 7.10391 19.7148 6.93438 20.1578 6.93438C20.2498 6.93111 20.3418 6.9403 20.4312 6.96172C21.0984 8.68984 20.6773 9.96953 20.5516 10.2867C21.3336 11.1672 21.8094 12.2883 21.8094 13.6555C21.8094 18.4789 18.9438 19.5398 16.2148 19.8516C16.6523 20.2398 17.0461 21.0055 17.0461 22.1758C17.0461 23.8547 17.0297 25.2109 17.0297 25.6211C17.0297 25.9164 17.1992 26.25 17.6531 26.25C17.7266 26.2503 17.7999 26.243 17.8719 26.2281C22.7445 24.5656 26.25 19.857 26.25 14.3117C26.25 7.37734 20.7648 1.75 14 1.75Z" fill="white"/>
</svg>
