<svg width="82" height="40" viewBox="0 0 82 40" fill="none" xmlns="http://www.w3.org/2000/svg">
<path fill-rule="evenodd" clip-rule="evenodd" d="M17.424 20.0057C17.424 22.4573 16.5529 24.3892 14.8097 25.8014C13.0788 27.2127 10.6657 27.9188 7.56955 27.9188C4.71763 27.9188 2.19414 27.3737 0 26.2837V20.9337C1.80397 21.7512 3.32723 22.3271 4.57073 22.6615C5.8264 22.9958 6.97166 23.1634 8.00837 23.1634C9.25188 23.1634 10.2025 22.9218 10.8603 22.4386C11.5302 21.9554 11.8661 21.2371 11.8661 20.2838C11.8661 19.7509 11.7202 19.2808 11.4273 18.8725C11.1344 18.4511 10.7022 18.0494 10.1295 17.6654C9.56907 17.2815 8.41726 16.669 6.67411 15.8262C5.04044 15.0461 3.81565 14.297 2.99881 13.5787C2.18198 12.8604 1.52982 12.0242 1.04233 11.0709C0.554851 10.1175 0.310641 9.00315 0.310641 7.72769C0.310641 5.32566 1.10877 3.43682 2.70595 2.06209C4.31436 0.687364 6.53283 0 9.36041 0C10.7499 0 12.072 0.167627 13.3276 0.501944C14.5955 0.836261 15.9176 1.3073 17.2949 1.91319L15.4666 6.38949C14.0406 5.79483 12.8579 5.37998 11.9195 5.14493C10.9932 4.90987 10.079 4.79188 9.17702 4.79188C8.10475 4.79188 7.28136 5.04566 6.70873 5.55322C6.1361 6.06079 5.84979 6.7238 5.84979 7.5404C5.84979 8.04796 5.96581 8.49372 6.19692 8.87767C6.42897 9.24944 6.79388 9.61466 7.29353 9.97333C7.80534 10.3198 9.0058 10.9519 10.8949 11.8678C13.3931 13.0814 15.1063 14.3007 16.0327 15.5275C16.9608 16.7421 17.424 18.2348 17.424 20.0057ZM43.7696 27.547H37.3331L30.5346 16.39L27.9353 19.3464V27.547H22.2689V0.390505H27.9362V12.4437L37.407 0.390505H43.6957L34.3717 12.4081L32.7512 14.3953L34.8966 13.2734L43.7696 27.547ZM47.1333 0.390505V27.547H52.8006V0.390505H47.1333ZM75.892 27.547L73.9542 21.0826H64.2092L62.2715 27.547H56.1653L65.5996 0.279066H72.5292L82 27.547H75.892ZM72.6012 16.2532C70.8094 10.3957 69.798 7.0834 69.5659 6.3155C69.347 5.54761 69.1879 4.94078 69.0906 4.49502C68.6883 6.08045 67.5365 9.99955 65.6352 16.2532H72.6012ZM5.80394 37.584H6.94546V35.3543H8.80182V34.3775H6.94546V32.9223H8.94124V31.9418H5.80394V37.584ZM17.279 34.7549C17.279 35.6895 17.0544 36.4069 16.6053 36.9088C16.1562 37.4107 15.5124 37.6608 14.6731 37.6608C13.8348 37.6608 13.191 37.4098 12.741 36.9088C12.2919 36.4069 12.0673 35.6867 12.0673 34.7474C12.0673 33.8082 12.2919 33.0918 12.741 32.5973C13.1929 32.101 13.8395 31.8528 14.6806 31.8528C15.5218 31.8528 16.1646 32.1029 16.609 32.602C17.0563 33.1011 17.279 33.8185 17.279 34.7549ZM13.2846 34.7549C13.2846 35.3852 13.4006 35.86 13.6327 36.1793C13.8647 36.4986 14.2118 36.6578 14.6731 36.6578C15.5994 36.6578 16.0617 36.0238 16.0617 34.7549C16.0617 33.4842 15.6013 32.8483 14.6806 32.8483C14.2193 32.8483 13.8703 33.0094 13.6364 33.3306C13.4025 33.6499 13.2846 34.1247 13.2846 34.7549ZM22.2483 34.4468H21.874V32.9223H22.2258C22.6001 32.9223 22.8761 32.9785 23.053 33.0918C23.2326 33.2051 23.3224 33.3952 23.3224 33.663C23.3224 33.9337 23.2354 34.1313 23.0605 34.2577C22.8864 34.3841 22.6151 34.4468 22.2483 34.4468ZM21.874 37.584V35.4189H22.4916L23.7978 37.584H25.0852C24.8363 37.2141 24.2993 36.3937 23.4759 35.1258C23.8006 34.9788 24.0513 34.7774 24.2282 34.5199C24.405 34.2595 24.4939 33.9636 24.4939 33.6321C24.4939 33.0637 24.3152 32.6404 23.9587 32.3623C23.6022 32.0823 23.052 31.9418 22.3082 31.9418H20.7138V37.584H21.874V37.584ZM43.9268 34.7016C43.9268 35.6577 43.676 36.39 43.1754 36.8985C42.6767 37.407 41.9553 37.6617 41.0122 37.6617H39.502V31.8528H41.1768C42.047 31.8528 42.7235 32.1029 43.2054 32.6039C43.6863 33.1049 43.9268 33.8035 43.9268 34.7016ZM42.7525 34.7334C42.7525 33.486 42.2463 32.8623 41.2349 32.8623H40.6323V36.6447H41.1179C42.207 36.6447 42.7525 36.007 42.7525 34.7334ZM47.2736 37.6617H50.3454V36.6457H48.4049V35.1473H50.2107V34.1378H48.4049V32.8623H50.3454V31.8528H47.2736V37.6617V37.6617ZM53.7036 37.6617V31.8528H54.8348V36.6447H56.998V37.6617H53.7036ZM61.6726 34.5864H61.3002V32.8623H61.8149C62.1236 32.8623 62.3491 32.9316 62.4932 33.0693C62.6392 33.207 62.7122 33.4205 62.7122 33.7089C62.7122 33.9945 62.6261 34.2137 62.453 34.3644C62.2808 34.5124 62.0207 34.5864 61.6726 34.5864ZM63.3138 35.0996C63.674 34.768 63.8537 34.2905 63.8537 33.6649C63.8537 33.0637 63.6853 32.6123 63.3465 32.3098C63.0106 32.0055 62.5194 31.8528 61.8729 31.8528H60.169V37.6617H61.3002V35.5959H61.7858C62.4474 35.5959 62.9564 35.4301 63.3138 35.0996ZM71.4728 37.6617H70.3453V35.1548H68.2326V37.6617H67.1014V31.8528H68.2326V34.1294H70.3453V31.8528H71.4728V37.6617ZM75.0648 31.8528V37.6617H76.1961V31.8528H75.0648ZM28.9318 36.6878C29.1451 36.7112 29.3247 36.5314 29.3014 36.3179C29.2752 36.0744 29.2536 35.7747 29.2761 35.5678C29.4426 34.0198 30.6974 32.7827 32.2468 32.6413C33.0403 32.5692 33.7813 32.7781 34.3839 33.1807C34.4756 33.2416 34.5954 33.2388 34.6833 33.1733L35.8744 32.2939C35.9811 32.2153 35.983 32.0542 35.8763 31.9746C35.1062 31.3987 34.15 31.0578 33.1142 31.0578C30.5617 31.0578 28.492 33.1292 28.492 35.6839C28.492 35.9733 28.5191 36.2561 28.5697 36.5305C28.5828 36.6026 28.6436 36.6569 28.7166 36.6644L28.9318 36.6878ZM28.2843 36.376C28.2955 36.449 28.2422 36.5164 28.1673 36.5202C28.0887 36.5239 28.0176 36.4696 28.0008 36.3937C27.9362 36.0716 27.9016 35.7392 27.9016 35.3983C27.9016 32.5898 30.1762 30.3133 32.9823 30.3133C34.2585 30.3133 35.4244 30.7853 36.317 31.5635C36.4368 31.6674 36.4386 31.8519 36.3254 31.9615C36.2777 32.0074 36.2038 32.0092 36.1532 31.9662C35.3149 31.2591 34.2333 30.8321 33.0506 30.8321C30.3886 30.8321 28.23 32.9916 28.23 35.6568C28.23 35.9012 28.2487 36.1409 28.2843 36.376ZM32.4134 35.5622C32.4424 35.5622 33.9965 35.7832 34.4513 35.9536C34.8573 36.1063 35.0361 36.4705 35.138 36.6766C35.1502 36.7009 35.1614 36.7234 35.1708 36.743C35.2138 36.8264 35.298 37.0437 35.3823 37.2609C35.4141 37.3424 35.4459 37.4248 35.4749 37.4997C35.5685 37.8312 35.7593 38.0185 35.9324 38.1234C35.8024 37.6477 35.4786 36.508 35.2878 36.2626C35.0566 35.9667 34.9125 35.8618 34.7844 35.7701L34.7582 35.7513C34.6393 35.6652 32.7343 35.3618 32.4433 35.329C32.3292 35.3159 32.1916 35.358 32.0943 35.4367C32.0382 35.4816 31.968 35.5612 31.9558 35.6802C31.9296 35.9368 31.968 36.0557 32.1261 36.2102C32.2412 36.3216 32.7848 36.4696 33.0777 36.5492C33.1909 36.5801 33.2733 36.6026 33.3116 36.6166C33.3453 36.6288 33.4276 36.6457 33.524 36.6653L33.5278 36.6663C33.8328 36.7281 34.2903 36.8208 34.4428 36.9996C34.6169 37.2038 35.3748 39.3642 35.3149 39.485C35.3008 39.5131 35.2775 39.5599 34.5757 39.6442C34.4821 39.6554 34.0807 39.7032 33.9076 39.7032C33.8702 39.7032 33.8431 39.7013 33.8328 39.6957C33.8 39.6789 33.742 39.5965 33.5109 39.249C33.3182 38.9587 33.0777 38.5982 32.914 38.4006C32.6333 38.0616 32.1486 37.717 31.7612 37.5812C31.3673 37.4435 30.7488 37.3302 30.3297 37.3798C30.1509 37.4014 30.0143 37.4276 29.9123 37.451C29.946 37.5334 29.9825 37.6149 30.0237 37.6936C30.1294 37.6842 30.2361 37.6795 30.3437 37.6795C31.5947 37.6795 32.6772 38.3304 33.2031 39.279C33.3528 39.4972 33.5352 39.7444 33.6428 39.8886C33.6999 39.9654 33.7926 40.0066 33.8871 39.9991L35.5076 39.8662C35.6199 39.8568 35.6957 39.7482 35.6648 39.6395L35.6601 39.6227C35.5366 39.1928 35.2718 38.2751 35.1895 38.0148C35.1278 37.76 34.9968 37.3031 34.7825 36.9257C34.5982 36.6016 34.0377 36.4687 33.451 36.3291C33.0581 36.2355 32.6529 36.14 32.3423 35.9817C32.3217 35.9742 32.303 35.9648 32.2852 35.9517C32.2328 35.9124 32.1982 35.8506 32.1982 35.7794C32.1991 35.6586 32.2946 35.5622 32.4134 35.5622ZM35.7256 36.2992C35.7565 36.4565 36.1373 37.7535 36.2524 38.144C36.2674 38.1955 36.2197 38.2442 36.1682 38.2283C36.1327 38.217 36.0906 38.203 36.0456 38.1824C35.9343 37.7694 35.5778 36.4818 35.3607 36.2036C35.1221 35.8965 34.9715 35.7879 34.8386 35.6923L34.8124 35.6736C34.6562 35.5603 32.6117 35.2522 32.4536 35.2344C32.3161 35.2185 32.1514 35.2691 32.0354 35.3627C31.9353 35.4432 31.8754 35.5491 31.8632 35.6689C31.8333 35.9536 31.8819 36.1006 32.0616 36.2758C32.1832 36.3947 32.6183 36.5202 33.0534 36.6382C33.161 36.6672 33.2452 36.6906 33.2798 36.7028C33.32 36.7178 33.3977 36.7337 33.5053 36.7552C33.7795 36.8105 34.2389 36.9032 34.3717 37.0586C34.5579 37.2768 35.197 39.2088 35.2269 39.4373C35.0744 39.5 34.0068 39.6217 33.8749 39.6077C33.8393 39.5702 33.7121 39.3792 33.5895 39.1947C33.3958 38.9025 33.1535 38.5392 32.9869 38.3378C32.6969 37.9876 32.1944 37.6308 31.793 37.4903C31.3879 37.348 30.7526 37.2319 30.3194 37.2843C30.1294 37.3068 29.9835 37.3349 29.8777 37.3602C29.7523 37.0287 29.6831 36.6691 29.6831 36.2935C29.6831 34.6238 31.0361 33.2697 32.7044 33.2697C33.2929 33.2697 33.9413 33.457 34.4026 33.8082C35.2494 34.4525 35.5787 35.5622 35.7256 36.2992Z" fill="white"/>
</svg>
