<svg xmlns="http://www.w3.org/2000/svg"
     width="3.33333in" height="3.33333in"
     viewBox="0 0 300 300">
  <path fill="#e82633"
        d="M 149.94,300.00
           C 138.47,300.00 127.73,295.58 119.69,287.54
             110.07,277.92 106.11,264.44 107.85,251.56
             100.12,261.89 87.83,268.58 74.02,268.58
             50.56,268.58 31.47,249.52 31.47,226.10
             31.47,212.25 38.16,199.93 48.48,192.18
             46.53,192.44 44.55,192.58 42.55,192.58
             31.13,192.58 20.44,188.18 12.46,180.19
             4.43,172.16 0.00,161.42 0.00,149.94
             0.00,138.47 4.42,127.72 12.46,119.69
             20.41,111.74 31.05,107.37 42.44,107.37
             44.42,107.37 46.38,107.50 48.32,107.76
             38.06,100.02 31.42,87.78 31.42,74.02
             31.42,50.56 50.48,31.47 73.91,31.47
             87.80,31.47 100.16,38.21 107.91,48.59
             106.15,35.68 110.13,22.14 119.80,12.46
             127.84,4.43 138.58,0.00 150.06,0.00
             161.53,0.00 172.27,4.42 180.31,12.46
             189.93,22.08 193.90,35.55 192.16,48.43
             199.88,38.10 212.17,31.41 225.98,31.41
             249.44,31.41 268.53,50.47 268.53,73.90
             268.53,87.72 261.87,100.02 251.59,107.77
             253.56,107.50 255.55,107.37 257.56,107.37
             268.94,107.37 279.59,111.74 287.54,119.69
             295.57,127.72 300.00,138.47 300.00,149.94
             300.00,161.42 295.57,172.38 287.53,180.41
             279.55,188.39 268.87,193.00 257.45,193.00
             257.45,193.00 257.45,193.00 257.45,193.00
             255.48,193.00 253.53,192.66 251.61,192.40
             261.91,200.13 268.58,212.30 268.58,226.09
             268.58,249.55 249.52,268.58 226.10,268.58
             212.20,268.58 199.84,261.82 192.09,251.43
             193.86,264.35 189.87,277.88 180.20,287.55
             172.16,295.59 161.42,300.00 149.94,300.00 Z
           M 274.49,132.98
           C 265.08,123.58 249.83,124.00 240.42,133.00
             240.42,133.00 191.12,133.00 191.12,133.00
             191.12,133.00 225.98,98.12 225.98,98.12
             239.29,98.12 250.07,87.33 250.07,74.02
             250.07,60.72 239.29,49.93 225.98,49.93
             212.68,49.93 201.88,60.72 201.88,74.02
             201.88,74.02 167.00,108.88 167.00,108.88
             167.00,108.88 167.00,59.58 167.00,59.58
             176.00,50.17 176.42,34.92 167.02,25.51
             157.61,16.11 142.38,16.11 132.97,25.51
             123.57,34.92 124.00,50.17 133.00,59.58
             133.00,59.58 133.00,108.88 133.00,108.88
             133.00,108.88 98.12,74.02 98.12,74.02
             98.12,60.72 87.33,49.93 74.03,49.93
             60.72,49.93 49.93,60.72 49.93,74.02
             49.93,87.32 60.72,98.12 74.02,98.12
             74.02,98.12 108.88,133.00 108.88,133.00
             108.88,133.00 59.58,133.00 59.58,133.00
             50.17,124.00 34.92,123.58 25.51,132.98
             16.11,142.39 16.11,157.62 25.51,167.02
             34.92,176.43 50.17,176.00 59.58,167.00
             59.58,167.00 108.88,167.00 108.88,167.00
             108.88,167.00 74.02,201.88 74.02,201.88
             60.71,201.88 49.93,212.67 49.93,225.98
             49.93,239.28 60.71,250.07 74.02,250.07
             87.32,250.07 98.12,239.28 98.12,225.98
             98.12,225.98 133.00,191.12 133.00,191.12
             133.00,191.12 133.00,240.42 133.00,240.42
             124.00,249.83 123.58,265.08 132.98,274.49
             142.39,283.89 157.62,283.89 167.03,274.49
             176.43,265.08 176.00,249.83 167.00,240.42
             167.00,240.42 167.00,191.12 167.00,191.12
             167.00,191.12 201.88,225.98 201.88,225.98
             201.88,239.28 212.67,250.07 225.97,250.07
             239.28,250.07 250.07,239.28 250.07,225.98
             250.07,212.68 239.28,201.88 225.98,201.88
             225.98,201.88 191.12,167.00 191.12,167.00
             191.12,167.00 240.42,167.00 240.42,167.00
             249.83,176.00 265.08,176.43 274.49,167.02
             283.90,157.62 283.90,142.39 274.49,132.98 Z" />
</svg>
