<svg width="512" height="512">
  <path fill="#e82633"
        d="M 183.72,342.00
           C 183.72,342.00 73.14,342.00 73.14,342.00
             73.14,342.00 54.14,396.00 54.14,396.00
             54.14,396.00 8.92,396.00 8.92,396.00
             8.92,396.00 103.55,131.50 103.55,131.50
             103.55,131.50 153.70,131.50 153.70,131.50
             153.70,131.50 248.31,396.00 248.31,396.00
             248.31,396.00 202.72,396.00 202.72,396.00
             202.72,396.00 183.72,342.00 183.72,342.00 Z
           M 171.56,307.00
           C 171.56,307.00 128.62,184.03 128.62,184.03
             128.62,184.03 85.30,307.00 85.30,307.00
             85.30,307.00 171.56,307.00 171.56,307.00 Z
           M 332.00,216.95
           C 339.38,206.81 349.49,198.51 362.33,192.05
             375.16,185.58 389.46,182.34 405.23,182.34
             423.79,182.34 440.56,186.79 455.56,195.67
             470.56,204.56 482.38,217.19 491.03,233.56
             499.68,249.93 504.00,268.65 504.00,289.72
             504.00,310.79 499.68,329.64 491.03,346.27
             482.38,362.89 470.50,375.84 455.38,385.11
             440.25,394.37 423.54,399.00 405.23,399.00
             388.95,399.00 374.52,395.82 361.94,389.47
             349.36,383.12 339.38,374.98 332.00,365.08
             332.00,365.08 332.00,395.00 332.00,395.00
             332.00,395.00 289.00,395.00 289.00,395.00
             289.00,395.00 289.00,114.00 289.00,114.00
             289.00,114.00 332.00,114.00 332.00,114.00
             332.00,114.00 332.00,216.95 332.00,216.95 Z
           M 459.92,289.72
           C 459.92,275.24 456.93,262.73 450.95,252.20
             444.97,241.66 437.08,233.66 427.28,228.20
             417.48,222.73 406.97,220.00 395.77,220.00
             384.82,220.00 374.44,222.80 364.64,228.39
             354.85,233.98 346.96,242.10 340.97,252.77
             334.99,263.43 332.00,276.00 332.00,290.47
             332.00,304.96 334.99,317.60 340.97,328.39
             346.96,339.18 354.85,347.38 364.64,352.97
             374.44,358.55 384.82,361.34 395.77,361.34
             406.97,361.34 417.48,358.49 427.28,352.78
             437.08,347.06 444.97,338.75 450.95,327.83
             456.93,316.90 459.92,304.20 459.92,289.72 Z" />
</svg>
