<?xml version="1.0" encoding="UTF-8" standalone="no"?>
<svg
   xmlns:dc="http://purl.org/dc/elements/1.1/"
   xmlns:cc="http://creativecommons.org/ns#"
   xmlns:rdf="http://www.w3.org/1999/02/22-rdf-syntax-ns#"
   xmlns:svg="http://www.w3.org/2000/svg"
   xmlns="http://www.w3.org/2000/svg"
   xmlns:sodipodi="http://sodipodi.sourceforge.net/DTD/sodipodi-0.dtd"
   xmlns:inkscape="http://www.inkscape.org/namespaces/inkscape"
   version="1.1"
   id="svg2"
   xml:space="preserve"
   viewBox="0 0 10666.667 10666.667"
   sodipodi:docname="Delphi_FINAL_ICONS.eps"><metadata
     id="metadata8"><rdf:RDF><cc:Work
         rdf:about=""><dc:format>image/svg+xml</dc:format><dc:type
           rdf:resource="http://purl.org/dc/dcmitype/StillImage" /></cc:Work></rdf:RDF></metadata><defs
     id="defs6" /><sodipodi:namedview
     pagecolor="#ffffff"
     bordercolor="#666666"
     borderopacity="1"
     objecttolerance="10"
     gridtolerance="10"
     guidetolerance="10"
     inkscape:pageopacity="0"
     inkscape:pageshadow="2"
     inkscape:window-width="640"
     inkscape:window-height="480"
     id="namedview4" /><g
     id="g10"
     inkscape:groupmode="layer"
     inkscape:label="ink_ext_XXXXXX"
     transform="matrix(1.3333333,0,0,-1.3333333,0,10666.667)"><g
       id="g12"
       transform="scale(0.1)"><path
         d="M 98.3633,42777.6 C -1435.65,20740.5 15185.4,1632.41 37222.4,98.3984 59259.5,-1435.7 78367.6,15185.4 79901.6,37222.4 81435.7,59259.5 64814.6,78367.6 42777.6,79901.6 20740.5,81435.6 1632.38,64814.6 98.3633,42777.6"
         style="fill:#ee1f35;fill-opacity:1;fill-rule:nonzero;stroke:none"
         id="path14" /><path
         d="M 68170.1,68395.4 11832.6,11602 c 1.2,-1.2 2.3,-2.4 3.5,-3.6 15684.8,-15555.5 41010,-15450.7 56565.5,234.1 15554.6,15683.9 15450.7,41007.2 -231.5,56562.9"
         style="fill:#9d1a23;fill-opacity:1;fill-rule:nonzero;stroke:none"
         id="path16" /><path
         d="m 38151.5,28710.5 c 713.4,137.7 1411,277.3 2111.4,400.3 70.6,12.4 175.4,-58.6 236.3,-119 1012.5,-1006.2 1990.5,-2049.5 3038.9,-3016.6 879.2,-810.9 1838.2,-1535.4 2763.7,-2295.9 1319.2,-1084 2472.2,-2325.6 3464.4,-3711.7 1734.1,-2422.6 2987.6,-5073.7 3683.6,-7975 61.2,-255.1 -16.6,-569 -105.3,-829.9 -301.2,-886.5 -940.2,-1525.8 -1646.6,-2097.5 -989.6,-800.9 -2098.3,-1399.3 -3273.1,-1884.2 -244.2,-100.7 -332.8,-52.4 -442.2,186.7 -1209.5,2646 -2434.4,5284.9 -3653.6,7926.4 -1652.9,3581 -3304.4,7162.7 -4956.7,10743.9 -384.8,833.9 -771,1667.2 -1155.7,2501.1 -23.3,50.5 -39.8,104.3 -65.1,171.4"
         style="fill:#ffffff;fill-opacity:1;fill-rule:nonzero;stroke:none"
         id="path18" /><path
         d="m 45865,55596.8 c -515.9,-747.4 -1032.2,-1494.5 -1540.8,-2230.8 2840.1,-487 5089.5,-1655.6 6309.2,-2360.8 188,-85.8 303.6,-70.5 455.2,59.6 952.8,817.9 1910.4,1630.2 2871.8,2438 1900.4,1597 3805.7,3188.3 5706.3,4785.1 1998.1,1678.8 3993.4,3360.9 5989.2,5042.4 -3263.9,2320.7 -6952,4073.1 -10922.1,5113 -919.1,-1337.5 -1844.4,-2670.8 -2766.6,-4006.2 -2034.6,-2946.4 -4068.1,-5893.6 -6102.2,-8840.3"
         style="fill:#ffffff;fill-opacity:1;fill-rule:nonzero;stroke:none"
         id="path20" /><path
         d="m 35291.9,55305.2 c -214.9,-798.7 -446.7,-1659.6 -669.8,-2502.7 465.6,103.8 3231.7,1152 7188.8,888.2 190.8,-11.6 289.7,56.7 378.6,223.1 853,1596.7 1665.6,3118.5 2524,4712.2 1240.5,2302.9 2479.9,4606.3 3720,6909.3 664.2,1233.6 1328.8,2467.1 2011.5,3734.6 -1373.5,172.3 -2772.2,261.6 -4191.2,261.6 -2525.1,0 -4986.1,-281.7 -7354.3,-814.5 -68.4,-286.3 -149.5,-569.8 -226.1,-854.2 C 37546.3,63677 36418.3,59491.3 35291.9,55305.2"
         style="fill:#ffffff;fill-opacity:1;fill-rule:nonzero;stroke:none"
         id="path22" /><path
         d="m 25508.6,61614.7 c 66.3,-781.4 133.3,-1562.8 198.7,-2344.3 63.1,-752.9 122.3,-1506.2 187.1,-2259 65.6,-761.8 138.8,-1522.9 203.4,-2284.8 66.2,-782 125.8,-1564.6 188.6,-2347 60.5,-753.9 119.8,-1507.9 182.8,-2261.6 56.9,-680.8 114.3,-1396.2 177.1,-2116.8 773.8,756.2 3170.1,2893.1 6124.7,4119.8 137.5,57.1 273.8,88.2 308.5,309.1 184.6,1176.7 365.1,2152.2 570.3,3325.7 286.8,1641.2 573.3,3282.4 858.9,4923.7 357.7,2055.4 715.2,4110.9 1070.6,6166.7 55.9,323.3 105,648.2 158.7,993.6 -3757.1,-1245.4 -7225.2,-3139.1 -10273.2,-5549.5 -1.5,-6.1 -3.1,-12.2 -3.3,-18.1 -5,-218.7 28.4,-438.3 47.1,-657.5"
         style="fill:#ffffff;fill-opacity:1;fill-rule:nonzero;stroke:none"
         id="path24" /><path
         d="m 21566.9,43959.7 c 289.4,-582.6 626.1,-1264.4 924.3,-1863.5 628.8,1393.8 1942.7,3475.7 3181.3,4887.3 64.1,73.1 101.4,214.8 81.2,309.8 -208.1,978.9 -431.4,1896.6 -650.5,2873.2 -579.1,2581 -1158.5,5161.9 -1738.2,7742.8 -152.1,677.3 -305.6,1354.3 -475.3,2105.9 -227.3,-242.2 -404.7,-428.4 -579,-617.4 -728.3,-789.6 -1515.6,-1533.9 -2169.6,-2381 -880.9,-1141.1 -1688.3,-2338.7 -2519.2,-3518.5 -140.5,-226.7 -278.5,-455.1 -413.9,-685.3 0.1,-65.9 22.6,-132.5 60.4,-208.4 1435.7,-2880.2 2866.4,-5762.8 4298.5,-8644.9"
         style="fill:#ffffff;fill-opacity:1;fill-rule:nonzero;stroke:none"
         id="path26" /><path
         d="m 14683.9,42247.5 c 1667.5,-1472.5 3335.7,-2944 5004.2,-4415.3 380.1,-335.1 789.1,-693.8 1202.7,-1056.1 158.3,1248.7 582,2797.5 1059.6,4018.7 91.7,234.3 -0.3,373.2 -123,537.8 -1687.9,2264.2 -3392.6,4525.5 -5079.3,6790.6 -379.9,510.2 -763.2,1018 -1159.4,1546.2 -44.7,-84.1 -73.3,-131.7 -96.3,-182 -59.7,-130.6 -118.4,-261.5 -176.3,-392.7 -781.9,-1802.3 -1413,-3685.8 -1877.8,-5633.7 15.5,-66.8 50.2,-135.5 91.2,-174.1 376.5,-355.3 766.2,-696.6 1154.4,-1039.4"
         style="fill:#ffffff;fill-opacity:1;fill-rule:nonzero;stroke:none"
         id="path28" /><path
         d="m 19422,31259.4 c 446.4,-154.5 944.8,-329.4 1402.8,-489.4 -268.2,1657.6 -147.8,4009 -118.7,4515.5 11.9,206.4 -56.7,322.8 -238.5,434.9 -1890.8,1165.7 -3813.5,2350.3 -5699.4,3524 -625,388.9 -1251.3,776.2 -1909.3,1184.2 -232.7,-1610.2 -353.9,-3256.5 -353.9,-4930.7 0,-623.8 17.3,-1243.6 50.3,-1859.2 28.8,-16.2 62.4,-30.8 102.2,-44.4 2256.9,-772.4 4510.3,-1554.6 6764.5,-2334.9"
         style="fill:#ffffff;fill-opacity:1;fill-rule:nonzero;stroke:none"
         id="path30" /><path
         d="m 22579.2,24904.6 c -111.8,196.2 -229.5,227.5 -431.5,178.9 -1905.9,-458.2 -3864.6,-921.8 -5771.5,-1375.5 -541.5,-128.8 -1083.3,-259.1 -1636.2,-391.8 623,-1633.5 1367.3,-3206.9 2222,-4708.5 2348.5,1254 4703.4,2508.2 7054.9,3764.3 -910.1,1407 -997,1759 -1437.7,2532.6"
         style="fill:#ffffff;fill-opacity:1;fill-rule:nonzero;stroke:none"
         id="path32" /><path
         d="m 17521.5,26244.9 c 1045.9,8.9 2092,1.9 3138,1.9 435.6,0 871.3,0 1336.3,0 -26.8,103.2 -656.5,1902.7 -854.4,2834.8 -12.6,88.5 -159,205.2 -260.7,226.9 -2318.5,494.5 -4619,968.7 -6939.8,1452.4 -373.4,77.8 -749.3,148.3 -1139.8,223.9 216.2,-1638.4 547.9,-3240.5 987.5,-4797.3 8,0.1 15.8,0 24.1,0.2 1236.1,27.3 2472.4,46.7 3708.8,57.2"
         style="fill:#ffffff;fill-opacity:1;fill-rule:nonzero;stroke:none"
         id="path34" /><path
         d="m 30650.7,18356.3 c -141.4,-43.2 -290,-150.5 -376.8,-270.4 -959.7,-1325.6 -1908,-2659.5 -2857.8,-3992.4 -25.9,-36.3 -33.3,-85.8 -49.4,-129.1 -24.8,21.4 -49.6,42.7 -74.4,64.1 164.8,351 327.2,703.3 494.9,1053 554.1,1155.7 1106.8,2312.2 1670.9,3463.1 51.3,104.8 166.2,216.6 274.6,249.4 1144.3,346.5 2313,557.4 3506.7,660.1 884.6,76.2 1755.3,50.6 2623.9,-119.9 91.3,-18 180,-48.8 270,-73.6 -1910,137.9 -3701.2,-358.5 -5482.6,-904.3 z M 40865,19594.1 c -38.7,83.3 -159.2,171.2 -250,181.5 -1785.5,200.6 -3569.8,420.5 -5359.7,571.3 -1252.6,105.5 -2511.3,29.8 -3757.4,-146.7 -882.1,-124.9 -1745.8,-334.6 -2536.9,-768.4 -464.6,-254.8 -810.8,-596.7 -1021.3,-1112.6 -611.2,-1498.3 -1264.7,-2979.3 -1902.3,-4466.9 -331,-772.2 -663.4,-1543.9 -1016.1,-2364.6 82.9,24.8 115.5,33.5 147.4,44.3 1735,582.1 3533,749.1 5345.3,750.8 1080.8,0.9 2163.7,-75.9 3241.9,-164 1056.8,-86.2 2113.1,-201.8 3161.8,-357.4 1364.7,-202.4 2721.7,-457 4112.1,-694.3 653.6,1177.4 1324,2381.8 1987.2,3590 34.2,62.4 33.4,171.2 3.3,237.6 -712.6,1569.1 -1429.4,3136.4 -2155.3,4699.4"
         style="fill:#ffffff;fill-opacity:1;fill-rule:nonzero;stroke:none"
         id="path36" /><path
         d="m 32319.3,47691.9 c -2991.8,-2486.7 -5386.2,-5408.7 -6624.8,-9163.8 -345.1,-1046.5 -542.5,-2120.7 -639.2,-3219.8 -265.1,-3012.7 420,-5833 1732.9,-8515 483,-986.7 1083.3,-1915.9 1630,-2871.4 36.7,-64.1 72.8,-128.6 132.2,-233.9 -407.6,-207.6 -794.5,-414.3 -1190.9,-601.1 -135.2,-63.7 -272.5,-89.2 -382.7,103.8 -1147.4,2010.1 -2090.8,4105.1 -2663.2,6354.7 -398,1564.4 -623.2,3156.1 -562.1,4770.2 102.2,2698.8 858.9,5207.8 2285.7,7510.9 1246.2,2011.5 2835.3,3709 4676.4,5182.7 1569.7,1256.6 3257.2,2322 5082,3168 83.6,38.8 169.3,72.8 254,109 -1321,-765.8 -2564.3,-1625.2 -3730.3,-2594.3 z m 1916.2,-14350.7 c 1035.2,692.9 2056.3,1406.8 3084.8,2109.9 4136.3,2827.7 8273.2,5654.6 12410,8481.6 l 4608.6,3162.7 c -239.4,220 -449,423.8 -670.8,613.3 -1308.3,1118.1 -2711.8,2096.4 -4234.1,2904.6 -2376.2,1261.6 -4890.3,2075.5 -7580.1,2253.2 -1386.2,91.6 -2777.7,18 -4153.9,-218 -2069.2,-354.9 -4032.6,-1017 -5885.4,-2008 -2737,-1464 -5001.6,-3463.6 -6796,-5993.5 -2068,-2915.4 -3215.3,-6170.1 -3509.4,-9723.3 -117.9,-1424.5 -51.6,-2851.5 169.7,-4264.9 283.3,-1810.1 795.2,-3555.1 1567,-5219.9 857.2,-1849.2 1982.1,-3519.5 3374.1,-5007.5 338.3,-361.6 704.7,-696.8 1067.8,-1053.5 536.2,745.5 1264.8,1152 2071.3,1438.6 1445.2,513.7 2956.2,605.3 4467.6,639.2 841.2,18.8 1686.5,-39.6 2526.5,-105.8 953,-75 1902.7,-193.4 2852.9,-301.3 450.4,-51.1 898.6,-121.7 1390.8,-189.4 -1393.7,2926.4 -2765.7,5807.3 -4137.3,8687.4 -711.2,-140.3 -1383.8,-273 -2072.3,-408.8 -25.8,69.7 -48.3,113.2 -58,159.3 -241.4,1156.6 -467.7,2316.7 -731.6,3468.1 -66.3,289.2 7.9,422.1 237.8,576"
         style="fill:#ffffff;fill-opacity:1;fill-rule:nonzero;stroke:none"
         id="path38" /><path
         d="m 58321.3,37457.9 c -215.3,1324.4 -432.9,2648.4 -645.6,3973.2 -189.1,1177.4 -370.4,2356.2 -560,3533.6 -144.6,897.7 -295.6,1794.7 -449,2719.8 L 34967.8,32793.3 c -74,-67.1 -146.4,-194 -128.3,-265 177.6,-697.6 379.6,-1388.9 573.2,-2078.1 49,-2.5 78.7,-9.9 105.8,-4.5 1718.6,341.1 3436.1,687.7 5155.5,1024.4 3290.3,644.3 6582.2,1280.3 9872.3,1925 2636.5,516.6 5270.6,1044.8 7908.2,1554.8 231.8,44.8 253.8,140.8 221.9,330.5 -122,725.2 -237.1,1451.6 -355.1,2177.5"
         style="fill:#ffffff;fill-opacity:1;fill-rule:nonzero;stroke:none"
         id="path40" /></g></g></svg>
