<?xml version="1.0" encoding="UTF-8" standalone="no"?>
<svg
   xmlns:dc="http://purl.org/dc/elements/1.1/"
   xmlns:cc="http://creativecommons.org/ns#"
   xmlns:rdf="http://www.w3.org/1999/02/22-rdf-syntax-ns#"
   xmlns:svg="http://www.w3.org/2000/svg"
   xmlns="http://www.w3.org/2000/svg"
   xmlns:sodipodi="http://sodipodi.sourceforge.net/DTD/sodipodi-0.dtd"
   xmlns:inkscape="http://www.inkscape.org/namespaces/inkscape"
   version="1.1"
   id="svg2"
   xml:space="preserve"
   width="944.88"
   height="944.88"
   viewBox="0 0 944.88 944.88"
   sodipodi:docname="Primate 03.ai"><metadata
     id="metadata8"><rdf:RDF><cc:Work
         rdf:about=""><dc:format>image/svg+xml</dc:format><dc:type
           rdf:resource="http://purl.org/dc/dcmitype/StillImage" /></cc:Work></rdf:RDF></metadata><defs
     id="defs6"><clipPath
       clipPathUnits="userSpaceOnUse"
       id="clipPath18"><path
         d="M 0,708.66 H 708.66 V 0 H 0 Z"
         id="path16" /></clipPath><clipPath
       clipPathUnits="userSpaceOnUse"
       id="clipPath62"><path
         d="m 412.555,118.621 h 97.106 V 97.9941 h -97.106 z"
         id="path60" /></clipPath><clipPath
       clipPathUnits="userSpaceOnUse"
       id="clipPath94"><path
         d="M 285.06,421.747 H 550.382 V 182.257 H 285.06 Z"
         id="path92" /></clipPath><clipPath
       clipPathUnits="userSpaceOnUse"
       id="clipPath190"><path
         d="m 332.954,597.095 h 21.391 v -23.58 h -21.391 z"
         id="path188" /></clipPath><clipPath
       clipPathUnits="userSpaceOnUse"
       id="clipPath206"><path
         d="m 335.262,590.606 h 13.991 v -13.393 h -13.991 z"
         id="path204" /></clipPath><clipPath
       clipPathUnits="userSpaceOnUse"
       id="clipPath222"><path
         d="m 337.843,598.162 h 22.762 v -16.183 h -22.762 z"
         id="path220" /></clipPath><clipPath
       clipPathUnits="userSpaceOnUse"
       id="clipPath266"><path
         d="M 181.142,350.438 H 303.433 V 94.0524 H 181.142 Z"
         id="path264" /></clipPath><clipPath
       clipPathUnits="userSpaceOnUse"
       id="clipPath306"><path
         d="m 512.805,114.896 h 94.672 V 73.5293 h -94.672 z"
         id="path304" /></clipPath><clipPath
       clipPathUnits="userSpaceOnUse"
       id="clipPath386"><path
         d="m 261.741,589.905 h 35.043 v -8.729 h -35.043 z"
         id="path384" /></clipPath><clipPath
       clipPathUnits="userSpaceOnUse"
       id="clipPath402"><path
         d="m 239.287,578.058 h 12.688 v -8.383 h -12.688 z"
         id="path400" /></clipPath><clipPath
       clipPathUnits="userSpaceOnUse"
       id="clipPath422"><path
         d="M 193.16,598.548 H 320.862 V 477.98 H 193.16 Z"
         id="path420" /></clipPath><clipPath
       clipPathUnits="userSpaceOnUse"
       id="clipPath442"><path
         d="m 229.108,555.724 h 31.516 v -17.132 h -31.516 z"
         id="path440" /></clipPath><clipPath
       clipPathUnits="userSpaceOnUse"
       id="clipPath458"><path
         d="m 210.607,550.779 h 40.347 v -43.013 h -40.347 z"
         id="path456" /></clipPath><clipPath
       clipPathUnits="userSpaceOnUse"
       id="clipPath474"><path
         d="M 316.66,673.148 H 426.126 V 604.622 H 316.66 Z"
         id="path472" /></clipPath><clipPath
       clipPathUnits="userSpaceOnUse"
       id="clipPath498"><path
         d="M 296.68,319.354 H 498.231 V 186.266 H 296.68 Z"
         id="path496" /></clipPath><clipPath
       clipPathUnits="userSpaceOnUse"
       id="clipPath522"><path
         d="m 433.002,354.116 h 68.856 v -90.662 h -68.856 z"
         id="path520" /></clipPath><clipPath
       clipPathUnits="userSpaceOnUse"
       id="clipPath538"><path
         d="m 514.991,340.389 h 91.363 v -53.05 h -91.363 z"
         id="path536" /></clipPath><clipPath
       clipPathUnits="userSpaceOnUse"
       id="clipPath554"><path
         d="m 279.097,533.052 h 122.38 v -38.745 h -122.38 z"
         id="path552" /></clipPath><clipPath
       clipPathUnits="userSpaceOnUse"
       id="clipPath570"><path
         d="m 344.452,601.219 h 16.29 v -3.955 h -16.29 z"
         id="path568" /></clipPath><clipPath
       clipPathUnits="userSpaceOnUse"
       id="clipPath610"><path
         d="m 210.475,480.856 h 39.988 v -68.287 h -39.988 z"
         id="path608" /></clipPath><clipPath
       clipPathUnits="userSpaceOnUse"
       id="clipPath634"><path
         d="m 456.634,110.857 h 33.917 V 96.3085 h -33.917 z"
         id="path632" /></clipPath></defs><sodipodi:namedview
     pagecolor="#ffffff"
     bordercolor="#666666"
     borderopacity="1"
     objecttolerance="10"
     gridtolerance="10"
     guidetolerance="10"
     inkscape:pageopacity="0"
     inkscape:pageshadow="2"
     inkscape:window-width="640"
     inkscape:window-height="480"
     id="namedview4" /><g
     id="g10"
     inkscape:groupmode="layer"
     inkscape:label="Primate 03"
     transform="matrix(1.3333333,0,0,-1.3333333,0,944.88)"><g
       id="g12"><g
         id="g14"
         clip-path="url(#clipPath18)"><g
           id="g20"
           transform="translate(237.5972,109.9825)"><path
             d="m 0,0 c 0,0 -0.568,13.141 -13.346,14.474 -3.572,5.872 -13.987,11.383 -16.592,6.054 -2.603,-5.328 -1.998,-24.66 3.392,-33.19 5.389,-8.53 20.849,-5.745 20.849,-5.745 0,0 7.478,7.809 5.697,18.407"
             style="fill:#b7b3a7;fill-opacity:1;fill-rule:nonzero;stroke:none"
             id="path22" /></g><g
           id="g24"
           transform="translate(221.9062,79.6612)"><path
             d="m 0,0 c 0,0 10.821,-3.249 12.85,4.597 2.029,7.846 6.223,9.741 9.2,12.31 2.976,2.571 1.353,9.498 -6.359,14.76 C 7.98,36.929 -2.165,38.28 -3.518,30.569 -4.87,22.86 2.163,17.659 2.163,17.659 c 0,0 -7.709,2.765 -8.52,-5.216 C -5.954,2.569 0,0 0,0"
             style="fill:#ccc9c0;fill-opacity:1;fill-rule:nonzero;stroke:none"
             id="path26" /></g><g
           id="g28"
           transform="translate(189.0347,146.6202)"><path
             d="m 0,0 c 0,0 17.722,3.651 18.802,-10.821 1.083,-14.475 3.313,-25.778 2.796,-29.368 -0.516,-3.592 14.927,-25.417 20.877,-25.284 1.895,-1.892 -2.704,-9.604 -23.133,-2.706 C -1.083,-61.279 0,0 0,0"
             style="fill:#d8ccc3;fill-opacity:1;fill-rule:nonzero;stroke:none"
             id="path30" /></g><g
           id="g32"
           transform="translate(225.6938,97.3204)"><path
             d="M 0,0 C 0,0 8.523,-1.82 11.903,0 10.145,-3.321 1.487,-2.901 0,0"
             style="fill:#9b978e;fill-opacity:1;fill-rule:nonzero;stroke:none"
             id="path34" /></g><g
           id="g36"
           transform="translate(219.7495,113.3604)"><path
             d="m 0,0 c 0,0 1.338,-5.98 10.701,-6.162 9.362,-0.18 5.622,5.479 1.195,7.221 C 7.469,2.8 1.361,3.128 0,0"
             style="fill:#190f01;fill-opacity:1;fill-rule:nonzero;stroke:none"
             id="path38" /></g><g
           id="g40"
           transform="translate(224.1646,124.5918)"><path
             d="M 0,0 C 0,0 -7.732,0.631 -5.377,-11.824 -5.117,-9.329 -6.207,-2.309 0,0"
             style="fill:#9b978e;fill-opacity:1;fill-rule:nonzero;stroke:none"
             id="path42" /></g><g
           id="g44"
           transform="translate(222.5762,127.4747)"><path
             d="M 0,0 C 0,0 -6.515,7.824 -13.372,6.923 -16.98,6.445 5.673,-9.966 0,0"
             style="fill:#190f01;fill-opacity:1;fill-rule:nonzero;stroke:none"
             id="path46" /></g><g
           id="g48"
           transform="translate(235.772,118.7735)"><path
             d="M 0,0 C 0,0 -3.218,7.401 -13.712,6.435 -16.652,6.165 2.575,-8.153 0,0"
             style="fill:#190f01;fill-opacity:1;fill-rule:nonzero;stroke:none"
             id="path50" /></g><g
           id="g52"
           transform="translate(465.5566,137.9141)"><path
             d="m 0,0 c 0,0 3.943,-16.55 -8.442,-17.789 -16.101,0.449 -19.817,-2.478 -19.817,-2.478 0,0 -8.221,1.691 -11.824,0 -3.602,-1.689 -16.1,-12.725 -12.159,-14.749 3.941,-2.027 8.461,-0.572 8.461,-0.572 0,0 5.164,-7.364 19.687,-2.89 6.079,1.66 7.882,4.587 7.882,4.587 l 6.981,-1.464 c 0,0 24.996,-0.113 32.765,-0.337 7.77,-0.225 26.347,-5.405 18.804,8.556 -7.657,22.182 -24.209,35.58 -24.209,35.58 z"
             style="fill:#d8ccc3;fill-opacity:1;fill-rule:nonzero;stroke:none"
             id="path54" /></g><g
           id="g56"><g
             id="g58" /><g
             id="g70"><g
               clip-path="url(#clipPath62)"
               opacity="0.699997"
               id="g68"><g
                 transform="translate(507.8945,110.7784)"
                 id="g66"><path
                   d="M 0,0 C -0.951,2.754 -2.039,5.371 -3.213,7.843 -3.336,7.503 -3.433,7.092 -3.495,6.6 c -0.978,-7.686 -13.742,-8.791 -13.742,-8.791 0,0 -8.033,11.536 -20.706,9.598 -2.705,-0.412 -4.35,-1.825 -6.385,-2.717 -9.72,-4.259 -15.238,-5.255 -15.238,-5.255 0,0 -2.932,-4.232 -11.202,-6.251 -8.27,-2.019 -11.006,4.558 -11.006,4.558 0,0 -1.431,-2.28 -5.536,-1.237 -2.85,0.723 -1.426,4.429 -0.292,6.626 -4.605,-3.943 -9.693,-9.618 -6.978,-11.011 3.941,-2.027 8.461,-0.572 8.461,-0.572 0,0 5.164,-7.364 19.687,-2.89 6.079,1.659 7.882,4.587 7.882,4.587 l 6.981,-1.465 c 0,0 24.996,-0.112 32.765,-0.337 C -11.034,-8.781 7.543,-13.961 0,0"
                   style="fill:#b5aca7;fill-opacity:1;fill-rule:nonzero;stroke:none"
                   id="path64" /></g></g></g></g><g
           id="g72"
           transform="translate(421.0859,189.5957)"><path
             d="m 0,0 c 0,0 -4.507,-18.126 11.033,-26.686 15.538,-8.556 36.48,-18.801 33.103,-37.943 5.629,12.274 13.625,10.021 18.241,0.787 3.151,4.054 6.305,3.829 7.204,0.902 1.239,3.827 3.268,9.345 5.52,3.377 2.251,-5.967 8.442,-19.59 13.397,-25.22 -1.014,25.22 -0.902,37.832 18.578,55.057 1.464,24.884 -30.401,54.609 -30.401,54.609 z"
             style="fill:#000000;fill-opacity:1;fill-rule:nonzero;stroke:none"
             id="path74" /></g><g
           id="g76"
           transform="translate(230.2476,495.7945)"><path
             d="m 0,0 c 0,0 -31.47,-23.465 -43.617,-58.801 -12.146,-35.334 -28.986,-57.696 -57.971,-65.424 13.249,-1.933 16.011,0 16.011,0 0,0 -10.49,-10.319 -19.325,-7.645 2.762,-2.57 4.418,-2.57 4.418,-2.57 l -5.796,-1.933 c 0,0 1.656,-3.311 0,-9.385 -1.658,-6.074 -21.258,-14.63 -38.373,-49.413 -17.117,-34.785 -29.815,-76.469 16.287,-151.005 11.871,-20.981 17.393,-42.485 17.393,-52.298 1.932,-5.399 9.66,-4.017 9.66,-4.017 l 25.123,-0.157 c 0,0 -11.597,147.847 -6.351,168.276 5.247,20.428 60.183,100.761 60.183,100.761 L 64.36,7.454 49.137,47.483 C 49.137,47.483 36.715,72.328 0,0"
             style="fill:#0c0a0a;fill-opacity:1;fill-rule:nonzero;stroke:none"
             id="path78" /></g><g
           id="g80"
           transform="translate(273.1304,519.9263)"><path
             d="m 0,0 -34.938,36.405 c 0,0 -46.974,12.331 24.956,61.069 0,0 40.809,22.9 39.341,37.579 -1.175,7.339 -2.348,12.037 4.991,15.56 7.339,3.523 36.112,15.56 88.371,-32.883 52.261,-48.442 80.572,-94.482 78.112,-197.835 0.41,-35.682 5.742,-103.354 86.126,-93.511 67.262,-3.28 49.627,-7.383 79.567,-55.777 18.865,-34.45 9.842,-42.242 4.1,-57.417 -5.741,-15.177 -91.459,-25.428 -139.034,-31.99 -47.574,-6.564 -111.554,-38.962 -165.281,0 -53.728,38.961 -46.755,80.794 -41.835,120.988 C 20.786,-155.979 -22.015,-29.811 0,0"
             style="fill:#141111;fill-opacity:1;fill-rule:nonzero;stroke:none"
             id="path82" /></g><g
           id="g84"
           transform="translate(639.6562,290.5332)"><path
             d="m 0,0 c -29.939,48.395 -12.305,52.497 -79.566,55.777 -80.385,-9.842 -85.717,57.829 -86.126,93.511 0.042,1.782 0.072,3.543 0.096,5.294 -5.701,-24.841 -19.484,-82.022 -29.925,-102.204 -13.496,-26.085 -53.51,-114.025 16.285,-122.866 23.732,-2.794 40.945,28.848 63.281,60.023 C -93.62,20.708 -11.246,-38.763 4.101,-57.417 9.842,-42.242 18.865,-34.45 0,0"
             style="fill:#c4c1c6;fill-opacity:1;fill-rule:nonzero;stroke:none"
             id="path86" /></g><g
           id="g88"><g
             id="g90" /><g
             id="g102"><g
               clip-path="url(#clipPath94)"
               opacity="0.399994"
               id="g100"><g
                 transform="translate(548.3262,212.8526)"
                 id="g98"><path
                   d="M 0,0 C -22.38,-0.746 -35.058,50.732 -41.027,87.288 -54.456,3.729 -161.889,55.204 -171.588,83.554 c -9.699,28.349 51.481,67.889 51.481,67.889 l -57.452,57.451 c 0,0 -52,-20.801 -85.707,-37.799 5.942,-25.421 11.339,-48.144 12.546,-61.833 -4.92,-40.195 -11.893,-82.028 41.835,-120.989 53.727,-38.961 117.707,-6.563 165.281,0 11.5,1.585 25.232,3.389 39.522,5.424 C 1.946,-2.271 3.981,0.132 0,0"
                   style="fill:#000000;fill-opacity:1;fill-rule:nonzero;stroke:none"
                   id="path96" /></g></g></g></g><g
           id="g104"
           transform="translate(360.043,630.2335)"><path
             d="m 0,0 c -25.399,14.11 -65.408,0.83 -89.314,-20.419 -17.629,-15.673 -14.222,-6.605 -11.217,0.102 -63.859,-45.525 -19.403,-57.205 -19.403,-57.205 l 10.552,-10.995 16.084,-7.975 c 0,0 0.501,-4.774 9.463,-11.249 0.499,3.984 0,6.308 0,6.308 l 2.951,-6.308 v 2.823 l 2.143,-3.985 0.527,6.205 0.584,-6.205 c 0,0 8.84,-0.666 18.417,6.805 l -0.551,3.819 1.662,-2.323 v 1.992 l 1.327,-1.162 c 0,0 12.118,8.447 16.435,13.437 0.167,4.99 1.328,6.534 1.328,6.534 v -6.534 l 1.749,6.534 0.908,-2.697 v 3.809 l 1.826,-2.326 c 0,0 5.809,3.151 19.257,25.067 C -1.825,-34.032 25.401,-14.111 0,0"
             style="fill:#000000;fill-opacity:1;fill-rule:nonzero;stroke:none"
             id="path106" /></g><g
           id="g108"
           transform="translate(358.127,633.8541)"><path
             d="m 0,0 c -25.4,14.11 -65.41,0.83 -89.314,-20.419 -17.631,-15.673 -14.22,-6.606 -11.218,0.102 -63.859,-45.525 -19.403,-57.205 -19.403,-57.205 l 10.553,-10.997 16.084,-7.973 c 0,0 0.5,-4.774 9.463,-11.249 0.499,3.984 0,6.308 0,6.308 l 2.95,-6.308 v 2.822 l 2.143,-3.984 0.528,6.204 0.583,-6.204 c 0,0 8.841,-0.666 18.418,6.805 l -0.551,3.819 1.661,-2.325 v 1.993 l 1.326,-1.161 c 0,0 12.119,8.446 16.436,13.436 0.167,4.991 1.33,6.535 1.33,6.535 v -6.535 l 1.746,6.535 0.91,-2.697 v 3.809 l 1.826,-2.327 c 0,0 5.808,3.151 19.257,25.068 C -1.825,-34.032 25.4,-14.111 0,0"
             style="fill:#0c0a0a;fill-opacity:1;fill-rule:nonzero;stroke:none"
             id="path110" /></g><g
           id="g112"
           transform="translate(232.7397,592.1148)"><path
             d="M 0,0 C 0,0 -4.698,-17.757 9.709,-12.879 24.118,-8.001 44.879,8.675 64.732,6.181 84.586,3.684 88.445,-9.591 88.103,-15.489 87.76,-21.388 63.03,-31.94 52.366,-36.249 41.704,-40.56 33.196,-48.046 30.358,-64.61 c -2.836,-16.563 -10.437,-45.491 -35.282,-49.462 -17.469,-0.907 -24.729,8.281 -24.729,8.281 0,0 9.301,4.993 9.074,6.353 -6.465,-2.836 -12.705,-2.154 -12.705,-2.154 0,0 10.323,14.407 11.683,19.058 -7.486,-10.55 -12.591,-14.18 -12.591,-14.18 0,0 7.488,20.873 12.366,25.297 -7.715,-9.869 -12.366,-20.532 -12.366,-20.532 0,0 -1.135,17.812 10.097,29.949 -8.621,-10.891 -13.727,-20.876 -14.294,-31.766 -2.496,16.11 0.794,26.547 9.415,34.601 -11.005,-5.671 -11.005,-14.066 -11.005,-14.066 0,0 1.249,11.003 7.262,15.882 6.012,4.879 8.055,12.707 6.807,20.08 -1.248,7.375 18.149,-0.793 18.149,-0.793 0,0 7.938,1.155 13.213,2.279 C -5.039,-33.978 -21.438,-23.823 0,0"
             style="fill:#d2d1d3;fill-opacity:1;fill-rule:nonzero;stroke:none"
             id="path114" /></g><g
           id="g116"
           transform="translate(251.3413,573.1573)"><path
             d="m 0,0 c -4.023,-0.467 -9.273,-1.425 -10.672,-2.75 0,0 -0.237,-3.915 4.768,-4.038 C -0.898,-6.911 1.791,-2.306 0,0"
             style="fill:#450000;fill-opacity:1;fill-rule:nonzero;stroke:none"
             id="path118" /></g><g
           id="g120"
           transform="translate(242.0732,571.1998)"><path
             d="M 0,0 C 0,0 -0.909,-4.244 4.097,-4.367 9.101,-4.489 11.113,0.442 9.322,2.748 5.3,2.282 1.398,1.326 0,0"
             style="fill:#ffffff;fill-opacity:1;fill-rule:nonzero;stroke:none"
             id="path122" /></g><g
           id="g124"
           transform="translate(247.7153,567.3008)"><path
             d="m 0,0 c -5.005,0.123 -4.098,4.366 -4.098,4.366 0.516,0.489 1.377,0.928 2.456,1.31 -1.798,-0.478 -3.256,-1.073 -4,-1.777 0,0 -0.909,-4.244 4.097,-4.367 1.085,-0.027 2.02,0.195 2.816,0.565 C 0.868,0.031 0.451,-0.01 0,0"
             style="fill:#f2f2f2;fill-opacity:1;fill-rule:nonzero;stroke:none"
             id="path126" /></g><g
           id="g128"
           transform="translate(251.395,573.9473)"><path
             d="M 0,0 C -0.994,-0.116 -2.674,-0.383 -3.618,-0.556 -4.28,-1.302 -4.69,-2.309 -4.69,-3.422 c 0,-1.343 0.575,-2.807 2.209,-3.161 C 0.448,-5.27 1.415,-1.82 0,0"
             style="fill:#180a0a;fill-opacity:1;fill-rule:nonzero;stroke:none"
             id="path130" /></g><g
           id="g132"
           transform="translate(261.1655,537.7159)"><path
             d="m 0,0 c 0,0 -0.125,-0.097 -0.397,-0.23 -0.132,-0.079 -0.304,-0.148 -0.513,-0.216 -0.207,-0.074 -0.444,-0.173 -0.728,-0.201 -0.28,-0.031 -0.592,-0.131 -0.935,-0.12 -0.346,0.005 -0.72,0.01 -1.12,0.016 -0.392,0.077 -0.809,0.16 -1.249,0.246 -0.458,0.054 -0.861,0.312 -1.328,0.472 -0.955,0.306 -1.795,0.965 -2.768,1.539 -0.888,0.636 -1.825,1.307 -2.794,2.002 -1.941,1.374 -4.019,2.825 -6.152,4.186 -1.058,0.695 -2.134,1.36 -3.201,2 -0.536,0.315 -1.068,0.627 -1.594,0.936 -0.533,0.297 -1.058,0.589 -1.576,0.877 -1.049,0.545 -2.053,1.101 -3.038,1.555 -0.973,0.483 -1.918,0.879 -2.785,1.264 -0.882,0.344 -1.688,0.676 -2.415,0.934 -0.733,0.236 -1.368,0.473 -1.904,0.615 -1.076,0.294 -1.69,0.462 -1.69,0.462 0,0 0.632,-0.071 1.743,-0.229 0.554,-0.084 1.214,-0.251 1.981,-0.408 0.761,-0.178 1.611,-0.422 2.53,-0.712 0.909,-0.317 1.903,-0.645 2.915,-1.087 1.028,-0.406 2.081,-0.904 3.163,-1.433 1.074,-0.542 2.181,-1.111 3.271,-1.749 1.089,-0.637 2.189,-1.298 3.267,-1.991 1.073,-0.701 2.131,-1.421 3.16,-2.15 1.033,-0.721 2.016,-1.476 2.969,-2.202 0.957,-0.722 1.85,-1.466 2.704,-2.142 0.434,-0.307 0.856,-0.606 1.265,-0.895 0.393,-0.322 0.824,-0.532 1.241,-0.732 0.811,-0.472 1.629,-0.677 2.355,-0.908 0.374,-0.046 0.725,-0.088 1.049,-0.128 0.328,-0.048 0.626,0.017 0.901,0.018 0.277,-0.001 0.511,0.066 0.722,0.105 0.212,0.036 0.389,0.079 0.526,0.137 C -0.141,-0.08 0,0 0,0"
             style="fill:#000000;fill-opacity:1;fill-rule:nonzero;stroke:none"
             id="path134" /></g><g
           id="g136"
           transform="translate(239.7324,556.8707)"><path
             d="m 0,0 c 0,0 -3.415,5.119 -2.185,7.503 1.23,2.384 4.922,-4.921 8.152,-3 3.229,1.923 17.379,16.766 21.761,10.69 4.384,-6.075 12.903,-25.816 -10.552,-23.586 0,0 -3.797,9.882 -17.176,8.393"
             style="fill:#aca7af;fill-opacity:1;fill-rule:nonzero;stroke:none"
             id="path138" /></g><g
           id="g140"
           transform="translate(247.6138,556.2022)"><path
             d="M 0,0 C 0,0 13.752,6.825 17.417,3.965 21.082,1.104 15.401,-6.063 8.5,-6.212 6.904,-3.818 2.567,-0.361 0,0"
             style="fill:#160702;fill-opacity:1;fill-rule:nonzero;stroke:none"
             id="path142" /></g><g
           id="g144"
           transform="translate(241.6187,557.0098)"><path
             d="m 0,0 c 0,0 -0.029,0.347 -0.08,0.479 -0.333,0.838 -1.616,3.862 -2.678,3.22 -1.229,-0.742 1.219,-3.803 1.219,-3.803"
             style="fill:#160702;fill-opacity:1;fill-rule:nonzero;stroke:none"
             id="path146" /></g><g
           id="g148"
           transform="translate(252.7734,577.087)"><path
             d="m 0,0 c 0,0 1.769,-2.966 -1.23,-3.572 -2.999,-0.605 -11.151,-2.528 -12.149,-5.142 0.152,2.767 3.823,4.21 6.948,5.142 C -3.307,-2.639 0.078,-1.281 0,0"
             style="fill:#0c0a0a;fill-opacity:1;fill-rule:nonzero;stroke:none"
             id="path150" /></g><g
           id="g152"
           transform="translate(272.2251,573.8458)"><path
             d="m 0,0 c 0,0 0.399,-0.303 1.124,-0.793 0.717,-0.499 1.783,-1.152 3.089,-1.872 1.303,-0.727 2.892,-1.442 4.643,-2.043 1.747,-0.601 3.701,-1.001 5.653,-0.981 0.974,0.006 1.947,0.106 2.877,0.336 0.467,0.106 0.913,0.272 1.358,0.419 0.423,0.203 0.869,0.347 1.258,0.588 0.798,0.441 1.541,0.932 2.181,1.482 0.661,0.528 1.196,1.128 1.702,1.669 0.449,0.589 0.917,1.092 1.24,1.606 0.339,0.502 0.658,0.928 0.862,1.314 0.447,0.754 0.702,1.184 0.702,1.184 0,0 -0.212,-0.454 -0.584,-1.249 -0.174,-0.406 -0.459,-0.857 -0.763,-1.391 -0.284,-0.547 -0.715,-1.094 -1.154,-1.714 -0.49,-0.578 -1.011,-1.221 -1.67,-1.802 -0.635,-0.601 -1.384,-1.163 -2.226,-1.629 -0.406,-0.26 -0.873,-0.422 -1.317,-0.642 -0.467,-0.164 -0.938,-0.346 -1.429,-0.466 -0.981,-0.258 -2.007,-0.382 -3.033,-0.402 -2.055,0.011 -4.072,0.463 -5.856,1.107 -0.899,0.311 -1.732,0.7 -2.509,1.086 C 5.375,-3.799 4.66,-3.4 4.017,-3.003 2.726,-2.218 1.729,-1.448 1.043,-0.902 0.36,-0.35 0,0 0,0"
             style="fill:#000000;fill-opacity:1;fill-rule:nonzero;stroke:none"
             id="path154" /></g><g
           id="g156"
           transform="translate(272.1519,570.8336)"><path
             d="m 0,0 c 0,0 0.306,-0.29 0.84,-0.797 0.527,-0.514 1.319,-1.207 2.251,-2.053 0.932,-0.847 2.064,-1.783 3.279,-2.778 1.221,-0.985 2.539,-2.021 3.933,-2.942 0.673,-0.496 1.38,-0.938 2.075,-1.377 0.682,-0.462 1.411,-0.81 2.089,-1.199 0.685,-0.376 1.381,-0.666 2.021,-0.989 0.652,-0.296 1.298,-0.496 1.881,-0.725 0.588,-0.21 1.153,-0.307 1.642,-0.454 0.49,-0.157 0.932,-0.189 1.296,-0.23 0.731,-0.092 1.149,-0.145 1.149,-0.145 0,0 -0.422,0.003 -1.16,0.01 -0.371,0.006 -0.825,-0.002 -1.331,0.11 -0.506,0.098 -1.099,0.145 -1.708,0.333 -0.604,0.197 -1.279,0.366 -1.961,0.63 -0.668,0.29 -1.405,0.541 -2.105,0.92 -0.697,0.384 -1.45,0.728 -2.15,1.183 -0.715,0.433 -1.444,0.867 -2.134,1.36 -1.398,0.962 -2.71,2.034 -3.925,3.051 -1.209,1.026 -2.263,2.066 -3.16,2.958 C 1.044,-1.328 0,0 0,0"
             style="fill:#000000;fill-opacity:1;fill-rule:nonzero;stroke:none"
             id="path158" /></g><g
           id="g160"
           transform="translate(271.1035,568.7569)"><path
             d="m 0,0 c 0,0 0.524,-1.207 1.367,-2.976 0.41,-0.89 0.94,-1.904 1.499,-2.989 0.56,-1.084 1.199,-2.219 1.905,-3.306 0.686,-1.101 1.437,-2.156 2.21,-3.085 0.392,-0.459 0.783,-0.892 1.177,-1.279 0.399,-0.381 0.796,-0.721 1.187,-1.001 0.392,-0.278 0.77,-0.506 1.116,-0.691 0.353,-0.172 0.67,-0.304 0.944,-0.38 0.267,-0.099 0.491,-0.125 0.64,-0.163 0.151,-0.032 0.231,-0.049 0.231,-0.049 0,0 -0.082,0.004 -0.235,0.012 -0.152,0.016 -0.387,-0.004 -0.668,0.069 -0.29,0.043 -0.629,0.139 -1.015,0.273 -0.38,0.145 -0.804,0.335 -1.23,0.602 -0.429,0.261 -0.867,0.584 -1.312,0.95 -0.437,0.372 -0.88,0.786 -1.297,1.252 -0.845,0.922 -1.626,2.002 -2.337,3.118 C 3.487,-8.515 2.867,-7.348 2.326,-6.236 1.784,-5.125 1.367,-4.047 1.007,-3.129 0.313,-1.28 0,0 0,0"
             style="fill:#000000;fill-opacity:1;fill-rule:nonzero;stroke:none"
             id="path162" /></g><g
           id="g164"
           transform="translate(308.6812,577.9083)"><path
             d="m 0,0 c 0,0 0.525,-0.934 0.878,-2.501 0.161,-0.783 0.31,-1.717 0.287,-2.73 -0.023,-0.504 -0.063,-1.03 -0.153,-1.555 -0.11,-0.523 -0.2,-1.062 -0.406,-1.57 -0.163,-0.523 -0.422,-1.004 -0.687,-1.473 -0.222,-0.494 -0.617,-0.865 -0.909,-1.28 -0.301,-0.413 -0.715,-0.699 -1.044,-1.022 -0.324,-0.334 -0.724,-0.532 -1.049,-0.766 -0.336,-0.22 -0.63,-0.44 -0.94,-0.553 -0.296,-0.132 -0.554,-0.247 -0.766,-0.342 -0.425,-0.18 -0.669,-0.282 -0.669,-0.282 0,0 0.221,0.146 0.606,0.403 0.193,0.123 0.427,0.272 0.696,0.444 0.279,0.153 0.534,0.414 0.843,0.647 0.291,0.256 0.656,0.475 0.935,0.823 0.284,0.338 0.643,0.64 0.912,1.035 0.257,0.401 0.598,0.766 0.799,1.226 0.239,0.438 0.473,0.887 0.617,1.375 0.207,0.465 0.304,0.966 0.424,1.453 0.098,0.489 0.15,0.985 0.187,1.462 0.005,0.48 0.051,0.945 0.021,1.389 0.001,0.445 -0.051,0.862 -0.09,1.25 -0.103,0.771 -0.2,1.421 -0.316,1.864 C 0.076,-0.254 0,0 0,0"
             style="fill:#000000;fill-opacity:1;fill-rule:nonzero;stroke:none"
             id="path166" /></g><g
           id="g168"
           transform="translate(272.1826,578.7711)"><path
             d="M 0,0 C 0,0 -1.424,-6.652 6.42,-6.845 14.263,-7.037 18.622,0.876 15.813,4.491 9.507,3.76 2.19,2.076 0,0"
             style="fill:#450000;fill-opacity:1;fill-rule:nonzero;stroke:none"
             id="path170" /></g><g
           id="g172"
           transform="translate(272.1519,579.1768)"><path
             d="M 0,0 C 0,0 -1.423,-6.651 6.421,-6.844 14.264,-7.036 17.418,0.692 14.612,4.306 8.305,3.576 2.192,2.077 0,0"
             style="fill:#ffffff;fill-opacity:1;fill-rule:nonzero;stroke:none"
             id="path174" /></g><g
           id="g176"
           transform="translate(286.7637,583.4825)"><path
             d="m 0,0 c -1.559,-0.18 -3.106,-0.408 -4.584,-0.68 -1.037,-1.17 -1.684,-2.746 -1.684,-4.49 0,-2.104 0.943,-3.956 2.38,-5.147 C 0.703,-8.258 2.217,-2.854 0,0"
             style="fill:#180a0a;fill-opacity:1;fill-rule:nonzero;stroke:none"
             id="path178" /></g><g
           id="g180"
           transform="translate(340.603,596.0577)"><path
             d="m 0,0 c 0,0 14.32,10.983 19.882,1.807 5.562,-9.177 -14.6,-37.576 -27.531,-24.35 0,0 8.066,11.001 7.649,22.543"
             style="fill:#e2dfe4;fill-opacity:1;fill-rule:nonzero;stroke:none"
             id="path182" /></g><g
           id="g184"><g
             id="g186" /><g
             id="g198"><g
               clip-path="url(#clipPath190)"
               opacity="0.300003"
               id="g196"><g
                 transform="translate(332.9541,573.5147)"
                 id="g194"><path
                   d="m 0,0 c 0,0 23.388,5.643 21.253,16.39 -2.135,10.746 -6.834,6.262 -6.834,6.262 L 6.875,15.535 C 6.875,15.535 4.527,6.141 0,0"
                   style="fill:#262121;fill-opacity:1;fill-rule:nonzero;stroke:none"
                   id="path192" /></g></g></g></g><g
           id="g200"><g
             id="g202" /><g
             id="g214"><g
               clip-path="url(#clipPath206)"
               opacity="0.399994"
               id="g212"><g
                 transform="translate(335.2617,577.213)"
                 id="g210"><path
                   d="M 0,0 C 2.711,0.864 13.342,4.633 13.962,10.841 14.513,16.346 7.151,11.594 3.782,9.156 3.042,6.824 1.775,3.317 0,0"
                   style="fill:#262121;fill-opacity:1;fill-rule:nonzero;stroke:none"
                   id="path208" /></g></g></g></g><g
           id="g216"><g
             id="g218" /><g
             id="g230"><g
               clip-path="url(#clipPath222)"
               opacity="0.199997"
               id="g228"><g
                 transform="translate(340.5415,588.9791)"
                 id="g226"><path
                   d="m 0,0 -2.698,-6.438 c 0,0 1.703,-2.246 8.178,2.238 6.477,4.486 14.521,10.108 11.815,-1.565 1.574,2.811 1.994,4.484 1.994,4.484 0,0 2.705,10.319 -1.994,10.462 C 12.599,9.324 0,0 0,0"
                   style="fill:#262121;fill-opacity:1;fill-rule:nonzero;stroke:none"
                   id="path224" /></g></g></g></g><g
           id="g232"
           transform="translate(360.4854,597.8648)"><path
             d="m 0,0 c -5.562,9.176 -19.882,-1.807 -19.882,-1.807 0.175,-4.867 -1.16,-9.627 -2.76,-13.517 3.24,1.307 8.201,3.808 9.351,7.226 1.739,5.171 10.198,9.603 11.476,4.633 0.924,-3.601 0.998,-6.243 0.74,-8.374 C 1.009,-7.258 1.674,-2.76 0,0"
             style="fill:#262121;fill-opacity:1;fill-rule:nonzero;stroke:none"
             id="path234" /></g><g
           id="g236"
           transform="translate(581.3271,318.0625)"><path
             d="m 0,0 c -13.727,1.92 -52.39,-6.423 -74.069,-63.486 -2.85,-17.5 -16.279,-71.222 -6.918,-78.547 9.36,-7.324 61.451,-44.36 54.94,-73.661 12.617,-0.407 52.093,-5.291 52.093,-5.291 0,0 10.172,17.094 19.126,25.639 8.955,8.547 30.523,30.93 13.836,70.814 0,0 -3.33,9.76 3.422,39.586 C 59.823,-64.301 40.696,-5.698 0,0"
             style="fill:#1d1818;fill-opacity:1;fill-rule:nonzero;stroke:none"
             id="path238" /></g><g
           id="g240"
           transform="translate(421.9443,102.8711)"><path
             d="m 0,0 c 0,0 0.546,1.205 1.596,2.889 0.543,0.826 1.159,1.81 1.928,2.785 0.373,0.495 0.786,0.987 1.205,1.487 0.408,0.509 0.874,0.983 1.313,1.481 0.464,0.473 0.947,0.931 1.418,1.383 0.496,0.428 0.979,0.854 1.472,1.237 0.504,0.368 0.979,0.739 1.466,1.039 0.493,0.294 0.946,0.587 1.382,0.826 0.447,0.225 0.862,0.416 1.229,0.584 0.361,0.178 0.712,0.258 0.98,0.361 0.55,0.178 0.864,0.28 0.864,0.28 0,0 -0.295,-0.148 -0.812,-0.405 -0.254,-0.134 -0.582,-0.251 -0.918,-0.469 -0.339,-0.21 -0.721,-0.447 -1.144,-0.689 -0.409,-0.266 -0.833,-0.586 -1.29,-0.905 -0.453,-0.326 -0.887,-0.73 -1.37,-1.1 C 8.849,10.397 8.402,9.949 7.918,9.532 7.462,9.082 6.996,8.628 6.545,8.159 6.103,7.681 5.633,7.227 5.22,6.735 4.795,6.253 4.377,5.778 3.997,5.298 3.218,4.354 2.505,3.456 1.918,2.667 1.342,1.872 0.839,1.221 0.519,0.743 0.188,0.271 0,0 0,0"
             style="fill:#000000;fill-opacity:1;fill-rule:nonzero;stroke:none"
             id="path242" /></g><g
           id="g244"
           transform="translate(423.3926,104.2432)"><path
             d="m 0,0 c 0.145,-2.648 3.688,-2.72 8.682,-0.855 4.995,1.866 5.443,9.85 3.202,11.169 C 9.641,11.635 -0.27,4.854 0,0"
             style="fill:#190f01;fill-opacity:1;fill-rule:nonzero;stroke:none"
             id="path246" /></g><g
           id="g248"
           transform="translate(412.2803,105.3331)"><path
             d="M 0,0 C 1.767,-2.764 7.407,-1.478 9.596,3.236 11.783,7.948 10.269,10.168 7.954,8.638 5.639,7.111 -1.054,1.646 0,0"
             style="fill:#190f01;fill-opacity:1;fill-rule:nonzero;stroke:none"
             id="path250" /></g><g
           id="g252"
           transform="translate(309.5596,522.2256)"><path
             d="M 0,0 C 0,0 32.986,75.687 117.667,54.529 91.805,57.148 60.102,64.197 30.484,16.038 55.513,19.188 85.963,21.691 112.243,3.753 98.48,7.507 72.964,19.606 0,0"
             style="fill:#262121;fill-opacity:1;fill-rule:nonzero;stroke:none"
             id="path254" /></g><g
           id="g256"
           transform="translate(446.8311,473.836)"><path
             d="m 0,0 c 0,0 2.92,59.375 -59.649,63.267 -62.571,3.894 -133.31,-36.986 -147.788,-70.773 -26.994,-41.714 -36.734,-84.54 -72.825,-89.872 8.203,-4.514 21.737,0 21.737,0 0,0 -4.718,-8.205 -29.94,-7.385 5.537,-3.896 8.408,-3.456 8.408,-3.456 l -10.458,2.636 3.075,-6.767 -3.896,4.131 v -6.388 c 0,0 -2.46,-18.248 -26.657,-41.421 -24.199,-23.174 -29.941,-41.426 -29.531,-59.471 4.922,9.844 8.203,11.074 8.203,11.074 0,0 -8.45,-23.583 -8.222,-33.835 3.505,3.281 3.916,4.305 3.916,4.305 l -3.923,-17.635 3.102,7.998 c 0,0 -3.895,-17.429 2.051,-32.401 5.947,-14.969 47.781,-84.486 47.986,-107.248 -0.41,-7.177 -1.641,-12.1 14.557,-13.535 16.203,-1.434 42.041,-0.206 47.987,0 -4.512,8.612 -6.562,17.43 -4.512,27.683 2.052,10.255 -12.919,23.173 -18.454,38.554 -5.538,15.381 0.412,30.143 25.838,54.752 29.734,17.226 41.219,25.223 41.219,25.223 0,0 -15.177,-7.588 -21.533,0.615 21.327,2.666 21.123,8.612 21.533,16.815 0.409,8.203 4.099,27.481 11.482,48.191 7.382,20.713 9.229,38.963 31.581,45.934 20.3,-7.178 36.911,-22.148 61.724,-10.049 -6.153,-0.614 -9.638,1.028 -9.638,1.028 0,0 11.278,-0.206 16.815,3.485 -4.511,-0.409 -10.662,1.436 -10.662,1.436 l 15.584,1.23 -7.793,2.254 c 0,0 16.2,9.64 32.196,9.436 15.996,-0.207 33.966,27.062 37.343,40.009 C -1.761,-61.881 1.764,-5.789 0,0"
             style="fill:#1d1818;fill-opacity:1;fill-rule:nonzero;stroke:none"
             id="path258" /></g><g
           id="g260"><g
             id="g262" /><g
             id="g274"><g
               clip-path="url(#clipPath266)"
               opacity="0.399994"
               id="g272"><g
                 transform="translate(213.9404,349.9385)"
                 id="g270"><path
                   d="m 0,0 c 48.279,-9.096 67.169,-13.294 44.78,-39.883 10.495,-1.399 0.699,-7.697 -4.898,-32.885 -5.596,-25.188 -48.978,-32.885 -62.271,-66.47 -13.294,-33.583 -14.693,-74.865 0.7,-107.75 4.113,-8.789 10.376,-10.328 17.453,-7.802 -0.145,3.075 0.081,6.258 0.748,9.595 2.052,10.255 -12.92,23.173 -18.455,38.553 -5.537,15.381 0.412,30.144 25.839,54.752 29.733,17.227 41.218,25.223 41.218,25.223 0,0 -15.176,-7.588 -21.532,0.615 21.326,2.666 21.123,8.613 21.532,16.816 0.409,8.203 4.099,27.48 11.482,48.19 7.383,20.713 9.229,38.963 31.581,45.935 C 100.746,-19.556 19.591,4.198 0,0"
                   style="fill:#000000;fill-opacity:1;fill-rule:nonzero;stroke:none"
                   id="path268" /></g></g></g></g><g
           id="g276"
           transform="translate(239.394,466.3296)"><path
             d="m 0,0 c -26.994,-41.714 -36.734,-84.54 -72.825,-89.872 8.203,-4.514 21.737,0 21.737,0 0,0 -4.718,-8.205 -29.94,-7.384 1.547,-1.09 2.881,-1.832 4.005,-2.347 l -6.055,1.527 3.075,-6.768 -3.896,4.132 v -6.389 c 0,0 -2.46,-18.248 -26.657,-41.421 -24.199,-23.174 -29.941,-41.426 -29.531,-59.471 4.922,9.844 8.203,11.075 8.203,11.075 0,0 -8.449,-23.583 -8.222,-33.835 3.505,3.28 3.916,4.304 3.916,4.304 l -3.923,-17.634 3.102,7.998 c 0,0 -3.895,-17.43 2.051,-32.402 3.022,-7.605 15.306,-29.293 26.691,-51.776 -1.966,5.867 -4.609,12.905 -8.028,21.283 -51.477,126.083 44.022,143.985 45.514,166.367 1.492,22.383 18.651,20.89 70.875,34.319 -67.894,-7.46 7.459,54.466 28.348,63.42 -9.565,25.112 7.913,58.312 26.269,83.793 C 27.948,35.03 7.137,16.655 0,0"
             style="fill:#262121;fill-opacity:1;fill-rule:nonzero;stroke:none"
             id="path278" /></g><g
           id="g280"
           transform="translate(167.3916,342.9112)"><path
             d="m 0,0 c 0.226,0.445 0.579,0.811 0.962,1.126 0.352,0.358 0.789,0.602 1.209,0.87 0.811,0.589 1.767,0.911 2.657,1.357 0.906,0.415 1.875,0.668 2.81,1.01 0.933,0.357 1.91,0.56 2.875,0.806 0.968,0.232 1.93,0.498 2.904,0.703 l 2.942,0.521 c 0.982,0.167 1.96,0.36 2.945,0.505 l 2.967,0.354 C 26.22,7.804 30.2,8.013 34.172,8.31 38.148,8.553 42.133,8.604 46.114,8.76 L 58.063,8.748 C 62.046,8.715 66.026,8.527 70.007,8.424 71.997,8.351 73.99,8.326 75.978,8.213 L 81.942,7.881 C 85.918,7.647 89.897,7.466 93.87,7.19 l 11.912,-0.919 c 3.972,-0.3 7.943,-0.601 11.905,-1.012 l 11.892,-1.145 5.946,-0.572 5.946,-0.464 2.978,-0.229 c 0.992,-0.074 1.985,-0.176 2.977,-0.165 l 5.956,-0.094 2.977,-0.042 2.98,0.109 5.958,0.22 c 3.96,0.341 7.929,0.585 11.867,1.134 1.977,0.215 3.94,0.519 5.9,0.837 1.964,0.291 3.918,0.674 5.851,1.076 l 0.048,-0.687 c -1.479,0.155 -2.927,0.374 -4.375,0.648 -0.725,0.123 -1.442,0.285 -2.162,0.433 -0.722,0.142 -1.432,0.336 -2.148,0.501 -0.718,0.161 -1.421,0.379 -2.132,0.568 -0.711,0.185 -1.411,0.413 -2.112,0.635 -0.702,0.218 -1.403,0.44 -2.091,0.703 -0.689,0.258 -1.389,0.486 -2.068,0.769 l -2.038,0.852 c -0.676,0.29 -1.33,0.631 -1.996,0.945 -0.67,0.306 -1.32,0.652 -1.957,1.023 -0.637,0.371 -1.299,0.7 -1.916,1.103 l -1.849,1.214 c -0.626,0.391 -1.178,0.889 -1.77,1.328 -0.586,0.45 -1.175,0.895 -1.699,1.419 l -1.62,1.513 -1.413,1.318 1.766,-0.83 c 1.453,-0.683 2.893,-1.397 4.358,-2.055 1.46,-0.669 2.925,-1.327 4.406,-1.944 0.736,-0.321 1.478,-0.628 2.226,-0.916 0.748,-0.289 1.486,-0.605 2.242,-0.872 l 2.262,-0.816 2.288,-0.735 c 0.766,-0.232 1.541,-0.432 2.311,-0.649 0.774,-0.203 1.558,-0.36 2.336,-0.542 0.784,-0.148 1.572,-0.28 2.36,-0.403 0.794,-0.069 1.583,-0.208 2.38,-0.219 l 1.193,-0.048 c 0.398,-0.003 0.795,0.022 1.192,0.032 0.796,-10e-4 1.582,0.139 2.373,0.217 0.777,0.158 1.564,0.275 2.322,0.516 0.773,0.187 1.51,0.491 2.259,0.756 l 0.088,-0.497 -2.038,0.169 -1.018,0.084 c -0.34,0.029 -0.673,0.107 -1.01,0.159 l -2.014,0.348 c -0.664,0.148 -1.321,0.328 -1.982,0.49 -0.666,0.15 -1.313,0.363 -1.959,0.575 -0.649,0.206 -1.298,0.413 -1.928,0.672 -0.637,0.242 -1.272,0.487 -1.89,0.775 -0.628,0.27 -1.236,0.567 -1.848,0.894 l -1.136,0.607 1.285,-0.164 c 3.411,-0.432 6.844,-0.748 10.279,-0.924 1.717,-0.083 3.436,-0.117 5.151,-0.076 0.858,0.027 1.712,0.079 2.561,0.171 0.424,0.04 0.84,0.129 1.26,0.19 0.419,0.071 0.815,0.21 1.223,0.31 l 0.039,-0.411 -1.365,0.297 c -0.452,0.104 -0.887,0.261 -1.33,0.389 -0.446,0.127 -0.879,0.284 -1.311,0.445 -0.43,0.163 -0.871,0.304 -1.294,0.485 -1.715,0.672 -3.389,1.429 -5.046,2.237 l -0.775,0.378 0.865,-10e-4 11.461,-0.014 -0.163,-0.099 c 1.154,2.113 2.462,4.122 3.855,6.076 0.691,0.98 1.433,1.922 2.178,2.862 0.778,0.914 1.536,1.844 2.374,2.704 0.799,0.896 1.694,1.7 2.555,2.534 0.928,0.762 1.811,1.581 2.813,2.247 0.952,0.737 2.014,1.306 3.05,1.914 1.1,0.484 2.171,1.051 3.349,1.327 1.144,0.391 2.337,0.542 3.508,0.777 1.176,0.219 2.347,0.459 3.537,0.606 l 3.556,0.504 3.567,0.389 c 1.187,0.145 2.383,0.214 3.573,0.322 1.192,0.109 2.385,0.188 3.579,0.259 2.387,0.163 4.778,0.256 7.168,0.32 -2.39,-0.081 -4.78,-0.192 -7.165,-0.371 -1.192,-0.08 -2.385,-0.167 -3.575,-0.285 -1.189,-0.117 -2.384,-0.194 -3.569,-0.347 l -3.563,-0.415 -3.545,-0.527 c -1.184,-0.155 -2.355,-0.405 -3.529,-0.631 -1.172,-0.244 -2.361,-0.404 -3.484,-0.798 -1.161,-0.28 -2.216,-0.85 -3.299,-1.334 -1.022,-0.611 -2.069,-1.18 -3.007,-1.919 -0.989,-0.665 -1.86,-1.485 -2.775,-2.247 -0.849,-0.835 -1.73,-1.639 -2.519,-2.535 -0.826,-0.86 -1.573,-1.79 -2.34,-2.704 -0.733,-0.939 -1.464,-1.882 -2.151,-2.856 -1.378,-1.945 -2.679,-3.956 -3.814,-6.044 l -0.052,-0.099 h -0.112 l -11.461,-0.014 0.089,0.377 c 1.642,-0.796 3.316,-1.548 5.018,-2.21 0.421,-0.178 0.856,-0.317 1.284,-0.477 0.428,-0.158 0.857,-0.313 1.295,-0.436 0.436,-0.125 0.868,-0.281 1.308,-0.38 l 1.327,-0.285 0.896,-0.194 -0.858,-0.217 c -0.427,-0.108 -0.851,-0.255 -1.282,-0.33 -0.43,-0.065 -0.861,-0.156 -1.294,-0.198 -0.865,-0.097 -1.73,-0.151 -2.597,-0.18 -1.731,-0.046 -3.46,-0.016 -5.186,0.063 -3.452,0.169 -6.889,0.477 -10.32,0.903 l 0.149,0.444 c 0.583,-0.309 1.192,-0.606 1.808,-0.869 0.61,-0.283 1.238,-0.523 1.868,-0.76 0.622,-0.255 1.263,-0.457 1.905,-0.658 0.64,-0.209 1.279,-0.418 1.936,-0.564 0.653,-0.159 1.303,-0.334 1.959,-0.479 l 1.986,-0.338 c 0.332,-0.05 0.661,-0.128 0.996,-0.155 l 1.004,-0.08 2.008,-0.162 1.207,-0.097 -1.119,-0.4 c -0.766,-0.274 -1.52,-0.586 -2.313,-0.781 -0.777,-0.249 -1.584,-0.372 -2.381,-0.536 -0.81,-0.083 -1.616,-0.226 -2.43,-0.227 -0.406,-0.012 -0.813,-0.038 -1.219,-0.036 l -1.218,0.045 c -0.814,0.01 -1.616,0.149 -2.424,0.217 -0.801,0.123 -1.601,0.255 -2.397,0.403 -0.788,0.182 -1.583,0.339 -2.366,0.543 -0.777,0.217 -1.562,0.418 -2.335,0.65 l -2.308,0.735 -2.279,0.816 c -0.762,0.267 -1.504,0.582 -2.257,0.871 -0.754,0.289 -1.499,0.595 -2.239,0.915 -1.49,0.616 -2.961,1.273 -4.428,1.94 -1.471,0.658 -2.916,1.369 -4.375,2.051 l 0.352,0.488 1.594,-1.479 c 0.514,-0.513 1.094,-0.949 1.671,-1.389 0.584,-0.43 1.125,-0.918 1.744,-1.302 l 1.823,-1.19 c 0.609,-0.396 1.263,-0.72 1.891,-1.083 0.629,-0.364 1.271,-0.705 1.934,-1.005 0.659,-0.308 1.305,-0.644 1.974,-0.929 l 2.016,-0.836 c 0.672,-0.279 1.366,-0.502 2.048,-0.756 0.681,-0.258 1.376,-0.476 2.072,-0.691 0.694,-0.219 1.387,-0.442 2.093,-0.624 0.704,-0.185 1.401,-0.399 2.112,-0.556 2.826,-0.69 5.706,-1.241 8.583,-1.546 l 2.238,-0.237 -2.19,-0.45 C 187.105,4.841 185.149,4.463 183.173,4.175 181.203,3.86 179.231,3.56 177.247,3.349 173.293,2.807 169.309,2.572 165.335,2.24 l -5.979,-0.206 -2.99,-0.102 -2.993,0.048 -5.988,0.111 c -1,-0.008 -1.99,0.097 -2.983,0.173 l -2.976,0.236 -5.961,0.48 -5.942,0.587 -11.884,1.173 c -3.959,0.421 -7.928,0.731 -11.896,1.04 L 93.838,6.729 C 89.868,7.015 85.892,7.205 81.919,7.448 L 75.958,7.794 C 73.972,7.913 71.981,7.941 69.993,8.02 66.015,8.133 62.038,8.331 58.058,8.374 L 46.119,8.42 C 42.142,8.292 38.16,8.27 34.187,8.055 30.217,7.787 26.238,7.606 22.291,7.084 L 19.325,6.751 C 18.34,6.612 17.363,6.427 16.381,6.267 L 13.438,5.769 C 12.464,5.569 11.503,5.312 10.534,5.087 9.569,4.848 8.59,4.652 7.657,4.303 6.722,3.968 5.751,3.722 4.844,3.313 3.954,2.876 2.996,2.56 2.182,1.979 1.762,1.713 1.323,1.473 0.969,1.118 0.583,0.805 0.229,0.444 0,0"
             style="fill:#3a3333;fill-opacity:1;fill-rule:nonzero;stroke:none"
             id="path282" /></g><g
           id="g284"
           transform="translate(616.2949,200.9707)"><path
             d="m 0,0 c 0,0 -36.76,-16.286 -55.804,-22.8 -19.045,-6.513 -38.186,-4.653 -42.374,4.086 -3.338,6.962 -4.506,63.438 -4.844,86.115 -2.115,-4.25 -4.128,-8.835 -6.015,-13.796 -2.85,-17.5 -16.278,-71.221 -6.918,-78.546 9.36,-7.325 61.451,-44.36 54.94,-73.662 12.618,-0.406 52.093,-5.291 52.093,-5.291 0,0 4.84,8.134 10.781,15.984 C -94.786,-60.695 0,0 0,0"
             style="fill:#0c0a0a;fill-opacity:1;fill-rule:nonzero;stroke:none"
             id="path286" /></g><g
           id="g288"
           transform="translate(360.4414,601.7261)"><path
             d="M 0,0 C 54.581,-9.588 75.001,18.725 110.393,-98.805 101.644,-37.19 75.615,-1.338 35.41,35.93 21.992,48.37 10.127,56.813 -0.231,62.445 11.984,46.033 27.157,17.215 0,0"
             style="fill:#2b2525;fill-opacity:1;fill-rule:nonzero;stroke:none"
             id="path290" /></g><g
           id="g292"
           transform="translate(261.2163,580.5967)"><path
             d="M 0,0 C 0,0 1.004,-4.819 7.228,-3.162 13.452,-1.505 28.859,5.069 36.339,1.907 30.969,4.318 21.484,4.757 15.913,2.756 10.339,0.753 1.103,-3.563 0,0"
             style="fill:#0c0a0a;fill-opacity:1;fill-rule:nonzero;stroke:none"
             id="path294" /></g><g
           id="g296"
           transform="translate(557.7891,104.6055)"><path
             d="m 0,0 c 4.676,-0.108 13.246,0.862 19.924,7.216 6.676,6.353 21.277,2.517 26.385,-4.632 5.107,-7.147 1.506,-10.231 2.26,-14.321 0.755,-4.093 5.17,-15.617 -6.245,-17.232 -11.415,-1.616 -12.386,3.554 -12.386,3.554 0,0 -3.552,-4.738 -9.153,-4.524 -5.6,0.216 -7.756,1.832 -8.617,2.478 -2.907,-3.016 -18.953,-6.141 -25.63,-0.432 -12.171,-4.092 -24.555,-4.739 -20.785,1.724 -7.216,0.323 -13.14,2.046 -9.047,5.277 4.093,3.232 6.677,4.2 9.047,10.122 2.369,5.923 8.508,5.17 15.185,5.601 C -10.984,0.432 -4.633,0.106 0,0"
             style="fill:#d8ccc3;fill-opacity:1;fill-rule:nonzero;stroke:none"
             id="path298" /></g><g
           id="g300"><g
             id="g302" /><g
             id="g318"><g
               clip-path="url(#clipPath306)"
               opacity="0.699997"
               id="g316"><g
                 transform="translate(606.0078,92.8682)"
                 id="g310"><path
                   d="m 0,0 c -0.753,4.09 2.847,7.174 -2.26,14.321 -1.636,2.289 -4.247,4.233 -7.26,5.616 6.016,-3.337 5.224,-10.199 7.99,-19.702 3.417,-11.736 -8.318,-11.998 -15.239,-6.831 -3.852,-7.445 -14.451,-4.293 -17.692,-0.876 -4.73,-8.057 -21.372,-4.467 -25.398,-3.24 -6.219,-5.43 -18.308,-2.629 -18.13,1.489 -10.372,-3.032 -9.404,1.786 -7.828,5.038 -1.656,-1.888 -3.574,-3.019 -6.046,-4.969 -4.091,-3.232 1.833,-4.954 9.048,-5.278 -3.77,-6.463 8.615,-5.816 20.786,-1.723 6.676,-5.709 22.721,-2.584 25.63,0.431 0.861,-0.646 3.016,-2.261 8.617,-2.478 5.598,-0.214 9.152,4.524 9.152,4.524 0,0 0.97,-5.17 12.387,-3.553 C 5.172,-15.616 0.756,-4.093 0,0"
                   style="fill:#bfb4ac;fill-opacity:1;fill-rule:nonzero;stroke:none"
                   id="path308" /></g><g
                 transform="translate(591.7207,114.4258)"
                 id="g314"><path
                   d="M 0,0 C -0.88,0.204 -1.765,0.369 -2.649,0.471 -2.211,0.388 -1.595,0.28 -0.731,0.137 -0.479,0.096 -0.239,0.048 0,0"
                   style="fill:#bfb4ac;fill-opacity:1;fill-rule:nonzero;stroke:none"
                   id="path312" /></g></g></g></g><g
           id="g320"
           transform="translate(594.1895,97.9288)"><path
             d="M 0,0 C 0,0 -0.133,-0.28 -0.338,-0.771 -0.45,-1.011 -0.568,-1.31 -0.706,-1.653 -0.845,-1.994 -1.002,-2.379 -1.172,-2.798 -1.329,-3.224 -1.499,-3.683 -1.694,-4.16 -1.898,-4.633 -2.046,-5.163 -2.25,-5.687 -2.647,-6.739 -3.037,-7.875 -3.404,-9.02 c -0.195,-0.568 -0.424,-1.125 -0.576,-1.697 -0.163,-0.57 -0.356,-1.12 -0.525,-1.659 -0.169,-0.539 -0.353,-1.055 -0.524,-1.546 -0.139,-0.499 -0.286,-0.968 -0.423,-1.4 -0.54,-1.735 -1.01,-2.879 -1.01,-2.879 0,0 0.063,1.222 0.321,3.04 0.063,0.455 0.132,0.948 0.222,1.466 0.112,0.512 0.229,1.055 0.37,1.61 0.142,0.556 0.268,1.136 0.433,1.716 0.142,0.585 0.36,1.16 0.547,1.743 0.206,0.577 0.412,1.154 0.614,1.723 0.207,0.566 0.479,1.099 0.705,1.627 0.236,0.525 0.457,1.033 0.722,1.493 0.248,0.467 0.497,0.899 0.726,1.298 0.226,0.401 0.48,0.745 0.685,1.056 0.202,0.314 0.4,0.575 0.572,0.785 C -0.215,-0.218 0,0 0,0"
             style="fill:#000000;fill-opacity:1;fill-rule:nonzero;stroke:none"
             id="path322" /></g><g
           id="g324"
           transform="translate(569.957,77.1446)"><path
             d="m 0,0 c -0.231,0.546 -0.35,1.14 -0.414,1.735 -0.034,0.299 -0.043,0.599 -0.044,0.901 -0.018,0.303 0.024,0.601 0.042,0.904 0.019,0.304 0.082,0.599 0.122,0.899 0.034,0.304 0.134,0.59 0.2,0.887 0.156,0.584 0.343,1.166 0.585,1.72 L 0.865,7.875 1.3,8.672 c 0.274,0.543 0.655,1.013 0.983,1.52 0.167,0.252 0.368,0.476 0.551,0.715 l 0.57,0.699 1.24,1.303 -0.151,-0.255 0.282,1.09 c 0.111,0.36 0.169,0.735 0.234,1.109 0.054,0.375 0.158,0.743 0.197,1.124 l 0.148,1.139 c 0.177,1.527 0.28,3.071 0.353,4.637 0.168,-0.766 0.296,-1.544 0.363,-2.325 0.038,-0.392 0.083,-0.783 0.089,-1.177 0.012,-0.394 0.037,-0.788 0.038,-1.183 L 6.16,15.882 C 6.155,15.485 6.099,15.09 6.057,14.694 6.012,14.298 5.974,13.901 5.88,13.509 L 5.632,12.326 5.606,12.209 5.481,12.071 4.324,10.807 C 3.979,10.354 3.596,9.931 3.255,9.477 2.937,9.009 2.576,8.563 2.297,8.073 L 1.846,7.354 1.453,6.603 C 1.199,6.099 0.956,5.586 0.764,5.055 0.565,4.524 0.393,3.984 0.259,3.431 0.141,2.877 0.019,2.313 -0.016,1.74 -0.065,1.167 -0.079,0.584 0,0"
             style="fill:#000000;fill-opacity:1;fill-rule:nonzero;stroke:none"
             id="path326" /></g><g
           id="g328"
           transform="translate(544.3271,76.7129)"><path
             d="M 0,0 C -0.021,0.583 0.056,1.172 0.188,1.746 0.321,2.32 0.502,2.888 0.734,3.435 0.958,3.985 1.238,4.517 1.563,5.017 1.72,5.271 1.88,5.525 2.066,5.759 2.248,5.995 2.422,6.243 2.623,6.464 l 0.606,0.663 c 0.2,0.225 0.433,0.412 0.649,0.62 0.428,0.424 0.923,0.761 1.397,1.126 0.481,0.357 1,0.651 1.501,0.98 0.526,0.28 1.059,0.544 1.588,0.817 L 8.098,10.432 c 0.714,1.244 1.348,2.53 1.924,3.861 0.573,1.332 1.124,2.702 1.823,4.041 0.193,0.326 0.36,0.663 0.576,0.978 0.211,0.316 0.41,0.638 0.653,0.932 0.226,0.307 0.472,0.596 0.741,0.864 0.253,0.284 0.529,0.541 0.817,0.786 0.272,0.259 0.576,0.482 0.885,0.694 0.3,0.224 0.609,0.433 0.933,0.615 0.322,0.186 0.629,0.394 0.965,0.55 l 0.999,0.477 -0.891,-0.65 c -0.306,-0.198 -0.579,-0.445 -0.865,-0.67 -0.289,-0.22 -0.557,-0.464 -0.814,-0.718 -0.268,-0.243 -0.52,-0.499 -0.757,-0.767 -0.249,-0.257 -0.483,-0.527 -0.691,-0.815 -0.227,-0.274 -0.422,-0.57 -0.615,-0.867 -0.206,-0.287 -0.369,-0.604 -0.544,-0.912 -0.178,-0.304 -0.314,-0.639 -0.473,-0.955 -0.61,-1.29 -1.06,-2.685 -1.642,-4.049 C 10.839,13.143 10.537,12.459 10.21,11.787 9.886,11.111 9.505,10.465 9.131,9.815 L 9.045,9.666 8.863,9.576 7.349,8.824 C 6.868,8.536 6.361,8.281 5.897,7.966 5.438,7.646 4.964,7.34 4.538,6.975 4.324,6.796 4.089,6.636 3.889,6.439 L 3.277,5.861 C 3.071,5.67 2.901,5.446 2.706,5.244 2.508,5.043 2.335,4.821 2.165,4.598 1.809,4.16 1.507,3.682 1.214,3.196 0.921,2.711 0.674,2.195 0.468,1.661 0.273,1.125 0.09,0.575 0,0"
             style="fill:#000000;fill-opacity:1;fill-rule:nonzero;stroke:none"
             id="path330" /></g><g
           id="g332"
           transform="translate(523.2031,78.4522)"><path
             d="M 0,0 C 0,0 0.278,0.311 0.766,0.854 1.261,1.387 1.931,2.182 2.731,3.125 3.13,3.6 3.552,4.119 3.987,4.673 4.426,5.225 4.857,5.827 5.29,6.451 5.726,7.074 6.114,7.75 6.463,8.438 c 0.166,0.347 0.324,0.698 0.426,1.055 0.132,0.382 0.241,0.791 0.363,1.186 0.222,0.783 0.594,1.607 0.908,2.378 0.366,0.756 0.727,1.499 1.168,2.169 0.218,0.335 0.4,0.683 0.636,0.989 0.236,0.304 0.468,0.6 0.692,0.889 0.419,0.601 0.965,1.05 1.398,1.513 0.43,0.468 0.946,0.776 1.342,1.1 0.395,0.329 0.795,0.539 1.116,0.72 0.642,0.361 1.011,0.547 1.011,0.547 0,0 -0.316,-0.282 -0.874,-0.743 -0.28,-0.226 -0.628,-0.489 -0.957,-0.874 C 13.364,18.986 12.934,18.626 12.568,18.133 12.209,17.635 11.75,17.162 11.394,16.557 11.007,15.977 10.612,15.36 10.267,14.683 9.873,14.033 9.596,13.295 9.248,12.58 8.963,11.833 8.648,11.135 8.427,10.316 8.297,9.92 8.186,9.526 8.041,9.129 7.905,8.69 7.718,8.294 7.523,7.906 7.129,7.138 6.649,6.453 6.166,5.819 5.687,5.181 5.179,4.604 4.683,4.078 4.194,3.543 3.702,3.069 3.242,2.642 2.326,1.778 1.496,1.137 0.928,0.679 0.35,0.23 0,0 0,0"
             style="fill:#000000;fill-opacity:1;fill-rule:nonzero;stroke:none"
             id="path334" /></g><g
           id="g336"
           transform="translate(590.959,80.6582)"><path
             d="M 0,0 C 0.128,1.621 1.642,3.512 6.288,3.188 10.934,2.863 15.363,-0.758 7.097,-1.783 -1.167,-2.81 0,0 0,0"
             style="fill:#190f01;fill-opacity:1;fill-rule:nonzero;stroke:none"
             id="path338" /></g><g
           id="g340"
           transform="translate(573.7451,78.6495)"><path
             d="M 0,0 C 0.195,3.207 1.782,4.384 6.807,4.33 11.832,4.278 17.233,0.874 9.778,-0.854 2.323,-2.585 -0.104,-1.691 0,0"
             style="fill:#190f01;fill-opacity:1;fill-rule:nonzero;stroke:none"
             id="path342" /></g><g
           id="g344"
           transform="translate(547.5957,78.1719)"><path
             d="M 0,0 C -0.606,2.385 1.462,6.107 7.889,6.322 14.317,6.538 19.396,3.242 14.804,1.026 10.211,-1.187 0.704,-2.754 0,0"
             style="fill:#190f01;fill-opacity:1;fill-rule:nonzero;stroke:none"
             id="path346" /></g><g
           id="g348"
           transform="translate(527.207,79.2413)"><path
             d="m 0,0 c 0,0.876 1.104,4.929 6.831,6.172 5.726,1.24 8.868,-2.811 4.213,-5.89 C 4.087,-4.319 0,0 0,0"
             style="fill:#190f01;fill-opacity:1;fill-rule:nonzero;stroke:none"
             id="path350" /></g><g
           id="g352"
           transform="translate(515.6152,83.6827)"><path
             d="m 0,0 c 0,0 2.324,-3.188 5.727,-1.457 3.401,1.728 5.564,4.957 0,6.72 C 3.4,3.498 1.339,0.15 0,0"
             style="fill:#190f01;fill-opacity:1;fill-rule:nonzero;stroke:none"
             id="path354" /></g><g
           id="g356"
           transform="translate(247.6353,570.8702)"><path
             d="m 0,0 c 0,-0.57 -0.464,-1.033 -1.032,-1.033 -0.572,0 -1.033,0.463 -1.033,1.033 0,0.57 0.461,1.032 1.033,1.032 C -0.464,1.032 0,0.57 0,0"
             style="fill:#ffffff;fill-opacity:1;fill-rule:nonzero;stroke:none"
             id="path358" /></g><g
           id="g360"
           transform="translate(282.4346,578.8214)"><path
             d="m 0,0 c 0,-0.931 -0.755,-1.687 -1.685,-1.687 -0.932,0 -1.689,0.756 -1.689,1.687 0,0.93 0.757,1.686 1.689,1.686 C -0.755,1.686 0,0.93 0,0"
             style="fill:#ffffff;fill-opacity:1;fill-rule:nonzero;stroke:none"
             id="path362" /></g><g
           id="g364"
           transform="translate(284.3691,576.8423)"><path
             d="m 0,0 c 0,-0.43 -0.348,-0.779 -0.777,-0.779 -0.431,0 -0.778,0.349 -0.778,0.779 0,0.429 0.347,0.777 0.778,0.777 C -0.348,0.777 0,0.429 0,0"
             style="fill:#ffffff;fill-opacity:1;fill-rule:nonzero;stroke:none"
             id="path366" /></g><g
           id="g368"
           transform="translate(249.0483,569.794)"><path
             d="m 0,0 c 0,-0.293 -0.238,-0.531 -0.528,-0.531 -0.294,0 -0.532,0.238 -0.532,0.531 0,0.292 0.238,0.529 0.532,0.529 C -0.238,0.529 0,0.292 0,0"
             style="fill:#ffffff;fill-opacity:1;fill-rule:nonzero;stroke:none"
             id="path370" /></g><g
           id="g372"
           transform="translate(249.8281,563.775)"><path
             d="M 0,0 C 0,0 12.225,10.881 15.747,8.756 14.661,8.499 10.207,7.202 0,0"
             style="fill:#e2dfe4;fill-opacity:1;fill-rule:nonzero;stroke:none"
             id="path374" /></g><g
           id="g376"
           transform="translate(249.6191,555.4849)"><path
             d="M 0,0 C 0,0 11.039,6.217 13.576,2.693 14.662,0.414 11.866,-3.99 5.752,-4.404 3.991,-2.901 1.607,-0.518 0,0"
             style="fill:#070201;fill-opacity:1;fill-rule:nonzero;stroke:none"
             id="path378" /></g><g
           id="g380"><g
             id="g382" /><g
             id="g394"><g
               clip-path="url(#clipPath386)"
               opacity="0.5"
               id="g392"><g
                 transform="translate(261.7407,584.8253)"
                 id="g390"><path
                   d="m 0,0 c 0,0 0.307,-5.999 8.92,-2.614 8.613,3.383 20.917,3.845 24.454,2.461 3.308,-0.693 1.769,4.997 -5.228,5.228 C 21.147,5.306 4.536,-3.537 0,0"
                   style="fill:#f4f4f4;fill-opacity:1;fill-rule:nonzero;stroke:none"
                   id="path388" /></g></g></g></g><g
           id="g396"><g
             id="g398" /><g
             id="g410"><g
               clip-path="url(#clipPath402)"
               opacity="0.5"
               id="g408"><g
                 transform="translate(239.2871,569.6754)"
                 id="g406"><path
                   d="M 0,0 C 0,0 2.844,3.539 7.228,4.461 11.61,5.384 12.38,7.152 12.688,8.382 10.15,6.999 0,4.615 0,0"
                   style="fill:#f4f4f4;fill-opacity:1;fill-rule:nonzero;stroke:none"
                   id="path404" /></g></g></g></g><g
           id="g412"
           transform="translate(230.8281,589.2852)"><path
             d="M 0,0 C 0,0 -21.609,-24.838 7.151,-32.375 1.846,-31.375 -6,-26.607 -6,-18.456 -6,-10.305 0,0 0,0"
             style="fill:#f4f4f4;fill-opacity:1;fill-rule:nonzero;stroke:none"
             id="path414" /></g><g
           id="g416"><g
             id="g418" /><g
             id="g430"><g
               clip-path="url(#clipPath422)"
               opacity="0.699997"
               id="g428"><g
                 transform="translate(297.4717,598.2955)"
                 id="g426"><path
                   d="m 0,0 c -12.229,1.536 -24.8,-4.2 -36.019,-9.972 l 0.698,-0.423 c 0,0 35.886,11.279 44.908,0.616 9.025,-10.662 -31.782,-31.168 -40.807,-48.804 -9.022,-17.637 -17.019,-44.911 -40.602,-34.247 -22.314,10.091 -13.609,44.213 -18.688,50.984 -0.185,-0.426 -0.242,-0.95 -0.132,-1.603 1.248,-7.374 -0.795,-15.202 -6.807,-20.08 -4.288,-3.479 -6.147,-10.054 -6.863,-13.552 0.795,2.897 3.214,7.926 10.606,11.736 -8.621,-8.055 -11.911,-18.491 -9.415,-34.601 0.468,9.004 4.047,17.39 10.142,26.18 -6.766,-11.359 -5.945,-24.364 -5.945,-24.364 0,0 3.428,7.842 9.265,16.298 -4.43,-7.59 -9.265,-21.063 -9.265,-21.063 0,0 5.105,3.63 12.591,14.181 -1.36,-4.651 -11.683,-19.059 -11.683,-19.059 0,0 6.24,-0.682 12.705,2.155 0.228,-1.361 -9.074,-6.353 -9.074,-6.353 0,0 7.26,-9.189 24.729,-8.281 24.845,3.97 32.446,32.898 35.282,49.461 2.838,16.564 11.346,24.051 22.008,28.361 10.664,4.309 35.394,14.862 35.737,20.761 C 23.713,-15.771 19.854,-2.497 0,0"
                   style="fill:#b2b2b2;fill-opacity:1;fill-rule:nonzero;stroke:none"
                   id="path424" /></g></g></g></g><g
           id="g432"
           transform="translate(210.4214,555.7828)"><path
             d="m 0,0 c -0.638,0.016 -4.874,1.074 -1.091,1.579 3.785,0.504 16.06,-3.194 27.41,-8.576 11.349,-5.381 13.284,-9.668 18.411,-11.77 -7.062,2.017 -10.171,7.398 -19.839,10.761 C 15.22,-4.643 3.269,-0.082 0,0"
             style="fill:#f4f4f4;fill-opacity:1;fill-rule:nonzero;stroke:none"
             id="path434" /></g><g
           id="g436"><g
             id="g438" /><g
             id="g450"><g
               clip-path="url(#clipPath442)"
               opacity="0.5"
               id="g448"><g
                 transform="translate(229.1084,553.9464)"
                 id="g446"><path
                   d="m 0,0 c 0,0 15.882,4.082 21.597,-0.124 5.714,-4.207 5.021,-9.606 9.919,-14.817 -6.215,-2.198 -10.652,4.949 -15.57,7.848 C 6.466,-1.507 0,0 0,0"
                   style="fill:#f4f4f4;fill-opacity:1;fill-rule:nonzero;stroke:none"
                   id="path444" /></g></g></g></g><g
           id="g452"><g
             id="g454" /><g
             id="g466"><g
               clip-path="url(#clipPath458)"
               opacity="0.5"
               id="g464"><g
                 transform="translate(210.6128,547.7149)"
                 id="g462"><path
                   d="m 0,0 c 0,0 -0.893,-35.745 19.279,-39.601 20.171,-3.856 21.062,25.66 21.062,25.66 0,0 -40.786,25.657 -40.341,13.941"
                   style="fill:#f4f4f4;fill-opacity:1;fill-rule:nonzero;stroke:none"
                   id="path460" /></g></g></g></g><g
           id="g468"><g
             id="g470" /><g
             id="g482"><g
               clip-path="url(#clipPath474)"
               opacity="0.199997"
               id="g480"><g
                 transform="translate(316.6602,672.4307)"
                 id="g478"><path
                   d="M 0,0 C 0,0 42.865,12.596 109.466,-67.809 95.663,-56.91 59.574,-8.722 0,0"
                   style="fill:#f4f4f4;fill-opacity:1;fill-rule:nonzero;stroke:none"
                   id="path476" /></g></g></g></g><g
           id="g484"
           transform="translate(263.9976,587.5367)"><path
             d="M 0,0 C 0,0 -11.123,-3.32 -4.316,6.641 2.491,16.6 12.713,29.551 39.226,28.886 65.741,28.222 57.439,4.508 46.317,4.495 39.843,4.648 37.684,17.099 0,0"
             style="fill:#262121;fill-opacity:1;fill-rule:nonzero;stroke:none"
             id="path486" /></g><g
           id="g488"
           transform="translate(252.7026,583.9693)"><path
             d="M 0,0 C 0.368,1.464 -0.544,4.368 -5.324,3.549 -10.103,2.731 -17.473,4.506 -19.114,6.417 -20.753,8.329 -29.216,-4.641 -17.611,-5.87 -6.006,-7.099 -0.547,-2.184 0,0"
             style="fill:#262121;fill-opacity:1;fill-rule:nonzero;stroke:none"
             id="path490" /></g><g
           id="g492"><g
             id="g494" /><g
             id="g506"><g
               clip-path="url(#clipPath498)"
               opacity="0.399994"
               id="g504"><g
                 transform="translate(301.1147,319.3545)"
                 id="g502"><path
                   d="m 0,0 c 0,0 -16.046,-57.913 12.909,-88.616 28.956,-30.702 44.308,-65.938 184.208,-27.911 -40.819,0 -129.433,-14.997 -163.973,19.194 C -1.394,-63.144 -1.049,-43.964 0,0"
                   style="fill:#211e1e;fill-opacity:1;fill-rule:nonzero;stroke:none"
                   id="path500" /></g></g></g></g><g
           id="g508"
           transform="translate(470.5518,418.1929)"><path
             d="M 0,0 C 0,0 -8.009,-87.725 87.727,-74.375 62.556,-73.231 3.817,-75.141 0,0"
             style="fill:#ffffff;fill-opacity:1;fill-rule:nonzero;stroke:none"
             id="path510" /></g><g
           id="g512"
           transform="translate(607.4824,337.333)"><path
             d="M 0,0 C 0,0 9.917,-5.721 15.638,-23.648 11.062,-15.639 3.05,-3.434 0,0"
             style="fill:#ffffff;fill-opacity:1;fill-rule:nonzero;stroke:none"
             id="path514" /></g><g
           id="g516"><g
             id="g518" /><g
             id="g530"><g
               clip-path="url(#clipPath522)"
               opacity="0.199997"
               id="g528"><g
                 transform="translate(459.4883,354.1162)"
                 id="g526"><path
                   d="m 0,0 c 0,0 -38.141,-60.647 -22.884,-81.626 15.255,-20.978 70.564,-3.432 64.84,32.04 C 36.235,-14.113 46.153,-17.547 1.146,0"
                   style="fill:#ffffff;fill-opacity:1;fill-rule:nonzero;stroke:none"
                   id="path524" /></g></g></g></g><g
           id="g532"><g
             id="g534" /><g
             id="g546"><g
               clip-path="url(#clipPath538)"
               opacity="0.199997"
               id="g544"><g
                 transform="translate(516.9072,329.3955)"
                 id="g542"><path
                   d="m 0,0 c -2.204,-12.943 -4.086,-48.261 3.83,-41.11 7.916,7.15 21.705,34.981 48.006,33.706 26.3,-1.276 36.515,-12.001 37.281,-9.448 C 89.88,-14.3 89.884,1.021 82.732,4.854 75.582,8.684 50.558,13.278 38.046,9.705 25.535,6.13 2.043,12.002 0,0"
                   style="fill:#ffffff;fill-opacity:1;fill-rule:nonzero;stroke:none"
                   id="path540" /></g></g></g></g><g
           id="g548"><g
             id="g550" /><g
             id="g562"><g
               clip-path="url(#clipPath554)"
               opacity="0.300003"
               id="g560"><g
                 transform="translate(401.4775,527.8458)"
                 id="g558"><path
                   d="M 0,0 C 0,0 -58.248,24.709 -122.38,-33.539 -97.082,-17.064 -71.192,1.766 0,0"
                   style="fill:#ffffff;fill-opacity:1;fill-rule:nonzero;stroke:none"
                   id="path556" /></g></g></g></g><g
           id="g564"><g
             id="g566" /><g
             id="g578"><g
               clip-path="url(#clipPath570)"
               opacity="0.300003"
               id="g576"><g
                 transform="translate(344.4521,597.5172)"
                 id="g574"><path
                   d="M 0,0 C 0,0 10.903,8.495 16.29,-0.253 14.39,1.205 9.764,4.817 0,0"
                   style="fill:#ffffff;fill-opacity:1;fill-rule:nonzero;stroke:none"
                   id="path572" /></g></g></g></g><g
           id="g580"
           transform="translate(591.9531,309.2012)"><path
             d="m 0,0 c -19.729,11.812 -61.463,-24.518 -59.782,-53.402 1.68,-28.883 -6.044,-62.133 40.976,-52.394 C 28.214,-96.055 49.374,-29.556 0,0"
             style="fill:#262222;fill-opacity:1;fill-rule:nonzero;stroke:none"
             id="path582" /></g><g
           id="g584"
           transform="translate(624.5332,192.3252)"><path
             d="M 0,0 C -15.727,-6.989 -42.652,-22.166 -35.265,-43.996 -27.876,-65.829 -5.709,-74.896 6.382,-53.4 18.474,-31.907 12.091,5.374 0,0"
             style="fill:#262222;fill-opacity:1;fill-rule:nonzero;stroke:none"
             id="path586" /></g><g
           id="g588"
           transform="translate(206.3862,329.0186)"><path
             d="m 0,0 c -28.431,-5.168 -86.989,-36.941 -86.989,-99.411 0,-62.47 25.524,-86.987 33.249,-109.154 7.725,-22.168 23.845,9.404 11.085,63.141 -12.763,53.738 48.697,66.835 64.147,82.956 C 36.941,-46.346 40.642,7.385 0,0"
             style="fill:#262222;fill-opacity:1;fill-rule:nonzero;stroke:none"
             id="path590" /></g><g
           id="g592"
           transform="translate(344.6821,413.3638)"><path
             d="M 0,0 C 38.945,-5.524 97.975,-14.437 89.723,55.003 81.474,124.443 6.876,109.317 -18.562,94.535 -43.999,79.754 -99.347,14.095 0,0"
             style="fill:#262222;fill-opacity:1;fill-rule:nonzero;stroke:none"
             id="path594" /></g><g
           id="g596"
           transform="translate(211.9014,475.0093)"><path
             d="M 0,0 C 0,0 -18.362,-15.158 -31.772,-58.588 -26.816,-49.552 -11.076,-14.574 0,0"
             style="fill:#262222;fill-opacity:1;fill-rule:nonzero;stroke:none"
             id="path598" /></g><g
           id="g600"
           transform="translate(107.5532,331.0196)"><path
             d="M 0,0 C 0,0 -59.46,-64.126 -25.069,-137.576 -29.442,-109.595 -48.383,-62.377 0,0"
             style="fill:#262222;fill-opacity:1;fill-rule:nonzero;stroke:none"
             id="path602" /></g><g
           id="g604"><g
             id="g606" /><g
             id="g618"><g
               clip-path="url(#clipPath610)"
               opacity="0.300003"
               id="g616"><g
                 transform="translate(250.4629,480.856)"
                 id="g614"><path
                   d="M 0,0 C 0,0 -23.992,-33.221 -39.988,-68.287 -31.989,-56.598 -4.921,-7.792 0,0"
                   style="fill:#ffffff;fill-opacity:1;fill-rule:nonzero;stroke:none"
                   id="path612" /></g></g></g></g><g
           id="g620"
           transform="translate(144.8555,333.4141)"><path
             d="M 0,0 C 0,0 -37.938,-33.425 -41.424,-53.522 -34.042,-41.218 -30.146,-31.169 0,0"
             style="fill:#b2b2b2;fill-opacity:1;fill-rule:nonzero;stroke:none"
             id="path622" /></g><g
           id="g624"
           transform="translate(486.502,115.042)"><path
             d="m 0,0 c 0,0 -11.824,6.209 -17.567,2.605 -5.742,-3.604 -16.778,-10.636 -10.359,-18.21 6.419,-7.573 25.667,-0.199 32.084,9.372"
             style="fill:#d8ccc3;fill-opacity:1;fill-rule:nonzero;stroke:none"
             id="path626" /></g><g
           id="g628"><g
             id="g630" /><g
             id="g642"><g
               clip-path="url(#clipPath634)"
               opacity="0.699997"
               id="g640"><g
                 transform="translate(490.5508,108.6553)"
                 id="g638"><path
                   d="m 0,0 c -19.399,-7.422 -30.382,2.202 -30.382,2.202 l -1.723,-1.793 c -2.105,-2.926 -2.755,-6.222 0.13,-9.628 C -25.59,-16.751 -6.521,-9.495 0,0"
                   style="fill:#bfb4ac;fill-opacity:1;fill-rule:nonzero;stroke:none"
                   id="path636" /></g></g></g></g><g
           id="g644"
           transform="translate(464.5439,100.9434)"><path
             d="M 0,0 C 2.976,-0.514 10.915,6.126 6.08,10.399 1.247,14.671 -0.005,13.721 -3.437,11.046 -6.867,8.372 -8.896,1.537 0,0"
             style="fill:#190f01;fill-opacity:1;fill-rule:nonzero;stroke:none"
             id="path646" /></g><g
           id="g648"
           transform="translate(466.7617,114.3858)"><path
             d="M 0,0 C 0,0 3.326,3.294 7.816,3.036 12.307,2.778 22.807,-0.582 19.091,-1.195 15.375,-1.811 14.729,-3.49 9.689,-3.231 4.65,-2.974 4.554,-0.517 0,0"
             style="fill:#e2d9d3;fill-opacity:1;fill-rule:nonzero;stroke:none"
             id="path650" /></g><g
           id="g652"
           transform="translate(446.5889,114.5879)"><path
             d="M 0,0 C -4.859,0.121 -11.887,2.783 -6.112,3.667 -3.641,4.044 0.145,4.961 3.871,5.092 8.85,5.268 13.729,4.686 15.283,5.772 18,7.675 13.45,-0.34 0,0"
             style="fill:#e2d9d3;fill-opacity:1;fill-rule:nonzero;stroke:none"
             id="path654" /></g><g
           id="g656"
           transform="translate(422.8867,114.5879)"><path
             d="m 0,0 c 0,0 2.444,3.464 5.705,3.327 3.26,-0.136 5.977,-0.543 5.977,-0.543 0,0 -4.282,-2.173 -6.318,-4.278 C 2.988,-3.601 2.377,-6.114 0,0"
             style="fill:#e2d9d3;fill-opacity:1;fill-rule:nonzero;stroke:none"
             id="path658" /></g><g
           id="g660"
           transform="translate(434.0215,114.2754)"><path
             d="M 0,0 C 0,0 -7.794,-2.37 -10.393,-9.261 -9.038,-7.756 -6.665,-3.236 0,0"
             style="fill:#e2d9d3;fill-opacity:1;fill-rule:nonzero;stroke:none"
             id="path662" /></g><g
           id="g664"
           transform="translate(420.877,113.8614)"><path
             d="M 0,0 C 0,0 -6.476,-3.615 -8.283,-7.604 -6.551,-5.535 0,0 0,0"
             style="fill:#e2d9d3;fill-opacity:1;fill-rule:nonzero;stroke:none"
             id="path666" /></g><g
           id="g668"
           transform="translate(464.708,113.8614)"><path
             d="M 0,0 C 0,0 -7.267,-3.272 -5.873,-8.998 -5.572,-7.379 -6.629,-5.271 0,0"
             style="fill:#e2d9d3;fill-opacity:1;fill-rule:nonzero;stroke:none"
             id="path670" /></g><g
           id="g672"
           transform="translate(531.3154,98.3272)"><path
             d="m 0,0 c 0,0 -6.025,-0.475 -7.032,-6.187 -1.004,-5.711 4.654,-0.053 6.186,1.851 C 0.688,-2.433 6.397,1.004 0,0"
             style="fill:#e2d9d3;fill-opacity:1;fill-rule:nonzero;stroke:none"
             id="path674" /></g><g
           id="g676"
           transform="translate(541.7197,87.7129)"><path
             d="m 0,0 c -5.169,1.268 -8.648,4.467 -3.615,8.792 5.033,4.326 19.216,7.517 20.422,6.383 C 18.011,14.039 15.528,10.637 11.7,6.666 7.872,2.693 7.232,-1.771 0,0"
             style="fill:#e2d9d3;fill-opacity:1;fill-rule:nonzero;stroke:none"
             id="path678" /></g><g
           id="g680"
           transform="translate(556.2549,88.5645)"><path
             d="m 0,0 c 0,0 2.837,9.644 8.794,11.344 5.955,1.702 3.476,4.469 11.203,6.383 C 27.725,19.641 14.82,9.785 14.749,4.964 14.677,0.142 -2.907,-3.759 0,0"
             style="fill:#e2d9d3;fill-opacity:1;fill-rule:nonzero;stroke:none"
             id="path682" /></g><g
           id="g684"
           transform="translate(578.6602,85.5147)"><path
             d="M 0,0 C 3.438,-0.952 8.651,-2.411 10.212,5.176 11.771,12.763 12.195,21.627 7.231,20.704 2.268,19.78 -4.609,1.275 0,0"
             style="fill:#e2d9d3;fill-opacity:1;fill-rule:nonzero;stroke:none"
             id="path686" /></g><g
           id="g688"
           transform="translate(595.8184,85.6563)"><path
             d="M 0,0 C 5.796,0.591 8.649,3.19 7.163,7.799 5.673,12.408 4.468,21.555 2.836,21.627 1.206,21.696 -0.78,9.856 -1.914,6.452 -3.049,3.048 -3.475,-0.354 0,0"
             style="fill:#e2d9d3;fill-opacity:1;fill-rule:nonzero;stroke:none"
             id="path690" /></g></g></g></g></svg>
