<svg xmlns="http://www.w3.org/2000/svg" viewBox="0 0 300 300" fill="#e82633">
  <path d="M 121.21,230.01
           C 127.58,227.54 134.76,223.67 142.78,218.24
             140.21,209.42 135.45,201.10 128.50,194.15
             119.46,185.11 107.91,179.52 95.42,178.00
             90.07,188.02 86.85,196.63 85.46,203.91
             100.70,207.23 113.59,216.90 121.21,230.01 Z
           M 74.08,299.99
           C 97.45,299.83 116.34,280.85 116.34,257.45
             116.34,233.95 97.29,214.90 73.79,214.90
             50.39,214.90 31.40,233.88 31.23,257.24
             31.23,257.23 31.23,257.22 31.23,257.22
             31.23,257.22 31.23,257.22 31.23,257.25
             31.23,266.94 18.43,300.00 0.00,300.00
             0.00,300.00 74.08,300.00 74.08,300.00
             74.08,300.00 74.08,299.99 74.08,299.99 Z
           M 298.67,1.08
           C 298.67,1.08 298.67,1.08 298.67,1.08
             298.67,1.08 298.55,0.98 298.55,0.98
             298.55,0.98 298.56,0.97 298.56,0.97
             289.11,-7.65 208.65,41.93 147.48,108.64
             126.99,131.19 112.13,150.45 102.01,166.64
             115.24,169.27 127.41,175.74 137.16,185.49
             144.52,192.86 149.86,201.49 153.19,210.69
             168.04,199.20 185.34,183.02 205.22,161.34
             266.08,94.34 308.12,9.70 298.67,1.08 Z" />
    <rect x="131.25" y="281.25" width="93.75" height="18.75" rx="2.8" />
    <rect x="243.75" y="281.25" width="18.75" height="18.75" rx="2.8" />
    <rect x="281.25" y="281.25" width="18.75" height="18.75" rx="2.8" />
</svg>
