<svg xmlns="http://www.w3.org/2000/svg" viewBox="0 0 217.33 220.53"><path d="M242.79,125,234,129.79l-1-1.76,8.77-4.8Zm-13.27,7.07-1.79.9-.89-1.79,1.79-.9Zm-6.88,2.61-9.09-.38,0-1,.62.78-.7.57-1.25-1.57,1-.79,9.46.39Zm-13,3.09L208,139l-1.25-1.57,1.56-1.24Zm-6.71,2.81-9.4-3.42.68-1.88,9.4,3.42Zm-12.3-.54-1.54,1.28-1.28-1.54,1.55-1.28Zm-6.4,4.1-9.72-2.35.47-2,9.72,2.36Zm-13.73-.81-1.85.78-.77-1.85,1.84-.77Zm-6.91,2.33-8.9.32,0-1,.71.7-.77.78-1.43-1.4,1.05-1.07,9.3-.33ZM151.05,150l-1.4,1.42-1.43-1.4,1.41-1.43ZM145,154.34l-9.23-.64.07-1,.19,1-.74.14-.37-2,.86-.17,9.36.66Zm-14.62.42-2,.38-.38-2,2-.38Zm-7.07.92-7.47.25,0-1,.59.81-2,1.48-1.18-1.61,2.29-1.67,7.78-.26Zm-13,4.49-1.62,1.18-1.18-1.62,1.62-1.18Zm-6.54,3.12L97.61,165l-3.48.95-.53-1.93,3.47-1,6.16-1.73Zm-14.46,4-1.64.45-.83-.24.55-1.92.56.16-.28,1-.26-1,1.37-.37ZM82,166.13l-5.63-1.61.27-1,.62.79L74,166.9l-1.23-1.58,3.67-2.86,6.12,1.75Zm-12,3.85-1.85,1.45-.51-.08.31-2h.08l-.16,1-.61-.79,1.51-1.18Zm-7.3.58-5.64-.89.15-1,.61.8-3.42,2.58-1.21-1.59L57,167.62l6.06,1Zm-12.28,4.52-1.66,1.26-.68-.05.15-2,.3,0-.07,1-.61-.8,1.36-1Zm-7.32.85L38,175.55l.07-1,.38.92L34,177.33l-.77-1.85,4.68-1.94,5.39.39Zm-13.78,3.32-1.7.7,0-3.17h2v1.67h-1l-.39-.92.31-.13Zm.61-7.34,5.37-5,2-1.74,1.3,1.52-2,1.73-.65-.76.69.73-5.36,5Zm11.21-10,1.52-1.3,1.3,1.52-1.52,1.3Zm6.57-3.12,5.81-1.84.3,1-.52-.85L56.7,155l1.06,1.71-3.43,2.11-5.93,1.87ZM61,152.33l1-.62.52.85-.86-.5.41-.7,1.73,1-.54.92L62,154Zm3.58-5.3,2.51-4.32,3-4.13,1.62,1.17-3,4.1-.81-.59.87.5L66.27,148ZM73,134.53l.38-.52,1.88-.64.64,1.89-1.58.54-.32-1,.81.59-.19.26Zm7-2.77,3.77-1.27.32.95-.86-.52,3.12-5.15,1.71,1-3.31,5.46-4.11,1.39Zm9.43-10.49,1.74-1,1,1.75-1.74,1Zm6.1-3.44L98,116.44l6.48-3.23.89,1.79-6.45,3.22-.45-.9.49.88-2.43,1.37Zm12.81-7.16,1.43-1.39,1.39,1.44-1.43,1.39Zm5-4.87.9-.87,8.13-4,.88,1.79-8,3.93-.44-.9.69.72-.78.76Zm12.42-7.93,1.35-1.47,1.47,1.36-1.35,1.47Zm4.56-5.07,5.42-8.4,1.68,1.08L132,93.89Zm11-9.66,2-.32.31,2-2,.31Zm5.86-.8L150.71,73l1.87.7L149.09,83ZM154.36,69l1.55-1.26,1.26,1.55-1.55,1.26Zm6-4.32,9.73-2.31.46,1.94-9.73,2.31Zm12-5.87,1.1-1.67,1.67,1.1L174,59.91Zm4.18-5.87,6.63-6.31,1.22-.41.64,1.9-1,.33-.32-.94.69.72-6.47,6.16Zm12.59-8.31L191,44l.63,1.89-1.89.64Zm5.77-2.88,3.6-3.29,1.47,1.34-3.13,4.06-1.58-1.22,3.12-4.06.8.61.67.74-3.6,3.29Zm-1.11,6.07-.07.09-.79-.61.93.35-.66,1.77-1.87-.7.71-1.91.16-.21Zm-2.35,6.28-1.14,3-3.42,6-1.74-1,3.38-5.94.87.49-.94-.35,1.12-3Zm-6,13.11.05,2-2,.05,0-2Zm.18,7,.07,2.93-6.08,5.22-1.31-1.51L184,75.93l.65.76-1,0-.06-2.45Zm-8.81,11.45-.65,1.89-1.89-.64.65-1.9Zm-2.26,6.62L174,93.91,167.72,100l-1.39-1.44,6.1-6,.7.72-.95-.33.48-1.39Zm-9,11.55-.6,1.91-1.9-.6.59-1.9Zm-2.09,6.68-.08.25L160.31,120l-1.89-.63,3.09-9.22.08-.25Zm-4.39,14.27-.48,1.94-1.94-.48.48-1.94Zm-2.57,6.89-6.32,6.58-.72-.69,1,0,0,.88-2-.08,0-1.26,6.58-6.85Zm-6.27,11.81-.07,2-2-.07.08-2Zm-1.74,7.12-5.62,6.32-.75-.66.94.35-.55,1.45-1.87-.71.61-1.62,5.74-6.46Zm-7.76,12.13-.71,1.87-1.87-.71.71-1.87Zm-3.28,6.39-3.64,5.52-.83-.56.95.31-1,3.22L131,177l1.08-3.36,3.72-5.64Zm-6.07,13.26-.55,1.72-.16.31-1.79-.9.13-.24.89.45-.95-.31.52-1.64Zm-3,6.5-2.21,4.38-3.86,3.81-1.4-1.42,3.73-3.7.71.71-.9-.45,2.14-4.23Zm-9.62,11.7-.27.27-.71-.71,1,.13-.22,1.61-2-.27.26-1.94.51-.51Zm-.85,6.25-.56,4.22-4.51,4.57-1.42-1.41,4.27-4.32.72.7-1-.13.52-3.89Zm-7.9,11.67.23,2-2,.23-.23-2Zm.79,6.95.51,4.57-2.29,5.46-1.84-.77,2.19-5.22.92.38-1,.12-.49-4.31Zm-5.53,14-1.49-1.33,1.34-1.49,1.49,1.34Zm-5.2-4.68-1.41-1.26,2.31-9,1.94.5-2.17,8.44-1-.25.66-.75,1,.87Zm2.08-15.13.46-1.94,2,.46-.46,1.94Zm1.56-6.54-.4-9.94,1,0-1,.12v0l2-.25,0,.1.4,10Zm-1-14.88-.24-2,2-.24.24,2Zm-.64-7.07-.11-8.09.17-2,2,.17-.16,1.95-1-.09h1l.11,8.05Zm.48-15.07.17-2,2,.17-.17,2Zm-.88-6.41-2-6.39-.47-3.44,2-.27.46,3.36-1,.13.95-.3,2,6.3Zm-3.2-14.78-.28-2.08.36-.55,1.66,1.11-.15.23L99.3,153l1-.14.24,1.71Zm2.87-6.78,3.77-5.63.84.55-.9.44-1.42-2.89,1.8-.88,1.67,3.41-4.1,6.11Zm.1-12-.88-1.8,1.8-.88.88,1.8Zm.57-7.16,3.23-6.38.89.45-.83.57-1.6-2.35,1.65-1.13,1.94,2.84-3.5,6.9Zm-1.14-11.84-1.13-1.65,1.65-1.13,1.13,1.65Zm-1.16-7,4.19-7.64.87.48-.86.51-.65-1.12,1.73-1L106,103l-4.46,8.13Zm1-12.09-1-1.73,1.73-1,1,1.73ZM98,91.24l.08-8.47L98.68,81l1.9.62-.52,1.6-1-.31h1L100,91.26Zm2.19-15,.61-1.91,1.9.62-.61,1.9Zm2-6.66,2-7,1,.28-1,.13-.35-2.7,2-.26.37,2.91-2.09,7.19Zm1-14.24-.25-2,2-.25.26,2Zm-1.19-6.83-1.16-5.78,1.89-4.33,1.84.8-1.77,4-.91-.4,1-.19,1.09,5.47Zm2.73-14.7.61-1.38.92.4-1,0,0-.48,2-.06,0,.71-.69,1.59Zm.38-6.44-.11-4.53,1,0-.57.82L101,20.55l1.14-1.64,4.91,3.4.13,5Zm-.75-4.73,1.09,1.67-1.68,1.09-1.09-1.68Zm3.85,5.73,5.49,7.05.59,1.08-1.76,1-.55-1L113,36l-.79.61-5.44-7Zm8.46,12.53.95,1.76-1.75,1-1-1.76Zm3.56,5.89,4,5.87,1.16,2.87-1.85.75-1.13-2.77.93-.37-.82.56-4-5.78Zm7.08,13.37.76,1.85-1.86.76-.75-1.86Zm3.29,6,2.77,4.51,1,5-2,.38-.94-4.79,1-.2-.85.53L129,67.21Zm4.71,14.39.09.45-1,.2.89-.46.71,1.36-1.78.92-.77-1.49-.12-.59Zm3,6,1.7,3.3.1,6.76-2,0-.09-6.52,1,0-.89.46-1.6-3.09Zm1.85,14.09,1.59,1.22-1.22,1.59L139,102.22Zm5.55,4.27,3.32,2.56.37,6.72-2,.11-.35-6.26,1-.06-.61.79-3-2.27Zm3.82,13.25,1.73,1-1,1.73-1.73-1Zm6.05,3.52,4.61,2.69-.85,5.94-2-.28.76-5.28,1,.14-.5.87-4-2.35Zm3,13.58-.24,1.71-1-.14.71-.7.19.19L157,137.72l-.54-.55.31-2.2Zm3.19,4.61,3.81,3.85,2.67,3.95-1.65,1.13-2.63-3.88.83-.56-.71.7-3.74-3.78Zm9.28,11.95.44.63-.08,1.89-2-.08.06-1.56,1,0-.82.56-.25-.36Zm.15,7.52-.19,4.78-1,0,.47-.88,4.58,2.49-1,1.75-5.13-2.78.22-5.41Zm8.26,8.73,1.76.95-1,1.76-1.76-1Zm2.55,6.73.17,6.1-1,0,.92-.38,1.49,3.59-1.84.77-1.57-3.77-.18-6.28Zm3.52,14,.43,1.05-.92.38.8-.6.52.69-1.6,1.2-.59-.79-.49-1.17Zm3.82,5.53,2.62,3.51,3,4.84-1.69,1.06-3-4.81.85-.52-.81.59-2.59-3.47Zm8.28,12.58,1.08,1.68-1.68,1.08-1.08-1.68Zm3.8,5.87,1.36,2.11-1.41,1.36-6.13-4.3,1.15-1.64,6.13,4.3-.57.82-.84.55-1.37-2.11Zm-10.48-2.85-1.85-.76.75-1.85,1.85.75Zm-6.81-3.18-5.49-8.36,1.67-1.1L186,205.6Zm-9.67-9.33-1.93-.51.51-1.93,1.93.51Zm-7-2.19-7.61-5.25-.66-.6,1.35-1.48.6.56-.67.74.57-.83,7.56,5.21Zm-12-9.21-1.48-1.34,1.35-1.48,1.48,1.34Zm-5.25-4.53-5.66-4.52-2.12-1.81,1.3-1.52,2.11,1.8-.65.76.62-.78,5.65,4.51Zm-11.58-9.58-1.51-1.31,1.3-1.51,1.52,1.3Zm-5.68-3.69-5-2.82-1.82-4.62,1.87-.73,1.68,4.28-.93.37.49-.87,4.7,2.65Zm-8.65-12.09-.72-1.83.93-.36-.45.89,0,0,.9-1.79.37.19.86,2.19Zm-4.74-3.57-4.64-2.34.45-.89-.37.93-4.46-1.78.74-1.86,4.51,1.8,4.67,2.35Zm-13.67-5.94-.87-.35-1-1.32,1.61-1.17.8,1.08-.81.59.37-.93.61.25Zm-4.78-5.71L99,137.6l.81-.59-.63.78-4.65-3.72,1.25-1.57,4.76,3.81,2.46,3.38Zm-10.7-9.69-1.75-1,1-1.75,1.75,1Zm-6.14-3.36-2.13-1.17-4.89-6.32,1.59-1.22,4.76,6.16-.79.61.48-.88,1.94,1.07ZM74.15,117l-1.6-1.2,1.19-1.6,1.61,1.19Zm-5.61-4.19-.44-.33-7.55-5.68,1.2-1.6,7.55,5.68.44.33Zm-12.21-8.42-1.75-1,1-1.76,1.75,1ZM50.19,101,42.5,96.18,41.77,95l1.71-1,.61,1-.86.51.53-.85,7.48,4.66Zm-11-10.3-1-1.72,1.71-1,1,1.72ZM35.1,85.78l-6.36-4.1.54-.84.71.7-1.7,1.74-1.43-1.4,2.27-2.32,7.05,4.54Zm-2.86-5.22,1.95-.42.42,2-2,.42Zm7.42-.78,8.39,4.14-.45.9,0-1h.64l0,2-.87,0-8.59-4.23Zm13.61,4.16,2,0,0,2-2,0Zm7.17,1.25,7.08,3.38-.43.9.3-1,2.06.66-.62,1.91-2.12-.68L59.58,87Zm13.77,5.53,1.9.61-.61,1.9-1.91-.61Zm6.11-.26L88,88.27l2.24,2.4L88.74,92l-1.82-2,.73-.69.27,1-7,2Zm13.3,3.86L95,95.78l-1.46,1.37-1.37-1.46ZM98.37,97l8.09-.8,2.13.42-.39,2-2-.39.19-1,.1,1L98.57,99Zm15.12.58,2,.38-.39,2-2-.38Zm6.59,0,6.9-.9,3.29,1.46-.81,1.83-3-1.35.4-.91.14,1-6.63.87Zm14.76,2.6,1.73.77-.41.91,0-1h.11l-.08,2-.3,0L134,102Zm6.47.89,5.46.23,3.72,3.82-1.43,1.39L145.62,103l.72-.7-.05,1-5.07-.21ZM154,108.73l1.39,1.43-1.43,1.4-1.4-1.43Zm5-.58,7.05-2.7,2.92,1.84L167.87,109l-2.49-1.57.53-.85.36.94L159.68,110ZM173.16,110l1.69,1.07-1.07,1.69-1.69-1.07Zm5.92.81,6.68-.72,3.1,2.79-1.34,1.49-2.77-2.5.67-.74.11,1-6.24.68Zm13.49,5.42,1.49,1.34L192.72,119l-1.49-1.34Zm5.74,2.77,5.59,1.57,4,1.47-.69,1.88-4-1.46.34-.94-.27,1-5.55-1.56Zm14.29,4.76.82.3-.35.94,0-1,1.13-.06.11,2-1.34.08-1-.37Zm6.54-.1,4.56-.25,5.29,2.81-.94,1.77-5-2.69.47-.88.05,1-4.28.24Zm13.48,4.57,1.87-.68.69,1.87-1.88.69Zm6.57-2.4,4.31-1.58.69,1.88-4.31,1.58Z" transform="translate(-26.86 -18.91)" fill="#4285f4"/></svg>