<svg xmlns="http://www.w3.org/2000/svg" xmlns:xlink="http://www.w3.org/1999/xlink" viewBox="0 0 213.66 220.33"><defs><linearGradient id="a" x1="1.04" y1="259.04" x2="257.04" y2="3.04" gradientTransform="matrix(1, 0, 0, -1, 0, 258)" gradientUnits="userSpaceOnUse"><stop offset="0" stop-color="#4285f4"/><stop offset="1" stop-color="#0f9d58"/></linearGradient></defs><path d="M237.43,125.22l-9.13,5-9.22,4.61-10.37-.43L200,141.34l-11.2-4.07-8.65,7.14-10.87-2.63-9.37,3.93-10.19.36-8.34,8.47L131,153.81l-9.84,1.89-10.2.34-8.81,6.42-9.65,2.72-9.67,2.64-11-3.15-8.72,6.82-10.66-1.7-8.76,6.64-10.44-.76-9.36.72,8.79-5L40,164.48,47.59,158l10.24-3.23,8.58-5.3,5.39-9.3,6.1-8.41L88,128.31l5.53-9.12,8.84-5,9.16-4.57,7.23-7L128,98.12l6.86-7.46,5.73-8.88L151.92,80,156,69l7.76-6.33,10.77-2.56,5.78-8.82,7.28-6.94L197.69,41,197,43.71l-6.25,8.1-3.53,9.41-5,8.73.28,11.25-8.3,7.12L171,97.87l-7.63,7.44-3,9.66-3.21,9.57-2.46,9.93-7.29,7.6L146.91,153,140,160.77l-3.58,9.39-5.57,8.44-3.07,9.63-4.52,8.94-7.56,7.48-1.38,10.45-7.44,7.53,1.33,11.76-9,3.78.7-10,2.57-10,2.36-10-.4-10-1.22-10-.14-10,.85-10-3.2-10L99.3,148,106,138l-4.89-10,5.07-10-6.85-10,5.49-10L99,87.94l.1-10,3.24-10,2.91-10-1.29-10-2-10,4.37-10-.26-10L103.34,24l5.49,8.48,6.29,8.08,4.78,8.82,5.74,8.35L129.42,67l5.26,8.59,2,10.15,4.61,8.89.16,11.05,8.88,6.83.6,10.83,10.45,6.08-1.71,11.94,7.45,7.53,5.68,8.38-.47,11.34,10.86,5.89.32,11,3.85,9.26,6.11,8.18,5.32,8.55L195,218.35l-4-11.09-9.66-3.95-5.79-8.8L165,191.72l-8.26-5.7-7.43-6.75L141.5,173l-7.61-6.52-8.84-5-4.22-10.77-9.14-4.6L102,142.28l-6.12-8.39L88,127.63l-8.92-4.88-6.31-8.16-8-6-8-6-8.9-4.9-8.56-5.33-5.5-9.17-8.46-5.45,7.09,6,10.8-2.32,9.24,4.55,10.22.23L72,90.59l9.57,3.08,11-3.15,8.26,8.83,10.5-1,9.84,1.93,10.59-1.39L141,103l10.18.42,8.32,8.55,11.25-4.3,9,5.68,10.53-1.15,8.52,7.68,9.66,2.72,9.47,3.47,10.41-.57,9.16,4.86Z" transform="translate(-23.86 -17.83)" fill="url(#a)"/></svg>