<svg xmlns="http://www.w3.org/2000/svg" viewBox="0 0 219.66 223.74"><path d="M242.79,125l-9.15,5-9.46,4.73-10.63-.44,0-1,.62.78-9.12,7.3-11.73-4.26.34-.94.64.77-9,7.46L174,141.64l.23-1,.39.92-9.54,4-10.38.37,0-1,.71.7-8.66,8.8-10.9-.76.07-1,.19,1-9.92,1.91-10.27.34,0-1,.59.81-9,6.52L97.61,165l-9.94,2.72-11.26-3.23.27-1,.62.79-9.06,7.08-11.09-1.76.15-1,.61.8-9.06,6.86L38,175.55l.07-1,.38.92L27.71,180l0-5.9,7.65-7.19,7.79-6.66,10.43-3.29.3,1-.52-.85L62,151.71l.52.85-.86-.5,5.42-9.35,6.32-8.7,10.39-3.52.32.95-.86-.52,5.67-9.35L98,116.44l9.19-4.58.45.9-.7-.72,7.35-7.11,9.34-4.59.44.9-.73-.68,6.86-7.46.73.68-.84-.54L136,84l11.82-1.87.16,1-.94-.35,4.17-11.2,8.15-6.65,11-2.61.23,1-.84-.54,5.84-8.92,7.52-7.17,10.31-3.47.32,1-.67-.74,5.37-4.91,1.47,1.34-6.25,8.11-.79-.61.93.35-3.56,9.49-5,8.79-.87-.49,1,0,.29,11.72L177,84.57l-.65-.76.94.33L174,93.91l-7.8,7.61-.69-.72.95.3-3,9.66-3.22,9.58-.95-.32,1,.24-2.52,10.2-7.48,7.79-.72-.69,1,0-.43,11.27-7.16,8-.75-.66.94.35-3.62,9.5-5.63,8.53-.83-.56.95.31-3.1,9.71-4.62,9.16-7.68,7.59-.71-.71,1,.13-1.43,10.78-7.68,7.77-.71-.7,1-.11,1.35,12-4.52,10.79-8.13-7.31,2.72-10.61,2.36-10,1,.23-1,0-.4-10,1,0-1,.12-1.23-10.06L102,183.05l.86-10.07,1,.09-.95.3-3.23-10.1L98.26,152.8l6.92-10.33.84.55-.9.44L100,133l5.3-10.46.89.45-.83.57L98.17,113l5.8-10.55.87.48-.86.51L98,93.21l.1-10.44,3.29-10.16.95.31-1-.28,2.91-10,1,.28-1,.13L103,53l1-.12-1,.19-2.06-10.32,4.5-10.3.92.4-1,0-.26-10,1,0-.57.82-4.92-3.4.57-.82.84-.54,5.49,8.47-.84.54.79-.61,6.34,8.15,4.82,8.89-.88.47.82-.56,5.81,8.44,3.81,9.39-.92.38.85-.52,5.36,8.73,2,10.33-1,.2.89-.46,4.71,9.1.16,11.28h-1l.61-.79,9.25,7.12.63,11.28-1,.06.5-.87,11,6.43-1.8,12.6-1-.14.71-.7,7.52,7.59,5.91,8.73-.48,11.67-1,0,.47-.88L182,169.36l.33,11.53-1,0,.92-.38,3.85,9.26-.92.38.8-.6,6.13,8.21,5.35,8.59,5.47,8.46-1.41,1.36-7.13-5,.58-.82-.38.92-9.95-4.06-6-9.06.84-.55-.26,1-10.75-2.84-8.47-5.83-7.48-6.79.67-.74-.62.78-7.84-6.26-7.63-6.53.65-.76-.49.87-9.14-5.15-4.36-11.1.93-.36-.45.89-9.14-4.61.45-.89-.37.93-10-4L99,137.6l.81-.59-.63.78-7.81-6.26.62-.78-.48.88-9.1-5-6.43-8.31.79-.62-.6.8-8-6-8-6,.6-.8-.48.87-8.92-4.92L42.5,96.18l-5.62-9.37.86-.52-.54.84-8.46-5.45.54-.84.71.7-1.71,1.74-.71-.69-.21-1,11.14-2.4,9.55,4.71-.45.9,0-1,10.43.23,9.46,4.52-.43.9.3-1L77,91.6l-.31,1-.27-1L88,88.27l8.67,9.28-.73.68-.09-1,10.65-1,10,2-.19,1-.13-1L127,96.71l9.59,4.27-.41.91,0-1,10.57.44,8.6,8.84-.71.69-.36-.93L166,105.45l9.4,6-.53.84-.11-1,11-1.19,8.85,8-.67.74.27-1,9.69,2.72,9.52,3.49-.35.94,0-1,10.68-.59,9.41,5-.47.89-.34-.94,11.2-4.1.69,1.88-11.63,4.25L223,125.27l.47-.88.05,1-10.61.59-9.67-3.55.34-.94-.27,1-9.88-2.78-8.69-7.84.67-.74.11,1-10.88,1.18-9.27-5.86.53-.85.36.94L154.4,112l-8.78-9,.72-.7-.05,1-10.36-.43-9.5-4.23.4-.91.14,1-10.76,1.41-10-2,.19-1,.1,1-11,1.09-8.59-9.19.73-.69.27,1L76.64,93.6l-9.93-3.19L57.39,86l.43-.9,0,1-10.44-.24-9.43-4.65.44-.9.21,1-14,3,4.6-4.7,9.35,6L44.09,95l-.86.51.53-.85,8.56,5.33-.52.85.48-.87,9,4.93,8.06,6.07L77.44,117l6.39,8.27-.79.61.48-.88,9,4.93,8,6.39,6.2,8.5-.81.59.37-.93,9.76,3.9,9.51,4.79,4.37,11.12-.93.37.49-.87,8.92,5,7.69,6.58-.65.76.62-.78,7.85,6.26,7.45,6.78-.67.74.57-.83,8.27,5.7-.57.82.25-1,11,2.89,6,9.12-.84.55.38-.92,9.77,4,7.22,5.06-.57.82-.84.55-5.5-8.49-5.32-8.56.85-.52-.81.59-6.17-8.27-4-9.55L180,170l1,0-.47.88-11.41-6.19.49-12,1,0-.82.56-5.68-8.38.83-.56-.71.7-7.8-7.88,1.78-12.43,1,.14-.5.87-10.92-6.36L147.16,108l1-.06-.61.79-9.27-7.13-.16-11.52,1,0-.89.46-4.67-9-2-10.29,1-.2-.85.53-5.31-8.66-3.81-9.37.93-.37-.82.56-5.77-8.39-4.81-8.86L113,36l-.79.61-6.32-8.12L100.33,20l1.41-1.37,5.33,3.69.28,10.74-4.46,10.22-.91-.4,1-.19,2,10L106.28,63l-3,10.23-3.25,10-1-.31h1L100,93H99l.86-.51L106,103l-5.77,10.51-.87-.48.82-.57,7.19,10.51L102,133.46l-.89-.45.89-.44,5.15,10.53-7,10.49L99.3,153l1-.14,1.38,10-1,.13.95-.3L104.9,173,104,183.17l-1-.09h1l.14,10-1,0,1-.12L105.39,203l.41,10.19-2.4,10.17-2.58,10-1-.25.66-.75,6.64,6-.67.74-.92-.38,3.88-9.25.92.38-1,.12L108,217.76l7.78-7.87.72.7-1-.13,1.43-10.79,7.8-7.72.71.71-.9-.45,4.52-8.94.89.45-.95-.31,3.12-9.76,5.64-8.55.83.55-.93-.36,3.64-9.56,7.05-7.92.74.66-1,0,.43-11.3,7.57-7.87.72.69-1-.24,2.46-10,3.22-9.58,3.11-9.9,7.81-7.62.7.72-.95-.33,3.35-9.8,8.5-7.3.65.76-1,0-.29-11.52,5.1-9,.87.49-.94-.35L192,46.81l6.34-8.23.8.61.67.74L194.29,45,184,48.45l-.32-.94.69.72-7.28,6.93-.69-.72.84.55-6,9.15-11.16,2.65-.23-1,.63.77-7.76,6.33-.64-.77.94.35L148.74,84l-12,1.9-.16-1,.84.54-5.77,9-7,7.66-9.37,4.61-.44-.9.69.72-7.34,7.1-9.3,4.64-.45-.9.49.88-8.83,5-.49-.87.85.52-5.72,9.44L74.31,135.8l-.32-1,.81.59-6.11,8.41-.81-.59.87.5-5.52,9.52-8.9,5.5L44,162.05l-.3-1,.65.76-7.62,6.52-.65-.76.69.73-7.33,6.88-.68-.73h1l0,4h-1l-.39-.92,9.61-4,10.68.77-.07,1-.61-.8,9.1-6.89,11.08,1.76-.16,1-.61-.79,9.12-7.12L88,165.75l-.28,1-.26-1,9.66-2.64,9.65-2.72.27,1-.58-.8,9-6.6,10.5-.35,0,1-.19-1,10-1.92,10.57.74-.07,1-.71-.7,8.61-8.76,10.59-.37,0,1-.39-.93,9.68-4,11.19,2.71-.23,1-.64-.77L193.5,135l11.74,4.27-.34.94-.62-.78,9-7.18,10.74.45,0,1-.45-.89,9.22-4.61.45.9-.48-.88,9.13-5Zm.33,3.18-10,1.12-.11-1,.62.78-8.94,7-10.34,1.22-10.31.06v-1l.24,1-9.74,2.35-.23-1,.57.82-9.11,6.33-10.61.45-11-2.75.25-1,.54.84-9,5.9-9.8,3.16-10.14,1.05-.1-1,.16,1-10,1.64-10.61-.9.09-1,.21,1-9.81,2.06-.2-1,.48.88-9.13,5-.48-.87.57.82-9,6.22-10,2.93-10.77-1.21-10.67-1.65.16-1,.4.91-9.35,4.14-9.6,3.63L27,176.55l.16-3.58,10.59-3.8.34.94-.73-.69,7-7.38,7.33-7,8.29-5.82,8.56-5.38.53.84-.75-.65L75,136.23l8.33-5.82.57.82-.62-.78,7.95-6.3,9.47-4.37.42.91-.61-.8,8-6,8-6,.6.8-.88-.47,5.27-9.79,8.35-6.18L140,88.6l.34,1-.88-.48,5.37-9.8,9.49-4.66.44.9-.54-.85,8.51-5.4.54.85-.86-.51L168,60.15l8.94-5.27.51.86-.57-.83,8.31-5.65.56.83-.73-.68,7.09-7.68,12.76-2.62-8.59,10.13-7.53,7.53-.71-.7,1-.14,1.74,12.46-8.68,7.49-.65-.76,1,.25-2.56,9.88-1-.25,1,.22-2.23,10.2-5.05,9-7.18,7.78-7.27,7.64-.72-.69,1-.06.63,11.81-7,8.18-.75-.65.89.46-4.63,9-7.23,7.78-.73-.68.89.44-4.46,9-.9-.45,1,.34-3.37,9.49-1-.33,1,.3-3.11,9.64-3.4,9.73-7.41,7.77-.72-.69.93.37-3.67,9.35-.93-.37,1-.1,1.31,12.05-5.3,9.17-9.68,6.67L100.32,236l2.47-3.38.81.59-.94.34-3.73-10.2.47-10.22,1,0h-1L99.27,203l3.39-10.18,1,.32-.94.34L98.89,183l6.25-10.43.86.52-1,.29-3.12-10.06L99.83,153l2.24-10.22,1,.21-1,.24L99.58,133l3.27-10.28,1,.3-1,.15-1.49-10,1-.14-1,.18-1.87-10L98.09,93,99,82.71l3.73-10.14.94.35-1-.21,2.08-10,1,.2-.82.57L97.71,53l5.46-10.55.89.46-1,.1-1-10.2,2.8-10.19,1,.26-1,.15-.79-5.26,1.85-.67L111.25,26,110,38l-1-.1.79-.62,6.41,8.17,4.15,9.33,2.9,9.79-1,.28.86-.51L128.38,73l3.79,9.37-.93.38.53-.85,10.63,6.61-1.81,12.59-1-.14.81-.59,6,8.23-.81.59.75-.67,7,7.94,3.26,9.78-1,.31.92-.38,3.82,9.28-.92.38.69-.73,7.87,7.52,4.47,9.36,1.12,10.75-1,.11,1-.21,2.16,10.07-1,.21.63-.78,8.68,7.06,6.36,8.51.71,11.09-1,.06.94-.34,3.4,9.48-.94.34.93-.38,4.95,12-8.33-4.85-7-7.74-5.59-9.19.85-.52-.13,1L167.2,197l-4-11.89,1-.32-.4.92-9.5-4.15-9.45-4.29-9.32-5-4.56-10.85.92-.38-.33.94-10.16-3.62-7.81-6.86-5.25-9.76.89-.47,0,1-13-.49-6.11-9.18.83-.56-.78.63-6.4-8,.78-.62-.31,1L73.84,121.6l-7.73-6.69.65-.76-.5.86-8.93-5.2-6.16-8.72-5.65-9,.85-.53-.06,1-12.78-.77L27.9,81.63l-.33-4.87,11.44,1,9.32,5-.47.88.15-1,10.08,1.61,9.32,4.83-.46.89,0-1,10.43-.5L87.62,89l10.23,1.87,8.56,8.72-.71.7.13-1,10,1.28-.13,1v-1l10.5-.06,9.53,4.2-.4.91.26-1,9.7,2.63,9.57,3.24-.32,1-.19-1,11-2.15,9.81,3.2-.31,1,.2-1,9.83,2,9.74,2.44,9.71,2.49-.25,1-.12-1,10.95-1.38,9.21,6.23-.56.83.34-.94,9.48,3.47-.34.94-.11-1,10.53-1.13.22,2-10.77,1.16-9.81-3.6-9-6.08.56-.83.12,1L204,120.5,194.1,118l-9.71-2.43.24-1-.2,1-9.87-2L165,110.36l.31-1,.19,1-11,2.16-9.79-3.32.32-1-.26,1L135,106.61l-9.4-4.14.4-.91v1l-10.35,0-10.39-1.33-8.58-8.74.71-.7-.18,1L87.32,91l.18-1,0,1-10.16-.49,0-1,0,1-10.66.51-9.42-4.88.46-.89-.16,1L47.53,84.67l-9.29-5,.47-.88-.09,1-10.06-.91.09-1,1-.07.24,3.48-1,.07.87-.49L35,90.32l-.87.49.06-1,12.74.76L52.85,100l-.85.53.81-.58,6,8.52-.81.57.5-.86,8.83,5.14L75,120l-.65.75.31-.95,10.45,3.4,6.62,8.3,5.85,8.79-.83.56,0-1,13,.49,5.42,10.1-.88.47.66-.75,7.53,6.62-.66.76.34-.95,10.39,3.7,4.6,10.93-.93.38.48-.88,9,4.81-.47.88.41-.91,9.4,4.25L165,184l3.94,11.72-1,.32.14-1,12,1.65,5.79,9.52-.85.52.74-.67,6.79,7.56-.75.66.51-.86,5.63,3.29-.5.86-.93.38-3.83-9.29-3.46-9.64-.7-10.92,1-.07-.8.6-6.11-8.17.8-.6-.63.78-8.86-7.21L171.69,163l-1.11-10.64,1-.1-.9.43-4.31-9,.9-.43-.69.72-7.89-7.54-3.92-9.5-3.21-9.61.95-.32-.75.67-6.94-7.82-6.26-8.6,1.78-12.35,1,.14-.53.85-10.35-6.43-3.89-9.61.93-.37-.86.51-5.23-8.74-2.92-9.84,1-.29-.92.41-4.07-9.16.92-.4-.79.61L108,38.19l1.24-12.09,1,.1-.86.51-5.18-8.62.86-.51,1-.15.82,5.47L104,33.12l-1-.26,1-.1,1,10.31L99.76,53.35l-.89-.46.82-.57,7.11,10.37-2.17,10.5-3.72,10.09-.94-.35,1,.09-.88,10-1-.08,1-.14,1.36,10-1,.13,1-.18,1.86,10,1.52,10.26-3.26,10.24-1-.3,1-.24L104.07,143l-2.24,10.24-1-.21,1-.2,2,10-1,.2,1-.29,3.23,10.44-6.24,10.4-.86-.52.94-.34,3.74,10.34-3.45,10.35-1-.32h1l.13,10-.47,10.05-1-.05.94-.34,3.85,10.52-2.78,3.81-.81-.59-.57-.82,9.5-6.55.57.83-.87-.5,5-8.7.86.5-1,.11-1.3-12,3.83-9.76,7.4-7.76.72.69-.94-.33,3.32-9.52.94.33-.95-.31,3.11-9.63,3.39-9.57,4.56-9.15,7.23-7.78.73.68-.89-.46,4.62-9,6.81-8,.76.65-1,.05-.63-11.84,7.54-7.92,7.1-7.7.74.68-.87-.49,4.91-8.75.88.49-1-.21,2.2-10.08,2.64-10.2,8.5-7.34.66.76-1,.13L187,55.71l7.86-7.85.7.71-.76-.65,6.7-7.89.76.64.2,1-9.62,2-.2-1,.74.68-7,7.53L178,56.58l-8.74,5.16-.51-.86.87.51L164,70.82l-8.76,5.56L146,80.93l-.44-.9.87.48L141,90.36l-10.32,3.69-.34-.94.6.8-8.06,6-.6-.81.89.48-5.27,9.78-8.21,6.12-8.08,6.1-9.46,4.37-.42-.91.62.79L84.51,132l-8.25,5.77-.57-.82.75.66-6.79,7.77L61,150.85l-.53-.84.57.82-8.21,5.77-.57-.82.69.72-7.25,7-.7-.72.73.69L38.62,171l-10.18,3.66-.34-.94,1,0L29,175.46l-1-.05-.12-1,10-1.25.12,1-.35-.94,9.45-3.57.36.94-.41-.92,9.6-4.25,10.94,1.69-.15,1,.11-1,10.54,1.19-.11,1-.28-1,9.62-2.83.29,1-.57-.82L96,159.47l9.31-5.11,10.09-2.12,10.62.91-.08,1-.17-1,9.94-1.63,10.06-1,.11,1-.31-1,9.57-3.09.3,1-.54-.84,9.3-6.06,11.32,2.81-.24,1-.05-1,10.18-.43,0,1-.57-.82,9-6.27,10-2.42,10.38-.06v1l-.11-1,10-1.18.12,1-.62-.78,8.94-7,10.3-1.15Z" transform="translate(-24.53 -17.06)" fill="#4285f4"/></svg>