<?xml version="1.0" encoding="utf-8" ?>
<svg xmlns="http://www.w3.org/2000/svg" xmlns:xlink="http://www.w3.org/1999/xlink" width="256" height="256">
	<defs>
		<linearGradient id="gradient_0" gradientUnits="userSpaceOnUse" x1="0" y1="0" x2="256" y2="256">
			<stop offset="0" stop-color="#4285F4"/>
			<stop offset="1" stop-color="#0F9D58"/>
		</linearGradient>
	</defs>
	<path fill="url(#gradient_0)" d="M237.42950439453125 125.22140502929688L228.29798889160156 130.22093200683594L219.07708740234375 134.82879638671875L208.705810546875 134.39646911621094L200.01840209960938 141.34175109863281L188.81658935546875 137.27064514160156L180.17437744140625 144.41389465332031L169.30107116699219 141.78204345703125L159.92518615722656 145.71089172363281L149.73532104492188 146.0733642578125L141.39564514160156 154.54202270507812L130.95646667480469 153.81236267089844L121.11536407470703 155.70281982421875L110.92051696777344 156.04353332519531L102.11212921142578 162.458740234375L92.460517883300781 165.17951965332031L82.791213989257812 167.82283020019531L71.799789428710938 164.67352294921875L63.082073211669922 171.48603820800781L52.422920227050781 169.79251098632812L43.664390563964844 176.42616271972656L33.219432830810547 175.67108154296875L23.856523513793945 176.394775390625L32.654689788818359 171.36442565917969L39.977699279785156 164.48428344726562L47.592887878417969 157.97052001953125L57.829830169677734 154.74432373046875L66.407798767089844 149.4378662109375L71.799972534179688 140.13655090332031L77.904678344726562 131.72872924804688L87.991065979003906 128.31378173828125L93.524002075195312 119.18897247314453L102.35723876953125 114.20261383056641L111.52277374267578 109.63294982910156L118.75386047363281 102.6375732421875L127.95748901367188 98.115669250488281L134.81930541992188 90.6572265625L140.54707336425781 81.776748657226562L151.92039489746094 79.975547790527344L155.99868774414062 69.026679992675781L163.76095581054688 62.697368621826172L174.53256225585938 60.141639709472656L180.30513000488281 51.31732177734375L187.58634948730469 44.384796142578125L197.687744140625 40.988670349121094L196.97404479980469 43.705333709716797L190.72494506835938 51.811790466308594L187.1854248046875 61.223102569580078L182.22824096679688 69.951705932617188L182.50540161132812 81.201034545898438L174.21290588378906 88.323440551757812L170.95271301269531 97.869293212890625L163.32366943359375 105.31122589111328L160.29498291015625 114.96858978271484L157.07989501953125 124.53617858886719L154.62411499023438 134.46942138671875L147.32687377929688 142.0711669921875L146.91043090820312 152.98649597167969L139.99075317382812 160.77006530761719L136.41229248046875 170.16265869140625L130.84320068359375 178.59663391113281L127.76612091064453 188.23068237304688L123.25450897216797 197.17387390136719L115.69222259521484 204.64796447753906L114.31336975097656 215.09986877441406L106.86927032470703 222.630859375L108.19766998291016 234.386474609375L99.16436767578125 238.16551208496094L99.85638427734375 228.15043640136719L102.42779541015625 218.13536071777344L104.79205322265625 208.12028503417969L104.38873291015625 198.10520935058594L103.16864013671875 188.09011840820312L103.031982421875 178.07505798339844L103.884033203125 168.05996704101562L100.68115234375 158.04489135742188L99.2999267578125 148.02981567382812L106.0150146484375 138.01473999023438L101.12635040283203 127.99966430664062L106.19861602783203 117.98459625244141L99.346015930175781 107.96951293945312L104.84485626220703 97.954437255859375L99.009590148925781 87.939346313476562L99.112068176269531 77.924270629882812L102.35028839111328 67.909210205078125L105.26300811767578 57.894119262695312L103.97064971923828 47.879043579101562L101.97504425048828 37.863983154296875L106.34638214111328 27.848892211914062L106.08661651611328 17.833816528320312L103.34124755859375 23.953006744384766L108.82988739013672 32.425712585449219L115.12193298339844 40.511512756347656L119.90273284912109 49.325096130371094L125.64229583740234 57.676963806152344L129.42120361328125 66.973030090332031L134.68191528320312 75.555503845214844L136.68380737304688 85.70733642578125L141.29112243652344 94.604469299316406L141.44708251953125 105.64525604248047L150.33024597167969 112.48324584960938L150.93235778808594 123.30918121337891L161.38130187988281 129.39305114746094L159.6702880859375 141.33285522460938L167.12306213378906 148.859619140625L172.79617309570312 157.24342346191406L172.32962036132812 168.58392333984375L183.18580627441406 174.4716796875L183.50767517089844 185.43251037597656L187.36421203613281 194.69113159179688L193.46783447265625 202.86759948730469L198.79119873046875 211.41983032226562L195.02273559570312 218.35284423828125L191.06170654296875 207.25697326660156L181.39828491210938 203.31167602539062L175.61064147949219 194.50631713867188L165.024169921875 191.718505859375L156.75518798828125 186.02462768554688L149.32954406738281 179.27325439453125L141.50086975097656 173.02728271484375L133.88948059082031 166.50881958007812L125.05196380615234 161.52787780761719L120.82634735107422 150.7637939453125L111.68900299072266 146.15882873535156L101.97287750244141 142.27961730957031L95.853797912597656 133.88986206054688L88.036659240722656 127.62941741943359L79.121696472167969 122.74558258056641L72.814788818359375 114.59136962890625L64.783729553222656 108.59915161132812L56.778961181640625 102.57396697998047L47.8809814453125 97.668846130371094L39.319976806640625 92.341171264648438L33.822612762451172 83.171821594238281L25.362451553344727 77.717689514160156L32.449569702148438 83.699356079101562L43.251903533935547 81.378288269042969L52.485645294189453 85.929672241210938L62.705413818359375 86.1610107421875L71.967353820800781 90.588859558105469L81.536483764648438 93.6707763671875L92.528793334960938 90.517410278320312L100.78578948974609 99.34820556640625L111.29472351074219 98.3126220703125L121.12736511230469 100.24002075195312L131.71690368652344 98.851333618164062L141.04118347167969 103.00599670410156L151.21733093261719 103.42852783203125L159.53857421875 111.97774505615234L170.79298400878906 107.67606353759766L179.76895141601562 113.35690307617188L190.3026123046875 112.21290588378906L198.82191467285156 119.89448547363281L208.47529602050781 122.60729217529297L217.95477294921875 126.08205413818359L228.35897827148438 125.50531005859375L237.52067565917969 130.372314453125L237.42950439453125 125.22140502929688Z"/>
</svg>
