<?xml version="1.0" encoding="utf-8" ?>
<svg xmlns="http://www.w3.org/2000/svg" xmlns:xlink="http://www.w3.org/1999/xlink" width="256" height="256">
	<path fill="#4285F4" d="M23.78125 62.1875L23.78125 56Q24.84375 56.9375 26.328125 57.6875Q27.8125 58.4375 29.453125 58.953125Q31.09375 59.46875 32.75 59.75Q34.40625 60.03125 35.8125 60.03125Q40.65625 60.03125 43.046875 58.234375Q45.4375 56.4375 45.4375 53.0625Q45.4375 51.25 44.640625 49.90625Q43.84375 48.5625 42.4375 47.453125Q41.03125 46.34375 39.109375 45.328125Q37.1875 44.3125 34.96875 43.1875Q32.625 42 30.59375 40.78125Q28.5625 39.5625 27.0625 38.09375Q25.5625 36.625003814697266 24.703125 34.765625Q23.84375 32.90625 23.84375 30.40625Q23.84375 27.343753814697266 25.1875 25.078125Q26.53125 22.812503814697266 28.71875 21.34375Q30.90625 19.875003814697266 33.703125 19.15625Q36.5 18.437503814697266 39.40625 18.4375Q46.03125 18.4375 49.0625 20.03125L49.0625 25.9375Q45.09375 23.1875 38.875 23.1875Q37.15625 23.1875 35.4375 23.546875Q33.71875 23.906253814697266 32.375 24.71875Q31.03125 25.53125 30.1875 26.8125Q29.34375 28.09375 29.34375 29.9375Q29.34375 31.656253814697266 29.984375 32.90625Q30.625 34.15625 31.875 35.1875Q33.125 36.21875 34.921875 37.1875Q36.71875 38.15625 39.0625 39.3125Q41.46875 40.5 43.625 41.8125Q45.781246185302734 43.125 47.40625 44.71875Q49.03125 46.3125 49.984375 48.25Q50.937496185302734 50.1875 50.9375 52.6875Q50.937496185302734 56 49.640625 58.296875Q48.34375 60.59375 46.140625 62.03125Q43.9375 63.46875 41.0625 64.109375Q38.1875 64.75 35 64.75Q33.9375 64.75 32.375 64.578125Q30.8125 64.40625 29.1875 64.078125Q27.5625 63.75 26.109375 63.265625Q24.65625 62.78125 23.78125 62.1875ZM85.75 64L78.5625 64L64.4375 48.625L64.3125 48.625L64.3125 64L59.1875 64L59.1875 16.625L64.3125 16.625L64.3125 46.65625L64.4375 46.65625L77.875 32L84.59375 32L69.75 47.4375L85.75 64ZM93.625 23.875Q92.25 23.875 91.28125 22.9375Q90.3125 22 90.3125 20.5625Q90.3125 19.125 91.28125 18.171875Q92.25 17.218753814697266 93.625 17.21875Q95.03125 17.21875 96.015625 18.171875Q97 19.125 97 20.5625Q97 21.9375 96.015625 22.90625Q95.03125 23.875003814697266 93.625 23.875ZM96.125 64L91 64L91 32L96.125 32L96.125 64ZM129.40625 64L124.28125 64L124.28125 59L124.15625 59Q120.8125 64.75 114.3125 64.75Q109.53125 64.75 106.828125 62.21875Q104.125 59.6875 104.125 55.5Q104.125 46.53125 114.6875 45.0625L124.28125 43.71875Q124.28125 35.5625 117.6875 35.5625Q111.90625 35.5625 107.25 39.5L107.25 34.25Q111.96875 31.25 118.125 31.25Q129.40625 31.25 129.40625 43.1875L129.40625 64ZM124.28125 47.8125L116.5625 48.875Q113 49.375 111.1875 50.640625Q109.375 51.90625 109.375 55.125Q109.375 57.46875 111.046875 58.953125Q112.71875 60.4375 115.5 60.4375Q119.3125 60.4375 121.796875 57.765625Q124.28125 55.09375 124.28125 51L124.28125 47.8125Z"/>
	<path fill="none" stroke="#DB4437" stroke-width="3" stroke-miterlimit="4" d="M23.78125 152.1875L23.78125 146Q24.84375 146.9375 26.328125 147.6875Q27.8125 148.4375 29.453125 148.953125Q31.09375 149.46875 32.75 149.75Q34.40625 150.03125 35.8125 150.03125Q40.65625 150.03125 43.046875 148.234375Q45.4375 146.4375 45.4375 143.0625Q45.4375 141.25 44.640625 139.90625Q43.84375 138.5625 42.4375 137.453125Q41.03125 136.34375 39.109375 135.328125Q37.1875 134.3125 34.96875 133.1875Q32.625 132 30.59375 130.78125Q28.5625 129.5625 27.0625 128.09375Q25.5625 126.625 24.703125 124.765625Q23.84375 122.90625 23.84375 120.40625Q23.84375 117.34375 25.1875 115.078125Q26.53125 112.8125 28.71875 111.34375Q30.90625 109.875 33.703125 109.15625Q36.5 108.4375 39.40625 108.4375Q46.03125 108.4375 49.0625 110.03125L49.0625 115.9375Q45.09375 113.1875 38.875 113.1875Q37.15625 113.1875 35.4375 113.546875Q33.71875 113.90625 32.375 114.71875Q31.03125 115.53125 30.1875 116.8125Q29.34375 118.09375 29.34375 119.9375Q29.34375 121.65625 29.984375 122.90625Q30.625 124.15625 31.875 125.1875Q33.125 126.21875 34.921875 127.1875Q36.71875 128.15625 39.0625 129.3125Q41.46875 130.5 43.625 131.8125Q45.781246185302734 133.125 47.40625 134.71875Q49.03125 136.3125 49.984375 138.25Q50.937496185302734 140.1875 50.9375 142.6875Q50.937496185302734 146 49.640625 148.296875Q48.34375 150.59375 46.140625 152.03125Q43.9375 153.46875 41.0625 154.109375Q38.1875 154.75 35 154.75Q33.9375 154.75 32.375 154.578125Q30.8125 154.40625 29.1875 154.078125Q27.5625 153.75 26.109375 153.265625Q24.65625 152.78125 23.78125 152.1875ZM85.75 154L78.5625 154L64.4375 138.625L64.3125 138.625L64.3125 154L59.1875 154L59.1875 106.625L64.3125 106.625L64.3125 136.65625L64.4375 136.65625L77.875 122L84.59375 122L69.75 137.4375L85.75 154ZM93.625 113.875Q92.25 113.875 91.28125 112.9375Q90.3125 112 90.3125 110.5625Q90.3125 109.125 91.28125 108.171875Q92.25 107.21875 93.625 107.21875Q95.03125 107.21875 96.015625 108.171875Q97 109.125 97 110.5625Q97 111.9375 96.015625 112.90625Q95.03125 113.875 93.625 113.875ZM96.125 154L91 154L91 122L96.125 122L96.125 154ZM129.40625 154L124.28125 154L124.28125 149L124.15625 149Q120.8125 154.75 114.3125 154.75Q109.53125 154.75 106.828125 152.21875Q104.125 149.6875 104.125 145.5Q104.125 136.53125 114.6875 135.0625L124.28125 133.71875Q124.28125 125.5625 117.6875 125.5625Q111.90625 125.5625 107.25 129.5L107.25 124.25Q111.96875 121.25 118.125 121.25Q129.40625 121.25 129.40625 133.1875L129.40625 154ZM124.28125 137.8125L116.5625 138.875Q113 139.375 111.1875 140.640625Q109.375 141.90625 109.375 145.125Q109.375 147.46875 111.046875 148.953125Q112.71875 150.4375 115.5 150.4375Q119.3125 150.4375 121.796875 147.765625Q124.28125 145.09375 124.28125 141L124.28125 137.8125Z"/>
	<path fill="#0F9D58" d="M25.671875 242.1875L25.671875 236Q27.265625 236.9375 29.4921875 237.6875Q31.71875 238.4375 34.1796875 238.953125Q36.640625 239.46875 39.125 239.75Q41.609375 240.03125 43.71875 240.03125Q50.984375 240.03125 54.5703125 238.234375Q58.15625 236.4375 58.15625 233.0625Q58.15625 231.25 56.9609375 229.90625Q55.765625 228.5625 53.65625 227.453125Q51.546875 226.34375 48.6640625 225.328125Q45.78125 224.3125 42.453125 223.1875Q38.9375 222 35.890625 220.78125Q32.84375 219.5625 30.59375 218.09375Q28.34375 216.625 27.0546875 214.765625Q25.765625 212.90625 25.765625 210.40625Q25.765625 207.34375 27.78125 205.078125Q29.796875 202.8125 33.078125 201.34375Q36.359375 199.875 40.5546875 199.15625Q44.749996185302734 198.4375 49.109375 198.4375Q59.046875 198.4375 63.59375 200.03125L63.59375 205.9375Q57.640625 203.1875 48.3125 203.1875Q45.734375 203.1875 43.15625 203.546875Q40.578125 203.90625 38.5625 204.71875Q36.546875 205.53125 35.28125 206.8125Q34.015625 208.09375 34.015625 209.9375Q34.015625 211.65625 34.9765625 212.90625Q35.9375 214.15625 37.8125 215.1875Q39.687496185302734 216.21875 42.3828125 217.1875Q45.078125 218.15625 48.59375 219.3125Q52.203125 220.5 55.4375 221.8125Q58.671867370605469 223.125 61.109375 224.71875Q63.546871185302734 226.3125 64.9765625 228.25Q66.406242370605469 230.1875 66.40625 232.6875Q66.406242370605469 236 64.4609375 238.296875Q62.515625 240.59375 59.2109375 242.03125Q55.90625 243.46875 51.59375 244.109375Q47.281246185302734 244.75 42.5 244.75Q40.90625 244.75 38.5625 244.578125Q36.21875 244.40625 33.78125 244.078125Q31.343748092651367 243.75 29.1640625 243.265625Q26.984375 242.78125 25.671875 242.1875ZM118.625 244L107.84375 244L86.65625 228.625L86.46875 228.625L86.46875 244L78.78125 244L78.78125 196.625L86.46875 196.625L86.46875 226.65625L86.65625 226.65625L106.8125 212L116.890625 212L94.625 227.4375L118.625 244ZM130.4375 203.875Q128.375 203.875 126.921875 202.9375Q125.46875 202 125.46875 200.5625Q125.46875 199.125 126.921875 198.171875Q128.375 197.21875 130.4375 197.21875Q132.546875 197.21875 134.0234375 198.171875Q135.5 199.125 135.5 200.5625Q135.5 201.9375 134.0234375 202.90625Q132.546875 203.875 130.4375 203.875ZM134.1875 244L126.5 244L126.5 212L134.1875 212L134.1875 244ZM184.109375 244L176.421875 244L176.421875 239L176.234375 239Q171.21875 244.75 161.46875 244.75Q154.296875 244.75 150.2421875 242.21875Q146.1875 239.6875 146.1875 235.5Q146.1875 226.53125 162.03125 225.0625L176.421875 223.71875Q176.421875 215.5625 166.53125 215.5625Q157.859375 215.5625 150.875 219.5L150.875 214.25Q157.953125 211.25 167.1875 211.25Q184.109375 211.25 184.109375 223.1875L184.109375 244ZM176.421875 227.8125L164.84375 228.875Q159.5 229.375 156.78125 230.640625Q154.0625 231.90625 154.0625 235.125Q154.0625 237.46875 156.5703125 238.953125Q159.078125 240.4375 163.25 240.4375Q168.96875 240.4375 172.6953125 237.765625Q176.421875 235.09375 176.421875 231L176.421875 227.8125Z"/>
</svg>
