<svg xmlns="http://www.w3.org/2000/svg" viewBox="0 0 161.83 228.13"><path d="M23.78,62.19V56a12.27,12.27,0,0,0,2.55,1.69A20.35,20.35,0,0,0,29.45,59a24.74,24.74,0,0,0,3.3.8,18.11,18.11,0,0,0,3.06.28q4.84,0,7.24-1.8a6.72,6.72,0,0,0,1.59-8.32,8.87,8.87,0,0,0-2.2-2.46,22.27,22.27,0,0,0-3.33-2.12q-1.92-1-4.14-2.14c-1.56-.79-3-1.6-4.38-2.41a19,19,0,0,1-3.53-2.69,11.31,11.31,0,0,1-2.36-3.32,10.37,10.37,0,0,1-.86-4.36,10.2,10.2,0,0,1,1.35-5.33,11.47,11.47,0,0,1,3.53-3.74,16,16,0,0,1,5-2.18,22.86,22.86,0,0,1,5.71-.72q6.62,0,9.65,1.59v5.91a17.43,17.43,0,0,0-10.18-2.75,16.68,16.68,0,0,0-3.44.36,9.65,9.65,0,0,0-3.06,1.17,6.74,6.74,0,0,0-2.19,2.09,5.53,5.53,0,0,0-.85,3.13,6.57,6.57,0,0,0,.64,3,7.32,7.32,0,0,0,1.9,2.28,18.62,18.62,0,0,0,3,2q1.8,1,4.14,2.12c1.61.79,3.13,1.63,4.56,2.5a21.44,21.44,0,0,1,3.79,2.91A12.82,12.82,0,0,1,50,48.25a9.86,9.86,0,0,1,1,4.44,11.19,11.19,0,0,1-1.3,5.61A10.6,10.6,0,0,1,46.14,62a15.31,15.31,0,0,1-5.08,2.08,27.6,27.6,0,0,1-6.06.64,25.77,25.77,0,0,1-2.62-.17c-1.05-.12-2.11-.28-3.19-.5a26.58,26.58,0,0,1-3.08-.81A10,10,0,0,1,23.78,62.19Zm62,1.81H78.56L64.44,48.62h-.13V64H59.19V16.62h5.12v30h.13L77.88,32h6.71L69.75,47.44Zm7.87-40.12a3.28,3.28,0,0,1-2.34-.94,3.2,3.2,0,0,1-1-2.38,3.28,3.28,0,0,1,3.31-3.34,3.35,3.35,0,0,1,2.4,1,3.36,3.36,0,0,1,0,4.74A3.33,3.33,0,0,1,93.62,23.88ZM96.12,64H91V32h5.12Zm33.29,0h-5.13V59h-.12a10.74,10.74,0,0,1-9.85,5.75,10.49,10.49,0,0,1-7.48-2.53,8.79,8.79,0,0,1-2.71-6.72q0-9,10.57-10.44l9.59-1.34q0-8.16-6.59-8.16a15.77,15.77,0,0,0-10.44,3.94V34.25a19.83,19.83,0,0,1,10.87-3q11.3,0,11.29,11.94Zm-5.13-16.19-7.72,1.07a12.55,12.55,0,0,0-5.37,1.76c-1.21.84-1.81,2.34-1.81,4.48A4.86,4.86,0,0,0,111.05,59a6.45,6.45,0,0,0,4.45,1.49,8.24,8.24,0,0,0,6.3-2.67A9.59,9.59,0,0,0,124.28,51Z" transform="translate(-22.28 -16.63)" fill="#4285f4"/><path d="M23.78,152.19V146a12.27,12.27,0,0,0,2.55,1.69A20.35,20.35,0,0,0,29.45,149a24.74,24.74,0,0,0,3.3.8,18.11,18.11,0,0,0,3.06.28q4.84,0,7.24-1.8a6.72,6.72,0,0,0,1.59-8.32,8.87,8.87,0,0,0-2.2-2.46,22.27,22.27,0,0,0-3.33-2.12q-1.92-1-4.14-2.14c-1.56-.79-3-1.6-4.38-2.41a19,19,0,0,1-3.53-2.69,11.31,11.31,0,0,1-2.36-3.32,10.37,10.37,0,0,1-.86-4.36,10.2,10.2,0,0,1,1.35-5.33,11.47,11.47,0,0,1,3.53-3.74,16,16,0,0,1,5-2.18,22.86,22.86,0,0,1,5.71-.72q6.62,0,9.65,1.59v5.91a17.43,17.43,0,0,0-10.18-2.75,16.68,16.68,0,0,0-3.44.36,9.65,9.65,0,0,0-3.06,1.17,6.74,6.74,0,0,0-2.19,2.09,5.53,5.53,0,0,0-.85,3.13,6.57,6.57,0,0,0,.64,3,7.32,7.32,0,0,0,1.9,2.28,18.62,18.62,0,0,0,3,2q1.8,1,4.14,2.12c1.61.79,3.13,1.63,4.56,2.5a21.44,21.44,0,0,1,3.79,2.91A12.82,12.82,0,0,1,50,138.25a9.86,9.86,0,0,1,1,4.44,11.19,11.19,0,0,1-1.3,5.61,10.6,10.6,0,0,1-3.5,3.73,15.31,15.31,0,0,1-5.08,2.08,27.6,27.6,0,0,1-6.06.64,25.77,25.77,0,0,1-2.62-.17c-1.05-.12-2.11-.28-3.19-.5a26.58,26.58,0,0,1-3.08-.81A10,10,0,0,1,23.78,152.19Zm62,1.81H78.56L64.44,138.62h-.13V154H59.19V106.62h5.12v30h.13L77.88,122h6.71L69.75,137.44Zm7.87-40.12a3.28,3.28,0,0,1-2.34-.94,3.2,3.2,0,0,1-1-2.38,3.28,3.28,0,0,1,3.31-3.34,3.35,3.35,0,0,1,2.4,1,3.36,3.36,0,0,1,0,4.74A3.33,3.33,0,0,1,93.62,113.88ZM96.12,154H91V122h5.12Zm33.29,0h-5.13v-5h-.12a10.74,10.74,0,0,1-9.85,5.75,10.49,10.49,0,0,1-7.48-2.53,8.79,8.79,0,0,1-2.71-6.72q0-9,10.57-10.44l9.59-1.34q0-8.16-6.59-8.16a15.77,15.77,0,0,0-10.44,3.94v-5.25a19.83,19.83,0,0,1,10.87-3q11.3,0,11.29,11.94Zm-5.13-16.19-7.72,1.07a12.55,12.55,0,0,0-5.37,1.76c-1.21.84-1.81,2.34-1.81,4.48a4.86,4.86,0,0,0,1.67,3.83,6.45,6.45,0,0,0,4.45,1.49,8.24,8.24,0,0,0,6.3-2.67,9.59,9.59,0,0,0,2.48-6.77Z" transform="translate(-22.28 -16.63)" fill="none" stroke="#db4437" stroke-width="3"/><path d="M25.67,242.19V236a20.77,20.77,0,0,0,3.82,1.69A40.67,40.67,0,0,0,34.18,239c1.64.35,3.29.61,4.94.8a40.54,40.54,0,0,0,4.6.28q7.26,0,10.85-1.8c2.39-1.19,3.59-2.92,3.59-5.17a4.56,4.56,0,0,0-1.2-3.15,11.63,11.63,0,0,0-3.3-2.46,38,38,0,0,0-5-2.12q-2.88-1-6.21-2.14c-2.34-.79-4.53-1.6-6.56-2.41a30.08,30.08,0,0,1-5.3-2.69,12.61,12.61,0,0,1-3.54-3.32,7.54,7.54,0,0,1-1.28-4.36,7.76,7.76,0,0,1,2-5.33,15.34,15.34,0,0,1,5.3-3.74,31.21,31.21,0,0,1,7.47-2.18,50.54,50.54,0,0,1,8.56-.72q9.93,0,14.48,1.59v5.91q-6-2.76-15.28-2.75a37.15,37.15,0,0,0-5.15.36,19.69,19.69,0,0,0-4.6,1.17,9.59,9.59,0,0,0-3.28,2.09A4.31,4.31,0,0,0,34,209.94a4.76,4.76,0,0,0,1,3,9,9,0,0,0,2.83,2.28,32.65,32.65,0,0,0,4.57,2q2.7,1,6.21,2.12c2.41.79,4.69,1.63,6.85,2.5a34.06,34.06,0,0,1,5.67,2.91A15,15,0,0,1,65,228.25a7.3,7.3,0,0,1,1.43,4.44,8.37,8.37,0,0,1-2,5.61A14.18,14.18,0,0,1,59.21,242a30.18,30.18,0,0,1-7.62,2.08,61.37,61.37,0,0,1-9.09.64c-1.06,0-2.38-.06-3.94-.17s-3.15-.28-4.78-.5-3.16-.49-4.62-.81A19.51,19.51,0,0,1,25.67,242.19Zm93,1.81H107.84L86.66,228.62h-.19V244H78.78V196.62h7.69v30h.19L106.81,212h10.08L94.62,227.44Zm11.82-40.12a6.4,6.4,0,0,1-3.52-.94,2.69,2.69,0,0,1,0-4.77,6.32,6.32,0,0,1,3.52-.95,6.5,6.5,0,0,1,3.58.95,2.64,2.64,0,0,1,0,4.74A6.43,6.43,0,0,1,130.44,203.88ZM134.19,244H126.5V212h7.69Zm49.92,0h-7.69v-5h-.19q-5,5.75-14.76,5.75-7.17,0-11.23-2.53t-4.05-6.72q0-9,15.84-10.44l14.39-1.34q0-8.16-9.89-8.16a31.34,31.34,0,0,0-15.65,3.94v-5.25a41.45,41.45,0,0,1,16.31-3q16.92,0,16.92,11.94Zm-7.69-16.19-11.58,1.07a25.65,25.65,0,0,0-8.06,1.76,4.54,4.54,0,0,0-2.72,4.48,4.38,4.38,0,0,0,2.51,3.83,13,13,0,0,0,6.68,1.49,15.85,15.85,0,0,0,9.45-2.67,8.06,8.06,0,0,0,3.72-6.77Z" transform="translate(-22.28 -16.63)" fill="#0f9d58"/></svg>