<?xml version="1.0" encoding="utf-8" ?>
<svg xmlns="http://www.w3.org/2000/svg" xmlns:xlink="http://www.w3.org/1999/xlink" width="256" height="256">
	<path fill="#4285F4" d="M242.79171752929688 124.98426818847656L234.02032470703125 129.78662109375L233.05984497070312 128.0323486328125L241.83123779296875 123.22999572753906L242.79171752929688 124.98426818847656ZM229.5216064453125 132.052734375L227.73255920410156 132.94676208496094L226.83851623535156 131.15769958496094L228.6275634765625 130.263671875L229.5216064453125 132.052734375ZM222.63720703125 134.66029357910156L213.54612731933594 134.28132629394531L213.58778381347656 133.28219604492188L214.21221923828125 134.06326293945312L213.50845336914062 134.62590026855469L212.25958251953125 133.06376647949219L213.25559997558594 132.26748657226562L222.72052001953125 132.66203308105469L222.63720703125 134.66029357910156ZM209.60310363769531 137.74810791015625L208.04096984863281 138.99699401855469L206.79206848144531 137.43486022949219L208.35420227050781 136.18597412109375L209.60310363769531 137.74810791015625ZM202.88717651367188 140.55979919433594L193.48861694335938 137.14405822753906L194.1717529296875 135.26435852050781L203.5703125 138.68009948730469L202.88717651367188 140.55979919433594ZM190.58967590332031 140.02340698242188L189.048095703125 141.29759216308594L187.77392578125 139.75602722167969L189.31550598144531 138.48184204101562L190.58967590332031 140.02340698242188ZM184.1915283203125 144.11915588378906L174.47219848632812 141.76663208007812L174.94271850585938 139.82275390625L184.66204833984375 142.17527770996094L184.1915283203125 144.11915588378906ZM170.45565795898438 143.31391906738281L168.61105346679688 144.08688354492188L167.83810424804688 142.24227905273438L169.68270874023438 141.46931457519531L170.45565795898438 143.31391906738281ZM163.54885864257812 145.64199829101562L154.65284729003906 145.95846557617188L154.61729431152344 144.95909118652344L155.32980346679688 145.66075134277344L154.55912780761719 146.44334411621094L153.13410949707031 145.04002380371094L154.18402099609375 143.973876953125L163.47775268554688 143.64324951171875L163.54885864257812 145.64199829101562ZM151.05082702636719 150.00590515136719L149.64750671386719 151.43092346191406L148.22248840332031 150.02760314941406L149.62580871582031 148.60258483886719L151.05082702636719 150.00590515136719ZM144.99810791015625 154.34075927734375L135.76872253417969 153.69564819335938L135.83845520019531 152.69808959960938L136.027099609375 153.68013000488281L135.29243469238281 153.82125854492188L134.91514587402344 151.857177734375L135.77798461914062 151.69142150878906L145.1375732421875 152.34561157226562L144.99810791015625 154.34075927734375ZM130.38221740722656 154.76449584960938L128.41812133789062 155.14179992675781L128.04083251953125 153.17771911621094L130.00492858886719 152.8004150390625L130.38221740722656 154.76449584960938ZM123.30520629882812 155.6790771484375L115.83588409423828 155.92869567871094L115.80248260498047 154.92926025390625L116.39119720458984 155.73759460449219L114.34892272949219 157.22499084472656L113.17149353027344 155.60832214355469L115.46207427978516 153.94007873535156L123.2384033203125 153.68020629882812L123.30520629882812 155.6790771484375ZM110.30723571777344 160.1685791015625L108.69055938720703 161.34600830078125L107.51313018798828 159.72933959960938L109.12980651855469 158.55191040039062L110.30723571777344 160.1685791015625ZM103.77197265625 163.291748046875L97.613815307617188 165.02774047851562L94.131828308105469 165.97962951660156L93.604438781738281 164.05043029785156L97.0711669921875 163.10275268554688L103.22932434082031 161.36676025390625L103.77197265625 163.291748046875ZM89.308799743652344 167.298095703125L87.666854858398438 167.74696350097656L86.842353820800781 167.51072692871094L87.393226623535156 165.58808898925781L87.948623657226562 165.74722290039062L87.673187255859375 166.70854187011719L87.409492492675781 165.74394226074219L88.781410217285156 165.368896484375L89.308799743652344 167.298095703125ZM82.035758972167969 166.13352966308594L76.406318664550781 164.52055358886719L76.6817626953125 163.55923461914062L77.297508239746094 164.34718322753906L74.0322265625 166.89884948730469L72.800735473632812 165.32295227050781L76.467445373535156 162.45759582519531L82.586647033691406 164.21089172363281L82.035758972167969 166.13352966308594ZM70.092498779296875 169.97758483886719L68.236862182617188 171.42767333984375L67.727859497070312 171.34675598144531L68.041839599609375 169.37156677246094L68.12103271484375 169.3841552734375L67.964042663574219 170.37174987792969L67.348297119140625 169.58380126953125L68.861007690429688 168.40168762207031L70.092498779296875 169.97758483886719ZM62.789878845214844 170.56222534179688L57.147983551025391 169.66584777832031L57.304893493652344 168.67823791503906L57.908657073974609 169.47540283203125L54.490947723388672 172.06394958496094L53.283420562744141 170.46961975097656L57.040882110595703 167.62374877929688L63.10369873046875 168.58700561523438L62.789878845214844 170.56222534179688ZM50.505134582519531 175.082763671875L48.849895477294922 176.33644104003906L48.174808502197266 176.28761291503906L48.319049835205078 174.29283142089844L48.618484497070312 174.31448364257812L48.546363830566406 175.31187438964844L47.942596435546875 174.51470947265625L49.297599792480469 173.48843383789062L50.505134582519531 175.082763671875ZM43.187835693359375 175.92710876464844L38.029300689697266 175.55418395996094L38.101406097412109 174.55679321289062L38.484897613525391 175.48033142089844L34.026023864746094 177.33183288574219L33.259040832519531 175.48475646972656L37.936954498291016 173.54229736328125L43.332046508789062 173.93232727050781L43.187835693359375 175.92710876464844ZM29.408292770385742 179.24931335449219L27.709941864013672 179.95449829101562L27.727184295654297 176.77980041503906L29.727153778076172 176.79066467285156L29.718095779418945 178.45854187011719L28.718111038208008 178.45310974121094L28.334630966186523 177.52955627441406L28.641332626342773 177.40220642089844L29.408292770385742 179.24931335449219ZM30.023630142211914 171.90811157226562L35.394927978515625 166.86164855957031L37.428939819335938 165.12184143066406L38.728958129882812 166.64167785644531L36.712669372558594 168.3663330078125L36.062660217285156 167.60641479492188L36.747386932373047 168.33522033691406L31.393083572387695 173.36572265625L30.023630142211914 171.90811157226562ZM41.228561401367188 161.87178039550781L42.748409271240234 160.57176208496094L44.048427581787109 162.09159851074219L42.528579711914062 163.39161682128906L41.228561401367188 161.87178039550781ZM47.79534912109375 158.74655151367188L53.614200592041016 156.91273498535156L53.914779663085938 157.86648559570312L53.388690948486328 157.01605224609375L56.70452880859375 154.96482849121094L57.756706237792969 156.66569519042969L54.334571838378906 158.78266906738281L48.396507263183594 160.654052734375L47.79534912109375 158.74655151367188ZM60.956668853759766 152.33438110351562L61.966655731201172 151.70957946777344L62.492748260498047 152.56001281738281L61.627613067626953 152.0584716796875L62.035053253173828 151.35565185546875L63.765323638916016 152.35873413085938L63.232109069824219 153.27850341796875L62.008853912353516 154.03524780273438L60.956668853759766 152.33438110351562ZM64.542739868164062 147.02998352050781L67.045547485351562 142.71272277832031L70.04931640625 138.57572937011719L71.667709350585938 139.75080871582031L68.694122314453125 143.84623718261719L67.884925842285156 143.25869750976562L68.75006103515625 143.76023864746094L66.27301025390625 148.03306579589844L64.542739868164062 147.02998352050781ZM72.987007141113281 134.52973937988281L73.367446899414062 134.00576782226562L75.251480102539062 133.36788940429688L75.892852783203125 135.26226806640625L74.310317993164062 135.79806518554688L73.989631652832031 134.85087585449219L74.798828125 135.43841552734375L74.605400085449219 135.70481872558594L72.987007141113281 134.52973937988281ZM79.987403869628906 131.76445007324219L83.755332946777344 130.48873901367188L84.076019287109375 131.43592834472656L83.220932006835938 130.91743469238281L86.34326171875 125.76814270019531L88.053436279296875 126.80511474609375L84.742057800292969 132.26618957519531L80.628776550292969 133.65882873535156L79.987403869628906 131.76445007324219ZM89.422798156738281 121.26787567138672L91.164459228515625 120.28470611572266L92.147628784179688 122.02635955810547L90.405967712402344 123.00952911376953L89.422798156738281 121.26787567138672ZM95.51861572265625 117.82678985595703L97.972991943359375 116.44129943847656L104.44607543945312 113.21401214599609L105.33845520019531 115.00388336181641L98.888381958007812 118.21970367431641L98.442192077636719 117.32476806640625L98.93377685546875 118.19560241699219L96.501785278320312 119.56845855712891L95.51861572265625 117.82678985595703ZM108.32527160644531 110.66959381103516L109.76271820068359 109.27899932861328L111.15331268310547 110.71643829345703L109.71586608886719 112.10703277587891L108.32527160644531 110.66959381103516ZM113.35633850097656 105.80252075195312L114.25661468505859 104.93158721923828L122.39006042480469 100.93548583984375L123.27200317382812 102.73052978515625L115.27978515625 106.65724182128906L114.83881378173828 105.75971984863281L115.53411102294922 106.47843933105469L114.74693298339844 107.23995971679688L113.35633850097656 105.80252075195312ZM125.77796173095703 97.874412536621094L127.132080078125 96.402557373046875L128.60394287109375 97.756683349609375L127.24982452392578 99.228538513183594L125.77796173095703 97.874412536621094ZM130.34333801269531 92.804115295410156L135.7635498046875 84.400466918945312L137.44427490234375 85.484512329101562L132.02406311035156 93.888160705566406L130.34333801269531 92.804115295410156ZM141.36282348632812 83.137214660644531L143.33821105957031 82.824371337890625L143.65104675292969 84.799758911132812L141.6756591796875 85.112602233886719L141.36282348632812 83.137214660644531ZM147.21940612792969 82.34283447265625L150.7099609375 72.971809387207031L152.58416748046875 73.669914245605469L149.09361267089844 83.040939331054688L147.21940612792969 82.34283447265625ZM154.35745239257812 69.004463195800781L155.90748596191406 67.740577697753906L157.17137145996094 69.290611267089844L155.621337890625 70.554496765136719L154.35745239257812 69.004463195800781ZM160.32890319824219 64.677154541015625L170.05879211425781 62.36859130859375L170.52049255371094 64.314567565917969L160.79060363769531 66.623123168945312L160.32890319824219 64.677154541015625ZM172.3333740234375 58.814109802246094L173.42823791503906 57.140415191650391L175.10194396972656 58.235279083251953L174.007080078125 59.908973693847656L172.3333740234375 58.814109802246094ZM176.51043701171875 52.944095611572266L183.14237976074219 46.6297607421875L184.36177062988281 46.219795227050781L184.99913024902344 48.115524291992188L183.98997497558594 48.454807281494141L183.67129516601562 47.506942749023438L184.36083984375 48.231178283691406L177.88955688476562 54.392566680908203L176.51043701171875 52.944095611572266ZM189.10110473632812 44.626419067382812L190.996826171875 43.989070892333984L191.63418579101562 45.884799957275391L189.73846435546875 46.522148132324219L189.10110473632812 44.626419067382812ZM194.87396240234375 41.747764587402344L198.47169494628906 38.455924987792969L199.93873596191406 39.804229736328125L196.8106689453125 43.862026214599609L195.2266845703125 42.640964508056641L198.35475158691406 38.583168029785156L199.14674377441406 39.193698883056641L199.82179260253906 39.931472778320312L196.22406005859375 43.223312377929688L194.87396240234375 41.747764587402344ZM193.75802612304688 47.821956634521484L193.68965148925781 47.910659790039062L192.89764404296875 47.300155639648438L193.83363342285156 47.652175903320312L193.16902160644531 49.419330596923828L191.29704284667969 48.715290069580078L192.01431274414062 46.808124542236328L192.17401123046875 46.600948333740234L193.75802612304688 47.821956634521484ZM191.40892028808594 54.099292755126953L190.26646423339844 57.137008666992188L186.85321044921875 63.147041320800781L185.11410522460938 62.159355163574219L188.48857116699219 56.217624664306641L189.35812377929688 56.711467742919922L188.42213439941406 56.359447479248047L189.53694152832031 53.395252227783203L191.40892028808594 54.099292755126953ZM185.44483947753906 67.209945678710938L185.49409484863281 69.209335327148438L183.49470520019531 69.258590698242188L183.44544982910156 67.259201049804688L185.44483947753906 67.209945678710938ZM185.61724853515625 74.207817077636719L185.68946838378906 77.138946533203125L179.60807800292969 82.362251281738281L178.30494689941406 80.845054626464844L184.02651977539062 75.930801391601562L184.67808532714844 76.689399719238281L183.67839050292969 76.714027404785156L183.61785888671875 74.257072448730469L185.61724853515625 74.207817077636719ZM176.81126403808594 85.659515380859375L176.16485595703125 87.552177429199219L174.27218627929688 86.905769348144531L174.91859436035156 85.013107299804688L176.81126403808594 85.659515380859375ZM174.54885864257812 92.283828735351562L173.99456787109375 93.906776428222656L167.72212219238281 100.02537536621094L166.32557678222656 98.593719482421875L172.4271240234375 92.641822814941406L173.12539672851562 93.357650756835938L172.17906188964844 93.034446716308594L172.65618896484375 91.637420654296875L174.54885864257812 92.283828735351562ZM165.59286499023438 103.83361053466797L164.994384765625 105.74196624755859L163.08602905273438 105.14348602294922L163.68450927734375 103.23513031005859L165.59286499023438 103.83361053466797ZM163.4981689453125 110.51285552978516L163.42185974121094 110.75617218017578L160.31146240234375 120.01286315917969L158.4156494140625 119.37579345703125L161.51350402832031 110.15767669677734L161.58981323242188 109.91436004638672L163.4981689453125 110.51285552978516ZM159.10694885253906 124.78023529052734L158.62693786621094 126.72177886962891L156.68540954589844 126.24176788330078L157.16542053222656 124.30022430419922L159.10694885253906 124.78023529052734ZM156.53529357910156 131.6741943359375L150.22097778320312 138.25201416015625L149.49957275390625 137.55950927734375L150.49884033203125 137.59764099121094L150.4652099609375 138.47895812988281L148.4666748046875 138.40269470214844L148.51480102539062 137.141357421875L155.09248352050781 130.2891845703125L156.53529357910156 131.6741943359375ZM150.27459716796875 143.47529602050781L150.1983642578125 145.47384643554688L148.1998291015625 145.39761352539062L148.27606201171875 143.39906311035156L150.27459716796875 143.47529602050781ZM148.52912902832031 150.60310363769531L142.91082763671875 156.92282104492188L142.16346740722656 156.25840759277344L143.09794616699219 156.61444091796875L142.54823303222656 158.05728149414062L140.67927551269531 157.34521484375L141.29428100585938 155.73103332519531L147.03440856933594 149.27427673339844L148.52912902832031 150.60310363769531ZM140.76811218261719 162.72966003417969L140.05604553222656 164.59861755371094L138.18708801269531 163.88655090332031L138.89915466308594 162.01759338378906L140.76811218261719 162.72966003417969ZM137.49482727050781 169.11676025390625L133.85038757324219 174.635986328125L133.01589965820312 174.0849609375L133.96849060058594 174.38920593261719L132.93826293945312 177.61477661132812L131.0330810546875 177.00628662109375L132.10531616210938 173.649169921875L135.82585144042969 168.01470947265625L137.49482727050781 169.11676025390625ZM131.4169921875 182.37774658203125L130.86732482910156 184.09870910644531L130.70887756347656 184.41278076171875L128.92323303222656 183.511962890625L129.04600524902344 183.26860046386719L129.93882751464844 183.71900939941406L128.98623657226562 183.41474914550781L129.51181030273438 181.76922607421875L131.4169921875 182.37774658203125ZM128.45684814453125 188.87689208984375L126.24641418457031 193.25856018066406L122.39201354980469 197.06800842285156L120.98611450195312 195.64552307128906L124.72425842285156 191.95097351074219L125.42720794677734 192.66221618652344L124.53438568115234 192.21180725097656L126.67120361328125 187.97607421875L128.45684814453125 188.87689208984375ZM118.83579254150391 200.58274841308594L118.56786346435547 200.84754943847656L117.86492156982422 200.13630676269531L118.85633087158203 200.26708984375L118.64402008056641 201.87643432617188L116.66120147705078 201.6148681640625L116.91831970214844 199.66587829589844L117.42990875244141 199.16026306152344L118.83579254150391 200.58274841308594ZM117.99006652832031 206.83351135253906L117.43353271484375 211.05216979980469L112.92247009277344 215.61589050292969L111.50007629394531 214.20991516113281L115.77487945556641 209.88520812988281L116.48607635498047 210.58819580078125L115.49466705322266 210.45741271972656L116.00724792480469 206.57194519042969L117.99006652832031 206.83351135253906ZM110.09086608886719 218.4954833984375L110.31543731689453 220.48283386230469L108.32808685302734 220.70741271972656L108.103515625 218.72006225585938L110.09086608886719 218.4954833984375ZM110.87686920166016 225.45121765136719L111.39330291748047 230.02137756347656L109.1026611328125 235.482177734375L107.25834655761719 234.70855712890625L109.44821929931641 229.48799133300781L110.37037658691406 229.87480163574219L109.37670135498047 229.98709106445312L108.88951873779297 225.67579650878906L110.87686920166016 225.45121765136719ZM105.35205078125 239.44320678710938L103.86471557617188 238.10610961914062L105.20181274414062 236.6187744140625L106.68914794921875 237.95587158203125L105.35205078125 239.44320678710938ZM100.14637756347656 234.76338195800781L98.737052917480469 233.49642944335938L101.05413818359375 224.471923828125L102.99130249023438 224.96929931640625L100.82496643066406 233.40669250488281L99.85638427734375 233.15800476074219L100.52493286132812 232.41433715820312L101.48347473144531 233.27604675292969L100.14637756347656 234.76338195800781ZM102.22908020019531 219.6322021484375L102.68859100341797 217.68569946289062L104.63509368896484 218.14520263671875L104.17558288574219 220.09170532226562L102.22908020019531 219.6322021484375ZM103.78961181640625 213.08734130859375L103.38954162597656 203.15301513671875L104.38873291015625 203.11277770996094L103.39607238769531 203.23368835449219L103.38910675048828 203.17649841308594L105.37442779541016 202.93467712402344L105.38629150390625 203.03207397460938L105.78799438476562 213.00686645507812L103.78961181640625 213.08734130859375ZM102.78444671630859 198.21319580078125L102.54257965087891 196.22785949707031L104.52790069580078 195.98600769042969L104.76976776123047 197.97134399414062L102.78444671630859 198.21319580078125ZM102.14187622070312 191.14300537109375L102.03140258789062 183.04696655273438L102.20109558105469 181.0523681640625L104.19389343261719 181.22189331054688L104.02838134765625 183.16737365722656L103.031982421875 183.08261108398438L104.03189086914062 183.0689697265625L104.14169311523438 191.11572265625L102.14187622070312 191.14300537109375ZM102.62495422363281 176.07035827636719L102.79449462890625 174.07756042480469L104.78729248046875 174.24711608886719L104.61775207519531 176.23991394042969L102.62495422363281 176.07035827636719ZM101.74320983886719 169.65629577636719L99.702339172363281 163.27471923828125L99.227867126464844 159.83436584472656L101.20911407470703 159.56111145019531L101.67177581787109 162.91583251953125L100.68115234375 163.05245971679688L101.63362884521484 162.74784851074219L103.64816284179688 169.04707336425781L101.74320983886719 169.65629577636719ZM98.544754028320312 154.88124084472656L98.257278442382812 152.79676818847656L98.623390197753906 152.250732421875L100.28455352783203 153.36453247070312L100.13050842285156 153.59428405761719L99.2999267578125 153.03738403320312L100.29055023193359 152.9007568359375L100.5260009765625 154.60798645019531L98.544754028320312 154.88124084472656ZM101.40790557861328 148.09783935546875L105.18443298339844 142.46540832519531L106.0150146484375 143.02230834960938L105.11636352539062 143.46096801757812L103.70445251464844 140.5684814453125L105.50175476074219 139.691162109375L107.16621398925781 143.10102844238281L103.06906890869141 149.21163940429688L101.40790557861328 148.09783935546875ZM101.51114654541016 136.07521057128906L100.63381958007812 134.27790832519531L102.43112182617188 133.40058898925781L103.30844879150391 135.19789123535156L101.51114654541016 136.07521057128906ZM102.07501983642578 128.92082214355469L105.30651092529297 122.54033660888672L106.19861602783203 122.99215698242188L105.37331390380859 123.55685424804688L103.76515960693359 121.20653533935547L105.41576385498047 120.07714080810547L107.358154296875 122.91594696044922L103.85923004150391 129.82447814941406L102.07501983642578 128.92082214355469ZM100.94168853759766 117.08002471923828L99.812301635742188 115.42942047119141L101.46290588378906 114.30004119873047L102.59229278564453 115.95064544677734L100.94168853759766 117.08002471923828ZM99.775062561035156 110.11787414550781L103.96829223632812 102.48072052001953L104.84485626220703 102.96200561523438L103.98081970214844 103.46543121337891L103.33270263671875 102.35305786132812L105.06077575683594 101.34620666503906L105.99369812011719 102.9473876953125L101.52819061279297 111.0804443359375L99.775062561035156 110.11787414550781ZM100.81555938720703 98.03289794921875L99.808700561523438 96.304832458496094L101.53677368164062 95.297966003417969L102.54363250732422 97.026031494140625L100.81555938720703 98.03289794921875ZM98.027000427246094 91.240440368652344L98.113677978515625 82.769218444824219L98.677650451660156 81.024986267089844L100.58065032958984 81.640296936035156L100.06356811523438 83.239509582519531L99.112068176269531 82.931854248046875L100.11201477050781 82.942085266113281L100.02689361572266 91.260902404785156L98.027000427246094 91.240440368652344ZM100.21591186523438 76.267494201660156L100.83121490478516 74.364486694335938L102.73421478271484 74.979782104492188L102.11891174316406 76.882789611816406L100.21591186523438 76.267494201660156ZM102.27119445800781 69.607864379882812L104.30279541015625 62.622440338134766L105.26300811767578 62.901702880859375L104.27123260498047 63.029682159423828L103.92247009277344 60.326938629150391L105.90602111816406 60.070980072021484L106.28148651123047 62.980636596679688L104.19161987304688 70.166397094726562L102.27119445800781 69.607864379882812ZM103.28256988525391 55.368061065673828L103.026611328125 53.384510040283203L105.01016235351562 53.128551483154297L105.26612091064453 55.112102508544922L103.28256988525391 55.368061065673828ZM102.08572387695312 48.544231414794922L100.93299102783203 42.759151458740234L102.82469177246094 38.42510986328125L104.65769958496094 39.225173950195312L102.89154815673828 43.271568298339844L101.97504425048828 42.871536254882812L102.95576477050781 42.676116943359375L104.04716491699219 48.153392791748047L102.08572387695312 48.544231414794922ZM104.82485198974609 33.842597961425781L105.42987823486328 32.456432342529297L106.34638214111328 32.856460571289062L105.34671783447266 32.882389068603516L105.33407592773438 32.395004272460938L107.33340454101562 32.343147277832031L107.351806640625 33.052753448486328L106.65785980224609 34.642654418945312L104.82485198974609 33.842597961425781ZM105.20442962646484 27.396678924560547L105.08695220947266 22.867313385009766L106.08661651611328 22.841384887695312L105.5179443359375 23.663951873779297L101.01922607421875 20.5538330078125L102.15657043457031 18.908699035644531L107.07311248779297 22.307674407958984L107.20375823974609 27.344821929931641L105.20442962646484 27.396678924560547ZM104.44908905029297 22.66618537902832L105.53646850585938 24.344753265380859L103.85789489746094 25.432136535644531L102.77051544189453 23.753568649291992L104.44908905029297 22.66618537902832ZM108.30310821533203 28.400876998901367L113.78899383544922 35.45068359375L114.37635040283203 36.533496856689453L112.61832427978516 37.487102508544922L112.07022094726562 36.476650238037109L112.94923400878906 35.999847412109375L112.16002655029297 36.613975524902344L106.72469329833984 29.62913703918457L108.30310821533203 28.400876998901367ZM116.7603759765625 40.928539276123047L117.71398162841797 42.686557769775391L115.95595550537109 43.640163421630859L115.00234985351562 41.882144927978516L116.7603759765625 40.928539276123047ZM120.32284545898438 46.820720672607422L124.35514068603516 52.688278198242188L125.52153778076172 55.557575225830078L123.66876983642578 56.310741424560547L122.54320526123047 53.541881561279297L123.46958923339844 53.165298461914062L122.64543914794922 53.731670379638672L118.67454528808594 47.953464508056641L120.32284545898438 46.820720672607422ZM127.40444946289062 60.189495086669922L128.15760803222656 62.042263031005859L126.30484008789062 62.795421600341797L125.55168151855469 60.942653656005859L127.40444946289062 60.189495086669922ZM130.69009399414062 66.16253662109375L133.45559692382812 70.674270629882812L134.43592834472656 75.645652770996094L132.47370910644531 76.032585144042969L131.52810668945312 71.2373046875L132.50921630859375 71.043838500976562L131.65663146972656 71.566436767578125L128.98492431640625 67.207733154296875L130.69009399414062 66.16253662109375ZM135.40327453613281 80.551170349121094L135.49221801757812 81.002197265625L134.5111083984375 81.195671081542969L135.39910888671875 80.735832214355469L136.10739135742188 82.103607177734375L134.33139038085938 83.023284912109375L133.55757141113281 81.528961181640625L133.44105529785156 80.938117980957031L135.40327453613281 80.551170349121094ZM138.4066162109375 86.543609619140625L140.11497497558594 89.842613220214844L140.21041870117188 96.599037170410156L138.21063232421875 96.627296447753906L138.11851501464844 90.10693359375L139.118408203125 90.092803955078125L138.23040771484375 90.552642822265625L136.630615234375 87.463287353515625L138.4066162109375 86.543609619140625ZM140.2640380859375 100.63343811035156L141.84886169433594 101.8533935546875L140.62889099121094 103.438232421875L139.0440673828125 102.21827697753906L140.2640380859375 100.63343811035156ZM145.81094360351562 104.90328216552734L149.13055419921875 107.4586181640625L149.50411987304688 114.17530822753906L147.5072021484375 114.286376953125L147.15907287597656 108.02711486816406L148.15753173828125 107.97158050537109L147.54754638671875 108.76399993896484L144.59097290039062 106.48812103271484L145.81094360351562 104.90328216552734ZM149.63121032714844 118.1478271484375L151.35958862304688 119.15418243408203L150.35324096679688 120.88254547119141L148.62486267089844 119.87619018554688L149.63121032714844 118.1478271484375ZM155.68052673339844 121.67005920410156L160.29408264160156 124.35630798339844L159.44169616699219 130.30458068847656L157.46192932128906 130.02088928222656L158.21873474121094 124.73960113525391L159.2086181640625 124.88145446777344L158.7054443359375 125.74563598632812L154.67417907714844 123.39842224121094L155.68052673339844 121.67005920410156ZM158.73243713378906 135.25404357910156L158.48751831054688 136.96315002441406L157.49763488769531 136.82130432128906L158.20822143554688 136.11769104003906L158.40061950683594 136.31199645996094L156.97944641113281 137.71922302246094L156.43722534179688 137.17161560058594L156.75267028808594 134.97035217285156L158.73243713378906 135.25404357910156ZM161.91864013671875 139.86495971679688L165.72647094726562 143.71058654785156L168.40203857421875 147.66456604003906L166.74563598632812 148.78541564941406L164.12220764160156 144.90849304199219L164.95040893554688 144.34806823730469L164.23982238769531 145.05166625976562L160.49746704101562 141.27215576171875L161.91864013671875 139.86495971679688ZM171.20417785644531 151.80557250976562L171.63621520996094 152.44407653808594L171.55863952636719 154.32989501953125L169.56031799316406 154.2476806640625L169.62437438964844 152.69076538085938L170.62353515625 152.73187255859375L169.79531860351562 153.29229736328125L169.54774475097656 152.92642211914062L171.20417785644531 151.80557250976562ZM171.35310363769531 159.32566833496094L171.15611267089844 164.11349487304688L170.15695190429688 164.0723876953125L170.63369750976562 163.19334411621094L175.21189880371094 165.67626953125L174.25840759277344 167.43435668945312L169.13217163085938 164.65420532226562L169.35478210449219 159.24345397949219L171.35310363769531 159.32566833496094ZM179.60713195800781 168.05996704101562L181.36521911621094 169.01344299316406L180.41172790527344 170.77153015136719L178.65364074707031 169.81805419921875L179.60713195800781 168.05996704101562ZM182.15533447265625 174.78681945800781L182.3345947265625 180.8916015625L181.33502197265625 180.92095947265625L182.25814819335938 180.53645324707031L183.75489807128906 184.12979125976562L181.90864562988281 184.8988037109375L180.34088134765625 181.13494873046875L180.15618896484375 174.84553527832031L182.15533447265625 174.78681945800781ZM185.67745971679688 188.74540710449219L186.11468505859375 189.79507446289062L185.19155883789062 190.17958068847656L185.99290466308594 189.58139038085938L186.50909423828125 190.27288818359375L184.90640258789062 191.46926879882812L184.31608581542969 190.67848205566406L183.83120727539062 189.51441955566406L185.67745971679688 188.74540710449219ZM189.50007629394531 194.27963256835938L192.12181091308594 197.79171752929688L195.1348876953125 202.63236999511719L193.43695068359375 203.68925476074219L190.44621276855469 198.88449096679688L191.29518127441406 198.35604858398438L190.49383544921875 198.95423889160156L187.89738464355469 195.47601318359375L189.50007629394531 194.27963256835938ZM197.77633666992188 206.85653686523438L198.86335754394531 208.53535461425781L197.18455505371094 209.62236022949219L196.0975341796875 207.94354248046875L197.77633666992188 206.85653686523438ZM201.58088684082031 212.732421875L202.94448852539062 214.83842468261719L201.53062438964844 216.20045471191406L195.39891052246094 211.89707946777344L196.54783630371094 210.26002502441406L202.67955017089844 214.56340026855469L202.10508728027344 215.38192749023438L201.26568603515625 215.92543029785156L199.90208435058594 213.81942749023438L201.58088684082031 212.732421875ZM191.09695434570312 209.87519836425781L189.24531555175781 209.11923217773438L190.00126647949219 207.26760864257812L191.8529052734375 208.02357482910156L191.09695434570312 209.87519836425781ZM184.288330078125 206.69505310058594L178.79570007324219 198.33853149414062L180.46699523925781 197.24002075195312L185.95962524414062 205.59654235839844L184.288330078125 206.69505310058594ZM174.62196350097656 197.37118530273438L172.68789672851562 196.86187744140625L173.19720458984375 194.92782592773438L175.13127136230469 195.4371337890625L174.62196350097656 197.37118530273438ZM167.66360473632812 195.17643737792969L160.04740905761719 189.93203735351562L159.3905029296875 189.33477783203125L160.73593139648438 187.85498046875L161.34288024902344 188.40681457519531L160.670166015625 189.14671325683594L161.2373046875 188.32308959960938L168.79788208007812 193.52919006347656L167.66360473632812 195.17643737792969ZM155.69100952148438 185.97120666503906L154.21119689941406 184.62577819824219L155.55662536621094 183.14598083496094L157.03643798828125 184.49140930175781L155.69100952148438 185.97120666503906ZM150.44439697265625 181.44058227539062L144.77859497070312 176.92022705078125L142.66203308105469 175.10758972167969L143.96296691894531 173.58851623535156L146.06631469726562 175.38984680175781L145.41584777832031 176.14938354492188L146.03950500488281 175.36769104003906L151.69171142578125 179.877197265625L150.44439697265625 181.44058227539062ZM138.86439514160156 171.85525512695312L137.3453369140625 170.55433654785156L138.64627075195312 169.03526306152344L140.16532897949219 170.336181640625L138.86439514160156 171.85525512695312ZM133.17713928222656 168.1707763671875L128.16606140136719 165.34648132324219L126.35388946533203 160.73023986816406L128.215576171875 159.99940490722656L129.89778137207031 164.2845458984375L128.96693420410156 164.64996337890625L129.45793151855469 163.77880859375L134.15913391113281 166.428466796875L133.17713928222656 168.1707763671875ZM124.52680969238281 156.0760498046875L123.81047821044922 154.25129699707031L124.74132537841797 153.88587951660156L124.29134368896484 154.77891540527344L124.25591278076172 154.76106262207031L125.15587615966797 152.97499084472656L125.53253936767578 153.16477966308594L126.38850402832031 155.34521484375L124.52680969238281 156.0760498046875ZM119.79084014892578 152.51078796386719L115.15392303466797 150.17391967773438L115.60397338867188 149.28091430664062L115.23317718505859 150.20962524414062L110.76838684082031 148.42703247070312L111.50997924804688 146.56961059570312L116.01517486572266 148.36833190917969L120.69094085693359 150.72477722167969L119.79084014892578 152.51078796386719ZM106.12480926513672 146.57307434082031L105.24960327148438 146.2236328125L104.28700256347656 144.90382385253906L105.90287780761719 143.72529602050781L106.69578552246094 144.81243896484375L105.88784790039062 145.40170288085938L106.25865173339844 144.47299194335938L106.86641693115234 144.71565246582031L106.12480926513672 146.57307434082031ZM101.34066009521484 140.8641357421875L98.960853576660156 137.60121154785156L99.768791198730469 137.01194763183594L99.143692016601562 137.79249572753906L94.490531921386719 134.06597900390625L95.740730285644531 132.5048828125L100.49807739257812 136.31483459472656L102.95653533935547 139.68560791015625L101.34066009521484 140.8641357421875ZM90.641151428222656 131.17381286621094L88.887107849121094 130.21290588378906L89.848014831542969 128.45887756347656L91.602058410644531 129.41978454589844L90.641151428222656 131.17381286621094ZM84.501998901367188 127.81064605712891L82.373275756835938 126.64447784423828L77.484947204589844 120.32432556152344L79.066963195800781 119.1007080078125L83.827674865722656 125.25586700439453L83.036666870117188 125.86767578125L83.517120361328125 124.99065399169922L85.462905883789062 126.05660247802734L84.501998901367188 127.81064605712891ZM74.149879455566406 117.03620147705078L72.546913146972656 115.84018707275391L73.742927551269531 114.23720550537109L75.345893859863281 115.43321990966797L74.149879455566406 117.03620147705078ZM68.53948974609375 112.85012817382812L68.100692749023438 112.52272796630859L60.545112609863281 106.83565521240234L61.747871398925781 105.23772430419922L69.296722412109375 110.91976165771484L69.735519409179688 111.24716186523438L68.53948974609375 112.85012817382812ZM56.328460693359375 104.43141174316406L54.576953887939453 103.46587371826172L55.542484283447266 101.71437835693359L57.293991088867188 102.67991638183594L56.328460693359375 104.43141174316406ZM50.186626434326172 100.96725463867188L42.501499176025391 96.184654235839844L41.765476226806641 94.957000732421875L43.480815887451172 93.9285888671875L44.092624664306641 94.949058532714844L43.234954833984375 95.463264465332031L43.763317108154297 94.614242553710938L51.243350982666016 99.269210815429688L50.186626434326172 100.96725463867188ZM39.194461822509766 90.668670654296875L38.166057586669922 88.953338623046875L39.881397247314453 87.9249267578125L40.909801483154297 89.6402587890625L39.194461822509766 90.668670654296875ZM35.0955810546875 85.78045654296875L28.735570907592773 81.680267333984375L29.277414321899414 80.839790344238281L29.99176025390625 81.539581298828125L28.289276123046875 83.277473449707031L26.860584259033203 81.877891540527344L29.133792877197266 79.557403564453125L36.179267883300781 84.099502563476562L35.0955810546875 85.78045654296875ZM32.23590087890625 80.559219360351562L34.1912841796875 80.139068603515625L34.611434936523438 82.094436645507812L32.656051635742188 82.51458740234375L32.23590087890625 80.559219360351562ZM39.655971527099609 79.783004760742188L48.045864105224609 83.918449401855469L47.603748321533203 84.815406799316406L47.626380920410156 83.815666198730469L48.272453308105469 83.830291748046875L48.227188110351562 85.82977294921875L47.360008239746094 85.810142517089844L38.771739959716797 81.576919555664062L39.655971527099609 79.783004760742188ZM53.271156311035156 83.943443298339844L55.270641326904297 83.988700866699219L55.225383758544922 85.988182067871094L53.225898742675781 85.942924499511719L53.271156311035156 83.943443298339844ZM60.441600799560547 85.189971923828125L67.516769409179688 88.572395324707031L67.085456848144531 89.474594116210938L67.392021179199219 88.522743225097656L69.445953369140625 89.184249877929688L68.83282470703125 91.08795166015625L66.714851379394531 90.405815124511719L59.578968048095703 86.994369506835938L60.441600799560547 85.189971923828125ZM74.205184936523438 90.717048645019531L76.108879089355469 91.330169677734375L75.495750427246094 93.233871459960938L73.592056274414062 92.620750427246094L74.205184936523438 90.717048645019531ZM80.324317932128906 90.46343994140625L87.959381103515625 88.273170471191406L90.200164794921875 90.669670104980469L88.739288330078125 92.035621643066406L86.916458129882812 90.08612060546875L87.646896362304688 89.403144836425781L87.922645568847656 90.364372253417969L80.875816345214844 92.385894775390625L80.324317932128906 90.46343994140625ZM93.615043640136719 94.321861267089844L94.980995178222656 95.782737731933594L93.520118713378906 97.148689270019531L92.154167175292969 95.687812805175781L93.615043640136719 94.321861267089844ZM98.37261962890625 96.985824584960938L106.46098327636719 96.188766479492188L108.58687591552734 96.605484008789062L108.20215606689453 98.568130493164062L106.220458984375 98.179679870605469L106.41281890869141 97.198356628417969L106.51088714599609 98.193534851074219L98.568756103515625 98.976181030273438L98.37261962890625 96.985824584960938ZM113.49349975585938 97.567291259765625L115.45615386962891 97.952011108398438L115.07143402099609 99.914657592773438L113.10877990722656 99.529937744140625L113.49349975585938 97.567291259765625ZM120.08113098144531 97.61419677734375L126.98448944091797 96.708900451660156L130.27409362792969 98.174659729003906L129.46009826660156 100.00151824951172L126.42800140380859 98.650497436523438L126.83499908447266 97.737068176269531L126.96502685546875 98.72857666015625L120.3411865234375 99.597213745117188L120.08113098144531 97.61419677734375ZM134.84124755859375 100.20967102050781L136.56629943847656 100.97830963134766L136.1593017578125 101.89173889160156L136.20079040527344 100.89260101318359L136.31214904785156 100.89722442626953L136.22917175292969 102.89550018310547L135.92686462402344 102.88294982910156L134.02725219726562 102.03652954101562L134.84124755859375 100.20967102050781ZM141.30781555175781 101.10465240478516L146.77449035644531 101.33162689208984L150.48822021484375 105.14710235595703L149.05502319335938 106.54207611083984L145.61883544921875 103.01174926757812L146.33543395996094 102.31426239013672L146.2939453125 103.31340026855469L141.22483825683594 103.10292816162109L141.30781555175781 101.10465240478516ZM153.97566223144531 108.73009490966797L155.37063598632812 110.16329193115234L153.93743896484375 111.55826568603516L152.54246520996094 110.12506866455078L153.97566223144531 108.73009490966797ZM158.96659851074219 108.14558410644531L166.02230834960938 105.44873046875L168.93670654296875 107.29324340820312L167.86712646484375 108.98321533203125L165.37631225585938 107.40678405761719L165.91110229492188 106.56179809570312L166.26812744140625 107.49588775634766L159.68064880371094 110.01376342773438L158.96659851074219 108.14558410644531ZM173.16165161132812 109.96720123291016L174.85162353515625 111.03678131103516L173.78204345703125 112.72675323486328L172.09207153320312 111.65717315673828L173.16165161132812 109.96720123291016ZM179.07899475097656 110.78150177001953L185.75784301757812 110.05614471435547L188.86026000976562 112.85349273681641L187.52096557617188 114.33884429931641L184.75106811523438 111.84131622314453L185.42071533203125 111.09864044189453L185.5286865234375 112.09279632568359L179.29493713378906 112.76981353759766L179.07899475097656 110.78150177001953ZM192.57365417480469 116.20173645019531L194.05900573730469 117.54103088378906L192.71971130371094 119.02638244628906L191.23435974121094 117.68708801269531L192.57365417480469 116.20173645019531ZM198.31028747558594 118.96961975097656L203.90121459960938 120.54079437255859L207.91026306152344 122.01033020019531L207.22193908691406 123.88815307617188L203.24923706054688 122.43193817138672L203.59339904785156 121.49302673339844L203.32286071777344 122.45573425292969L197.76921081542969 120.89503479003906L198.31028747558594 118.96961975097656ZM212.60478210449219 123.73114013671875L213.41703796386719 124.02887725830078L213.0728759765625 124.96778869628906L213.01753234863281 123.96932220458984L214.15068054199219 123.90650939941406L214.26136779785156 125.9034423828125L212.92233276367188 125.97766876220703L211.91645812988281 125.60896301269531L212.60478210449219 123.73114013671875ZM219.14302062988281 123.6297607421875L223.70004272460938 123.37715148925781L228.99299621582031 126.18893432617188L228.05470275878906 127.95518493652344L223.00791931152344 125.274169921875L223.47706604003906 124.39104461669922L223.53240966796875 125.38951110839844L219.25370788574219 125.62669372558594L219.14302062988281 123.6297607421875ZM232.61532592773438 128.20193481445312L234.49382019042969 127.51546478271484L235.18031311035156 129.39396667480469L233.30181884765625 130.0804443359375L232.61532592773438 128.20193481445312ZM239.19007873535156 125.79926300048828L243.5029296875 124.22318267822266L244.18939208984375 126.10167694091797L239.87654113769531 127.67775726318359L239.19007873535156 125.79926300048828Z"/>
</svg>
