<?xml version="1.0" encoding="utf-8" ?>
<svg xmlns="http://www.w3.org/2000/svg" xmlns:xlink="http://www.w3.org/1999/xlink" width="256" height="256">
	<path fill="#4285F4" d="M242.79171752929688 124.98426818847656L233.64375305175781 129.9927978515625L224.17526245117188 134.72439575195312L213.546142578125 134.28132629394531L213.58778381347656 133.28219604492188L214.21221923828125 134.06326293945312L205.08639526367188 141.35906982421875L193.35699462890625 137.09622192382812L193.69856262207031 136.1563720703125L194.33566284179688 136.92715454101562L185.30763244628906 144.38929748535156L173.94778442382812 141.63969421386719L174.18304443359375 140.66775512695312L174.56951904296875 141.59005737304688L165.02522277832031 145.5894775390625L154.65284729003906 145.95846557617188L154.61729431152344 144.95909118652344L155.32980346679688 145.66075134277344L146.66709899902344 154.45741271972656L135.76872253417969 153.69564819335938L135.83845520019531 152.69808959960938L136.027099609375 153.68013000488281L126.10904693603516 155.58537292480469L115.83588409423828 155.92869567871094L115.80248260498047 154.92926025390625L116.39119720458984 155.73759460449219L107.43793487548828 162.25831604003906L97.613815307617188 165.02774047851562L87.666854858398438 167.74696350097656L76.406318664550781 164.52055358886719L76.6817626953125 163.55923461914062L77.297508239746094 164.34718322753906L68.236900329589844 171.42764282226562L57.147983551025391 169.66584777832031L57.304893493652344 168.67823791503906L57.908657073974609 169.47540283203125L48.849899291992188 176.33642578125L38.029304504394531 175.55418395996094L38.101406097412109 174.55679321289062L38.484897613525391 175.48033142089844L27.709943771362305 179.95452880859375L27.741996765136719 174.0517578125L35.394927978515625 166.86164855957031L43.182792663574219 160.2001953125L53.614200592041016 156.91273498535156L53.914779663085938 157.86648559570312L53.388690948486328 157.01605224609375L61.966659545898438 151.70957946777344L62.492748260498047 152.56001281738281L61.627613067626953 152.0584716796875L67.045547485351562 142.71272277832031L73.367446899414062 134.00576782226562L83.755332946777344 130.48873901367188L84.076019287109375 131.43592834472656L83.220932006835938 130.91743469238281L88.889518737792969 121.56890869140625L97.972999572753906 116.44129943847656L107.16153717041016 111.86016082763672L107.60772705078125 112.75509643554688L106.91242980957031 112.03636932373047L114.25661468505859 104.93158721923828L123.60147094726562 100.34029388427734L124.04244232177734 101.23781585693359L123.30651092529297 100.56075286865234L130.1683349609375 93.102310180664062L130.90426635742188 93.779373168945312L130.06390380859375 93.237350463867188L136.03401184082031 83.98114013671875L147.84893798828125 82.110000610351562L148.00535583496094 83.097694396972656L147.06825256347656 82.748641967773438L151.24128723144531 71.545372009277344L159.39178466796875 64.899497985839844L170.38665771484375 62.290798187255859L170.61750793457031 63.263786315917969L169.78065490722656 62.716350555419922L175.61663818359375 53.795101165771484L183.14237976074219 46.6297607421875L193.45402526855469 43.162952423095703L193.772705078125 44.110816955566406L193.09765625 43.373043060302734L198.47169494628906 38.455924987792969L199.93873596191406 39.804229736328125L193.68963623046875 47.910686492919922L192.89764404296875 47.300155639648438L193.83363342285156 47.652175903320312L190.26646423339844 57.137008666992188L185.27047729492188 65.933914184570312L184.40092468261719 65.440071105957031L185.40061950683594 65.415443420410156L185.68946838378906 77.138946533203125L177.03715515136719 84.570411682128906L176.38558959960938 83.811813354492188L177.33192443847656 84.135017395019531L173.99456787109375 93.906776428222656L166.19464111328125 101.51538848876953L165.49636840820312 100.799560546875L166.45054626464844 101.09880065917969L163.42185974121094 110.75616455078125L160.20050048828125 120.34304809570312L159.25259399414062 120.02451324462891L160.22337341308594 120.26451873779297L157.70339965820312 130.45735168457031L150.22097778320312 138.25201416015625L149.49957275390625 137.55950927734375L150.49884033203125 137.59762573242188L150.06874084472656 148.87127685546875L142.91082763671875 156.92282104492188L142.16346740722656 156.25840759277344L143.09794616699219 156.61444091796875L139.480224609375 166.11000061035156L133.85038757324219 174.635986328125L133.01589965820312 174.0849609375L133.96849060058594 174.38922119140625L130.86732482910156 184.09870910644531L126.24641418457031 193.25856018066406L118.56787109375 200.84754943847656L117.86492156982422 200.13630676269531L118.85633087158203 200.26708984375L117.43353271484375 211.05216979980469L109.753173828125 218.82217407226562L109.04197692871094 218.11918640136719L110.03565216064453 218.00689697265625L111.39330291748047 230.02137756347656L106.86907196044922 240.80699157714844L98.737060546875 233.49642944335938L101.45921325683594 222.89424133300781L103.81880187988281 212.89810180664062L104.79205322265625 213.12785339355469L103.79286193847656 213.1680908203125L103.38954162597656 203.15301513671875L104.38873291015625 203.11277770996094L103.39607238769531 203.23370361328125L102.16946411132812 193.16517639160156L102.03140258789062 183.04696655273438L102.88763427734375 172.98275756835938L103.884033203125 173.06753540039062L102.93155670166016 173.37214660644531L99.702339172363281 163.27471923828125L98.257278442382812 152.79676818847656L105.18443298339844 142.46540832519531L106.0150146484375 143.02230834960938L105.11636352539062 143.46096801757812L100.00955963134766 132.9990234375L105.30651092529297 122.54033660888672L106.19861602783203 122.99215698242188L105.37331390380859 123.55685424804688L98.173652648925781 113.03453826904297L103.96829223632812 102.48072052001953L104.84485626220703 102.96200561523438L103.98081970214844 103.46543121337891L98.006820678710938 93.212257385253906L98.113677978515625 82.769218444824219L101.39878845214844 72.609107971191406L102.35028839111328 72.916763305664062L101.39007568359375 72.637496948242188L104.30279541015625 62.622440338134766L105.26300811767578 62.901702880859375L104.27123260498047 63.029682159423828L102.97887420654297 53.014591217041016L103.97064971923828 52.886611938476562L102.98992919921875 53.08203125L100.93299102783203 42.759151458740234L105.42987823486328 32.456428527832031L106.34638214111328 32.856460571289062L105.34671783447266 32.882389068603516L105.08695220947266 22.867313385009766L106.08661651611328 22.841384887695312L105.5179443359375 23.663951873779297L100.59986114501953 20.263910293579102L101.16853332519531 19.441343307495117L102.00782012939453 18.897651672363281L107.49646759033203 27.370357513427734L106.65718078613281 27.91404914855957L107.44638824462891 27.299919128417969L113.78899383544922 35.45068359375L118.60903930664062 44.336627960205078L117.73002624511719 44.813434600830078L118.55417633056641 44.247062683105469L124.35514068603516 52.688278198242188L128.17489624023438 62.08477783203125L127.24851226806641 62.461360931396484L128.10108947753906 61.938762664794922L133.45559692382812 70.674270629882812L135.49221801757812 81.002204895019531L134.5111083984375 81.195671081542969L135.39910888671875 80.735824584960938L140.11497497558594 89.842613220214844L140.27427673339844 101.11947631835938L139.27438354492188 101.13359832763672L139.88436889648438 100.34117889404297L149.13055419921875 107.4586181640625L149.75811767578125 118.74198913574219L148.75965881347656 118.79752349853516L149.26283264160156 117.93334197998047L160.29408264160156 124.35630798339844L158.48751831054688 136.96315002441406L157.49763488769531 136.82130432128906L158.20822143554688 136.11770629882812L165.72647094726562 143.71058654785156L171.63621520996094 152.44407653808594L171.15611267089844 164.11349487304688L170.15695190429688 164.0723876953125L170.63369750976562 163.19334411621094L181.995849609375 169.35545349121094L182.3345947265625 180.8916015625L181.33502197265625 180.92095947265625L182.25814819335938 180.53645324707031L186.11468505859375 189.79507446289062L185.19155883789062 190.17958068847656L185.99290466308594 189.58139038085938L192.12181091308594 197.79171752929688L197.46751403808594 206.37985229492188L202.94448852539062 214.83842468261719L201.53062438964844 216.20045471191406L194.4022216796875 211.19758605957031L194.9766845703125 210.37905883789062L194.59870910644531 211.30487060546875L184.64802551269531 207.24229431152344L178.68997192382812 198.17765808105469L179.52561950683594 197.62840270996094L179.27096557617188 198.59542846679688L168.5157470703125 195.76319885253906L160.04740905761719 189.93203735351562L152.57180786132812 183.13523864746094L153.24452209472656 182.39533996582031L152.62086486816406 183.17703247070312L144.77859497070312 176.92022705078125L137.15397644042969 170.39044189453125L137.804443359375 169.63090515136719L137.31344604492188 170.50205993652344L128.16606140136719 165.34648132324219L123.81047821044922 154.25129699707031L124.74132537841797 153.88587951660156L124.29127502441406 154.77888488769531L115.15392303466797 150.17391967773438L115.60397338867188 149.28091430664062L115.23317718505859 150.20962524414062L105.24960327148438 146.2236328125L98.960853576660156 137.60121154785156L99.768791198730469 137.01194763183594L99.143684387207031 137.79249572753906L91.326522827148438 131.53205871582031L91.951629638671875 130.75151062011719L91.471176147460938 131.62852478027344L82.373275756835938 126.64447784423828L75.938766479492188 118.32526397705078L76.729774475097656 117.71345520019531L76.131759643554688 118.51493835449219L68.100692749023438 112.52272796630859L60.092575073242188 106.49503326416016L60.693954467773438 105.69606781005859L60.211185455322266 106.57181549072266L51.290042877197266 101.65392303466797L42.501499176025391 96.184654235839844L36.879924774169922 86.808128356933594L37.737590789794922 86.293922424316406L37.195747375488281 87.1343994140625L28.735570907592773 81.680267333984375L29.277414321899414 80.839790344238281L29.99176025390625 81.539581298828125L28.282014846801758 83.284881591796875L27.567668914794922 82.585090637207031L27.357595443725586 81.607406616210938L38.500072479248047 79.213249206542969L48.045864105224609 83.918449401855469L47.603748321533203 84.815406799316406L47.626377105712891 83.815666198730469L58.060970306396484 84.051864624023438L67.516769409179688 88.572395324707031L67.085456848144531 89.474594116210938L67.392021179199219 88.522743225097656L76.961151123046875 91.604660034179688L76.654586791992188 92.556510925292969L76.378837585449219 91.595283508300781L87.959381103515625 88.273170471191406L96.634330749511719 97.55096435546875L95.903892517089844 98.233940124511719L95.805824279785156 97.238761901855469L106.46098327636719 96.188766479492188L116.43783569335938 98.144439697265625L116.24547576904297 99.125762939453125L116.11544799804688 98.134254455566406L126.98448944091797 96.708900451660156L136.56629943847656 100.97830963134766L136.1593017578125 101.89173889160156L136.20079040527344 100.89260101318359L146.77449035644531 101.33163452148438L155.37327575683594 110.16600036621094L154.65667724609375 110.86348724365234L154.29965209960938 109.92939758300781L166.02230834960938 105.44873046875L175.42182922363281 111.39765930175781L174.88703918457031 112.24264526367188L174.77906799316406 111.24848937988281L185.75784301757812 110.05614471435547L194.60966491699219 118.03754425048828L193.94001770019531 118.78022003173828L194.21055603027344 117.81751251220703L203.90121459960938 120.54079437255859L213.41703796386719 124.02887725830078L213.0728759765625 124.96778869628906L213.01753234863281 123.96932220458984L223.70004272460938 123.37715148925781L233.10794067382812 128.37492370605469L232.6387939453125 129.25804138183594L232.29556274414062 128.31878662109375L243.5029296875 124.22318267822266L244.18939208984375 126.10167694091797L232.56333923339844 130.35029602050781L223.00791931152344 125.274169921875L223.47706604003906 124.39104461669922L223.53240966796875 125.38951110839844L212.92233276367188 125.97766876220703L203.24923706054688 122.43193817138672L203.59339904785156 121.49302673339844L203.32286071777344 122.45573425292969L193.44418334960938 119.67961120605469L184.75106811523438 111.84131622314453L185.42071533203125 111.09864044189453L185.5286865234375 112.09279632568359L174.64756774902344 113.2745361328125L165.37631225585938 107.40678405761719L165.91110229492188 106.56179809570312L166.26812744140625 107.49588775634766L154.3990478515625 112.03251647949219L145.61883544921875 103.01174926757812L146.33543395996094 102.31426239013672L146.2939453125 103.31340026855469L135.92686462402344 102.88294982910156L126.42800140380859 98.650497436523438L126.83499908447266 97.737068176269531L126.96502685546875 98.72857666015625L116.21347808837891 100.13851928710938L106.220458984375 98.179679870605469L106.41281890869141 97.198356628417969L106.51088714599609 98.193534851074219L95.510643005371094 99.277534484863281L86.916458129882812 90.08612060546875L87.646896362304688 89.403144836425781L87.922645568847656 90.364372253417969L76.63775634765625 93.601676940917969L66.714851379394531 90.405815124511719L57.392200469970703 85.948944091796875L57.823516845703125 85.046745300292969L57.800888061523438 86.046485900878906L47.360008239746094 85.810142517089844L37.927890777587891 81.160980224609375L38.370006561279297 80.264022827148438L38.580078125 81.241706848144531L24.525440216064453 84.261589050292969L29.133792877197266 79.557403564453125L38.475379943847656 85.579765319824219L44.092620849609375 94.949058532714844L43.234954833984375 95.463264465332031L43.763317108154297 94.614242553710938L52.324321746826172 99.941917419433594L51.79595947265625 100.79093933105469L52.278728485107422 99.915191650390625L61.238746643066406 104.85450744628906L69.296722412109375 110.91976165771484L77.437232971191406 116.99362945556641L83.827674865722656 125.25586700439453L83.036666870117188 125.86767578125L83.517120361328125 124.99065399169922L92.508621215820312 129.91641235351562L100.49807739257812 136.31483459472656L106.69578552246094 144.81243896484375L105.88784790039062 145.40170288085938L106.25864410400391 144.47299194335938L116.01517486572266 148.36833190917969L125.53255462646484 153.16482543945312L129.89778137207031 164.2845458984375L128.96693420410156 164.64996337890625L129.45793151855469 163.77880859375L138.38063049316406 168.80775451660156L146.06631469726562 175.38984680175781L145.41584777832031 176.14938354492188L146.03950500488281 175.36769104003906L153.89338684082031 181.63375854492188L161.34288024902344 188.40681457519531L160.670166015625 189.14671325683594L161.2373046875 188.32308959960938L169.50628662109375 194.01698303222656L168.93914794921875 194.84060668945312L169.19380187988281 193.87358093261719L180.15080261230469 196.75894165039062L186.14891052246094 205.88450622558594L185.31326293945312 206.43376159667969L185.69123840332031 205.50794982910156L195.45895385742188 209.49581909179688L202.67955017089844 214.56340026855469L202.10508728027344 215.38192749023438L201.26568603515625 215.92543029785156L195.76957702636719 207.43673706054688L190.44621276855469 198.88449096679688L191.29518127441406 198.35604858398438L190.49383544921875 198.95423889160156L184.31608581542969 190.67848205566406L180.34088134765625 181.13494873046875L180.01359558105469 169.98947143554688L181.01316833496094 169.96011352539062L180.53642272949219 170.83915710449219L169.13217163085938 164.65420532226562L169.62437438964844 152.69076538085938L170.62353515625 152.73187255859375L169.79533386230469 153.29229736328125L164.12220764160156 144.90849304199219L164.95040893554688 144.34806823730469L164.23982238769531 145.05166625976562L156.43722534179688 137.17161560058594L158.21873474121094 124.73960113525391L159.2086181640625 124.88145446777344L158.7054443359375 125.74563598632812L147.79110717773438 119.39073944091797L147.15907287597656 108.02711486816406L148.15753173828125 107.97158050537109L147.54754638671875 108.76399993896484L138.28131103515625 101.63112640380859L138.11851501464844 90.106925964355469L139.118408203125 90.092803955078125L138.23040771484375 90.552650451660156L133.55757141113281 81.528961181640625L131.52810668945312 71.2373046875L132.50921630859375 71.043838500976562L131.65663146972656 71.566436767578125L126.35303497314453 62.913978576660156L122.54320526123047 53.541881561279297L123.46958923339844 53.165298461914062L122.64543914794922 53.731670379638672L116.87609100341797 45.336463928222656L112.07022094726562 36.476654052734375L112.94923400878906 35.999847412109375L112.16002655029297 36.613975524902344L105.84141540527344 28.494043350219727L100.32924652099609 19.985034942626953L101.73720550537109 18.618776321411133L107.07311248779297 22.307674407958984L107.351806640625 33.052753448486328L102.89154815673828 43.271568298339844L101.97504425048828 42.871536254882812L102.95576477050781 42.676116943359375L104.95805358886719 52.724723815917969L106.28148651123047 62.980636596679688L103.30635833740234 73.210289001464844L100.06356811523438 83.239509582519531L99.112068176269531 82.931854248046875L100.11201477050781 82.942085266113281L100.00953674316406 92.957160949707031L99.009590148925781 92.946929931640625L99.873626708984375 92.443504333496094L105.99369812011719 102.9473876953125L100.22257995605469 113.45836639404297L99.346015930175781 112.97708129882812L100.17131805419922 112.41238403320312L107.358154296875 122.91594696044922L102.01844787597656 133.45906066894531L101.1263427734375 133.00723266601562L102.02499389648438 132.56857299804688L107.16621398925781 143.10102844238281L100.13050842285156 153.59428405761719L99.2999267578125 153.03738403320312L100.29055023193359 152.9007568359375L101.67177581787109 162.91583251953125L100.68115234375 163.05245971679688L101.63362884521484 162.74784851074219L104.89736938476562 172.95323181152344L104.02838134765625 183.16738891601562L103.031982421875 183.08261108398438L104.03189086914062 183.0689697265625L104.16854858398438 193.08404541015625L103.16864013671875 193.09768676757812L104.16130065917969 192.97676086425781L105.38629150390625 203.03205871582031L105.7967529296875 213.22438049316406L103.39637756347656 223.39161682128906L100.82496643066406 233.40669250488281L99.85638427734375 233.15800476074219L100.52493286132812 232.41433715820312L107.15975189208984 238.37893676757812L106.49120330810547 239.12260437011719L105.56904602050781 238.73579406738281L109.44821929931641 229.48799133300781L110.37037658691406 229.87480163574219L109.37670135498047 229.98709106445312L107.99460601806641 217.75628662109375L115.77487945556641 209.88520812988281L116.48607635498047 210.58819580078125L115.49466705322266 210.45741271972656L116.91831970214844 199.66587829589844L124.72425842285156 191.95097351074219L125.42720794677734 192.66221618652344L124.53438568115234 192.21180725097656L129.04600524902344 183.26860046386719L129.93882751464844 183.71900939941406L128.98623657226562 183.41474914550781L132.10531616210938 173.649169921875L137.75050354003906 165.09994506835938L138.58499145507812 165.65097045898438L137.6505126953125 165.29493713378906L141.29428100585938 155.73103332519531L148.33578491210938 147.8104248046875L149.08314514160156 148.47483825683594L148.08387756347656 148.43672180175781L148.51480102539062 137.141357421875L156.07540893554688 129.26524353027344L156.79681396484375 129.95774841308594L155.82603454589844 129.71774291992188L158.29164123535156 119.74477386474609L161.51350402832031 110.15768432617188L164.61763000488281 100.259765625L172.4271240234375 92.641822814941406L173.12539672851562 93.357650756835938L172.17906188964844 93.034446716308594L175.52732849121094 83.230751037597656L184.02651977539062 75.930801391601562L184.67808532714844 76.689399719238281L183.67839050292969 76.714027404785156L183.39439392089844 65.187416076660156L188.48857116699219 56.217628479003906L189.35812377929688 56.711467742919922L188.42213439941406 56.359447479248047L192.01431274414062 46.808109283447266L198.35475158691406 38.583168029785156L199.14674377441406 39.193698883056641L199.82179260253906 39.931472778320312L194.29177856445312 44.991306304931641L183.98997497558594 48.454807281494141L183.67129516601562 47.506942749023438L184.36085510253906 48.231178283691406L177.07963562011719 55.163703918457031L176.39007568359375 54.439468383789062L177.2269287109375 54.986904144287109L171.23616027832031 64.144760131835938L160.07675170898438 66.792495727539062L159.84590148925781 65.819511413574219L160.47784423828125 66.594528198242188L152.715576171875 72.923843383789062L152.08363342285156 72.148826599121094L153.02073669433594 72.497879028320312L148.73860168457031 83.994033813476562L136.7884521484375 85.886589050292969L136.63203430175781 84.898895263671875L137.47239685058594 85.44091796875L131.69819641113281 94.393386840820312L124.65154266357422 102.052734375L115.27978515625 106.65724182128906L114.83881378173828 105.75971984863281L115.53411102294922 106.47844696044922L108.19207000732422 113.58115386962891L98.888381958007812 118.21970367431641L98.442192077636719 117.32476806640625L98.93377685546875 118.19560241699219L90.100532531738281 123.18195343017578L89.60894775390625 122.31111907958984L90.464035034179688 122.82960510253906L84.742057800292969 132.26618957519531L74.310317993164062 135.79806518554688L73.989631652832031 134.85087585449219L74.798828125 135.43841552734375L68.694122314453125 143.84623718261719L67.884925842285156 143.25869750976562L68.75006103515625 143.76023864746094L63.232109069824219 153.27850341796875L54.334571838378906 158.78266906738281L43.978427886962891 162.04641723632812L43.677848815917969 161.09266662597656L44.327861785888672 161.85258483886719L36.712673187255859 168.3663330078125L36.062660217285156 167.60641479492188L36.747386932373047 168.33522033691406L29.42437744140625 175.21536254882812L28.739650726318359 174.48655700683594L29.739635467529297 174.49198913574219L29.718095779418945 178.45854187011719L28.718111038208008 178.45310974121094L28.334619522094727 177.52957153320312L37.936954498291016 173.54229736328125L48.618465423583984 174.31448364257812L48.546363830566406 175.31187438964844L47.942600250244141 174.51470947265625L57.040882110595703 167.62374877929688L68.120956420898438 169.38414001464844L67.964042663574219 170.37174987792969L67.348297119140625 169.58380126953125L76.467445373535156 162.45759582519531L87.948631286621094 165.74722290039062L87.673187255859375 166.70854187011719L87.409492492675781 165.74394226074219L97.0711669921875 163.10275268554688L106.7227783203125 160.3819580078125L106.99410247802734 161.34445190429688L106.40538787841797 160.53611755371094L115.46207427978516 153.94007873535156L125.96393585205078 153.589111328125L125.99733734130859 154.58854675292969L125.80868530273438 153.60650634765625L135.77798461914062 151.69142150878906L146.34733581542969 152.43019104003906L146.27760314941406 153.42774963378906L145.56509399414062 152.72608947753906L154.18402099609375 143.973876953125L164.77162170410156 143.59722900390625L164.80717468261719 144.59660339355469L164.42070007324219 143.67430114746094L174.09928894042969 139.61860656738281L185.2916259765625 142.32766723632812L185.05636596679688 143.29960632324219L184.41926574707031 142.52882385253906L193.50244140625 135.02110290527344L205.24195861816406 139.28762817382812L204.900390625 140.22747802734375L204.27595520019531 139.4464111328125L213.25559997558594 132.26748657226562L224.00071716308594 132.71539306640625L223.95907592773438 133.71452331542969L223.51206970214844 132.81999206542969L232.73295593261719 128.21212768554688L233.17996215820312 129.10665893554688L232.69972229003906 128.22952270507812L241.83123779296875 123.22999572753906L242.79171752929688 124.98426818847656ZM243.12055969238281 128.15834045410156L233.1038818359375 129.27969360351562L232.99263000488281 128.28590393066406L233.60868835449219 129.0736083984375L224.67135620117188 136.06352233886719L214.33384704589844 137.28146362304688L204.01795959472656 137.33750915527344L204.01252746582031 136.3375244140625L204.24748229980469 137.30952453613281L194.51199340820312 139.66281127929688L194.27703857421875 138.69081115722656L194.84745788574219 139.51216125488281L185.74220275878906 145.83564758300781L175.13459777832031 146.28692626953125L164.10359191894531 143.54225158691406L164.34504699707031 142.57183837890625L164.89122009277344 143.40950012207031L155.83741760253906 149.31280517578125L146.04240417480469 152.47380065917969L135.90142822265625 153.51934814453125L135.79887390136719 152.52462768554688L135.96047973632812 153.51148986816406L125.93529510498047 155.15312194824219L115.3349609375 154.24945068359375L115.41989898681641 153.25306701660156L115.6251220703125 154.23178100585938L105.82170104980469 156.28739929199219L105.61647796630859 155.30868530273438L106.09816741943359 156.18502807617188L96.97064208984375 161.20201110839844L96.48895263671875 160.32566833496094L97.057563781738281 161.14826965332031L88.052482604980469 167.37286376953125L78.077690124511719 170.30438232421875L67.312644958496094 169.08917236328125L56.644977569580078 167.44332885742188L56.797458648681641 166.45501708984375L57.202407836914062 167.36935424804688L47.847312927246094 171.51260375976562L38.252727508544922 175.13520812988281L26.971717834472656 176.55451965332031L27.134237289428711 172.97354125976562L37.720619201660156 169.16851806640625L38.058860778808594 170.10957336425781L37.330783843994141 169.424072265625L44.283473968505859 162.03947448730469L51.611896514892578 155.00392150878906L59.903800964355469 149.17544555664062L68.457206726074219 143.7972412109375L68.989501953125 144.643798828125L68.236434936523438 143.98585510253906L75.013603210449219 136.22889709472656L83.338096618652344 130.40946960449219L83.911048889160156 131.22906494140625L83.290267944335938 130.44508361816406L91.235435485839844 124.15388488769531L100.70719146728516 119.78248596191406L101.12623596191406 120.69045257568359L100.5235595703125 119.89246368408203L108.51821899414062 113.85456085205078L116.55400848388672 107.85888671875L117.15201568603516 108.66037750244141L116.27151489257812 108.18633270263672L121.54009246826172 98.400367736816406L129.89422607421875 92.217796325683594L140.00166320800781 88.604721069335938L140.33827209472656 89.546363830566406L139.46148681640625 89.065498352050781L144.833251953125 79.270866394042969L154.31927490234375 74.607955932617188L154.76042175292969 75.505393981933594L154.2247314453125 74.660980224609375L162.73100280761719 69.264625549316406L163.26669311523438 70.109039306640625L162.40547180175781 69.600799560546875L167.98435974121094 60.147369384765625L176.91682434082031 54.876064300537109L177.425048828125 55.737285614013672L176.86302185058594 54.910167694091797L185.17083740234375 49.264965057373047L185.73286437988281 50.092082977294922L184.99778747558594 49.414096832275391L192.08621215820312 41.728816986083984L204.85340881347656 39.112140655517578L196.26103210449219 49.243522644042969L188.728271484375 56.774833679199219L188.021240234375 56.067657470703125L189.01162719726562 55.929340362548828L190.75138854980469 68.386329650878906L182.07008361816406 75.87603759765625L181.41685485839844 75.118881225585938L182.38505554199219 75.369087219238281L179.83039855957031 85.25469970703125L178.86219787597656 85.004493713378906L179.83917236328125 85.217857360839844L177.61065673828125 95.422027587890625L172.56352233886719 104.40304565429688L165.37783813476562 112.18310546875L158.11300659179688 119.81629180908203L157.38864135742188 119.12686920166016L158.38719177246094 119.07315826416016L159.02255249023438 130.88446044921875L152.02494812011719 139.06004333496094L151.26522827148438 138.4097900390625L152.15542602539062 138.8653564453125L147.52833557128906 147.9068603515625L140.29893493652344 155.68832397460938L139.56631469726562 155.00767517089844L140.46162414550781 155.453125L135.99998474121094 164.42039489746094L135.10467529296875 163.97494506835938L136.04702758789062 164.3095703125L132.67630004882812 173.80223083496094L131.73394775390625 173.46760559082031L132.68563842773438 173.77467346191406L129.57778930664062 183.4068603515625L126.18253326416016 193.13900756835938L118.77216339111328 200.91452026367188L118.04826354980469 200.224609375L118.97915649414062 200.58990478515625L115.31049346923828 209.93905639648438L114.37960052490234 209.57376098632812L115.373779296875 209.46598815917969L116.68045043945312 221.51922607421875L111.37846374511719 230.69325256347656L101.69580841064453 237.36357116699219L100.32114410400391 235.95001220703125L102.79292297363281 232.56794738769531L103.60028076171875 233.15800476074219L102.66124725341797 233.5018310546875L98.925086975097656 223.2978515625L99.395774841308594 213.08183288574219L100.39471435546875 213.12785339355469L99.394798278808594 213.14054870605469L99.265510559082031 202.95652770996094L102.66066741943359 192.78117370605469L103.6092529296875 193.09768676757812L102.66878509521484 193.43757629394531L98.887725830078125 182.97547912597656L105.14426422119141 172.5528564453125L106.00164794921875 173.06753540039062L105.04629516601562 173.36300659179688L101.93435668945312 163.30116271972656L99.829872131347656 153.03056335449219L102.06707000732422 142.80850219726562L103.0439453125 143.02230834960938L102.07212829589844 143.25802612304688L99.576789855957031 132.97056579589844L102.85462188720703 122.68843078613281L103.80738067626953 122.99215698242188L102.81817626953125 123.13868713378906L101.33465576171875 113.12361145019531L102.32386016845703 112.97708129882812L101.3406982421875 113.15982055664062L99.474777221679688 103.12101745605469L98.090789794921875 92.971107482910156L98.990341186523438 82.711563110351562L102.72413635253906 72.57122802734375L103.66254425048828 72.916763305664062L102.68328857421875 72.714134216308594L104.755615234375 62.699073791503906L105.73487091064453 62.901702880859375L104.91007995605469 63.467140197753906L97.7056884765625 52.958217620849609L103.16977691650391 42.411521911621094L104.05768585205078 42.871536254882812L103.06241607666016 42.968673706054688L102.06699371337891 32.769786834716797L104.86571502685547 22.576616287231445L105.83002471923828 22.841384887695312L104.84112548828125 22.989997863769531L104.05005645751953 17.72606086730957L105.896240234375 17.062599182128906L111.24585723876953 25.970317840576172L110.01377868652344 37.994487762451172L109.01898956298828 37.892555236816406L109.80510711669922 37.274482727050781L116.22163391113281 45.435592651367188L120.36582946777344 54.766204833984375L123.26922607421875 64.555015563964844L122.31050872802734 64.839378356933594L123.16841125488281 64.3255615234375L128.37556457519531 73.019744873046875L132.16885375976562 82.394989013671875L131.24185180664062 82.770057678222656L131.76991271972656 81.920845031738281L142.39874267578125 88.53009033203125L140.59197998046875 101.11784362792969L139.60212707519531 100.97576904296875L140.41085815429688 100.38759613037109L146.398193359375 108.62012481689453L145.58946228027344 109.20829772949219L146.33726501464844 108.54437255859375L153.38655090332031 116.48417663574219L156.64628601074219 126.25578308105469L155.69767761230469 126.57223510742188L156.62222290039062 126.19117736816406L160.44491577148438 135.46615600585938L159.52037048339844 135.84721374511719L160.21080017089844 135.12380981445312L168.08470153808594 142.63880920410156L172.54867553710938 151.99995422363281L173.67384338378906 162.75363159179688L172.67927551269531 162.85769653320312L173.65692138671875 162.64743041992188L175.82327270507812 172.71998596191406L174.84562683105469 172.93025207519531L175.47648620605469 172.15435791015625L184.15835571289062 179.21347045898438L190.52139282226562 187.72377014160156L191.2286376953125 198.80500793457031L190.23066711425781 198.86869812011719L191.17193603515625 198.53103637695312L194.57211303710938 208.00942993164062L193.63084411621094 208.34709167480469L194.55520629882812 207.96556091308594L199.51206970214844 219.97496032714844L191.18370056152344 215.11886596679688L184.2298583984375 207.38066101074219L178.63981628417969 198.18727111816406L179.4942626953125 197.667724609375L179.35818481445312 198.65841674804688L167.19898986816406 196.98826599121094L163.20185852050781 185.10224914550781L164.14970397949219 184.78350830078125L163.7490234375 185.69972229003906L154.25160217285156 181.54627990722656L144.799560546875 177.26434326171875L135.47906494140625 172.2777099609375L130.9193115234375 161.43342590332031L131.84114074707031 161.04582214355469L131.50592041015625 161.98796081542969L121.34667205810547 158.3731689453125L113.53782653808594 151.50621032714844L108.29481506347656 141.75242614746094L109.17562866210938 141.27896118164062L109.13767242431641 142.27824401855469L96.193550109863281 141.78659057617188L90.081962585449219 132.60635375976562L90.91436767578125 132.05218505859375L90.132522583007812 132.6756591796875L83.72784423828125 124.64402770996094L84.509689331054688 124.02056121826172L84.200294494628906 124.97149658203125L73.837242126464844 121.59976196289062L66.107315063476562 114.90580749511719L66.761947631835938 114.14986419677734L66.258377075195312 115.01381683349609L57.325839996337891 109.80735778808594L51.165233612060547 101.09185028076172L45.517887115478516 92.068099975585938L46.365570068359375 91.53759765625L46.306018829345703 92.535820007324219L33.530063629150391 91.773643493652344L27.895339965820312 81.630172729492188L27.570938110351562 76.757209777832031L39.005905151367188 77.791343688964844L48.331520080566406 82.829521179199219L47.856201171875 83.709335327148438L48.013568878173828 82.721794128417969L58.085147857666016 84.326744079589844L67.414070129394531 89.163787841796875L66.953765869140625 90.051551818847656L66.9058837890625 89.052696228027344L77.339942932128906 88.552513122558594L87.615631103515625 89.044525146484375L97.854873657226562 90.912391662597656L106.41182708740234 99.628585815429688L105.69823455810547 100.32914733886719L105.82521820068359 99.337242126464844L115.80615234375 100.61503601074219L115.67916870117188 101.60694122314453L115.67411804199219 100.60695648193359L126.17156219482422 100.55396270751953L135.70106506347656 104.74960327148438L135.29811096191406 105.66482543945312L135.55952453613281 104.69960021972656L145.26406860351562 107.327880859375L154.82876586914062 110.56817626953125L154.50790405273438 111.51530456542969L154.31594848632812 110.53390502929688L165.32382202148438 108.38075256347656L175.130859375 111.58430480957031L174.82034301757812 112.53487396240234L175.02336120605469 111.55570220947266L184.85151672363281 113.59341430664062L194.58953857421875 116.02607727050781L204.29989624023438 118.51821136474609L204.05130004882812 119.48681640625L203.92617797851562 118.49467468261719L214.87652587890625 117.11370849609375L224.08799743652344 123.33920288085938L223.52804565429688 124.167724609375L223.87188720703125 123.22869873046875L233.35215759277344 126.70001220703125L233.00831604003906 127.6390380859375L232.90164184570312 126.64474487304688L243.43209838867188 125.51490783691406L243.64544677734375 127.50349426269531L232.88330078125 128.65818786621094L223.06939697265625 125.06471252441406L214.06837463378906 118.98145294189453L214.62832641601562 118.15293121337891L214.75344848632812 119.14507293701172L203.98731994628906 120.5028076171875L194.10482788085938 117.96644592285156L184.38638305664062 115.53867340087891L184.62873840332031 114.56848907470703L184.42572021484375 115.54766082763672L174.56277465820312 113.50273895263672L164.95002746582031 110.36264801025391L165.26054382324219 109.41207885742188L165.45249938964844 110.39347839355469L154.43888854980469 112.54775238037109L144.65179443359375 109.23210906982422L144.97265625 108.28498077392578L144.71124267578125 109.25020599365234L134.96405029296875 106.61037445068359L125.56062316894531 102.47024536132812L125.96357727050781 101.55502319335938L125.9686279296875 102.55500793457031L115.61793518066406 102.60726165771484L105.22745513916016 101.27703857421875L96.649848937988281 92.539810180664062L97.363441467285156 91.839248657226562L97.183982849121094 92.823013305664062L87.322029113769531 91.023971557617188L87.501487731933594 90.040206909179688L87.453659057617188 91.0390625L77.292144775390625 90.552513122558594L77.339973449707031 89.553657531738281L77.387855529785156 90.552513122558594L66.732589721679688 91.063301086425781L57.307949066162109 86.176628112792969L57.768253326416016 85.288864135742188L57.610885620117188 86.276405334472656L47.530685424804688 84.670082092285156L38.235965728759766 79.648597717285156L38.711284637451172 78.768783569335938L38.6212158203125 79.764717102050781L28.556402206420898 78.8544921875L28.64647102355957 77.858558654785156L29.644262313842773 77.792137145996094L29.876049041748047 81.273895263671875L28.878257751464844 81.340316772460938L29.752433776855469 80.854705810546875L35.011817932128906 90.322502136230469L34.137641906738281 90.808113098144531L34.197193145751953 89.809890747070312L46.939750671386719 90.570075988769531L52.845710754394531 100.00704956054688L51.998027801513672 100.53755187988281L52.814620971679688 99.960334777832031L58.833656311035156 108.47556304931641L58.017063140869141 109.05278015136719L58.520633697509766 108.18882751464844L67.346084594726562 113.33287048339844L74.993606567382812 119.95546722412109L74.338973999023438 120.71141052246094L74.648368835449219 119.76047515869141L85.104446411132812 123.1624755859375L91.722984313964844 131.4622802734375L97.574958801269531 140.25254821777344L96.7425537109375 140.80671691894531L96.780509948730469 139.80743408203125L109.78547668457031 140.30140686035156L115.21421051025391 150.40069580078125L114.33339691162109 150.87416076660156L114.99376678466797 150.12321472167969L122.523193359375 156.74446105957031L121.86282348632812 157.49540710449219L122.19805145263672 156.55326843261719L132.59197998046875 160.25157165527344L137.18528747558594 171.17564392089844L136.26345825195312 171.56324768066406L136.73519897460938 170.6815185546875L145.7139892578125 175.48533630371094L145.24224853515625 176.3670654296875L145.6549072265625 175.4561767578125L155.05296325683594 179.71385192871094L164.95631408691406 184.04481506347656L168.89707946777344 195.76318359375L167.94923400878906 196.08192443847656L168.08531188964844 195.09123229980469L180.10157775878906 196.74176025390625L185.89036560058594 206.26199340820312L185.03591918945312 206.78153991699219L185.77972412109375 206.11312866210938L192.56657409667969 213.66551208496094L191.82276916503906 214.33392333984375L192.32647705078125 213.47004699707031L197.96185302734375 216.75590515136719L197.45814514160156 217.61978149414062L196.53378295898438 218.00131225585938L192.697509765625 208.70687866210938L189.24169921875 199.07337951660156L188.54440307617188 188.14802551269531L189.54237365722656 188.08433532714844L188.74148559570312 188.68315124511719L182.63064575195312 180.51014709472656L183.43153381347656 179.91133117675781L182.80067443847656 180.68722534179688L173.94192504882812 173.48429870605469L171.6903076171875 163.01531982421875L170.57743835449219 152.37916564941406L171.57200622558594 152.27510070800781L170.66938781738281 152.70553588867188L166.35861206054688 143.66566467285156L167.26123046875 143.2352294921875L166.57080078125 143.95863342285156L158.67658996582031 136.42425537109375L154.75997924804688 126.92140197753906L151.55415344238281 117.31138610839844L152.50276184082031 116.99493408203125L151.75495910644531 117.65885925292969L144.80935668945312 109.83583068847656L138.55458068847656 101.23558807373047L140.32624816894531 88.892372131347656L141.31610107421875 89.034446716308594L140.78804016113281 89.883659362792969L130.43707275390625 83.447196960449219L126.55072784423828 73.841941833496094L127.47772216796875 73.466873168945312L126.61981964111328 73.980690002441406L121.38771057128906 65.244834899902344L118.46685028076172 55.39715576171875L119.42556762695312 55.112796783447266L118.51165771484375 55.518711090087891L114.44447326660156 46.361473083496094L115.35838317871094 45.955558776855469L114.572265625 46.573631286621094L107.98298645019531 38.192806243896484L109.22232818603516 26.097740173339844L110.21711730957031 26.199672698974609L109.35983276367188 26.714521408081055L104.18167114257812 18.092296600341797L105.03895568847656 17.577447891235352L106.02785491943359 17.428834915161133L106.85037231445312 22.902065277099609L104.04451751708984 33.121231079101562L103.08020782470703 32.856460571289062L104.07547760009766 32.759323120117188L105.08169555664062 43.068855285644531L99.756935119628906 53.346626281738281L98.869026184082031 52.886611938476562L99.693817138671875 52.321174621582031L106.80039215087891 62.687419891357422L104.62670135498047 73.192367553710938L100.91326904296875 83.277389526367188L99.974861145019531 82.931854248046875L100.97103881835938 83.019195556640625L100.09292602539062 93.034271240234375L99.096748352050781 92.946929931640625L100.08757781982422 92.81182861328125L101.45317840576172 102.826904296875L100.46234893798828 102.96200561523438L101.44551086425781 102.77926635742188L103.31037902832031 112.81239318847656L104.83055877685547 123.07498168945312L101.56744384765625 133.31095886230469L100.61468505859375 133.00723266601562L101.58650207519531 132.77151489257812L104.07014465332031 143.01075744628906L101.82892608642578 153.25119018554688L100.85205078125 153.03738403320312L101.83169555664062 152.83665466308594L103.88381958007812 162.85173034667969L102.9041748046875 163.05245971679688L103.85952758789062 162.75698852539062L107.08905029296875 173.19903564453125L100.84712982177734 183.5972900390625L99.98974609375 183.08261108398438L100.93021392822266 182.74272155761719L104.66782379150391 193.08457946777344L101.21616363525391 203.42929077148438L100.267578125 203.11277770996094L101.26749420166016 203.10008239746094L101.39500427246094 213.14453125L100.93222808837891 223.18894958496094L99.93328857421875 223.14292907714844L100.87232208251953 222.79910278320312L104.72317504882812 233.31632995605469L101.93585968017578 237.130126953125L101.12850189208984 236.54006958007812L100.56119537353516 235.71656799316406L110.05817413330078 229.17416381835938L110.62548065185547 229.99766540527344L109.75967407226562 229.49728393554688L114.78523254394531 220.80155944824219L115.65103912353516 221.30194091796875L114.6568603515625 221.40971374511719L113.35894012451172 209.43722534179688L117.18902587890625 199.67671203613281L124.58563232421875 191.91563415527344L125.30953216552734 192.60554504394531L124.36534118652344 192.27613830566406L127.68552398681641 182.75917053222656L128.62971496582031 183.08857727050781L127.67802429199219 182.78150939941406L130.78672790527344 173.14669799804688L134.18251037597656 163.58349609375L138.73536682128906 154.43287658691406L145.96870422363281 146.64717102050781L146.70132446289062 147.32781982421875L145.81112670898438 146.87225341796875L150.42878723144531 137.84918212890625L157.24276733398438 129.88812255859375L158.00248718261719 130.53837585449219L157.00393676757812 130.59208679199219L156.36691284179688 118.74988555908203L163.90863037109375 110.82612609863281L171.01466369628906 103.13230133056641L171.749267578125 103.810791015625L170.87750244140625 103.32087707519531L175.79383850097656 94.572608947753906L176.66560363769531 95.062522888183594L175.68862915039062 94.849159240722656L177.88926696777344 84.772628784179688L180.52688598632812 74.565963745117188L189.03240966796875 67.2279052734375L189.68563842773438 67.985061645507812L188.69525146484375 68.123382568359375L186.96195983886719 55.712661743164062L194.81791687011719 47.85821533203125L195.52494812011719 48.565391540527344L194.76229858398438 47.918586730957031L201.45582580566406 40.026161193847656L202.21847534179688 40.672966003417969L202.41925048828125 41.652603149414062L192.80352783203125 43.623374938964844L192.60275268554688 42.64373779296875L193.33782958984375 43.321723937988281L186.38998413085938 50.854583740234375L177.96072387695312 56.582309722900391L169.22279357910156 61.738811492919922L168.71456909179688 60.877590179443359L169.57579040527344 61.385829925537109L164.00559997558594 70.824531555175781L155.25027465820312 76.378883361816406L145.99920654296875 80.926307678222656L145.55805969238281 80.02886962890625L146.43484497070312 80.509735107421875L141.03245544433594 90.360183715820312L130.70677185058594 94.051277160644531L130.37016296386719 93.109634399414062L130.96504211425781 93.9134521484375L122.90950775146484 99.875038146972656L122.31463623046875 99.071220397949219L123.19513702392578 99.545265197753906L117.92752838134766 109.32942962646484L109.72357177734375 115.45053863525391L101.64301300048828 121.55331420898438L92.181785583496094 125.91985321044922L91.762741088867188 125.01188659667969L92.383522033691406 125.79586791992188L84.508445739746094 132.03157043457031L76.259414672851562 137.79823303222656L75.68646240234375 136.9786376953125L76.439529418945312 137.63658142089844L69.646018981933594 145.41224670410156L60.990142822265625 150.85488891601562L60.457843780517578 150.00833129882812L61.032905578613281 150.82644653320312L52.824451446533203 156.59626770019531L52.2493896484375 155.77815246582031L52.941936492919922 156.49952697753906L45.686786651611328 163.46473693847656L44.994239807128906 162.74336242675781L45.722316741943359 163.42886352539062L38.622646331787109 170.96955871582031L28.441082000732422 174.62908935546875L28.102840423583984 173.68803405761719L29.101812362670898 173.73336791992188L29.023471832275391 175.45951843261719L28.024499893188477 175.4141845703125L27.899669647216797 174.42201232910156L37.885509490966797 173.1656494140625L38.010341644287109 174.15782165527344L37.657112121582031 173.2222900390625L47.114700317382812 169.65141296386719L47.467929840087891 170.58694458007812L47.062980651855469 169.672607421875L56.660388946533203 165.42204284667969L67.597503662109375 167.10945129394531L67.445022583007812 168.09776306152344L67.557197570800781 167.10408020019531L78.101509094238281 168.29437255859375L77.989334106445312 169.28805541992188L77.707366943359375 168.32862854003906L87.334220886230469 165.49937438964844L87.616188049316406 166.45880126953125L87.047576904296875 165.63619995117188L95.962432861328125 159.47396850585938L105.26539611816406 154.36054992675781L115.35845947265625 152.24420166015625L125.98130798339844 153.14979553222656L125.89636993408203 154.14617919921875L125.73477172851562 153.15931701660156L135.66667175292969 151.532958984375L145.73274230957031 150.49513244628906L145.83529663085938 151.48985290527344L145.52818298339844 150.53817749023438L155.09603881835938 147.45048522949219L155.40315246582031 148.40216064453125L154.85697937011719 147.56449890136719L164.16377258300781 141.49624633789062L175.47760009765625 144.31129455566406L175.23614501953125 145.28170776367188L175.19363403320312 144.28260803222656L185.36746215820312 143.84977722167969L185.40997314453125 144.848876953125L184.83955383300781 144.02752685546875L193.86026000976562 137.76275634765625L203.89070129394531 135.33816528320312L214.26699829101562 135.28179931640625L214.27243041992188 136.28178405761719L214.15542602539062 135.28865051269531L224.15902709960938 134.11004638671875L224.27603149414062 135.10317993164062L223.65997314453125 134.31547546386719L232.59977722167969 127.32363891601562L242.89805603027344 126.17076110839844L243.12055969238281 128.15834045410156Z"/>
</svg>
