<svg xmlns="http://www.w3.org/2000/svg" viewBox="0 0 891 749.67"><rect x="1.5" y="1.5" width="888" height="746.67" fill="#fff" stroke="#000" stroke-width="3"/><path d="M198.9,495.05a.7.7,0,0,0,0,1.39.7.7,0,0,0,0-1.39" transform="translate(1.5 1.5)" fill="#6aca93"/><path d="M113.18,226.62c-5.07-15-12.63-28.88-18.88-43.36-.35-.82-1.55-.11-1.2.71,6.2,14.36,13.71,28.17,18.74,43,.29.85,1.63.49,1.34-.37" transform="translate(1.5 1.5)" fill="#6aca93"/><path d="M325,483a.7.7,0,0,0,0,1.39.7.7,0,0,0,0-1.39" transform="translate(1.5 1.5)" fill="#6aca93"/><path d="M280.66,478.67v10.45L293.35,485l23.3-8.21L329.19,475V459.51L305,476.76,291.39,482l-10.73-3.31" transform="translate(1.5 1.5)" fill="#393352"/><path d="M274.67,310.24c0,.59.12,9.58-.29,10.56a63.37,63.37,0,0,0-3.81-5.69c-1.3-1.9-2-4-3.54-5.52,3.44-2.23,6-5.52,8.86-8.46,0,3-1,6.09-1.22,9.11Zm2.42-11.51c-.14-.88-1.49-.5-1.35.38a.88.88,0,0,1,0,.17c-3.05,3-5.69,6.59-9.27,9-.06-3.29-2-7-3.41-9.87a8,8,0,0,1-.95-1c-4.2.36-8.28,2.43-12,4.51,1.14-4.91-.44-10,1-14.95a.7.7,0,0,0-1.34-.37c-1.54,5.29.41,10.86-1.31,16.09a.78.78,0,0,0-.28-.05.7.7,0,0,0,0,1.39.63.63,0,0,0,.44-.17.64.64,0,0,0,.78.08c3.75-2.15,8-4.62,12.38-5.1a1,1,0,0,0,.08.32c1.32,2.7,3.29,6.41,3.21,9.5a.78.78,0,0,0-.29.84.71.71,0,0,0,1,.88c1.68,1.43,2.51,3.59,3.58,5.5,1.28,2.3,3.25,4.15,4.28,6.62.34.82,1.67.47,1.35-.35,1.51-1,1-6.87,1-8.09.07-5,1.89-10.29,1.11-15.27" transform="translate(1.5 1.5)" fill="#100f0d"/><path d="M275.89,298.48a4.26,4.26,0,0,1,5.25-.87l-7,24,1.73-23.09" transform="translate(1.5 1.5)" fill="#541c14"/><path d="M262.35,298.23,248.2,304l17.59,6.35Z" transform="translate(1.5 1.5)" fill="#b72523"/><path d="M281.14,297.74l7.11,16.53,7.5-16.53Z" transform="translate(1.5 1.5)" fill="#b72523"/><path d="M296.91,401.8l12.5-3.09L329.19,403v45.87l-9.4-18.69-10.69-12-12.89-2s-12.56-12-14-18.69l3.72-2.44s9.52,12.77,12,14.4l-.93-7.67" transform="translate(1.5 1.5)" fill="#541c14"/><path d="M296.91,401.8s26.64,1.14,23.13,28.85l9.15,5.22V403l-19.78-4.25-12.5,3.09" transform="translate(1.5 1.5)" fill="#8d1c1d"/><path d="M305,476.76l-11.38-36.58,25.64,26.4Z" transform="translate(1.5 1.5)" fill="#fdfde3"/><path d="M293.66,440.18l35.53,19.33-9.89,7.07Z" transform="translate(1.5 1.5)" fill="#ebebed"/><path d="M293.66,440.18l35.53,8.65v10.68Z" transform="translate(1.5 1.5)" fill="#e9d6ee"/><path d="M293.66,440.18,320,430.65l9.15,18.18Z" transform="translate(1.5 1.5)" fill="#ebebed"/><path d="M293.66,440.18l15.44-22L320,430.65Z" transform="translate(1.5 1.5)" fill="#fbfbc5"/><path d="M293.66,440.18,291.39,482,305,476.76Z" transform="translate(1.5 1.5)" fill="#fbfbc5"/><path d="M293.66,440.18l2.55-24,12.89,2Z" transform="translate(1.5 1.5)" fill="#e5f0a0"/><path d="M293.66,440.18,291.39,482l-22.76-5.92Z" transform="translate(1.5 1.5)" fill="#e5f0a0"/><path d="M293.66,440.18l-22.47-32.57,25,8.59Z" transform="translate(1.5 1.5)" fill="#dddba8"/><path d="M293.66,440.18l-33.27,19.33,8.24,16.55Z" transform="translate(1.5 1.5)" fill="#dddba8"/><path d="M293.66,440.18l-39.54-.44,6.27,19.77Z" transform="translate(1.5 1.5)" fill="#e5f0a0"/><path d="M293.66,440.18l-38.32-24,15.85-8.59Z" transform="translate(1.5 1.5)" fill="#e5f0a0"/><path d="M293.66,440.18l-38.32-24-1.22,23.54Z" transform="translate(1.5 1.5)" fill="#fbfbc5"/><path d="M293.35,485l-21.28,33.45,18.66-5.72Z" transform="translate(1.5 1.5)" fill="#fdfde3"/><path d="M290.73,512.7l25.92-35.94-11.13,45.49Z" transform="translate(1.5 1.5)" fill="#fdfde3"/><path d="M316.65,476.76,293.35,485l-2.62,27.73Z" transform="translate(1.5 1.5)" fill="#fbfbc5"/><path d="M293.35,485l-12.69,4.15-8.59,29.3Z" transform="translate(1.5 1.5)" fill="#e5f0a0"/><path d="M316.65,476.76,320,525.35l-14.52-3.1Z" transform="translate(1.5 1.5)" fill="#e5f0a0"/><path d="M290.73,512.7,292.44,536l13.08-13.73Z" transform="translate(1.5 1.5)" fill="#e5f0a0"/><path d="M320,525.35,329.19,475V538.2Z" transform="translate(1.5 1.5)" fill="#dddba8"/><path d="M305.52,522.25l5.14,18.88L320,525.35Z" transform="translate(1.5 1.5)" fill="#dddba8"/><path d="M320,525.35l-3.39-48.59L329.19,475Z" transform="translate(1.5 1.5)" fill="#d3d4d3"/><path d="M236.11,261.61l21.61-26.21-7.44,24Z" transform="translate(1.5 1.5)" fill="#541c14"/><path d="M284.72,277.55l-2.12,12-8.49-13Z" transform="translate(1.5 1.5)" fill="#b72523"/><path d="M242.62,289.86l-.52-7,17.77-7.66s15.33-7.6,22.73,14.29l-1.46,8.22a5.9,5.9,0,0,0-5.25.74c-3,1.79-14.72,4.71-26.21-11.67l-7.06,3.05" transform="translate(1.5 1.5)" fill="#393352"/><path d="M267.71,281.89A10.72,10.72,0,0,1,278,289.58a10.72,10.72,0,1,0-20.55,0,10.72,10.72,0,0,1,10.28-7.69" transform="translate(1.5 1.5)" fill="#895a8f"/><path d="M267.71,297.27A10.72,10.72,0,0,0,278,289.58a10.71,10.71,0,0,0-20.55,0,10.72,10.72,0,0,0,10.28,7.69" transform="translate(1.5 1.5)" fill="#af8fce"/><path d="M270.58,284.72a2.88,2.88,0,1,1-2.87-2.87,2.88,2.88,0,0,1,2.87,2.87" transform="translate(1.5 1.5)" fill="#5b2f60"/><path d="M303,299.28l-14.79,15,7.5-16.53Z" transform="translate(1.5 1.5)" fill="#541c14"/><path d="M242.1,282.89l6.1-10.68,8.79,4.26Z" transform="translate(1.5 1.5)" fill="#6e1417"/><path d="M270.58,248.51l22.48-10.75,3.21,12.8Z" transform="translate(1.5 1.5)" fill="#6e1417"/><path d="M236.11,261.61l-25.56,20.78,10.92,15.94Z" transform="translate(1.5 1.5)" fill="#6e1417"/><path d="M304.85,278.62,303,299.28l-7.29-1.54Z" transform="translate(1.5 1.5)" fill="#6e1417"/><path d="M281.14,297.74l15.23,35.39-12.81-13.42Z" transform="translate(1.5 1.5)" fill="#6e1417"/><path d="M286.87,386.36H278l35.65-32Z" transform="translate(1.5 1.5)" fill="#6e1417"/><path d="M317.35,165l11.84-35.76-29-20.72Z" transform="translate(1.5 1.5)" fill="#541c14"/><path d="M311.81,191l-14.28-42.45-.64,35.95Z" transform="translate(1.5 1.5)" fill="#5a1215"/><path d="M296.89,184.54l-34.54-21.15,24.17,38.76Z" transform="translate(1.5 1.5)" fill="#541c14"/><path d="M249.65,200.26l-55.25-9.81-27.35,71.16Z" transform="translate(1.5 1.5)" fill="#b41d23"/><path d="M249.65,200.26l-66-45.54-29.09,28.66Z" transform="translate(1.5 1.5)" fill="#541c14"/><path d="M236.11,261.61l-25.56,20.78-61.09,16.15Z" transform="translate(1.5 1.5)" fill="#8c191d"/><path d="M221.47,298.33l-72,.21,44.21,36.83Z" transform="translate(1.5 1.5)" fill="#541c14"/><path d="M202.12,235.4,204,275.31l-54.5,23.23Z" transform="translate(1.5 1.5)" fill="#b41d23"/><path d="M155.25,100.19l70.15,24.86-.41,36.2Z" transform="translate(1.5 1.5)" fill="#e11d25"/><path d="M278,386.36l-6.79,21.25,25,8.59Z" transform="translate(1.5 1.5)" fill="#cd7e1a"/><path d="M311.81,242.86,290.2,226.35l6.07,24.21Z" transform="translate(1.5 1.5)" fill="#cd7e1a"/><path d="M244.16,327.51l-19.94,33.3,31.12,8.83Z" transform="translate(1.5 1.5)" fill="#cd7e1a"/><path d="M283.56,319.71l-3.42,35.9,16.23-22.48Z" transform="translate(1.5 1.5)" fill="#cd7e1a"/><path d="M329.19,393.85,305,381.48l24.15-9.29Z" transform="translate(1.5 1.5)" fill="#cd7e1a"/><path d="M280.14,355.61,278,386.36,259,390.53Z" transform="translate(1.5 1.5)" fill="#cd7e1a"/><path d="M317.35,165l11.84-35.76V175Z" transform="translate(1.5 1.5)" fill="#cd7e1a"/><path d="M112.23,302.72l27.47-48.2,27.35,7.09Z" transform="translate(1.5 1.5)" fill="#cd7e1a"/><path d="M87.78,177.49l27,50.22,5.79-43.17Z" transform="translate(1.5 1.5)" fill="#cd7e1a"/><path d="M266.53,86.14l-59.78-30,58.62,57.45Z" transform="translate(1.5 1.5)" fill="#cd7e1a"/><path d="M225,161.25l24.66,39-66-45.54Z" transform="translate(1.5 1.5)" fill="#cd7e1a"/><path d="M162.6,420.16l73.91-26.91-56,67Z" transform="translate(1.5 1.5)" fill="#cd7e1a"/><path d="M86.07,387.81,72.75,466.23l39.45-49.17Z" transform="translate(1.5 1.5)" fill="#cd7e1a"/><path d="M256.87,508.26l3.52-48.75L203.7,493.68Z" transform="translate(1.5 1.5)" fill="#a22820"/><path d="M317.35,165l-19.82-16.44,2.66-40Z" transform="translate(1.5 1.5)" fill="#721518"/><path d="M224.22,360.81,162.6,420.16l73.91-26.91Z" transform="translate(1.5 1.5)" fill="#721518"/><path d="M202.12,235.4l34,26.21L204,275.31Z" transform="translate(1.5 1.5)" fill="#721518"/><path d="M114.81,227.71l79.59-37.26-39.81-7.07Z" transform="translate(1.5 1.5)" fill="#721518"/><path d="M225.4,125.05l-41.2-44.2,30.05,3Z" transform="translate(1.5 1.5)" fill="#721518"/><path d="M203.7,493.68l30.42,41.49,22.75-26.91Z" transform="translate(1.5 1.5)" fill="#721518"/><path d="M297.22,568.94l-27.66,27.65,27.66,46.63Z" transform="translate(1.5 1.5)" fill="#721518"/><path d="M248.2,304l-4,23.54-22.69-29.18Z" transform="translate(1.5 1.5)" fill="#e72723"/><path d="M249.65,200.26l40.55,26.09-32.48,9.05Z" transform="translate(1.5 1.5)" fill="#e72723"/><path d="M284.72,277.55l20.13,1.07,7-35.76Z" transform="translate(1.5 1.5)" fill="#e72723"/><path d="M313.63,354.4l-35.65,32,18.39-53.23Z" transform="translate(1.5 1.5)" fill="#e72723"/><path d="M165,330.1l-20.84,46.29L126,334.47Z" transform="translate(1.5 1.5)" fill="#e72723"/><path d="M114.81,227.71,79,306.77l33.21-4Z" transform="translate(1.5 1.5)" fill="#e72723"/><path d="M86.07,387.81l-19.45,3.77,31.51-43Z" transform="translate(1.5 1.5)" fill="#e72723"/><path d="M236.51,393.25l17.61,46.49-73.63,20.55Z" transform="translate(1.5 1.5)" fill="#e72723"/><path d="M292.44,536l4.78,33L251.9,561Z" transform="translate(1.5 1.5)" fill="#e72723"/><path d="M164.78,483.3l-22.54,61,46.83-28.89Z" transform="translate(1.5 1.5)" fill="#e72723"/><path d="M290.2,226.35l6.69-41.81,14.92,6.5Z" transform="translate(1.5 1.5)" fill="#b41d23"/><path d="M329.19,372.19,313.63,354.4l15.56-4.71Z" transform="translate(1.5 1.5)" fill="#b41d23"/><path d="M183.68,154.72l-28.43-54.53L225,161.25Z" transform="translate(1.5 1.5)" fill="#b41d23"/><path d="M112.23,302.72l112,58.09-74.76-62.27Z" transform="translate(1.5 1.5)" fill="#b41d23"/><path d="M224.22,360.81,162.6,420.16l-18.42-43.77Z" transform="translate(1.5 1.5)" fill="#b41d23"/><path d="M254.12,439.74,203.7,493.68l-23.21-33.39Z" transform="translate(1.5 1.5)" fill="#b41d23"/><path d="M297.22,568.94l32,63.36V568.37Z" transform="translate(1.5 1.5)" fill="#b41d23"/><path d="M203.7,493.68,173.33,597l29.08-25.75Z" transform="translate(1.5 1.5)" fill="#b41d23"/><path d="M271.19,407.61,259,390.53l-3.7,25.67Z" transform="translate(1.5 1.5)" fill="#b41d23"/><path d="M459.53,495.05a.7.7,0,0,1,0,1.39.7.7,0,0,1,0-1.39" transform="translate(1.5 1.5)" fill="#6aca93"/><path d="M333.42,483a.7.7,0,0,1,0,1.39.7.7,0,0,1,0-1.39" transform="translate(1.5 1.5)" fill="#6aca93"/><path d="M377.77,478.67v10.45L365.08,485l-23.3-8.21L329.24,475V459.51l24.15,17.25L367,482l10.73-3.31" transform="translate(1.5 1.5)" fill="#393352"/><path d="M382.55,301.13c2.84,2.94,5.42,6.23,8.86,8.46-1.57,1.56-2.25,3.62-3.55,5.52a63.37,63.37,0,0,0-3.81,5.69c-.41-1-.24-10-.29-10.56-.25-3-1.2-6.07-1.21-9.11Zm-.1,12.87c0,1.22-.53,7,1,8.09-.32.82,1,1.17,1.35.35,1-2.47,3-4.32,4.28-6.62,1.07-1.91,1.9-4.07,3.58-5.5a.71.71,0,0,0,1-.88.78.78,0,0,0-.29-.84c-.08-3.09,1.89-6.8,3.21-9.5a.66.66,0,0,0,.08-.32c4.38.48,8.63,3,12.38,5.1a.64.64,0,0,0,.78-.08.63.63,0,0,0,.44.17.7.7,0,0,0,0-1.39.82.82,0,0,0-.28.05c-1.72-5.23.23-10.8-1.31-16.09a.7.7,0,0,0-1.34.37c1.43,4.91-.16,10,1,14.95-3.7-2.08-7.79-4.15-12-4.51a.6.6,0,0,0-.65.75.64.64,0,0,0-.3.29c-1.4,2.86-3.35,6.58-3.4,9.87-3.59-2.39-6.22-6-9.28-9,0-.06,0-.12,0-.17.14-.88-1.21-1.26-1.35-.38-.78,5,1,10.26,1.11,15.27" transform="translate(1.5 1.5)" fill="#100f0d"/><path d="M382.54,298.48a4.26,4.26,0,0,0-5.25-.87l7,24-1.73-23.09" transform="translate(1.5 1.5)" fill="#9f2520"/><path d="M377.29,297.74l-2.41,22,9.39,1.86Z" transform="translate(1.5 1.5)" fill="#981a1f"/><path d="M382.54,298.48l10.1,11.84-8.37,11.25Z" transform="translate(1.5 1.5)" fill="#af1d23"/><path d="M392.64,310.32l3.44-12.09-13.54.25Z" transform="translate(1.5 1.5)" fill="#981a1f"/><path d="M396.08,298.23,410.23,304l-17.59,6.35Z" transform="translate(1.5 1.5)" fill="#ee2922"/><path d="M410.23,304l-1.48-17.16-12.67,11.42Z" transform="translate(1.5 1.5)" fill="#981a1f"/><path d="M408.75,286.81l7.06,3.05L410.23,304Z" transform="translate(1.5 1.5)" fill="#9f2520"/><path d="M377.29,297.74l-7.11,16.53-7.5-16.53Z" transform="translate(1.5 1.5)" fill="#9f2520"/><path d="M380.45,386.36l6.79,21.25-25,8.59Z" transform="translate(1.5 1.5)" fill="#e49614"/><path d="M349,398.71l-19.78-4.86V403Z" transform="translate(1.5 1.5)" fill="#b7451f"/><path d="M376.27,397.51l4.18-11.15h-8.88Z" transform="translate(1.5 1.5)" fill="#af1d23"/><path d="M371.57,386.36,361.52,401.8l-.93,7.67,15.68-12-4.7-11.15" transform="translate(1.5 1.5)" fill="#981a1f"/><path d="M371.57,386.36,349,398.71l12.5,3.09Z" transform="translate(1.5 1.5)" fill="#af1d23"/><path d="M361.52,401.8,349,398.71,329.24,403v45.87l9.41-18.69,10.68-12,12.89-2s12.56-12,14-18.69l-3.72-2.44s-9.52,12.77-12,14.4l.93-7.67" transform="translate(1.5 1.5)" fill="#393352"/><path d="M361.52,401.8s-26.64,1.14-23.13,28.85l-9.15,5.22V403L349,398.71l12.5,3.09" transform="translate(1.5 1.5)" fill="#b95ab4"/><path d="M353.39,476.76l11.38-36.58-25.64,26.4Z" transform="translate(1.5 1.5)" fill="#fdfde3"/><path d="M364.77,440.18l-35.53,19.33,9.89,7.07Z" transform="translate(1.5 1.5)" fill="#ebebed"/><path d="M364.77,440.18l-35.53,8.65v10.68Z" transform="translate(1.5 1.5)" fill="#e9d6ee"/><path d="M364.77,440.18l-26.38-9.53-9.15,18.18Z" transform="translate(1.5 1.5)" fill="#ebebed"/><path d="M364.77,440.18l-15.44-22-10.94,12.48Z" transform="translate(1.5 1.5)" fill="#fbfbc5"/><path d="M364.77,440.18,367,482l-13.65-5.22Z" transform="translate(1.5 1.5)" fill="#fbfbc5"/><path d="M364.77,440.18l-2.55-24-12.89,2Z" transform="translate(1.5 1.5)" fill="#e5f0a0"/><path d="M364.77,440.18,367,482l22.76-5.92Z" transform="translate(1.5 1.5)" fill="#e5f0a0"/><path d="M364.77,440.18l22.47-32.57-25,8.59Z" transform="translate(1.5 1.5)" fill="#dddba8"/><path d="M364.77,440.18,398,459.51l-8.24,16.55Z" transform="translate(1.5 1.5)" fill="#dddba8"/><path d="M364.77,440.18l39.54-.44L398,459.51Z" transform="translate(1.5 1.5)" fill="#e5f0a0"/><path d="M364.77,440.18l38.32-24-15.85-8.59Z" transform="translate(1.5 1.5)" fill="#e5f0a0"/><path d="M364.77,440.18l38.32-24,1.22,23.54Z" transform="translate(1.5 1.5)" fill="#fbfbc5"/><path d="M365.08,485l21.28,33.45L367.7,512.7Z" transform="translate(1.5 1.5)" fill="none" stroke="#100f0d" stroke-miterlimit="1.33" stroke-width="0.67"/><path d="M367.7,512.7l-25.92-35.94,11.13,45.49Z" transform="translate(1.5 1.5)" fill="#fdfde3"/><path d="M341.78,476.76l23.3,8.21,2.62,27.73Z" transform="translate(1.5 1.5)" fill="#fbfbc5"/><path d="M341.78,476.76l-3.39,48.59,14.52-3.1Z" transform="translate(1.5 1.5)" fill="#e5f0a0"/><path d="M367.7,512.7,366,536l-13.08-13.73Z" transform="translate(1.5 1.5)" fill="#e5f0a0"/><path d="M338.39,525.35,329.24,475V538.2Z" transform="translate(1.5 1.5)" fill="#dddba8"/><path d="M338.39,525.35l3.39-48.59L329.24,475Z" transform="translate(1.5 1.5)" fill="#d3d4d3"/><path d="M399.39,390.53l3.7-20.89,13.16,10.23Z" transform="translate(1.5 1.5)" fill="none" stroke="#100f0d" stroke-miterlimit="1.33" stroke-width="0.67"/><path d="M346.62,242.86l21.61-16.51-6.07,24.21Z" transform="translate(1.5 1.5)" fill="none" stroke="#100f0d" stroke-miterlimit="1.33" stroke-width="0.67"/><path d="M422.33,261.61,437,298.33l-13.58-5.44Z" transform="translate(1.5 1.5)" fill="none" stroke="#100f0d" stroke-miterlimit="1.33" stroke-width="0.67"/><path d="M422.33,261.61,400.71,235.4l7.44,24Z" transform="translate(1.5 1.5)" fill="none" stroke="#100f0d" stroke-miterlimit="1.33" stroke-width="0.67"/><path d="M416.33,282.89l-6.1-10.68-8.79,4.26Z" transform="translate(1.5 1.5)" fill="#b0481f"/><path d="M410.23,272.21l-18.63-6.15,9.84,10.41Z" transform="translate(1.5 1.5)" fill="#f2564c"/><path d="M391.6,266.06l-7.28,10.41h17.12Z" transform="translate(1.5 1.5)" fill="#9f2520"/><path d="M391.6,266.06l-17.89,11.49,10.61-1.08Z" transform="translate(1.5 1.5)" fill="#af1d23"/><path d="M373.71,277.55l2.12,12,8.49-13Z" transform="translate(1.5 1.5)" fill="#ee2922"/><path d="M415.81,289.86l.52-7-17.76-7.66s-15.34-7.6-22.74,14.29l1.46,8.22a5.9,5.9,0,0,1,5.25.74c3,1.79,14.72,4.71,26.21-11.67l7.06,3.05" transform="translate(1.5 1.5)" fill="#393352"/><path d="M390.73,281.89a10.72,10.72,0,0,0-10.28,7.69,10.72,10.72,0,1,1,20.55,0,10.72,10.72,0,0,0-10.27-7.69" transform="translate(1.5 1.5)" fill="#895a8f"/><path d="M390.73,297.27a10.72,10.72,0,0,1-10.28-7.69,10.71,10.71,0,0,1,20.55,0,10.72,10.72,0,0,1-10.27,7.69" transform="translate(1.5 1.5)" fill="#af8fce"/><path d="M387.85,284.72a2.88,2.88,0,1,0,2.88-2.87,2.88,2.88,0,0,0-2.88,2.87" transform="translate(1.5 1.5)" fill="#5b2f60"/><path d="M400.71,235.4l-32.48-9.05-2.86,11.41Z" transform="translate(1.5 1.5)" fill="none" stroke="#100f0d" stroke-miterlimit="1.33" stroke-width="0.67"/><path d="M422.33,261.61l-12.1,10.6-2.08-12.84Z" transform="translate(1.5 1.5)" fill="#af1d23"/><path d="M422.33,261.61l-6,21.28-6.1-10.68Z" transform="translate(1.5 1.5)" fill="none" stroke="#100f0d" stroke-miterlimit="1.33" stroke-width="0.67"/><path d="M422.33,261.61l-6,21.28-.52,7,7.57,3-1.05-31.28" transform="translate(1.5 1.5)" fill="#af1d23"/><path d="M400.71,235.4l-12.86,13.11,20.3,10.86Z" transform="translate(1.5 1.5)" fill="none" stroke="#100f0d" stroke-miterlimit="1.33" stroke-width="0.67"/><path d="M387.85,248.51l-22.48-10.75-3.21,12.8Z" transform="translate(1.5 1.5)" fill="none" stroke="#100f0d" stroke-miterlimit="1.33" stroke-width="0.67"/><path d="M387.85,248.51l-13,8.34-12.71-6.29Z" transform="translate(1.5 1.5)" fill="none" stroke="#100f0d" stroke-miterlimit="1.33" stroke-width="0.67"/><path d="M387.85,248.51l12.86-13.11-35.34,2.36Z" transform="translate(1.5 1.5)" fill="none" stroke="#100f0d" stroke-miterlimit="1.33" stroke-width="0.67"/><path d="M408.15,259.37l-16.55,6.69,18.63,6.15Z" transform="translate(1.5 1.5)" fill="none" stroke="#100f0d" stroke-miterlimit="1.33" stroke-width="0.67"/><path d="M391.6,266.06l-16.73-9.21-1.16,20.7Z" transform="translate(1.5 1.5)" fill="none" stroke="#100f0d" stroke-miterlimit="1.33" stroke-width="0.67"/><path d="M391.6,266.06l-3.75-17.55-13,8.34Z" transform="translate(1.5 1.5)" fill="#b23b5f"/><path d="M391.6,266.06l-3.75-17.55,20.3,10.86Z" transform="translate(1.5 1.5)" fill="none" stroke="#100f0d" stroke-miterlimit="1.33" stroke-width="0.67"/><path d="M392.64,310.32l21.64,17.19-30-5.94Z" transform="translate(1.5 1.5)" fill="none" stroke="#100f0d" stroke-miterlimit="1.33" stroke-width="0.67"/><path d="M374.88,319.71l22.26,27.93,17.14-20.13Z" transform="translate(1.5 1.5)" fill="none" stroke="#100f0d" stroke-miterlimit="1.33" stroke-width="0.67"/><path d="M374.88,319.71l28.21,49.93-5.95-22Z" transform="translate(1.5 1.5)" fill="#721518"/><path d="M437,298.33l-13.58,44.39,10.83,18.09Z" transform="translate(1.5 1.5)" fill="none" stroke="#100f0d" stroke-miterlimit="1.33" stroke-width="0.67"/><path d="M275.89,298.48l-10.1,11.84,8.37,11.25Z" transform="translate(1.5 1.5)" fill="#981a1f"/><path d="M248.2,304l1.48-17.16,12.67,11.42Z" transform="translate(1.5 1.5)" fill="#981a1f"/><path d="M248.2,272.21l18.64-6.15L257,276.47Z" transform="translate(1.5 1.5)" fill="#981a1f"/><path d="M307.4,324.58,303,299.28l-6.67,33.85Z" transform="translate(1.5 1.5)" fill="#981a1f"/><path d="M183.68,154.72l-18-34.61L125,151.66Z" transform="translate(1.5 1.5)" fill="#981a1f"/><path d="M125,151.66,87.78,177.49l32.82,7Z" transform="translate(1.5 1.5)" fill="#981a1f"/><path d="M262.35,163.39l-37-38.34,40-11.42Z" transform="translate(1.5 1.5)" fill="#981a1f"/><path d="M410.23,304l4,23.54-21.64-17.19Z" transform="translate(1.5 1.5)" fill="#981a1f"/><path d="M415.81,289.86,410.23,304,437,298.33Z" transform="translate(1.5 1.5)" fill="none" stroke="#100f0d" stroke-miterlimit="1.33" stroke-width="0.67"/><path d="M410.23,304l4,23.54L437,298.33Z" transform="translate(1.5 1.5)" fill="none" stroke="#100f0d" stroke-miterlimit="1.33" stroke-width="0.67"/><path d="M414.28,327.51l19.93,33.3-31.12,8.83Z" transform="translate(1.5 1.5)" fill="none" stroke="#100f0d" stroke-miterlimit="1.33" stroke-width="0.67"/><path d="M403.09,369.64l13.16,10.23,18-19.06Z" transform="translate(1.5 1.5)" fill="#721518"/><path d="M434.21,360.81,403.09,416.2l13.16-36.33Z" transform="translate(1.5 1.5)" fill="none" stroke="#100f0d" stroke-miterlimit="1.33" stroke-width="0.67"/><path d="M437,298.33l-22.68,29.18,9.1,15.21Z" transform="translate(1.5 1.5)" fill="#e72723"/><path d="M346.62,242.86l-17.38-16.1v18.4Z" transform="translate(1.5 1.5)" fill="#5a1215"/><path d="M329.24,226.76,346.62,191l-17.38,16.73Z" transform="translate(1.5 1.5)" fill="#e92822"/><path d="M353.58,278.62l20.13-1.07-11,20.19Z" transform="translate(1.5 1.5)" fill="#e89213"/><path d="M400.71,235.4l26.54,8.65-4.92,17.56Z" transform="translate(1.5 1.5)" fill="none" stroke="#100f0d" stroke-miterlimit="1.33" stroke-width="0.67"/><path d="M422.33,261.61l25.55,20.78L437,298.33Z" transform="translate(1.5 1.5)" fill="none" stroke="#100f0d" stroke-miterlimit="1.33" stroke-width="0.67"/><path d="M329.24,266.06v34.83l11.13-29.09Z" transform="translate(1.5 1.5)" fill="#5a1215"/><path d="M346.62,191l21.61,35.31-21.61,16.51Z" transform="translate(1.5 1.5)" fill="#721518"/><path d="M400.71,235.4l8.08-35.14,18.46,43.79Z" transform="translate(1.5 1.5)" fill="none" stroke="#100f0d" stroke-miterlimit="1.33" stroke-width="0.67"/><path d="M368.23,226.35l3.68-24.2,36.88-1.89Z" transform="translate(1.5 1.5)" fill="none" stroke="#100f0d" stroke-miterlimit="1.33" stroke-width="0.67"/><path d="M368.23,226.35l3.68-24.2-10.36-17.61Z" transform="translate(1.5 1.5)" fill="none" stroke="#100f0d" stroke-miterlimit="1.33" stroke-width="0.67"/><path d="M353.58,278.62l-24.34,22.27,11.13-29.09Z" transform="translate(1.5 1.5)" fill="#e92822"/><path d="M353.58,278.62l1.81,20.66,7.29-1.54Z" transform="translate(1.5 1.5)" fill="#b81d24"/><path d="M377.29,297.74l-15.22,35.39,12.81-13.42Z" transform="translate(1.5 1.5)" fill="#ee2922"/><path d="M374.88,319.71l3.42,35.9-16.23-22.48Z" transform="translate(1.5 1.5)" fill="#f14b32"/><path d="M355.39,299.28l14.79,15-7.5-16.53Z" transform="translate(1.5 1.5)" fill="#f14b32"/><path d="M329.24,393.85l24.15-12.37-24.15-9.29Z" transform="translate(1.5 1.5)" fill="#b81d24"/><path d="M329.24,372.19,344.8,354.4l-15.56-4.71Z" transform="translate(1.5 1.5)" fill="#b7451f"/><path d="M344.8,354.4l8.59,27.08-24.15-9.29Z" transform="translate(1.5 1.5)" fill="#f14b32"/><path d="M353.39,381.48,349,398.71l-19.78-4.86Z" transform="translate(1.5 1.5)" fill="#f46926"/><path d="M344.8,354.4l-15.56-26.89v22.18Z" transform="translate(1.5 1.5)" fill="#f46926"/><path d="M374.88,319.71l3.42,35.9,21.09,34.92Z" transform="translate(1.5 1.5)" fill="#e89213"/><path d="M378.3,355.61l2.15,30.75,18.94,4.17Z" transform="translate(1.5 1.5)" fill="#e92822"/><path d="M380.45,386.36l-18.38-53.23,16.23,22.48Z" transform="translate(1.5 1.5)" fill="#f46926"/><path d="M346.62,242.86l-17.38,23.2v-20.9Z" transform="translate(1.5 1.5)" fill="#981a1f"/><path d="M341.08,165l-11.84,10v32.75Z" transform="translate(1.5 1.5)" fill="#981a1f"/><path d="M373.71,277.55l-20.13,1.07-7-35.76Z" transform="translate(1.5 1.5)" fill="#981a1f"/><path d="M355.39,299.28l6.68,33.85,8.11-18.86Z" transform="translate(1.5 1.5)" fill="#981a1f"/><path d="M380.45,386.36l6.79,21.25,12.15-17.08Z" transform="translate(1.5 1.5)" fill="#981a1f"/><path d="M329.24,327.51,351,324.58,344.8,354.4Z" transform="translate(1.5 1.5)" fill="#981a1f"/><path d="M344.8,354.4l17.27-21.27-11-8.55Z" transform="translate(1.5 1.5)" fill="#e89213"/><path d="M344.8,354.4l8.59,27.08,18.18,4.88Z" transform="translate(1.5 1.5)" fill="#b7451f"/><path d="M351,324.58l4.36-25.3,6.68,33.85Z" transform="translate(1.5 1.5)" fill="#b81d24"/><path d="M351,324.58l-21.79-23.69v26.62Z" transform="translate(1.5 1.5)" fill="#ea551c"/><path d="M329.24,300.89l26.15-1.61L351,324.58Z" transform="translate(1.5 1.5)" fill="#e92822"/><path d="M371.57,386.36h8.88l-35.65-32Z" transform="translate(1.5 1.5)" fill="#ea551c"/><path d="M341.08,165l-11.84-35.76V175Z" transform="translate(1.5 1.5)" fill="#981a1f"/><path d="M329.24,129.27l29-20.72-29-16Z" transform="translate(1.5 1.5)" fill="#981a1f"/><path d="M358.24,108.55l-.05-.21L343.06,48.76,329.22,92.53l29,16" transform="translate(1.5 1.5)" fill="#b91d24"/><path d="M341.08,165l-11.84-35.76,29-20.72Z" transform="translate(1.5 1.5)" fill="#5a1215"/><path d="M286.87,386.36l10,15.44.93,7.67-15.68-12,4.71-11.15" transform="translate(1.5 1.5)" fill="#e49614"/><path d="M284.72,277.55l-1.16-20.7,28.25-14Z" transform="translate(1.5 1.5)" fill="#e49614"/><path d="M266.84,266.06l7.27,10.41H257Z" transform="translate(1.5 1.5)" fill="#e49614"/><path d="M250.28,259.37l16.56,6.69-18.64,6.15Z" transform="translate(1.5 1.5)" fill="#e49614"/><path d="M221.47,298.33l22.69,29.18-9.11,15.21Z" transform="translate(1.5 1.5)" fill="#e49614"/><path d="M257.72,235.4l-26.54,8.65,4.93,17.56Z" transform="translate(1.5 1.5)" fill="#e49614"/><path d="M290.2,226.35l-3.68-24.2,10.37-17.61Z" transform="translate(1.5 1.5)" fill="#e49614"/><path d="M266.53,86.14l31,62.45,2.66-40Z" transform="translate(1.5 1.5)" fill="#e49614"/><path d="M346.62,191l14.28-42.45.65,35.95Z" transform="translate(1.5 1.5)" fill="#e49614"/><path d="M361.55,184.54l34.53-21.15-24.17,38.76Z" transform="translate(1.5 1.5)" fill="none" stroke="#100f0d" stroke-miterlimit="1.33" stroke-width="0.67"/><path d="M341.08,165l19.82-16.44-2.66-40Z" transform="translate(1.5 1.5)" fill="#e92822"/><path d="M371.91,202.15l61.53-40.9-24.65,39Z" transform="translate(1.5 1.5)" fill="#e72723"/><path d="M408.79,200.26,464,190.45l27.35,71.16Z" transform="translate(1.5 1.5)" fill="none" stroke="#100f0d" stroke-miterlimit="1.33" stroke-width="0.67"/><path d="M371.91,202.15l61.53-40.9-37.36,2.14Z" transform="translate(1.5 1.5)" fill="none" stroke="#100f0d" stroke-miterlimit="1.33" stroke-width="0.67"/><path d="M242.18,379.87l13.16,36.33,3.7-25.67Z" transform="translate(1.5 1.5)" fill="#6e1417"/><path d="M300.19,108.55l.05-.21,15.13-59.58,13.85,43.77-29,16" transform="translate(1.5 1.5)" fill="#6e1417"/><path d="M311.81,191l5.54-26-19.82-16.44Z" transform="translate(1.5 1.5)" fill="#6e1417"/><path d="M231.18,244.05l18.47-43.79L202.12,235.4Z" transform="translate(1.5 1.5)" fill="#6e1417"/><path d="M210.55,282.39l10.92,15.94-72,.21Z" transform="translate(1.5 1.5)" fill="#6e1417"/><path d="M262.35,163.39l-37-38.34-.41,36.2Z" transform="translate(1.5 1.5)" fill="#6e1417"/><path d="M112.23,302.72l32,73.67-32-8.45Z" transform="translate(1.5 1.5)" fill="#6e1417"/><path d="M194.4,190.45l-54.7,64.07,27.35,7.09Z" transform="translate(1.5 1.5)" fill="#6e1417"/><path d="M165,330.1l59.2,30.71-80,15.58Z" transform="translate(1.5 1.5)" fill="#6e1417"/><path d="M137.41,450.58,112.2,417.06,93,483.71Z" transform="translate(1.5 1.5)" fill="#6e1417"/><path d="M346.62,191l-5.54-26,19.82-16.44Z" transform="translate(1.5 1.5)" fill="#6e1417"/><path d="M408.79,200.26l66-45.54,29.09,28.66Z" transform="translate(1.5 1.5)" fill="none" stroke="#100f0d" stroke-miterlimit="1.33" stroke-width="0.67"/><path d="M427.25,244.05l29.06-8.65-34,26.21Z" transform="translate(1.5 1.5)" fill="none" stroke="#100f0d" stroke-miterlimit="1.33" stroke-width="0.67"/><path d="M422.33,261.61l25.55,20.78L509,298.54Z" transform="translate(1.5 1.5)" fill="none" stroke="#100f0d" stroke-miterlimit="1.33" stroke-width="0.67"/><path d="M437,298.33l72,.21-44.21,36.83Z" transform="translate(1.5 1.5)" fill="none" stroke="#100f0d" stroke-miterlimit="1.33" stroke-width="0.67"/><path d="M456.31,235.4l-1.84,39.91L509,298.54Z" transform="translate(1.5 1.5)" fill="none" stroke="#100f0d" stroke-miterlimit="1.33" stroke-width="0.67"/><path d="M427.25,244.05l-18.46-43.79,47.52,35.14Z" transform="translate(1.5 1.5)" fill="none" stroke="#100f0d" stroke-miterlimit="1.33" stroke-width="0.67"/><path d="M437,298.33l-2.75,62.48,30.55-25.44Z" transform="translate(1.5 1.5)" fill="none" stroke="#100f0d" stroke-miterlimit="1.33" stroke-width="0.67"/><path d="M434.21,360.81l-29.9,78.93-1.22-23.54Z" transform="translate(1.5 1.5)" fill="none" stroke="#100f0d" stroke-miterlimit="1.33" stroke-width="0.67"/><path d="M434.21,360.81l61.63,59.35-73.92-26.91Z" transform="translate(1.5 1.5)" fill="none" stroke="#100f0d" stroke-miterlimit="1.33" stroke-width="0.67"/><path d="M447.88,282.39,437,298.33l72,.21Z" transform="translate(1.5 1.5)" fill="none" stroke="#100f0d" stroke-miterlimit="1.33" stroke-width="0.67"/><path d="M396.08,163.39,433,125.05l.41,36.2Z" transform="translate(1.5 1.5)" fill="none" stroke="#100f0d" stroke-miterlimit="1.33" stroke-width="0.67"/><path d="M474.75,154.72l28.43-54.53-69.74,61.06Z" transform="translate(1.5 1.5)" fill="none" stroke="#100f0d" stroke-miterlimit="1.33" stroke-width="0.67"/><path d="M358.24,108.55,395.63,48,391.9,86.14Z" transform="translate(1.5 1.5)" fill="none" stroke="#100f0d" stroke-miterlimit="1.33" stroke-width="0.67"/><path d="M384.32,66.29H347.51l10.73,42.26Z" transform="translate(1.5 1.5)" fill="#e72723"/><path d="M474.75,154.72l18-34.61,40.63,31.55Z" transform="translate(1.5 1.5)" fill="none" stroke="#100f0d" stroke-miterlimit="1.33" stroke-width="0.67"/><path d="M589.84,357.65,563.9,469,596,446.46Z" transform="translate(1.5 1.5)" fill="none" stroke="#100f0d" stroke-miterlimit="1.33" stroke-width="0.67"/><path d="M576.48,293.13l-32,73.67,32-8.45Z" transform="translate(1.5 1.5)" fill="none" stroke="#100f0d" stroke-miterlimit="1.33" stroke-width="0.67"/><path d="M464,190.45l54.7,64.07-27.35,7.09Z" transform="translate(1.5 1.5)" fill="none" stroke="#100f0d" stroke-miterlimit="1.33" stroke-width="0.67"/><path d="M546.2,302.72,456.31,235.4,509,298.54Z" transform="translate(1.5 1.5)" fill="none" stroke="#100f0d" stroke-miterlimit="1.33" stroke-width="0.67"/><path d="M546.2,302.72l-26.74,13.87,13,17.88Z" transform="translate(1.5 1.5)" fill="none" stroke="#100f0d" stroke-miterlimit="1.33" stroke-width="0.67"/><path d="M546.2,302.72l-27.47-48.2-27.35,7.09Z" transform="translate(1.5 1.5)" fill="none" stroke="#100f0d" stroke-miterlimit="1.33" stroke-width="0.67"/><path d="M628.93,253.51l-39-4.36,26-13.52Z" transform="translate(1.5 1.5)" fill="none" stroke="#100f0d" stroke-miterlimit="1.33" stroke-width="0.67"/><path d="M504,333.38l20.85,46.28,18.17-41.92Z" transform="translate(1.5 1.5)" fill="none" stroke="#100f0d" stroke-miterlimit="1.33" stroke-width="0.67"/><path d="M733.52,335.14l-59.2,30.71,80,15.58Z" transform="translate(1.5 1.5)" fill="#e72723"/><path d="M434.21,360.81l61.63,59.35,18.41-43.77Z" transform="translate(1.5 1.5)" fill="none" stroke="#100f0d" stroke-miterlimit="1.33" stroke-width="0.67"/><path d="M561.62,226.07l-24.9,26.81,27.47,48.2Z" transform="translate(1.5 1.5)" fill="#e72723"/><path d="M543.63,227.71,464,190.45l39.81-7.07Z" transform="translate(1.5 1.5)" fill="none" stroke="#100f0d" stroke-miterlimit="1.33" stroke-width="0.67"/><path d="M543.63,227.71,464,190.45l54.7,64.07Z" transform="translate(1.5 1.5)" fill="#e49614"/><path d="M644.21,241.61,680,320.67l-33.21-4.05Z" transform="translate(1.5 1.5)" fill="none" stroke="#100f0d" stroke-miterlimit="1.33" stroke-width="0.67"/><path d="M556.32,139.39l37.23,25.83-32.82,7.05Z" transform="translate(1.5 1.5)" fill="none" stroke="#100f0d" stroke-miterlimit="1.33" stroke-width="0.67"/><path d="M603.36,181.57l-27,50.23-5.8-43.17Z" transform="translate(1.5 1.5)" fill="#b23b5f"/><path d="M503.18,100.19,433,125.05l.41,36.2Z" transform="translate(1.5 1.5)" fill="none" stroke="#100f0d" stroke-miterlimit="1.33" stroke-width="0.67"/><path d="M391.9,86.14l-31,62.45-2.66-40Z" transform="translate(1.5 1.5)" fill="none" stroke="#100f0d" stroke-miterlimit="1.33" stroke-width="0.67"/><path d="M391.9,86.14l1.16,27.49-32.16,35Z" transform="translate(1.5 1.5)" fill="#b23b5f"/><path d="M474.75,154.72l29.09,28.66,29.58-31.72Z" transform="translate(1.5 1.5)" fill="none" stroke="#100f0d" stroke-miterlimit="1.33" stroke-width="0.67"/><path d="M433,125.05l41.21-44.2-30.06,3Z" transform="translate(1.5 1.5)" fill="#f2531b"/><path d="M391.9,86.14l59.78-30-58.62,57.45Z" transform="translate(1.5 1.5)" fill="none" stroke="#100f0d" stroke-miterlimit="1.33" stroke-width="0.67"/><path d="M373.71,277.55l1.16-20.7-28.25-14Z" transform="translate(1.5 1.5)" fill="#b41d23"/><path d="M416.25,379.87,403.09,416.2l-3.7-25.67Z" transform="translate(1.5 1.5)" fill="#b41d23"/><path d="M368.23,226.35l-6.68-41.81L346.62,191Z" transform="translate(1.5 1.5)" fill="#b41d23"/><path d="M396.08,163.39,433,125.05l-40-11.42Z" transform="translate(1.5 1.5)" fill="#b41d23"/><path d="M433.44,161.25l-24.65,39,66-45.54Z" transform="translate(1.5 1.5)" fill="#b41d23"/><path d="M521.61,382.93l32,40.67-25.21,33.52Z" transform="translate(1.5 1.5)" fill="none" stroke="#100f0d" stroke-miterlimit="1.33" stroke-width="0.67"/><path d="M653.37,502.28,598.18,464.5l27.37-32.72Z" transform="translate(1.5 1.5)" fill="#f2531b"/><path d="M622.2,535.85l-18.42,43.77L629,610Z" transform="translate(1.5 1.5)" fill="none" stroke="#100f0d" stroke-miterlimit="1.33" stroke-width="0.67"/><path d="M649.06,583.62l25.21-33.51,19.17,66.65Z" transform="translate(1.5 1.5)" fill="none" stroke="#100f0d" stroke-miterlimit="1.33" stroke-width="0.67"/><path d="M513,443.87,510.83,507l27.37-32.73Z" transform="translate(1.5 1.5)" fill="none" stroke="#100f0d" stroke-miterlimit="1.33" stroke-width="0.67"/><path d="M504.83,420.16l-17.89,40.13,15.71,23Z" transform="translate(1.5 1.5)" fill="none" stroke="#100f0d" stroke-miterlimit="1.33" stroke-width="0.67"/><path d="M495.84,420.16l-73.92-26.91,56,67Z" transform="translate(1.5 1.5)" fill="#f2531b"/><path d="M699.11,411.53l13.32,78.41L673,440.78Z" transform="translate(1.5 1.5)" fill="none" stroke="#100f0d" stroke-miterlimit="1.33" stroke-width="0.67"/><path d="M612.43,370.64l19.45,3.77-31.51-43Z" transform="translate(1.5 1.5)" fill="#e49614"/><path d="M601,284.32l36.83,44.59-22.74,1.26Z" transform="translate(1.5 1.5)" fill="none" stroke="#100f0d" stroke-miterlimit="1.33" stroke-width="0.67"/><path d="M421.92,393.25l-17.61,46.49,73.63,20.55Z" transform="translate(1.5 1.5)" fill="none" stroke="#100f0d" stroke-miterlimit="1.33" stroke-width="0.67"/><path d="M404.31,439.74l50.42,53.94,23.21-33.39Z" transform="translate(1.5 1.5)" fill="#e72723"/><path d="M398,459.51l3.52,48.75-11.76-32.2Z" transform="translate(1.5 1.5)" fill="none" stroke="#100f0d" stroke-miterlimit="1.33" stroke-width="0.67"/><path d="M401.56,508.26l-23.79-19.14v-9.93l12-3.13Z" transform="translate(1.5 1.5)" fill="none" stroke="#100f0d" stroke-miterlimit="1.33" stroke-width="0.67"/><path d="M404.31,439.74,398,459.51l56.69,34.17Z" transform="translate(1.5 1.5)" fill="none" stroke="#100f0d" stroke-miterlimit="1.33" stroke-width="0.67"/><path d="M309.41,398.71l19.78-4.86V403Z" transform="translate(1.5 1.5)" fill="#f27715"/><path d="M282.16,397.51,278,386.36h8.89Z" transform="translate(1.5 1.5)" fill="#f27715"/><path d="M266.84,266.06l17.88,11.49-10.61-1.08Z" transform="translate(1.5 1.5)" fill="#f27715"/><path d="M236.11,261.61l12.09,10.6,2.08-12.84Z" transform="translate(1.5 1.5)" fill="#f27715"/><path d="M283.56,319.71l-28.22,49.93,6-22Z" transform="translate(1.5 1.5)" fill="#f27715"/><path d="M310.66,541.13l-5.14-18.88L292.44,536Z" transform="translate(1.5 1.5)" fill="#f27715"/><path d="M310.66,541.13l18.53,27.24-32,.57Z" transform="translate(1.5 1.5)" fill="#f27715"/><path d="M352.91,522.25l-5.14,18.88-9.38-15.78Z" transform="translate(1.5 1.5)" fill="#f27715"/><path d="M366,536l-4.78,33-13.44-27.81Z" transform="translate(1.5 1.5)" fill="#f27715"/><path d="M265.79,310.32l-3.44-12.09,13.54.25Z" transform="translate(1.5 1.5)" fill="#cd503e"/><path d="M286.87,386.36l22.54,12.35-12.5,3.09Z" transform="translate(1.5 1.5)" fill="#cd503e"/><path d="M236.11,261.61l6,21.28.52,7-7.57,3,1.06-31.28" transform="translate(1.5 1.5)" fill="#cd503e"/><path d="M257.72,235.4l12.86,13.11-20.3,10.86Z" transform="translate(1.5 1.5)" fill="#cd503e"/><path d="M266.84,266.06l16.72-9.21,1.16,20.7Z" transform="translate(1.5 1.5)" fill="#cd503e"/><path d="M221.47,298.33l13.58,44.39-10.83,18.09Z" transform="translate(1.5 1.5)" fill="#cd503e"/><path d="M224.22,360.81l31.12,55.39-13.16-36.33Z" transform="translate(1.5 1.5)" fill="#cd503e"/><path d="M313.63,354.4l15.56-26.89v22.18Z" transform="translate(1.5 1.5)" fill="#cd503e"/><path d="M313.63,354.4l-17.26-21.27,11-8.55Z" transform="translate(1.5 1.5)" fill="#cd503e"/><path d="M329.19,300.89l-24.34-22.27L303,299.28Z" transform="translate(1.5 1.5)" fill="#cd503e"/><path d="M296.89,184.54l.64-35.95-32.16-35Z" transform="translate(1.5 1.5)" fill="#cd503e"/><path d="M300.19,108.55,262.8,48l3.73,38.18Z" transform="translate(1.5 1.5)" fill="#cd503e"/><path d="M183.68,154.72l-29.09,28.66L125,151.66Z" transform="translate(1.5 1.5)" fill="#cd503e"/><path d="M144.18,376.39l-32-8.45v49.12Z" transform="translate(1.5 1.5)" fill="#cd503e"/><path d="M162.6,420.16l17.89,40.13-15.71,23Z" transform="translate(1.5 1.5)" fill="#cd503e"/><path d="M310.66,541.13l18.53-2.93L320,525.35Z" transform="translate(1.5 1.5)" fill="#cd503e"/><path d="M290.73,512.7,292.44,536l-20.37-17.56Z" transform="translate(1.5 1.5)" fill="#cd503e"/><path d="M280.66,489.12l-8.59,29.3-15.2-10.16Z" transform="translate(1.5 1.5)" fill="#cd503e"/><path d="M234.12,535.17,251.9,561l-49.49,10.19Z" transform="translate(1.5 1.5)" fill="#cd503e"/><path d="M164.78,483.3l-26.28,18,3.74,43Z" transform="translate(1.5 1.5)" fill="#cd503e"/><path d="M347.77,541.13l5.14-18.88L366,536Z" transform="translate(1.5 1.5)" fill="#cd503e"/><path d="M365.17,552.33l-4.78,33,45.32-7.9Z" transform="translate(1.5 1.5)" fill="none" stroke="#100f0d" stroke-miterlimit="1.33" stroke-width="0.67"/><path d="M401.56,508.26,398,459.51l56.69,34.17Z" transform="translate(1.5 1.5)" fill="#721518"/><path d="M477.94,460.29l-23.21,33.39,38.92-10.38Z" transform="translate(1.5 1.5)" fill="none" stroke="#100f0d" stroke-miterlimit="1.33" stroke-width="0.67"/><path d="M495.29,489,471,521.11,456.37,499.4Z" transform="translate(1.5 1.5)" fill="none" stroke="#100f0d" stroke-miterlimit="1.33" stroke-width="0.67"/><path d="M409,592.11l16.09,69.29L363.67,600Z" transform="translate(1.5 1.5)" fill="#e49614"/><path d="M259,390.53l-3.7-20.89-13.16,10.23Z" transform="translate(1.5 1.5)" fill="#91331c"/><path d="M244.16,327.51l11.18,42.13,6-22Z" transform="translate(1.5 1.5)" fill="#91331c"/><path d="M311.81,191l5.54-26,11.84,42.74Z" transform="translate(1.5 1.5)" fill="#91331c"/><path d="M304.85,278.62l-20.13-1.07,11,20.19Z" transform="translate(1.5 1.5)" fill="#91331c"/><path d="M329.19,266.06v34.83L318.06,271.8Z" transform="translate(1.5 1.5)" fill="#91331c"/><path d="M290.2,226.35l-3.68-24.2-36.87-1.89Z" transform="translate(1.5 1.5)" fill="#91331c"/><path d="M305,381.48l4.37,17.23,19.78-4.86Z" transform="translate(1.5 1.5)" fill="#91331c"/><path d="M283.56,319.71l-3.42,35.9L259,390.53Z" transform="translate(1.5 1.5)" fill="#91331c"/><path d="M313.63,354.4,305,381.48l-18.17,4.88Z" transform="translate(1.5 1.5)" fill="#91331c"/><path d="M165.64,120.11,125,151.66,106.88,125Z" transform="translate(1.5 1.5)" fill="#91331c"/><path d="M126,334.47l39-4.37L139,316.59Z" transform="translate(1.5 1.5)" fill="#91331c"/><path d="M114.81,227.71l24.89,26.81-27.47,48.2Z" transform="translate(1.5 1.5)" fill="#91331c"/><path d="M144.18,376.39l18.42,43.77-25.19,30.42Z" transform="translate(1.5 1.5)" fill="#91331c"/><path d="M281.14,297.74l2.42,22-9.4,1.86Z" transform="translate(1.5 1.5)" fill="#91331c"/><path d="M249.68,286.81l-7.06,3.05L248.2,304Z" transform="translate(1.5 1.5)" fill="#91331c"/><path d="M257.72,235.4l32.48-9.05,2.86,11.41Z" transform="translate(1.5 1.5)" fill="#91331c"/><path d="M236.11,261.61l6,21.28,6.1-10.68Z" transform="translate(1.5 1.5)" fill="#91331c"/><path d="M266.84,266.06l3.74-17.55,13,8.34Z" transform="translate(1.5 1.5)" fill="#91331c"/><path d="M283.56,319.71l-22.27,27.93-17.13-20.13Z" transform="translate(1.5 1.5)" fill="#91331c"/><path d="M311.81,242.86l-7,35.76,24.34-12.56Z" transform="translate(1.5 1.5)" fill="#91331c"/><path d="M278,386.36l18.39-53.23-16.23,22.48Z" transform="translate(1.5 1.5)" fill="#91331c"/><path d="M329.19,300.89,303,299.28l4.36,25.3Z" transform="translate(1.5 1.5)" fill="#91331c"/><path d="M286.52,202.15,225,161.25l24.66,39Z" transform="translate(1.5 1.5)" fill="#91331c"/><path d="M265.37,113.63l-3,49.76,34.54,21.15Z" transform="translate(1.5 1.5)" fill="#91331c"/><path d="M224.22,360.81l29.9,78.93,1.22-23.54Z" transform="translate(1.5 1.5)" fill="#91331c"/><path d="M265.37,113.63l-40,11.42L206.75,56.18Z" transform="translate(1.5 1.5)" fill="#91331c"/><path d="M274.11,66.29h36.81l-10.73,42.26Z" transform="translate(1.5 1.5)" fill="#91331c"/><path d="M112.23,302.72l0,114.34L86.07,387.81Z" transform="translate(1.5 1.5)" fill="#91331c"/><path d="M114.81,227.71l79.59-37.26-54.7,64.07Z" transform="translate(1.5 1.5)" fill="#91331c"/><path d="M162.6,420.16l2.18,63.14-27.37-32.72Z" transform="translate(1.5 1.5)" fill="#91331c"/><path d="M256.87,508.26l-5,52.77-17.78-25.86Z" transform="translate(1.5 1.5)" fill="#91331c"/><path d="M203.7,493.68l-39.61,58.78L173.33,597Z" transform="translate(1.5 1.5)" fill="#91331c"/><path d="M361.21,568.94l-32,63.36V568.37Z" transform="translate(1.5 1.5)" fill="#91331c"/><path d="M256.87,508.26l23.79-19.14v-9.93l-12-3.13-11.76,32.2" transform="translate(1.5 1.5)" fill="#541216"/><path d="M254.12,439.74l6.27,19.77L203.7,493.68Z" transform="translate(1.5 1.5)" fill="#541216"/><path d="M251.9,561l-16.08,69.29,61.4-61.38Z" transform="translate(1.5 1.5)" fill="#541216"/><path d="M297.22,568.94v74.28L318.94,612Z" transform="translate(1.5 1.5)" fill="#541216"/><path d="M361.21,568.94v74.28L339.49,612Z" transform="translate(1.5 1.5)" fill="#541216"/><path d="M454.73,493.68l-30.42,41.49-22.75-26.91Z" transform="translate(1.5 1.5)" fill="none" stroke="#100f0d" stroke-miterlimit="1.33" stroke-width="0.67"/><path d="M347.77,541.13l-18.53-2.93,9.15-12.85Z" transform="translate(1.5 1.5)" fill="#a22820"/><path d="M236.11,261.61l-14.64,36.72,13.58-5.44Z" transform="translate(1.5 1.5)" fill="#f2531b"/><path d="M270.58,248.51,257.72,235.4l35.34,2.36Z" transform="translate(1.5 1.5)" fill="#f2531b"/><path d="M248.2,304l-4,23.54,21.63-17.19Z" transform="translate(1.5 1.5)" fill="#f2531b"/><path d="M311.81,191v51.82l17.38-16.1Z" transform="translate(1.5 1.5)" fill="#f2531b"/><path d="M304.85,278.62l24.34,22.27L318.06,271.8Z" transform="translate(1.5 1.5)" fill="#f2531b"/><path d="M303,299.28l-6.67,33.85-8.12-18.86Z" transform="translate(1.5 1.5)" fill="#f2531b"/><path d="M278,386.36l-6.79,21.25L259,390.53Z" transform="translate(1.5 1.5)" fill="#f2531b"/><path d="M329.19,327.51l-21.79-2.93,6.23,29.82Z" transform="translate(1.5 1.5)" fill="#f2531b"/><path d="M305,381.48l4.37,17.23-22.54-12.35Z" transform="translate(1.5 1.5)" fill="#f2531b"/><path d="M260.39,459.51l-3.52,48.75,11.76-32.2Z" transform="translate(1.5 1.5)" fill="#f2531b"/><path d="M203.7,493.68l-1.29,77.54,31.71-36.05Z" transform="translate(1.5 1.5)" fill="#f2531b"/><path d="M202.41,571.22l10.45,61.27,13.28-19.29Z" transform="translate(1.5 1.5)" fill="#f2531b"/><path d="M347.77,541.13l-18.53,27.24,32,.57Z" transform="translate(1.5 1.5)" fill="#f2531b"/><path d="M357.94,639.26l27.66,27.66-27.66,46.62Z" transform="translate(1.5 1.5)" fill="#f2531b"/><path d="M270.58,248.51l13,8.34,12.71-6.29Z" transform="translate(1.5 1.5)" fill="#b23b5f"/><path d="M265.79,310.32l-21.63,17.19,30-5.94Z" transform="translate(1.5 1.5)" fill="#b23b5f"/><path d="M242.62,289.86,248.2,304l-26.73-5.64Z" transform="translate(1.5 1.5)" fill="#b23b5f"/><path d="M255.34,369.64l-13.16,10.23-18-19.06Z" transform="translate(1.5 1.5)" fill="#b23b5f"/><path d="M311.81,242.86l17.38-16.1v18.4Z" transform="translate(1.5 1.5)" fill="#b23b5f"/><path d="M317.35,165l11.84,10v32.75Z" transform="translate(1.5 1.5)" fill="#b23b5f"/><path d="M313.63,354.4,305,381.48l24.15-9.29Z" transform="translate(1.5 1.5)" fill="#b23b5f"/><path d="M112.23,302.72,139,316.59l-13,17.88Z" transform="translate(1.5 1.5)" fill="#b23b5f"/><path d="M292.44,536l4.78,33,13.44-27.81Z" transform="translate(1.5 1.5)" fill="#b23b5f"/><path d="M164.78,483.3l24.29,32.09,14.63-21.71Z" transform="translate(1.5 1.5)" fill="#b23b5f"/><path d="M256.87,508.26l-5,52.77,20.17-42.61Z" transform="translate(1.5 1.5)" fill="#b23b5f"/><path d="M281.14,297.74h14.61l-11-20.19Z" transform="translate(1.5 1.5)" fill="#b23b5f"/><path d="M266.84,266.06l3.74-17.55-20.3,10.86Z" transform="translate(1.5 1.5)" fill="#b23b5f"/><path d="M283.56,319.71,259,390.53l-3.7-20.89Z" transform="translate(1.5 1.5)" fill="#b23b5f"/><path d="M311.81,242.86l17.38,23.2v-20.9Z" transform="translate(1.5 1.5)" fill="#b23b5f"/><path d="M329.19,226.76,311.81,191l17.38,16.73Z" transform="translate(1.5 1.5)" fill="#b23b5f"/><path d="M311.81,191,290.2,226.35l21.61,16.51Z" transform="translate(1.5 1.5)" fill="#b23b5f"/><path d="M257.72,235.4l-8.07-35.14-18.47,43.79Z" transform="translate(1.5 1.5)" fill="#b23b5f"/><path d="M307.4,324.58l21.79-23.69v26.62Z" transform="translate(1.5 1.5)" fill="#b23b5f"/><path d="M329.19,129.27l-29-20.72,29-16Z" transform="translate(1.5 1.5)" fill="#b23b5f"/><path d="M286.52,202.15,225,161.25l37.36,2.14Z" transform="translate(1.5 1.5)" fill="#b23b5f"/><path d="M231.18,244.05l-29.06-8.65,34,26.21Z" transform="translate(1.5 1.5)" fill="#b23b5f"/><path d="M221.47,298.33l2.75,62.48-30.55-25.44Z" transform="translate(1.5 1.5)" fill="#b23b5f"/><path d="M125,151.66l-10.2,76.05,39.78-44.33Z" transform="translate(1.5 1.5)" fill="#b23b5f"/><path d="M112.23,302.72l89.89-67.32-52.66,63.14Z" transform="translate(1.5 1.5)" fill="#b23b5f"/><path d="M266.53,86.14l-1.16,27.49,32.16,35Z" transform="translate(1.5 1.5)" fill="#b23b5f"/><path d="M144.18,376.39l-32,40.67,25.21,33.52Z" transform="translate(1.5 1.5)" fill="#b23b5f"/><path d="M109.59,521.07l55.19-37.77-27.37-32.72Z" transform="translate(1.5 1.5)" fill="#b23b5f"/><path d="M112.23,302.72,75.4,347.32l22.73,1.25Z" transform="translate(1.5 1.5)" fill="#b23b5f"/><path d="M180.49,460.29l23.21,33.39L164.78,483.3Z" transform="translate(1.5 1.5)" fill="#b23b5f"/><path d="M310.66,541.13l18.53-2.93v30.17Z" transform="translate(1.5 1.5)" fill="#b23b5f"/><path d="M272.07,518.42,292.44,536,251.9,561Z" transform="translate(1.5 1.5)" fill="#b23b5f"/><path d="M202.41,571.22l33.41,59.1L251.9,561Z" transform="translate(1.5 1.5)" fill="#b23b5f"/><path d="M347.77,541.13l-18.53-2.93v30.17Z" transform="translate(1.5 1.5)" fill="#b23b5f"/><path d="M367.7,512.7,366,536l20.37-17.56Z" transform="translate(1.5 1.5)" fill="none" stroke="#100f0d" stroke-miterlimit="1.33" stroke-width="0.67"/><path d="M377.77,489.12l8.59,29.3,15.2-10.16Z" transform="translate(1.5 1.5)" fill="none" stroke="#100f0d" stroke-miterlimit="1.33" stroke-width="0.67"/><path d="M453.92,500.22l1.29,77.54-31.72-36Z" transform="translate(1.5 1.5)" fill="none" stroke="#100f0d" stroke-miterlimit="1.33" stroke-width="0.67"/><path d="M401.56,508.26l5,52.77-20.17-42.61Z" transform="translate(1.5 1.5)" fill="none" stroke="#100f0d" stroke-miterlimit="1.33" stroke-width="0.67"/><path d="M516.55,510.29l22.54,61-46.83-28.89Z" transform="translate(1.5 1.5)" fill="#b23b5f"/><path d="M386.36,518.42,366,536l40.54,25Z" transform="translate(1.5 1.5)" fill="#b23b5f"/><path d="M401.56,508.26l5,52.77,17.78-25.86Z" transform="translate(1.5 1.5)" fill="none" stroke="#100f0d" stroke-miterlimit="1.33" stroke-width="0.67"/><path d="M471.09,521.48l30.37,103.3L472.38,599Z" transform="translate(1.5 1.5)" fill="none" stroke="#100f0d" stroke-miterlimit="1.33" stroke-width="0.67"/><path d="M479.74,609.65l-33.41,59.11-16.09-69.29Z" transform="translate(1.5 1.5)" fill="none" stroke="#100f0d" stroke-miterlimit="1.33" stroke-width="0.67"/><path d="M408.79,200.26l-40.56,26.09,32.48,9.05Z" transform="translate(1.5 1.5)" fill="#cd503e"/><path d="M393.06,113.63l3,49.76-34.53,21.15Z" transform="translate(1.5 1.5)" fill="#cd503e"/><path d="M492.79,120.11l40.63,31.55L551.56,125Z" transform="translate(1.5 1.5)" fill="#cd503e"/><path d="M546.2,302.72l-112,58.09L509,298.54Z" transform="translate(1.5 1.5)" fill="#cd503e"/><path d="M494.8,550.1l39.61,58.78-9.24,44.52Z" transform="translate(1.5 1.5)" fill="#cd503e"/><path d="M414.28,327.51l-11.19,42.13-5.95-22Z" transform="translate(1.5 1.5)" fill="#91331c"/><path d="M361.55,184.54l-.65-35.95,32.16-35Z" transform="translate(1.5 1.5)" fill="#91331c"/><path d="M533.06,378l32-8.45V418.7Z" transform="translate(1.5 1.5)" fill="#91331c"/><path d="M424.31,554l-17.78,25.86L456,590Z" transform="translate(1.5 1.5)" fill="#91331c"/><path d="M537,498.84l26.27,18-3.74,43Z" transform="translate(1.5 1.5)" fill="none" stroke="#100f0d" stroke-miterlimit="1.33" stroke-width="0.67"/><path d="M365.08,485l12.69,4.15,8.59,29.3Z" transform="translate(1.5 1.5)" fill="#f89b40"/><path d="M374.88,319.71l24.51,70.82,3.7-20.89Z" transform="translate(1.5 1.5)" fill="#f89b40"/><path d="M456.31,235.4l-34,26.21,32.14,13.7Z" transform="translate(1.5 1.5)" fill="#f89b40"/><path d="M393.06,113.63l40,11.42,18.65-68.87Z" transform="translate(1.5 1.5)" fill="#f89b40"/><path d="M545.69,150l10.2,76-39.78-44.33Z" transform="translate(1.5 1.5)" fill="#f89b40"/><path d="M496.91,645.63,486.45,706.9l-13.27-19.29Z" transform="translate(1.5 1.5)" fill="#f89b40"/><path d="M377.29,297.74H362.68l11-20.19Z" transform="translate(1.5 1.5)" fill="#5a1215"/><path d="M346.62,242.86l7,35.76-24.34-12.56Z" transform="translate(1.5 1.5)" fill="#5a1215"/><path d="M346.62,191v51.82l-17.38-16.1Z" transform="translate(1.5 1.5)" fill="#5a1215"/><path d="M346.62,191l-5.54-26-11.84,42.74Z" transform="translate(1.5 1.5)" fill="#5a1215"/><path d="M353.39,381.48,349,398.71l22.55-12.35Z" transform="translate(1.5 1.5)" fill="#5a1215"/><path d="M344.8,354.4l35.65,32-18.38-53.23Z" transform="translate(1.5 1.5)" fill="#5a1215"/><path d="M329.24,300.89l24.34-22.27,1.81,20.66Z" transform="translate(1.5 1.5)" fill="#5a1215"/><path d="M387.24,407.61l12.15-17.08,3.7,25.67Z" transform="translate(1.5 1.5)" fill="#5a1215"/><path d="M441.08,359.59a4.2,4.2,0,1,1-4.2-4.2,4.2,4.2,0,0,1,4.2,4.2" transform="translate(1.5 1.5)" fill="#100f0d"/><path d="M499,418.36a4.2,4.2,0,1,1-4.2-4.2,4.2,4.2,0,0,1,4.2,4.2" transform="translate(1.5 1.5)" fill="#100f0d"/><path d="M407.48,437.93a4.2,4.2,0,1,1-4.19-4.19,4.2,4.2,0,0,1,4.19,4.19" transform="translate(1.5 1.5)" fill="#100f0d"/><path d="M512.14,296.73a4.2,4.2,0,1,1-4.2-4.2,4.2,4.2,0,0,1,4.2,4.2" transform="translate(1.5 1.5)" fill="#100f0d"/><path d="M426.53,261.61a4.2,4.2,0,1,1-4.2-4.19,4.2,4.2,0,0,1,4.2,4.19" transform="translate(1.5 1.5)" fill="#100f0d"/><path d="M372.42,226.35a4.2,4.2,0,1,1-4.19-4.2,4.2,4.2,0,0,1,4.19,4.2" transform="translate(1.5 1.5)" fill="#100f0d"/><path d="M479,154.72a4.2,4.2,0,1,1-4.2-4.2,4.2,4.2,0,0,1,4.2,4.2" transform="translate(1.5 1.5)" fill="#100f0d"/><path d="M449.27,283.19a1.8,1.8,0,1,1-1.8-1.8,1.8,1.8,0,0,1,1.8,1.8" transform="translate(1.5 1.5)" fill="#100f0d"/><path d="M465.33,190a1.8,1.8,0,1,1-1.8-1.8,1.81,1.81,0,0,1,1.8,1.8" transform="translate(1.5 1.5)" fill="#100f0d"/><path d="M505.64,183.38a1.8,1.8,0,1,1-1.8-1.8,1.8,1.8,0,0,1,1.8,1.8" transform="translate(1.5 1.5)" fill="#100f0d"/><path d="M435.24,161.25a1.8,1.8,0,1,1-1.8-1.8,1.81,1.81,0,0,1,1.8,1.8" transform="translate(1.5 1.5)" fill="#100f0d"/><path d="M397.32,162.92a1.8,1.8,0,1,1-1.79-1.79,1.79,1.79,0,0,1,1.79,1.79" transform="translate(1.5 1.5)" fill="#100f0d"/><path d="M435.33,125.77a1.8,1.8,0,1,1-1.8-1.8,1.8,1.8,0,0,1,1.8,1.8" transform="translate(1.5 1.5)" fill="#100f0d"/><path d="M394.19,86.85a1.8,1.8,0,1,1-1.79-1.79,1.79,1.79,0,0,1,1.79,1.79" transform="translate(1.5 1.5)" fill="#100f0d"/><path d="M397.43,48a1.8,1.8,0,1,1-1.8-1.8,1.79,1.79,0,0,1,1.8,1.8" transform="translate(1.5 1.5)" fill="#100f0d"/><path d="M360.71,108.14a1.8,1.8,0,1,1-1.8-1.8,1.79,1.79,0,0,1,1.8,1.8" transform="translate(1.5 1.5)" fill="#100f0d"/><path d="M474.24,80.85a1.8,1.8,0,1,1-1.8-1.8,1.8,1.8,0,0,1,1.8,1.8" transform="translate(1.5 1.5)" fill="#100f0d"/><path d="M534.91,151a1.8,1.8,0,1,1-1.8-1.8,1.81,1.81,0,0,1,1.8,1.8" transform="translate(1.5 1.5)" fill="#100f0d"/><path d="M545.11,227a1.8,1.8,0,1,1-1.8-1.8,1.8,1.8,0,0,1,1.8,1.8" transform="translate(1.5 1.5)" fill="#100f0d"/><path d="M686.22,143a1.8,1.8,0,1,1-1.79-1.79,1.79,1.79,0,0,1,1.79,1.79" transform="translate(1.5 1.5)" fill="#100f0d"/><path d="M628.63,186.44a1.8,1.8,0,1,1-1.79-1.79,1.79,1.79,0,0,1,1.79,1.79" transform="translate(1.5 1.5)" fill="#100f0d"/><path d="M634.08,103.73a1.8,1.8,0,1,1-1.8-1.79,1.8,1.8,0,0,1,1.8,1.79" transform="translate(1.5 1.5)" fill="#100f0d"/><path d="M549.39,130.81a1.8,1.8,0,1,1-1.8-1.8,1.81,1.81,0,0,1,1.8,1.8" transform="translate(1.5 1.5)" fill="#100f0d"/><path d="M505.53,62.9a1.8,1.8,0,1,1-1.79-1.8,1.8,1.8,0,0,1,1.79,1.8" transform="translate(1.5 1.5)" fill="#100f0d"/><path d="M482.24,85.57a1.8,1.8,0,1,1-1.8-1.8,1.8,1.8,0,0,1,1.8,1.8" transform="translate(1.5 1.5)" fill="#100f0d"/><path d="M496.81,36.68a1.8,1.8,0,1,1-1.8-1.8,1.8,1.8,0,0,1,1.8,1.8" transform="translate(1.5 1.5)" fill="#100f0d"/><path d="M549.07,44.23a1.8,1.8,0,1,1-1.8-1.8,1.8,1.8,0,0,1,1.8,1.8" transform="translate(1.5 1.5)" fill="#100f0d"/><path d="M598.19,67.53a1.8,1.8,0,1,1-1.8-1.8,1.81,1.81,0,0,1,1.8,1.8" transform="translate(1.5 1.5)" fill="#100f0d"/><path d="M616.36,75.31a1.8,1.8,0,1,1-1.8-1.8,1.81,1.81,0,0,1,1.8,1.8" transform="translate(1.5 1.5)" fill="#100f0d"/><path d="M653.28,62.81a1.8,1.8,0,1,1-1.8-1.8,1.8,1.8,0,0,1,1.8,1.8" transform="translate(1.5 1.5)" fill="#100f0d"/><path d="M584.56,122.53a1.8,1.8,0,1,1-1.8-1.79,1.8,1.8,0,0,1,1.8,1.79" transform="translate(1.5 1.5)" fill="#100f0d"/><path d="M594.84,324.32a1.8,1.8,0,1,1-1.8-1.79,1.79,1.79,0,0,1,1.8,1.79" transform="translate(1.5 1.5)" fill="#100f0d"/><path d="M624.12,398.94a1.8,1.8,0,1,1-1.8-1.8,1.81,1.81,0,0,1,1.8,1.8" transform="translate(1.5 1.5)" fill="#100f0d"/><path d="M645.73,434.94a1.8,1.8,0,1,1-1.8-1.8,1.81,1.81,0,0,1,1.8,1.8" transform="translate(1.5 1.5)" fill="#100f0d"/><path d="M677.75,416.68a1.8,1.8,0,1,1-1.8-1.8,1.81,1.81,0,0,1,1.8,1.8" transform="translate(1.5 1.5)" fill="#100f0d"/><path d="M651,469.57a1.8,1.8,0,1,1-1.8-1.8,1.81,1.81,0,0,1,1.8,1.8" transform="translate(1.5 1.5)" fill="#100f0d"/><path d="M595.68,503.15a1.8,1.8,0,1,1-1.8-1.8,1.8,1.8,0,0,1,1.8,1.8" transform="translate(1.5 1.5)" fill="#100f0d"/><path d="M710.81,525a1.8,1.8,0,1,1-1.8-1.8,1.81,1.81,0,0,1,1.8,1.8" transform="translate(1.5 1.5)" fill="#100f0d"/><path d="M790.34,535.89a1.8,1.8,0,1,1-1.8-1.79,1.8,1.8,0,0,1,1.8,1.79" transform="translate(1.5 1.5)" fill="#100f0d"/><path d="M813.13,501.77a1.8,1.8,0,1,1-1.8-1.79,1.8,1.8,0,0,1,1.8,1.79" transform="translate(1.5 1.5)" fill="#100f0d"/><path d="M766.85,601.48a1.8,1.8,0,1,1-1.8-1.79,1.8,1.8,0,0,1,1.8,1.79" transform="translate(1.5 1.5)" fill="#100f0d"/><path d="M737.34,605.89a1.8,1.8,0,1,1-1.8-1.8,1.79,1.79,0,0,1,1.8,1.8" transform="translate(1.5 1.5)" fill="#100f0d"/><path d="M710.17,556.78a1.8,1.8,0,1,1-1.79-1.8,1.8,1.8,0,0,1,1.79,1.8" transform="translate(1.5 1.5)" fill="#100f0d"/><path d="M638.08,575.26a1.8,1.8,0,1,1-1.8-1.79,1.8,1.8,0,0,1,1.8,1.79" transform="translate(1.5 1.5)" fill="#100f0d"/><path d="M757.08,670.43a1.8,1.8,0,1,1-1.79-1.79,1.79,1.79,0,0,1,1.79,1.79" transform="translate(1.5 1.5)" fill="#100f0d"/><path d="M661.06,648.08a1.8,1.8,0,1,1-1.8-1.8,1.81,1.81,0,0,1,1.8,1.8" transform="translate(1.5 1.5)" fill="#100f0d"/><path d="M651,702.86a1.8,1.8,0,1,1-1.8-1.8,1.81,1.81,0,0,1,1.8,1.8" transform="translate(1.5 1.5)" fill="#100f0d"/><path d="M561.35,674.84a1.8,1.8,0,1,1-1.8-1.8,1.81,1.81,0,0,1,1.8,1.8" transform="translate(1.5 1.5)" fill="#100f0d"/><path d="M510.05,684.49a1.8,1.8,0,1,1-1.8-1.79,1.8,1.8,0,0,1,1.8,1.79" transform="translate(1.5 1.5)" fill="#100f0d"/><path d="M442.88,695a1.8,1.8,0,1,1-1.8-1.8,1.8,1.8,0,0,1,1.8,1.8" transform="translate(1.5 1.5)" fill="#100f0d"/><path d="M413.6,689.64a1.8,1.8,0,1,1-1.79-1.8,1.8,1.8,0,0,1,1.79,1.8" transform="translate(1.5 1.5)" fill="#100f0d"/><path d="M478.14,640a1.8,1.8,0,1,1-1.79-1.8,1.8,1.8,0,0,1,1.79,1.8" transform="translate(1.5 1.5)" fill="#100f0d"/><path d="M545.31,657.63a1.8,1.8,0,1,1-1.8-1.8,1.81,1.81,0,0,1,1.8,1.8" transform="translate(1.5 1.5)" fill="#100f0d"/><path d="M493.25,568.63a1.8,1.8,0,1,1-1.8-1.8,1.81,1.81,0,0,1,1.8,1.8" transform="translate(1.5 1.5)" fill="#100f0d"/><path d="M483.17,593a1.8,1.8,0,1,1-1.79-1.8,1.79,1.79,0,0,1,1.79,1.8" transform="translate(1.5 1.5)" fill="#100f0d"/><path d="M442.88,544.19a1.8,1.8,0,1,1-1.8-1.8,1.79,1.79,0,0,1,1.8,1.8" transform="translate(1.5 1.5)" fill="#100f0d"/><path d="M530.41,456a1.8,1.8,0,1,1-1.8-1.8,1.8,1.8,0,0,1,1.8,1.8" transform="translate(1.5 1.5)" fill="#100f0d"/><path d="M483.18,391.49a1.8,1.8,0,1,1-1.8-1.8,1.81,1.81,0,0,1,1.8,1.8" transform="translate(1.5 1.5)" fill="#100f0d"/><path d="M525.77,352.45a1.8,1.8,0,1,1-1.79-1.8,1.79,1.79,0,0,1,1.79,1.8" transform="translate(1.5 1.5)" fill="#100f0d"/><path d="M603.24,379.74a1.8,1.8,0,1,1-1.8-1.8,1.8,1.8,0,0,1,1.8,1.8" transform="translate(1.5 1.5)" fill="#100f0d"/><path d="M648.58,316.62a1.8,1.8,0,1,1-1.8-1.8,1.81,1.81,0,0,1,1.8,1.8" transform="translate(1.5 1.5)" fill="#100f0d"/><path d="M695.38,276a1.8,1.8,0,1,1-1.8-1.8,1.81,1.81,0,0,1,1.8,1.8" transform="translate(1.5 1.5)" fill="#100f0d"/><path d="M652.77,228.61a1.8,1.8,0,1,1-1.8-1.79,1.79,1.79,0,0,1,1.8,1.79" transform="translate(1.5 1.5)" fill="#100f0d"/><path d="M670.47,255.8a1.8,1.8,0,1,1-1.8-1.8,1.81,1.81,0,0,1,1.8,1.8" transform="translate(1.5 1.5)" fill="#100f0d"/><path d="M711.84,247a1.8,1.8,0,1,1-1.8-1.79,1.8,1.8,0,0,1,1.8,1.79" transform="translate(1.5 1.5)" fill="#100f0d"/><path d="M751.42,244.56a1.8,1.8,0,1,1-1.8-1.8,1.8,1.8,0,0,1,1.8,1.8" transform="translate(1.5 1.5)" fill="#100f0d"/><path d="M725.92,174a1.8,1.8,0,1,1-1.8-1.79,1.8,1.8,0,0,1,1.8,1.79" transform="translate(1.5 1.5)" fill="#100f0d"/><path d="M693,183.39a1.8,1.8,0,1,1-1.8-1.8,1.81,1.81,0,0,1,1.8,1.8" transform="translate(1.5 1.5)" fill="#100f0d"/><path d="M650.45,211.72a1.8,1.8,0,1,1-1.8-1.8,1.8,1.8,0,0,1,1.8,1.8" transform="translate(1.5 1.5)" fill="#100f0d"/><path d="M701.25,410.78a1.8,1.8,0,1,1-1.8-1.8,1.81,1.81,0,0,1,1.8,1.8" transform="translate(1.5 1.5)" fill="#100f0d"/><path d="M631.24,610.93a1.8,1.8,0,1,1-1.79-1.8,1.8,1.8,0,0,1,1.79,1.8" transform="translate(1.5 1.5)" fill="#100f0d"/><path d="M676.58,550.8a1.8,1.8,0,1,1-1.8-1.8,1.8,1.8,0,0,1,1.8,1.8" transform="translate(1.5 1.5)" fill="#100f0d"/><path d="M564.81,516.79A1.8,1.8,0,1,1,563,515a1.79,1.79,0,0,1,1.79,1.79" transform="translate(1.5 1.5)" fill="#100f0d"/><path d="M449.18,668.86a1.8,1.8,0,1,1-1.8-1.8,1.81,1.81,0,0,1,1.8,1.8" transform="translate(1.5 1.5)" fill="#100f0d"/><path d="M359.74,713.54a1.8,1.8,0,1,1-1.8-1.79,1.8,1.8,0,0,1,1.8,1.79" transform="translate(1.5 1.5)" fill="#100f0d"/><path d="M488.25,706.9a1.8,1.8,0,1,1-1.8-1.8,1.8,1.8,0,0,1,1.8,1.8" transform="translate(1.5 1.5)" fill="#100f0d"/><path d="M536.21,608.88a1.8,1.8,0,1,1-1.8-1.79,1.8,1.8,0,0,1,1.8,1.79" transform="translate(1.5 1.5)" fill="#100f0d"/><path d="M407.31,576.3a1.8,1.8,0,1,1-1.8-1.8,1.81,1.81,0,0,1,1.8,1.8" transform="translate(1.5 1.5)" fill="#100f0d"/><path d="M493.18,261.61a1.8,1.8,0,1,1-1.8-1.79,1.8,1.8,0,0,1,1.8,1.79" transform="translate(1.5 1.5)" fill="#100f0d"/><path d="M458.62,234.71a1.8,1.8,0,1,1-1.79-1.8,1.79,1.79,0,0,1,1.79,1.8" transform="translate(1.5 1.5)" fill="#100f0d"/><path d="M403.21,236a1.8,1.8,0,1,1-1.79-1.79,1.79,1.79,0,0,1,1.79,1.79" transform="translate(1.5 1.5)" fill="#100f0d"/><path d="M393.39,266.06a1.8,1.8,0,1,1-1.79-1.8,1.8,1.8,0,0,1,1.79,1.8" transform="translate(1.5 1.5)" fill="#100f0d"/><path d="M416.08,327.51a1.8,1.8,0,1,1-1.8-1.8,1.8,1.8,0,0,1,1.8,1.8" transform="translate(1.5 1.5)" fill="#100f0d"/><path d="M386.07,321.57a1.8,1.8,0,1,1-1.8-1.8,1.8,1.8,0,0,1,1.8,1.8" transform="translate(1.5 1.5)" fill="#100f0d"/><path d="M533.73,333.59a1.8,1.8,0,1,1-1.8-1.79,1.8,1.8,0,0,1,1.8,1.79" transform="translate(1.5 1.5)" fill="#100f0d"/><path d="M577.79,357.48a1.8,1.8,0,1,1-1.79-1.8,1.79,1.79,0,0,1,1.79,1.8" transform="translate(1.5 1.5)" fill="#100f0d"/><path d="M639.12,328a1.8,1.8,0,1,1-1.8-1.8,1.8,1.8,0,0,1,1.8,1.8" transform="translate(1.5 1.5)" fill="#100f0d"/><path d="M479.74,460.29a1.8,1.8,0,1,1-1.8-1.8,1.81,1.81,0,0,1,1.8,1.8" transform="translate(1.5 1.5)" fill="#100f0d"/><path d="M473.11,520.26a1.8,1.8,0,1,1-1.8-1.8,1.81,1.81,0,0,1,1.8,1.8" transform="translate(1.5 1.5)" fill="#100f0d"/><path d="M380.23,478.7a1.8,1.8,0,1,1-1.8-1.8,1.8,1.8,0,0,1,1.8,1.8" transform="translate(1.5 1.5)" fill="#100f0d"/><path d="M417.47,380.16a1.8,1.8,0,1,1-1.8-1.8,1.8,1.8,0,0,1,1.8,1.8" transform="translate(1.5 1.5)" fill="#100f0d"/><path d="M520.53,254.52a1.8,1.8,0,1,1-1.8-1.8,1.81,1.81,0,0,1,1.8,1.8" transform="translate(1.5 1.5)" fill="#100f0d"/><path d="M389.45,248.24a1.8,1.8,0,1,1-1.8-1.8,1.79,1.79,0,0,1,1.8,1.8" transform="translate(1.5 1.5)" fill="#100f0d"/><path d="M374.25,201.33a1.8,1.8,0,1,1-1.8-1.8,1.8,1.8,0,0,1,1.8,1.8" transform="translate(1.5 1.5)" fill="#100f0d"/><path d="M480.44,609.67a1.8,1.8,0,1,1-1.8-1.8,1.81,1.81,0,0,1,1.8,1.8" transform="translate(1.5 1.5)" fill="#100f0d"/><path d="M413,200.26a4.2,4.2,0,1,1-4.19-4.2,4.2,4.2,0,0,1,4.19,4.2" transform="translate(1.5 1.5)" fill="#100f0d"/><path d="M397.26,113.63a4.2,4.2,0,1,1-4.2-4.2,4.2,4.2,0,0,1,4.2,4.2" transform="translate(1.5 1.5)" fill="#100f0d"/><path d="M518.32,378.06a4.2,4.2,0,1,1-4.2-4.2,4.2,4.2,0,0,1,4.2,4.2" transform="translate(1.5 1.5)" fill="#100f0d"/><path d="M426.12,393.25a4.2,4.2,0,1,1-4.2-4.19,4.2,4.2,0,0,1,4.2,4.19" transform="translate(1.5 1.5)" fill="#100f0d"/><path d="M458.71,495.59a4.2,4.2,0,1,1-4.2-4.19,4.2,4.2,0,0,1,4.2,4.19" transform="translate(1.5 1.5)" fill="#100f0d"/><path d="M410.73,561a4.2,4.2,0,1,1-4.2-4.19,4.2,4.2,0,0,1,4.2,4.19" transform="translate(1.5 1.5)" fill="#100f0d"/><path d="M365.52,572a4.2,4.2,0,1,1-4.2-4.19,4.2,4.2,0,0,1,4.2,4.19" transform="translate(1.5 1.5)" fill="#100f0d"/><path d="M364.68,644.2a4.2,4.2,0,1,1-4.2-4.2,4.2,4.2,0,0,1,4.2,4.2" transform="translate(1.5 1.5)" fill="#100f0d"/><path d="M390.56,518.42a4.2,4.2,0,1,1-4.2-4.2,4.2,4.2,0,0,1,4.2,4.2" transform="translate(1.5 1.5)" fill="#100f0d"/><path d="M515,507a4.2,4.2,0,1,1-4.2-4.2A4.2,4.2,0,0,1,515,507" transform="translate(1.5 1.5)" fill="#100f0d"/><path d="M600.59,444.38a4.2,4.2,0,1,1-4.19-4.2,4.2,4.2,0,0,1,4.19,4.2" transform="translate(1.5 1.5)" fill="#100f0d"/><path d="M684.19,320.67a4.2,4.2,0,1,1-4.2-4.19,4.2,4.2,0,0,1,4.2,4.19" transform="translate(1.5 1.5)" fill="#100f0d"/><path d="M602.27,223.57a4.2,4.2,0,1,1-4.2-4.2,4.2,4.2,0,0,1,4.2,4.2" transform="translate(1.5 1.5)" fill="#100f0d"/><path d="M565.33,86.72a4.2,4.2,0,1,1-4.2-4.19,4.2,4.2,0,0,1,4.2,4.19" transform="translate(1.5 1.5)" fill="#100f0d"/><path d="M778.58,228.61a4.2,4.2,0,1,1-4.2-4.2,4.2,4.2,0,0,1,4.2,4.2" transform="translate(1.5 1.5)" fill="#100f0d"/><path d="M754.58,164a4.2,4.2,0,1,1-4.2-4.2,4.19,4.19,0,0,1,4.2,4.2" transform="translate(1.5 1.5)" fill="#100f0d"/><path d="M745.33,102a4.2,4.2,0,1,1-4.19-4.2,4.2,4.2,0,0,1,4.19,4.2" transform="translate(1.5 1.5)" fill="#100f0d"/><path d="M816.35,347a4.2,4.2,0,1,1-4.19-4.2,4.2,4.2,0,0,1,4.19,4.2" transform="translate(1.5 1.5)" fill="#100f0d"/><path d="M666,166a4.2,4.2,0,1,1-4.2-4.2A4.2,4.2,0,0,1,666,166" transform="translate(1.5 1.5)" fill="#100f0d"/><path d="M771,511.54a4.2,4.2,0,1,1-4.2-4.2,4.19,4.19,0,0,1,4.2,4.2" transform="translate(1.5 1.5)" fill="#100f0d"/><path d="M677,541.76a4.2,4.2,0,1,1-4.2-4.2,4.2,4.2,0,0,1,4.2,4.2" transform="translate(1.5 1.5)" fill="#100f0d"/><path d="M588.84,526.65a4.2,4.2,0,1,1-4.2-4.2,4.2,4.2,0,0,1,4.2,4.2" transform="translate(1.5 1.5)" fill="#100f0d"/><path d="M562.81,602.21a4.2,4.2,0,1,1-4.2-4.2,4.2,4.2,0,0,1,4.2,4.2" transform="translate(1.5 1.5)" fill="#100f0d"/><path d="M474.66,598a4.2,4.2,0,1,1-4.2-4.2,4.2,4.2,0,0,1,4.2,4.2" transform="translate(1.5 1.5)" fill="#100f0d"/><path d="M424.05,649.9a4.2,4.2,0,1,1-4.2-4.2,4.2,4.2,0,0,1,4.2,4.2" transform="translate(1.5 1.5)" fill="#100f0d"/><path d="M556.93,703.8a4.2,4.2,0,1,1-4.2-4.2,4.2,4.2,0,0,1,4.2,4.2" transform="translate(1.5 1.5)" fill="#100f0d"/><path d="M620.74,646.71a4.2,4.2,0,1,1-4.2-4.2,4.19,4.19,0,0,1,4.2,4.2" transform="translate(1.5 1.5)" fill="#100f0d"/><path d="M694.62,614a4.2,4.2,0,1,1-4.2-4.19,4.2,4.2,0,0,1,4.2,4.19" transform="translate(1.5 1.5)" fill="#100f0d"/><path d="M800.4,577a4.2,4.2,0,1,1-4.19-4.2,4.2,4.2,0,0,1,4.19,4.2" transform="translate(1.5 1.5)" fill="#100f0d"/><path d="M815.53,627.8a4.2,4.2,0,1,1-4.2-4.2,4.2,4.2,0,0,1,4.2,4.2" transform="translate(1.5 1.5)" fill="#100f0d"/><path d="M852.46,496.43a4.2,4.2,0,1,1-4.2-4.2,4.2,4.2,0,0,1,4.2,4.2" transform="translate(1.5 1.5)" fill="#100f0d"/><path d="M814.86,437.14a4.2,4.2,0,1,1-4.19-4.2,4.2,4.2,0,0,1,4.19,4.2" transform="translate(1.5 1.5)" fill="#100f0d"/><path d="M687.53,455.8a4.2,4.2,0,1,1-4.2-4.2,4.2,4.2,0,0,1,4.2,4.2" transform="translate(1.5 1.5)" fill="#100f0d"/><path d="M654.4,527.33a4.2,4.2,0,1,1-4.2-4.2,4.2,4.2,0,0,1,4.2,4.2" transform="translate(1.5 1.5)" fill="#100f0d"/><path d="M474.86,366.87a4.2,4.2,0,1,1-4.19-4.2,4.2,4.2,0,0,1,4.19,4.2" transform="translate(1.5 1.5)" fill="#100f0d"/><path d="M767.66,415.83a4.2,4.2,0,1,1-4.2-4.2,4.2,4.2,0,0,1,4.2,4.2" transform="translate(1.5 1.5)" fill="#100f0d"/><path d="M651,389.8a4.2,4.2,0,1,1-4.2-4.2,4.2,4.2,0,0,1,4.2,4.2" transform="translate(1.5 1.5)" fill="#100f0d"/><path d="M781.1,277.31a4.2,4.2,0,1,1-4.2-4.2,4.19,4.19,0,0,1,4.2,4.2" transform="translate(1.5 1.5)" fill="#100f0d"/><path d="M657.68,137.94a4.2,4.2,0,1,1-4.2-4.2,4.2,4.2,0,0,1,4.2,4.2" transform="translate(1.5 1.5)" fill="#100f0d"/><path d="M684.44,91.66a4.2,4.2,0,1,1-4.2-4.2,4.2,4.2,0,0,1,4.2,4.2" transform="translate(1.5 1.5)" fill="#100f0d"/><path d="M526.39,116.84a4.2,4.2,0,1,1-4.2-4.19,4.2,4.2,0,0,1,4.2,4.19" transform="translate(1.5 1.5)" fill="#100f0d"/><path d="M468.15,217.59a4.2,4.2,0,1,1-4.2-4.2,4.2,4.2,0,0,1,4.2,4.2" transform="translate(1.5 1.5)" fill="#100f0d"/><path d="M714.77,490.55a4.2,4.2,0,1,1-4.2-4.2,4.2,4.2,0,0,1,4.2,4.2" transform="translate(1.5 1.5)" fill="#100f0d"/><path d="M580.68,293.13a4.2,4.2,0,1,1-4.2-4.2,4.2,4.2,0,0,1,4.2,4.2" transform="translate(1.5 1.5)" fill="#100f0d"/><path d="M594.72,164.81a4.2,4.2,0,1,1-4.2-4.2,4.2,4.2,0,0,1,4.2,4.2" transform="translate(1.5 1.5)" fill="#100f0d"/><path d="M507.38,100.19a4.2,4.2,0,1,1-4.2-4.2,4.2,4.2,0,0,1,4.2,4.2" transform="translate(1.5 1.5)" fill="#100f0d"/><path d="M453.67,56.51a4.2,4.2,0,1,1-4.2-4.2,4.2,4.2,0,0,1,4.2,4.2" transform="translate(1.5 1.5)" fill="#100f0d"/><path d="M684.19,320.67l71.73-43.36,57.93,70.52L756.76,441l54.57,61.28" transform="translate(1.5 1.5)" fill="none" stroke="#100f0d" stroke-miterlimit="1.33" stroke-width="0.33"/><path d="M495.84,420.16,515,413.32,538.47,431l-19.31,48.69,57.93,28.55L556.94,603.9l152-79.76,55.41,76.4-63,68-141.89,5.88L688.75,614l25.19-73,76.4-5-39.46-42.81,58.77-55.41s-74.72-37.78-78.08-37.78-58.77,71.36-58.77,71.36l52.05,26-70.52,15.12-26-84.8,45.33-31.06L748.36,368s41.14-74.72,41.14-77.23-62.13,11.75-62.13,11.75l-30.22,37.78,74.72,5.87,49.53,16v52.05l-39.46-29.39-37.78,64.65-21-10.07L672,422.55l-22.67,46.18-55.41,34.42,54.57,25.19,69.69-6.72,23.5-52.05L622.43,398.21l-36.94,85.63-62.13,78.08L593,551l-1.68,73.88-47.85,32.74-84-42.83-37.77,36.11L476.35,640l31.9,44.49-68.84,10.08-28.55-5,111.66-38.62,30.23,50.38,57.08,14.27,50.38-67.17,94,21.83-18.47-64.64,58.77-26,26-74.72,27.71-6.72L782.78,441s11.76-26,9.24-26.87-109.14-42.82-112.5-42.82-33.58,18.47-33.58,18.47l.84-41.14S604,381.42,601.44,379.74s-41.14-26.87-41.14-26.87H524.2l-42.82,38.62L466.27,373s12.59-15.11,12.59-17.63-32.74-20.15-32.74-20.15l24.35-22.67" transform="translate(1.5 1.5)" fill="none" stroke="#100f0d" stroke-miterlimit="1.33" stroke-width="0.33"/><path d="M404.31,439.74l56.08-39.86-21-21L499,352l-29.38-81.44,73.88,7.56,57.09-53.73,90.67-41.14L750,245.41l-59.61.84,3.36,46.17,63.8,31.06,9.24,52.06L703,397.36l-76.4-9.23,42-34.42-45.33-66.33,94-15.95-11.76-42L651,228.61l17.63,28.55L596.4,274,593,324.32" transform="translate(1.5 1.5)" fill="none" stroke="#100f0d" stroke-miterlimit="1.33" stroke-width="0.33"/><path d="M413,200.26l51.61,18.28,73.88-45.34,83.95,20.15L662.72,122S656,62.38,651.81,62.38s-96.55,10.08-96.55,10.08l21.83,48.69L678.67,143,750,164l-15.12,55.41-68,3.36,24.35-54.57L724,174s6.72-64.64,3.36-64.64S661,164.81,661,164.81l-11.75,47-37.78-43.65,21-64.65L588.84,90.93l-9.23,47-32.75-7.55L536,90.93l-22.67,42.81s-51.21-1.68-53.73-1.68,21-47.85,21-47.85l14.27-47,52.89,7.56-16,36.1L503.21,62.38l67.16-4.2L614.87,75,593,81.69l-84,10.92,21,37.78L494,169l42-5,32.74,64.64,38.62-109.14,72.2-28.54L740,101l32.74,52.05,1.68,75.56-52,42,54.57,6.72-12.59,41.14-78.92,17.63-5.88,49.53L618.23,399,645.93,436l30.23-20.15" transform="translate(1.5 1.5)" fill="none" stroke="#100f0d" stroke-miterlimit="1.33" stroke-width="0.33"/><path d="M510.83,511.21l75.49,16.28,49.54,47.86L661,539.25l63,23.5,48.69-57.09L802.93,525l-21,49.54,47.85,3.35L811.32,627.4" transform="translate(1.5 1.5)" fill="none" stroke="#100f0d" stroke-miterlimit="1.33" stroke-width="0.33"/><path d="M386.36,518.42l53.88,25.86,41.14-13.43,10.07,37.78L481.38,593l51.21-7.56L551.9,640l56.25-30.22L599.75,645l36.94,5.88,12.6,50.37" transform="translate(1.5 1.5)" fill="none" stroke="#100f0d" stroke-miterlimit="1.33" stroke-width="0.33"/></svg>