<svg xmlns="http://www.w3.org/2000/svg" xmlns:xlink="http://www.w3.org/1999/xlink" viewBox="0 0 250.18 145.99"><defs><linearGradient id="a" x1="22.22" y1="209.23" x2="278.22" y2="64.23" gradientTransform="matrix(1, 0, 0, -1, 0, 170)" gradientUnits="userSpaceOnUse"><stop offset="0" stop-color="#ff5f5f"/><stop offset="1" stop-color="#5b8dfe"/></linearGradient><linearGradient id="b" x1="8.32" y1="184.69" x2="264.32" y2="39.69" xlink:href="#a"/><linearGradient id="c" x1="-1.96" y1="166.54" x2="254.04" y2="21.54" xlink:href="#a"/><linearGradient id="d" x1="-23.43" y1="128.64" x2="232.57" y2="-16.36" xlink:href="#a"/></defs><path d="M4.94,15.85a1.22,1.22,0,0,1-.87-.36,1.54,1.54,0,0,1-.44-1L3.17,10.6A1.79,1.79,0,0,1,3.6,9.16a1.69,1.69,0,0,1,1.34-.58,1.74,1.74,0,0,1,1.35.57,1.82,1.82,0,0,1,.43,1.45l-.46,3.91a1.59,1.59,0,0,1-.43,1A1.2,1.2,0,0,1,4.94,15.85Zm5.18,0a1.19,1.19,0,0,1-.87-.36,1.5,1.5,0,0,1-.44-1L8.35,10.6a1.82,1.82,0,0,1,.42-1.44,1.73,1.73,0,0,1,1.35-.58,1.72,1.72,0,0,1,1.34.57,1.79,1.79,0,0,1,.43,1.45l-.46,3.91a1.59,1.59,0,0,1-.43,1A1.18,1.18,0,0,1,10.12,15.85ZM16.56,25a1.64,1.64,0,0,1-1.86-1.86V10.65a1.66,1.66,0,0,1,1.86-1.87h8A1.23,1.23,0,0,1,26,10.16a1.24,1.24,0,0,1-1.4,1.41H18.1v3.79h6a1.25,1.25,0,0,1,1.42,1.41,1.25,1.25,0,0,1-1.42,1.4h-6v4h6.49A1.23,1.23,0,0,1,26,23.6a1.24,1.24,0,0,1-1.4,1.4Zm15.57.25a4.94,4.94,0,0,1-2.23-.48,3.92,3.92,0,0,1-1.53-1.31,3.19,3.19,0,0,1-.56-1.86,2.86,2.86,0,0,1,.64-2,3.78,3.78,0,0,1,2.09-1.05,19.62,19.62,0,0,1,3.84-.31h.83v-.39a1.86,1.86,0,0,0-.46-1.43A2.24,2.24,0,0,0,33.19,16a6.81,6.81,0,0,0-1.36.15,9.16,9.16,0,0,0-1.59.49,1.18,1.18,0,0,1-1.08,0,1.16,1.16,0,0,1-.57-.74,1.45,1.45,0,0,1,.08-1,1.33,1.33,0,0,1,.86-.73,10.66,10.66,0,0,1,2-.59,9.41,9.41,0,0,1,1.76-.17,5.63,5.63,0,0,1,3.91,1.18,4.78,4.78,0,0,1,1.28,3.67v5.11c0,1.18-.53,1.77-1.61,1.77s-1.63-.59-1.63-1.77V23.3a2.89,2.89,0,0,1-1.16,1.42A3.52,3.52,0,0,1,32.13,25.25Zm.78-2.32a2.22,2.22,0,0,0,1.64-.67,2.34,2.34,0,0,0,.66-1.72v-.46h-.8a7.06,7.06,0,0,0-2.51.31,1.09,1.09,0,0,0-.74,1.07,1.38,1.38,0,0,0,.45,1.06A1.88,1.88,0,0,0,32.91,22.93Zm13.71,2.32a6.79,6.79,0,0,1-3.21-.72,5,5,0,0,1-2.1-2.06,6.43,6.43,0,0,1-.74-3.15,6.33,6.33,0,0,1,.74-3.13,5,5,0,0,1,2.1-2,6.91,6.91,0,0,1,3.21-.7,7,7,0,0,1,1.53.17,5.62,5.62,0,0,1,1.58.59,1.22,1.22,0,0,1,.71.77,1.47,1.47,0,0,1-.06,1,1.32,1.32,0,0,1-.62.71,1.07,1.07,0,0,1-1-.09A3.85,3.85,0,0,0,47,16.12a2.68,2.68,0,0,0-2.11.84,3.45,3.45,0,0,0-.75,2.38,3.5,3.5,0,0,0,.75,2.38,2.62,2.62,0,0,0,2.11.86,3.94,3.94,0,0,0,.87-.1,3.51,3.51,0,0,0,.92-.36,1,1,0,0,1,1-.06,1.21,1.21,0,0,1,.59.7,1.72,1.72,0,0,1,0,1,1.25,1.25,0,0,1-.69.78,6.51,6.51,0,0,1-1.56.56A6.7,6.7,0,0,1,46.62,25.25Zm7.25,0a1.55,1.55,0,0,1-1.75-1.77V10.35a1.74,1.74,0,1,1,3.47,0v4.9a3.78,3.78,0,0,1,1.54-1.32,4.81,4.81,0,0,1,2.09-.45c2.66,0,4,1.58,4,4.74v5.22a1.55,1.55,0,0,1-1.74,1.77,1.73,1.73,0,0,1-1.28-.46,1.81,1.81,0,0,1-.45-1.31V18.38a2.59,2.59,0,0,0-.44-1.69A1.57,1.57,0,0,0,58,16.17a2.3,2.3,0,0,0-1.76.69,2.55,2.55,0,0,0-.66,1.84v4.74A1.55,1.55,0,0,1,53.87,25.21Zm22.74,0A4.69,4.69,0,0,1,74,24.53a4.79,4.79,0,0,1-1.73-2.05,7.24,7.24,0,0,1-.62-3.14,7.19,7.19,0,0,1,.62-3.13,4.77,4.77,0,0,1,1.73-2,4.69,4.69,0,0,1,2.59-.71,4.5,4.5,0,0,1,2.07.48,3.4,3.4,0,0,1,1.43,1.29v-4.9a1.74,1.74,0,1,1,3.47,0V23.44a1.73,1.73,0,1,1-3.45,0v-.07a3.35,3.35,0,0,1-1.41,1.38A4.53,4.53,0,0,1,76.61,25.25Zm1-2.6a2.27,2.27,0,0,0,1.8-.8,3.74,3.74,0,0,0,.7-2.51,3.64,3.64,0,0,0-.7-2.47,2.29,2.29,0,0,0-1.8-.79,2.27,2.27,0,0,0-1.8.79,3.7,3.7,0,0,0-.69,2.47,3.8,3.8,0,0,0,.69,2.51A2.24,2.24,0,0,0,77.65,22.65ZM88,25.21a1.57,1.57,0,0,1-1.79-1.77V15.27a1.7,1.7,0,1,1,3.4,0v.41a3.57,3.57,0,0,1,3.43-2.2,1.05,1.05,0,0,1,.89.28,1.75,1.75,0,0,1,.33,1.1,1.39,1.39,0,0,1-1.4,1.63l-.53.05c-1.72.16-2.58,1-2.58,2.62v4.28A1.55,1.55,0,0,1,88,25.21Zm13.55,0a7.63,7.63,0,0,1-3.44-.72,5.22,5.22,0,0,1-2.21-2.05,6.12,6.12,0,0,1-.77-3.12,6.15,6.15,0,0,1,.75-3.07,5.43,5.43,0,0,1,2-2.07,6,6,0,0,1,3-.74A5.08,5.08,0,0,1,104.88,15a5.88,5.88,0,0,1,1.45,4.2q0,.87-1.08.87H98.49a2.77,2.77,0,0,0,1,1.94,3.51,3.51,0,0,0,2.2.61,7.48,7.48,0,0,0,1.25-.12,5.36,5.36,0,0,0,1.35-.45,1.34,1.34,0,0,1,1.13-.13,1.14,1.14,0,0,1,.63.66,1.41,1.41,0,0,1,0,.95,1.55,1.55,0,0,1-.77.82,6.67,6.67,0,0,1-1.79.65A8.28,8.28,0,0,1,101.59,25.25Zm-.48-9.47a2.47,2.47,0,0,0-1.79.66,3.1,3.1,0,0,0-.83,1.87h5C103.36,16.62,102.58,15.78,101.11,15.78Zm11.06,9.47a4.94,4.94,0,0,1-2.23-.48,4,4,0,0,1-1.53-1.31,3.19,3.19,0,0,1-.56-1.86,2.86,2.86,0,0,1,.64-2,3.78,3.78,0,0,1,2.09-1.05,19.62,19.62,0,0,1,3.84-.31h.83v-.39a1.86,1.86,0,0,0-.46-1.43,2.24,2.24,0,0,0-1.56-.43,6.81,6.81,0,0,0-1.36.15,9.16,9.16,0,0,0-1.59.49,1.18,1.18,0,0,1-1.08,0,1.16,1.16,0,0,1-.57-.74,1.45,1.45,0,0,1,.08-1,1.33,1.33,0,0,1,.86-.73,10.66,10.66,0,0,1,2-.59,9.41,9.41,0,0,1,1.76-.17,5.63,5.63,0,0,1,3.91,1.18,4.78,4.78,0,0,1,1.28,3.67v5.11c0,1.18-.53,1.77-1.61,1.77s-1.63-.59-1.63-1.77V23.3a2.89,2.89,0,0,1-1.16,1.42A3.52,3.52,0,0,1,112.17,25.25Zm.78-2.32a2.18,2.18,0,0,0,1.63-.67,2.31,2.31,0,0,0,.67-1.72v-.46h-.8a7.06,7.06,0,0,0-2.51.31,1.09,1.09,0,0,0-.74,1.07,1.38,1.38,0,0,0,.45,1.06A1.88,1.88,0,0,0,113,22.93Zm10,2.28a1.55,1.55,0,0,1-1.75-1.77V15.27a1.7,1.7,0,1,1,3.4,0v.07A3.66,3.66,0,0,1,126,14a4.16,4.16,0,0,1,2.06-.49,3.69,3.69,0,0,1,2,.53,3.33,3.33,0,0,1,1.28,1.61A3.8,3.8,0,0,1,132.9,14a4.41,4.41,0,0,1,2.22-.56A3.48,3.48,0,0,1,138,14.64a5.61,5.61,0,0,1,.94,3.58v5.22a1.81,1.81,0,0,1-.45,1.31,1.72,1.72,0,0,1-1.27.46,1.55,1.55,0,0,1-1.75-1.77V18.33a2.91,2.91,0,0,0-.36-1.64,1.35,1.35,0,0,0-1.21-.52,1.88,1.88,0,0,0-1.54.69,3.1,3.1,0,0,0-.55,1.95v4.63a1.54,1.54,0,0,1-1.72,1.77,1.6,1.6,0,0,1-1.75-1.77V18.33a2.82,2.82,0,0,0-.37-1.64,1.35,1.35,0,0,0-1.2-.52,1.88,1.88,0,0,0-1.54.69,3.1,3.1,0,0,0-.55,1.95v4.63A1.54,1.54,0,0,1,123,25.21Zm30.61,0q-4.75,0-4.76-4.62V16.31h-1q-1.35,0-1.35-1.29a1.17,1.17,0,0,1,1.35-1.31h1V12a1.74,1.74,0,1,1,3.47,0v1.75h2.19A1.16,1.16,0,0,1,155.8,15a1.16,1.16,0,0,1-1.33,1.29h-2.19v4.18a2,2,0,0,0,.45,1.45,1.89,1.89,0,0,0,1.44.48,2.62,2.62,0,0,0,.64-.07l.55-.09a.64.64,0,0,1,.53.21,1.47,1.47,0,0,1,.21.94,2.38,2.38,0,0,1-.18,1,1.18,1.18,0,0,1-.65.59,4.43,4.43,0,0,1-.81.19A5.21,5.21,0,0,1,153.57,25.25Zm5.5,0a1.55,1.55,0,0,1-1.75-1.77V10.35a1.74,1.74,0,1,1,3.47,0v4.9a3.78,3.78,0,0,1,1.54-1.32,4.82,4.82,0,0,1,2.1-.45q4,0,4,4.74v5.22a1.55,1.55,0,0,1-1.74,1.77,1.73,1.73,0,0,1-1.28-.46,1.81,1.81,0,0,1-.45-1.31V18.38a2.54,2.54,0,0,0-.44-1.69,1.57,1.57,0,0,0-1.28-.52,2.3,2.3,0,0,0-1.76.69,2.55,2.55,0,0,0-.66,1.84v4.74A1.54,1.54,0,0,1,159.07,25.21Zm15.75,0a4.94,4.94,0,0,1-2.23-.48,4,4,0,0,1-1.53-1.31,3.26,3.26,0,0,1-.56-1.86,2.86,2.86,0,0,1,.64-2,3.78,3.78,0,0,1,2.09-1.05,19.67,19.67,0,0,1,3.85-.31h.82v-.39a1.86,1.86,0,0,0-.46-1.43,2.22,2.22,0,0,0-1.56-.43,6.89,6.89,0,0,0-1.36.15,8.82,8.82,0,0,0-1.58.49,1.2,1.2,0,0,1-1.09,0,1.16,1.16,0,0,1-.57-.74,1.45,1.45,0,0,1,.08-1,1.36,1.36,0,0,1,.86-.73,10.66,10.66,0,0,1,2-.59,9.41,9.41,0,0,1,1.76-.17,5.61,5.61,0,0,1,3.91,1.18,4.75,4.75,0,0,1,1.29,3.67v5.11c0,1.18-.54,1.77-1.61,1.77S178,24.62,178,23.44V23.3a2.84,2.84,0,0,1-1.16,1.42A3.52,3.52,0,0,1,174.82,25.25Zm.78-2.32a2.22,2.22,0,0,0,1.64-.67,2.34,2.34,0,0,0,.66-1.72v-.46h-.8a7.06,7.06,0,0,0-2.51.31,1.08,1.08,0,0,0-.73,1.07,1.41,1.41,0,0,0,.44,1.06A1.89,1.89,0,0,0,175.6,22.93Zm13.76,2.32c-3.18,0-4.76-1.54-4.76-4.62V16.31h-1c-.9,0-1.36-.43-1.36-1.29s.46-1.31,1.36-1.31h1V12a1.74,1.74,0,1,1,3.47,0v1.75h2.18A1.17,1.17,0,0,1,191.59,15c0,.86-.45,1.29-1.34,1.29h-2.18v4.18a2,2,0,0,0,.45,1.45,1.89,1.89,0,0,0,1.44.48,2.62,2.62,0,0,0,.64-.07l.55-.09a.64.64,0,0,1,.53.21,1.47,1.47,0,0,1,.21.94,2.23,2.23,0,0,1-.19,1,1.13,1.13,0,0,1-.64.59,4.37,4.37,0,0,1-.82.19A5.1,5.1,0,0,1,189.36,25.25Zm13.25,4.1a1.36,1.36,0,0,1-1.3-.68,1.64,1.64,0,0,1,0-1.58l1.22-2.71-3.75-8.6a1.78,1.78,0,0,1,0-1.58,2,2,0,0,1,2.53-.39,2.47,2.47,0,0,1,.7,1.09l2.35,6,2.44-6a2.37,2.37,0,0,1,.72-1.07,1.85,1.85,0,0,1,1.09-.29,1.29,1.29,0,0,1,1.24.68,1.73,1.73,0,0,1,0,1.55L204.45,28a2.38,2.38,0,0,1-.77,1.06A2,2,0,0,1,202.61,29.35Zm14.6-4.1a6.61,6.61,0,0,1-3.16-.72A5.07,5.07,0,0,1,212,22.48a6.37,6.37,0,0,1-.74-3.14,6.3,6.3,0,0,1,.74-3.11,5,5,0,0,1,2.08-2,7.39,7.39,0,0,1,6.32,0,5.1,5.1,0,0,1,2.1,2,6.3,6.3,0,0,1,.74,3.11,6.37,6.37,0,0,1-.74,3.14,5.18,5.18,0,0,1-2.1,2.05A6.58,6.58,0,0,1,217.21,25.25Zm0-2.6a2.28,2.28,0,0,0,1.81-.8,3.8,3.8,0,0,0,.7-2.51,3.7,3.7,0,0,0-.7-2.47,2.3,2.3,0,0,0-1.81-.79,2.25,2.25,0,0,0-1.79.79,3.7,3.7,0,0,0-.69,2.47,3.8,3.8,0,0,0,.69,2.51A2.22,2.22,0,0,0,217.21,22.65Zm12.28,2.6a4,4,0,0,1-3.18-1.19,5.43,5.43,0,0,1-1-3.59v-5.2a1.74,1.74,0,1,1,3.48,0v5.29c0,1.33.57,2,1.72,2a2.07,2.07,0,0,0,1.62-.7,2.62,2.62,0,0,0,.64-1.85V15.27a1.74,1.74,0,1,1,3.47,0v8.17q0,1.77-1.68,1.77a1.72,1.72,0,0,1-1.27-.46,1.81,1.81,0,0,1-.43-1.29A3.71,3.71,0,0,1,229.49,25.25Z" transform="translate(-2.34 -8.58)" fill="url(#a)"/><path d="M7.41,55.25q-4.08,0-4.08-4.53V40.35a1.56,1.56,0,0,1,1.75-1.77,1.55,1.55,0,0,1,1.73,1.77V50.58a2.05,2.05,0,0,0,.4,1.4,1.39,1.39,0,0,0,1.07.44,2.17,2.17,0,0,0,.36,0l.33,0a.51.51,0,0,1,.52.23,2.31,2.31,0,0,1,.15,1c0,.89-.38,1.4-1.13,1.52L8,55.22Zm9.45,0a7.6,7.6,0,0,1-3.44-.72,5.22,5.22,0,0,1-2.21-2.05,6.68,6.68,0,0,1,0-6.19,5.43,5.43,0,0,1,2.05-2.07,6,6,0,0,1,3-.74A5.08,5.08,0,0,1,20.15,45a5.92,5.92,0,0,1,1.45,4.2q0,.87-1.08.87H13.75a2.81,2.81,0,0,0,1,1.94,3.51,3.51,0,0,0,2.2.61,7.48,7.48,0,0,0,1.25-.12,5.36,5.36,0,0,0,1.35-.45A1.32,1.32,0,0,1,20.65,52a1.13,1.13,0,0,1,.64.66,1.41,1.41,0,0,1,0,1,1.59,1.59,0,0,1-.77.82,6.8,6.8,0,0,1-1.79.65A8.28,8.28,0,0,1,16.86,55.25Zm-.48-9.47a2.46,2.46,0,0,0-1.79.66,3.16,3.16,0,0,0-.84,1.87h5C18.63,46.62,17.85,45.78,16.38,45.78Zm11.06,9.47a4.92,4.92,0,0,1-2.23-.48,3.85,3.85,0,0,1-1.53-1.31,3.2,3.2,0,0,1-.57-1.86,2.86,2.86,0,0,1,.65-2,3.78,3.78,0,0,1,2.09-1,19.62,19.62,0,0,1,3.84-.31h.83v-.39a1.86,1.86,0,0,0-.46-1.43A2.26,2.26,0,0,0,28.5,46a6.81,6.81,0,0,0-1.36.15,9.16,9.16,0,0,0-1.59.49,1.18,1.18,0,0,1-1.08,0A1.16,1.16,0,0,1,23.9,46,1.4,1.4,0,0,1,24,45a1.33,1.33,0,0,1,.86-.73,10.79,10.79,0,0,1,2-.59,9.57,9.57,0,0,1,1.76-.17,5.59,5.59,0,0,1,3.91,1.18,4.75,4.75,0,0,1,1.29,3.67v5.11c0,1.18-.53,1.77-1.61,1.77s-1.63-.59-1.63-1.77V53.3a2.89,2.89,0,0,1-1.16,1.42A3.54,3.54,0,0,1,27.44,55.25Zm.78-2.32a2.2,2.2,0,0,0,1.63-.67,2.31,2.31,0,0,0,.67-1.72v-.46h-.8a7,7,0,0,0-2.51.31,1.09,1.09,0,0,0-.74,1.07,1.38,1.38,0,0,0,.45,1.06A1.88,1.88,0,0,0,28.22,52.93Zm13,2.28a2.07,2.07,0,0,1-2-1.43l-3.48-8a1.76,1.76,0,0,1,0-1.58,1.58,1.58,0,0,1,1.52-.68,1.68,1.68,0,0,1,1,.29A2.38,2.38,0,0,1,39,44.9l2.37,6,2.44-6a2.45,2.45,0,0,1,.71-1.07,1.8,1.8,0,0,1,1.08-.29,1.3,1.3,0,0,1,1.24.68,1.64,1.64,0,0,1,0,1.55l-3.54,8A2.06,2.06,0,0,1,41.22,55.21Zm13.36,0a7.6,7.6,0,0,1-3.44-.72,5.22,5.22,0,0,1-2.21-2.05,6.68,6.68,0,0,1,0-6.19A5.43,5.43,0,0,1,51,44.22a6,6,0,0,1,3-.74A5.08,5.08,0,0,1,57.87,45a5.92,5.92,0,0,1,1.45,4.2q0,.87-1.08.87H51.47a2.81,2.81,0,0,0,1,1.94,3.51,3.51,0,0,0,2.2.61,7.58,7.58,0,0,0,1.25-.12,5.36,5.36,0,0,0,1.35-.45A1.32,1.32,0,0,1,58.37,52a1.13,1.13,0,0,1,.64.66,1.41,1.41,0,0,1,0,1,1.59,1.59,0,0,1-.77.82,6.8,6.8,0,0,1-1.79.65A8.28,8.28,0,0,1,54.58,55.25Zm-.49-9.47a2.45,2.45,0,0,0-1.78.66,3.16,3.16,0,0,0-.84,1.87h5C56.35,46.62,55.57,45.78,54.09,45.78Zm20.64,9.47a4.48,4.48,0,0,1-2.12-.5,3.53,3.53,0,0,1-1.43-1.38v.07c0,1.18-.56,1.77-1.7,1.77a1.54,1.54,0,0,1-1.72-1.77V40.35a1.74,1.74,0,1,1,3.47,0v4.87A3.57,3.57,0,0,1,72.67,44a4.4,4.4,0,0,1,2.06-.47,4.63,4.63,0,0,1,2.58.71,4.72,4.72,0,0,1,1.74,2,8.24,8.24,0,0,1,0,6.27,4.75,4.75,0,0,1-1.74,2.05A4.63,4.63,0,0,1,74.73,55.25Zm-1-2.6a2.24,2.24,0,0,0,1.8-.8,3.86,3.86,0,0,0,.68-2.51,3.76,3.76,0,0,0-.68-2.47,2.27,2.27,0,0,0-1.8-.79,2.29,2.29,0,0,0-1.82.79,3.7,3.7,0,0,0-.69,2.47,3.8,3.8,0,0,0,.69,2.51A2.27,2.27,0,0,0,73.69,52.65Zm14,2.6a7.63,7.63,0,0,1-3.44-.72A5.2,5.2,0,0,1,82,52.48a6,6,0,0,1-.78-3.12A6.15,6.15,0,0,1,82,46.29a5.43,5.43,0,0,1,2-2.07,6,6,0,0,1,3-.74A5.08,5.08,0,0,1,90.94,45a5.88,5.88,0,0,1,1.45,4.2q0,.87-1.08.87H84.55a2.81,2.81,0,0,0,1,1.94,3.53,3.53,0,0,0,2.2.61A7.39,7.39,0,0,0,89,52.53a5.36,5.36,0,0,0,1.35-.45A1.34,1.34,0,0,1,91.45,52a1.14,1.14,0,0,1,.63.66,1.41,1.41,0,0,1,0,1,1.55,1.55,0,0,1-.77.82,6.73,6.73,0,0,1-1.78.65A8.43,8.43,0,0,1,87.65,55.25Zm-.48-9.47a2.43,2.43,0,0,0-1.78.66,3,3,0,0,0-.84,1.87h5C89.42,46.62,88.64,45.78,87.17,45.78Zm9,9.43a1.56,1.56,0,0,1-1.75-1.77V40.35a1.74,1.74,0,1,1,3.48,0v4.9a3.78,3.78,0,0,1,1.54-1.32,4.78,4.78,0,0,1,2.09-.45q4,0,4,4.74v5.22a1.55,1.55,0,0,1-1.75,1.77,1.7,1.7,0,0,1-1.27-.46,1.81,1.81,0,0,1-.45-1.31V48.38a2.59,2.59,0,0,0-.44-1.69,1.58,1.58,0,0,0-1.29-.52,2.33,2.33,0,0,0-1.76.69,2.58,2.58,0,0,0-.65,1.84v4.74A1.55,1.55,0,0,1,96.16,55.21Zm13.69-13.57a2.21,2.21,0,0,1-1.49-.45,1.89,1.89,0,0,1,0-2.58,2.21,2.21,0,0,1,1.49-.45c1.32,0,2,.59,2,1.75S111.17,41.64,109.85,41.64Zm0,13.54a1.66,1.66,0,0,1-1.3-.49,2,2,0,0,1-.45-1.39V45.43c0-1.27.58-1.91,1.75-1.91a1.63,1.63,0,0,1,1.27.5,2,2,0,0,1,.45,1.41V53.3a2,2,0,0,1-.44,1.39A1.62,1.62,0,0,1,109.85,55.18Zm6.16,0a1.56,1.56,0,0,1-1.75-1.77V45.27a1.71,1.71,0,1,1,3.41,0v.09a3.72,3.72,0,0,1,1.54-1.4,4.76,4.76,0,0,1,2.16-.48,3.7,3.7,0,0,1,3,1.16,5.41,5.41,0,0,1,1,3.58v5.22a1.55,1.55,0,0,1-1.75,1.77,1.74,1.74,0,0,1-1.28-.46,1.85,1.85,0,0,1-.44-1.31V48.38a2.59,2.59,0,0,0-.44-1.69,1.58,1.58,0,0,0-1.29-.52,2.33,2.33,0,0,0-1.76.69,2.54,2.54,0,0,0-.65,1.84v4.74A1.55,1.55,0,0,1,116,55.21Zm16.33,0a4.69,4.69,0,0,1-2.59-.72A4.79,4.79,0,0,1,128,52.48a8.24,8.24,0,0,1,0-6.27,4.77,4.77,0,0,1,1.73-2,4.69,4.69,0,0,1,2.59-.71,4.5,4.5,0,0,1,2.07.48,3.46,3.46,0,0,1,1.43,1.29v-4.9a1.74,1.74,0,1,1,3.47,0V53.44a1.73,1.73,0,1,1-3.45,0v-.07a3.35,3.35,0,0,1-1.41,1.38A4.53,4.53,0,0,1,132.34,55.25Zm1-2.6a2.27,2.27,0,0,0,1.8-.8,3.74,3.74,0,0,0,.7-2.51,3.64,3.64,0,0,0-.7-2.47,2.29,2.29,0,0,0-1.8-.79,2.27,2.27,0,0,0-1.8.79,3.7,3.7,0,0,0-.69,2.47,3.8,3.8,0,0,0,.69,2.51A2.24,2.24,0,0,0,133.38,52.65Zm16.76-11a2.18,2.18,0,0,1-1.48-.45,1.86,1.86,0,0,1,0-2.58,2.18,2.18,0,0,1,1.48-.45c1.32,0,2,.59,2,1.75S151.46,41.64,150.14,41.64Zm0,13.54a1.67,1.67,0,0,1-1.3-.49,2,2,0,0,1-.44-1.39V45.43c0-1.27.58-1.91,1.74-1.91a1.63,1.63,0,0,1,1.28.5,2,2,0,0,1,.45,1.41V53.3a2,2,0,0,1-.44,1.39A1.62,1.62,0,0,1,150.14,55.18Zm8.74.07a12.53,12.53,0,0,1-2.08-.18,6.89,6.89,0,0,1-1.94-.62,1.45,1.45,0,0,1-.75-.76,1.27,1.27,0,0,1,0-.9,1.18,1.18,0,0,1,.57-.65,1.07,1.07,0,0,1,1,0,9.82,9.82,0,0,0,1.74.55,7.51,7.51,0,0,0,1.53.16,2.53,2.53,0,0,0,1.42-.31.94.94,0,0,0,.46-.82c0-.53-.39-.87-1.17-1l-2.42-.44a3.85,3.85,0,0,1-2.2-1,2.79,2.79,0,0,1-.76-2,3.15,3.15,0,0,1,.64-2,4.14,4.14,0,0,1,1.77-1.28,6.78,6.78,0,0,1,2.6-.46,7.93,7.93,0,0,1,3.59.78,1.13,1.13,0,0,1,.65.71,1.32,1.32,0,0,1-.05.9,1.27,1.27,0,0,1-.6.65,1.09,1.09,0,0,1-1,0,8,8,0,0,0-1.38-.49,5,5,0,0,0-1.17-.15,2.64,2.64,0,0,0-1.5.33,1,1,0,0,0-.46.84c0,.54.36.87,1.08,1l2.42.44a4.3,4.3,0,0,1,2.28,1,2.69,2.69,0,0,1,.78,2,3.2,3.2,0,0,1-1.38,2.76A6.1,6.1,0,0,1,158.88,55.25Zm17.23,0a4.94,4.94,0,0,1-2.23-.48,4,4,0,0,1-1.53-1.31,3.19,3.19,0,0,1-.56-1.86,2.86,2.86,0,0,1,.64-2,3.78,3.78,0,0,1,2.09-1,19.62,19.62,0,0,1,3.84-.31h.83v-.39a1.86,1.86,0,0,0-.46-1.43,2.24,2.24,0,0,0-1.56-.43,6.81,6.81,0,0,0-1.36.15,9.16,9.16,0,0,0-1.59.49,1.18,1.18,0,0,1-1.08,0,1.16,1.16,0,0,1-.57-.74,1.45,1.45,0,0,1,.08-1,1.33,1.33,0,0,1,.86-.73,10.66,10.66,0,0,1,2-.59,9.41,9.41,0,0,1,1.76-.17,5.63,5.63,0,0,1,3.91,1.18,4.78,4.78,0,0,1,1.28,3.67v5.11c0,1.18-.53,1.77-1.61,1.77s-1.63-.59-1.63-1.77V53.3a2.89,2.89,0,0,1-1.16,1.42A3.52,3.52,0,0,1,176.11,55.25Zm.78-2.32a2.22,2.22,0,0,0,1.64-.67,2.34,2.34,0,0,0,.66-1.72v-.46h-.8a7.06,7.06,0,0,0-2.51.31,1.09,1.09,0,0,0-.74,1.07,1.38,1.38,0,0,0,.45,1.06A1.88,1.88,0,0,0,176.89,52.93Zm16.38,6.42a1.55,1.55,0,0,1-1.75-1.77V45.27a1.72,1.72,0,1,1,3.43,0v.07A3.46,3.46,0,0,1,196.37,44a4.51,4.51,0,0,1,2.12-.5,4.69,4.69,0,0,1,2.59.71,4.77,4.77,0,0,1,1.73,2,8.24,8.24,0,0,1,0,6.27,4.79,4.79,0,0,1-1.73,2.05,4.69,4.69,0,0,1-2.59.72,4.43,4.43,0,0,1-2.06-.48A3.62,3.62,0,0,1,195,53.48v4.1A1.54,1.54,0,0,1,193.27,59.35Zm4.18-6.7a2.24,2.24,0,0,0,1.8-.8,3.8,3.8,0,0,0,.69-2.51,3.7,3.7,0,0,0-.69-2.47,2.46,2.46,0,0,0-3.61,0,3.7,3.7,0,0,0-.69,2.47,3.8,3.8,0,0,0,.69,2.51A2.25,2.25,0,0,0,197.45,52.65Zm11.92,2.6a4.92,4.92,0,0,1-2.23-.48,3.85,3.85,0,0,1-1.53-1.31A3.2,3.2,0,0,1,205,51.6a2.86,2.86,0,0,1,.65-2,3.78,3.78,0,0,1,2.09-1,19.62,19.62,0,0,1,3.84-.31h.83v-.39a1.86,1.86,0,0,0-.46-1.43,2.26,2.26,0,0,0-1.56-.43,6.81,6.81,0,0,0-1.36.15,9.16,9.16,0,0,0-1.59.49,1.18,1.18,0,0,1-1.08,0,1.16,1.16,0,0,1-.57-.74,1.4,1.4,0,0,1,.08-1,1.33,1.33,0,0,1,.86-.73,10.79,10.79,0,0,1,2-.59,9.57,9.57,0,0,1,1.76-.17,5.59,5.59,0,0,1,3.91,1.18,4.75,4.75,0,0,1,1.29,3.67v5.11c0,1.18-.53,1.77-1.61,1.77s-1.63-.59-1.63-1.77V53.3a2.89,2.89,0,0,1-1.16,1.42A3.54,3.54,0,0,1,209.37,55.25Zm.78-2.32a2.2,2.2,0,0,0,1.63-.67,2.31,2.31,0,0,0,.67-1.72v-.46h-.8a7,7,0,0,0-2.51.31,1.09,1.09,0,0,0-.74,1.07,1.38,1.38,0,0,0,.45,1.06A1.88,1.88,0,0,0,210.15,52.93Zm10,2.28a1.58,1.58,0,0,1-1.8-1.77V45.27a1.71,1.71,0,1,1,3.41,0v.41a3.56,3.56,0,0,1,3.42-2.2,1,1,0,0,1,.89.28,1.69,1.69,0,0,1,.33,1.1,1.53,1.53,0,0,1-.29,1.12,1.57,1.57,0,0,1-1.11.51l-.53,0c-1.72.16-2.58,1-2.58,2.62v4.28A1.55,1.55,0,0,1,220.16,55.21Zm13.22,0q-4.75,0-4.76-4.62V46.31h-1q-1.35,0-1.35-1.29a1.17,1.17,0,0,1,1.35-1.31h1V42a1.74,1.74,0,1,1,3.47,0v1.75h2.19a1.3,1.3,0,1,1,0,2.6h-2.19v4.18a2,2,0,0,0,.45,1.45,1.89,1.89,0,0,0,1.44.48,2.62,2.62,0,0,0,.64-.07l.55-.09a.63.63,0,0,1,.53.21,1.47,1.47,0,0,1,.21.94,2.38,2.38,0,0,1-.18,1,1.18,1.18,0,0,1-.65.59,4.43,4.43,0,0,1-.81.19A5.21,5.21,0,0,1,233.38,55.25Z" transform="translate(-2.34 -8.58)" fill="url(#b)"/><path d="M8.76,85.25a6.61,6.61,0,0,1-3.16-.72,5.07,5.07,0,0,1-2.08-2,6.37,6.37,0,0,1-.74-3.14,6.3,6.3,0,0,1,.74-3.11,5,5,0,0,1,2.08-2,6.61,6.61,0,0,1,3.16-.71,6.58,6.58,0,0,1,3.16.71,5.1,5.1,0,0,1,2.1,2,6.2,6.2,0,0,1,.75,3.11A6.37,6.37,0,0,1,14,82.48a5.18,5.18,0,0,1-2.1,2A6.58,6.58,0,0,1,8.76,85.25Zm0-2.6a2.28,2.28,0,0,0,1.81-.8,3.74,3.74,0,0,0,.7-2.51,3.64,3.64,0,0,0-.7-2.47,2.3,2.3,0,0,0-1.81-.79A2.26,2.26,0,0,0,7,76.87a3.7,3.7,0,0,0-.69,2.47A3.8,3.8,0,0,0,7,81.85,2.24,2.24,0,0,0,8.76,82.65ZM19.5,85.21a1.77,1.77,0,0,1-1.3-.46,1.81,1.81,0,0,1-.45-1.31V76.31h-.82c-.91,0-1.36-.43-1.36-1.29s.45-1.31,1.36-1.31h.82A4.85,4.85,0,0,1,19,70.18a5.85,5.85,0,0,1,3.58-1.42l.73-.07a1.36,1.36,0,0,1,1.12.29,1.3,1.3,0,0,1,.39.86,1.43,1.43,0,0,1-.23.91,1,1,0,0,1-.77.45l-.32,0a2.86,2.86,0,0,0-1.77.59,1.94,1.94,0,0,0-.53,1.51v.39h1.63c.91,0,1.36.43,1.36,1.31s-.45,1.29-1.36,1.29H21.23v7.13A1.55,1.55,0,0,1,19.5,85.21Zm15.67,4.14a1.36,1.36,0,0,1-1.3-.68,1.64,1.64,0,0,1,0-1.58l1.22-2.71-3.75-8.6a1.78,1.78,0,0,1,0-1.58,2,2,0,0,1,2.53-.39,2.47,2.47,0,0,1,.7,1.09l2.35,6,2.44-6a2.37,2.37,0,0,1,.72-1.07,1.89,1.89,0,0,1,1.1-.29,1.28,1.28,0,0,1,1.23.68,1.73,1.73,0,0,1,0,1.55L37,88a2.38,2.38,0,0,1-.77,1.06A1.89,1.89,0,0,1,35.17,89.35Zm14.6-4.1a6.61,6.61,0,0,1-3.16-.72,5.07,5.07,0,0,1-2.08-2,6.37,6.37,0,0,1-.74-3.14,6.3,6.3,0,0,1,.74-3.11,5,5,0,0,1,2.08-2,7.39,7.39,0,0,1,6.32,0,5.1,5.1,0,0,1,2.1,2,6.3,6.3,0,0,1,.74,3.11A6.37,6.37,0,0,1,55,82.48a5.18,5.18,0,0,1-2.1,2A6.58,6.58,0,0,1,49.77,85.25Zm0-2.6a2.28,2.28,0,0,0,1.81-.8,3.8,3.8,0,0,0,.7-2.51,3.7,3.7,0,0,0-.7-2.47,2.3,2.3,0,0,0-1.81-.79,2.25,2.25,0,0,0-1.79.79,3.7,3.7,0,0,0-.69,2.47A3.8,3.8,0,0,0,48,81.85,2.22,2.22,0,0,0,49.77,82.65Zm12.28,2.6a4,4,0,0,1-3.18-1.19,5.43,5.43,0,0,1-1-3.59v-5.2a1.74,1.74,0,1,1,3.48,0v5.29c0,1.33.57,2,1.72,2a2.07,2.07,0,0,0,1.62-.7A2.62,2.62,0,0,0,65.3,80V75.27a1.74,1.74,0,1,1,3.47,0v8.17q0,1.77-1.68,1.77a1.72,1.72,0,0,1-1.27-.46,1.81,1.81,0,0,1-.43-1.29A3.69,3.69,0,0,1,62.05,85.25Zm11.2,0a1.57,1.57,0,0,1-1.79-1.77V75.27a1.7,1.7,0,1,1,3.4,0v.41a3.58,3.58,0,0,1,3.43-2.2,1.05,1.05,0,0,1,.89.28,1.75,1.75,0,0,1,.33,1.1,1.39,1.39,0,0,1-1.4,1.63l-.53.05c-1.72.16-2.58,1-2.58,2.62v4.28A1.55,1.55,0,0,1,73.25,85.21Zm16.72,0a1.73,1.73,0,0,1-1.29-.46,1.81,1.81,0,0,1-.45-1.31V76.31H87.4c-.91,0-1.36-.43-1.36-1.29s.45-1.31,1.36-1.31h.83a4.81,4.81,0,0,1,1.27-3.53,5.88,5.88,0,0,1,3.58-1.42l.74-.07a1.35,1.35,0,0,1,1.11.29,1.3,1.3,0,0,1,.39.86,1.37,1.37,0,0,1-.23.91,1,1,0,0,1-.77.45l-.32,0a2.86,2.86,0,0,0-1.77.59,2,2,0,0,0-.53,1.51v.39h1.63c.91,0,1.36.43,1.36,1.31s-.45,1.29-1.36,1.29H91.7v7.13A1.55,1.55,0,0,1,90,85.21Zm10.33,0a4,4,0,0,1-3.18-1.19,5.38,5.38,0,0,1-1-3.59v-5.2a1.74,1.74,0,1,1,3.48,0v5.29c0,1.33.57,2,1.72,2a2.07,2.07,0,0,0,1.62-.7,2.61,2.61,0,0,0,.63-1.85V75.27a1.74,1.74,0,1,1,3.48,0v8.17q0,1.77-1.68,1.77a1.72,1.72,0,0,1-1.27-.46,1.81,1.81,0,0,1-.43-1.29A3.71,3.71,0,0,1,100.3,85.25Zm15,0q-4.75,0-4.76-4.62V76.31h-1c-.91,0-1.36-.43-1.36-1.29s.45-1.31,1.36-1.31h1V72A1.74,1.74,0,1,1,114,72v1.75h2.19a1.3,1.3,0,1,1,0,2.6H114v4.18a2,2,0,0,0,.45,1.45,1.89,1.89,0,0,0,1.44.48,3.24,3.24,0,0,0,.64-.06,4.44,4.44,0,0,1,.56-.1.62.62,0,0,1,.52.21,1.47,1.47,0,0,1,.21.94,2.38,2.38,0,0,1-.18,1A1.15,1.15,0,0,1,117,85a4.43,4.43,0,0,1-.81.19A5.21,5.21,0,0,1,115.25,85.25Zm7.91,0A4,4,0,0,1,120,84.06a5.38,5.38,0,0,1-1-3.59v-5.2a1.53,1.53,0,0,1,1.72-1.75,1.55,1.55,0,0,1,1.75,1.75v5.29c0,1.33.57,2,1.72,2a2.07,2.07,0,0,0,1.62-.7,2.62,2.62,0,0,0,.64-1.85V75.27a1.74,1.74,0,1,1,3.47,0v8.17q0,1.77-1.68,1.77a1.68,1.68,0,0,1-1.26-.46,1.77,1.77,0,0,1-.44-1.29A3.69,3.69,0,0,1,123.16,85.25Zm11.21,0a1.58,1.58,0,0,1-1.8-1.77V75.27a1.71,1.71,0,1,1,3.41,0v.41a3.56,3.56,0,0,1,3.42-2.2,1,1,0,0,1,.89.28,1.69,1.69,0,0,1,.33,1.1,1.53,1.53,0,0,1-.29,1.12,1.57,1.57,0,0,1-1.11.51l-.53.05c-1.72.16-2.58,1-2.58,2.62v4.28A1.55,1.55,0,0,1,134.37,85.21Zm13.54,0a7.63,7.63,0,0,1-3.44-.72,5.2,5.2,0,0,1-2.2-2,6,6,0,0,1-.78-3.12,6.15,6.15,0,0,1,.75-3.07,5.43,5.43,0,0,1,2-2.07,6,6,0,0,1,3-.74A5.06,5.06,0,0,1,151.2,75a5.88,5.88,0,0,1,1.45,4.2q0,.87-1.08.87h-6.76a2.81,2.81,0,0,0,1,1.94,3.53,3.53,0,0,0,2.2.61,7.39,7.39,0,0,0,1.25-.12,5.36,5.36,0,0,0,1.35-.45,1.34,1.34,0,0,1,1.13-.13,1.14,1.14,0,0,1,.63.66,1.41,1.41,0,0,1,0,1,1.55,1.55,0,0,1-.77.82,6.73,6.73,0,0,1-1.78.65A8.43,8.43,0,0,1,147.91,85.25Zm-.48-9.47a2.43,2.43,0,0,0-1.78.66,3,3,0,0,0-.84,1.87h5C149.68,76.62,148.9,75.78,147.43,75.78Zm19.2,9.47q-4.75,0-4.76-4.62V76.31h-1c-.91,0-1.36-.43-1.36-1.29s.45-1.31,1.36-1.31h1V72a1.74,1.74,0,1,1,3.48,0v1.75h2.18a1.3,1.3,0,1,1,0,2.6h-2.18v4.18a2.09,2.09,0,0,0,.44,1.45,1.89,1.89,0,0,0,1.44.48,3.34,3.34,0,0,0,.65-.06,4.31,4.31,0,0,1,.55-.1.65.65,0,0,1,.53.21,1.55,1.55,0,0,1,.2.94,2.38,2.38,0,0,1-.18,1,1.16,1.16,0,0,1-.64.59,4.57,4.57,0,0,1-.82.19A5.21,5.21,0,0,1,166.63,85.25Zm5.5,0a1.56,1.56,0,0,1-1.75-1.77V70.35a1.74,1.74,0,1,1,3.48,0v4.9a3.71,3.71,0,0,1,1.54-1.32,4.78,4.78,0,0,1,2.09-.45q4,0,4,4.73v5.23a1.55,1.55,0,0,1-1.75,1.77,1.74,1.74,0,0,1-1.28-.46,1.85,1.85,0,0,1-.44-1.31V78.38a2.59,2.59,0,0,0-.44-1.69,1.58,1.58,0,0,0-1.29-.52,2.31,2.31,0,0,0-1.76.69,2.54,2.54,0,0,0-.65,1.84v4.74A1.55,1.55,0,0,1,172.13,85.21Zm15.76,0a5,5,0,0,1-2.24-.48,3.89,3.89,0,0,1-1.52-1.31,3.2,3.2,0,0,1-.57-1.86,2.86,2.86,0,0,1,.65-2,3.75,3.75,0,0,1,2.09-1,19.55,19.55,0,0,1,3.84-.31H191v-.39a1.9,1.9,0,0,0-.46-1.43,2.27,2.27,0,0,0-1.57-.43,6.79,6.79,0,0,0-1.35.15,9.16,9.16,0,0,0-1.59.49,1.18,1.18,0,0,1-1.08,0,1.21,1.21,0,0,1-.58-.74,1.51,1.51,0,0,1,.08-1,1.38,1.38,0,0,1,.87-.73,10.79,10.79,0,0,1,2-.59,9.57,9.57,0,0,1,1.76-.17A5.61,5.61,0,0,1,193,74.66a4.75,4.75,0,0,1,1.29,3.67v5.11c0,1.18-.54,1.77-1.61,1.77S191,84.62,191,83.44V83.3a2.89,2.89,0,0,1-1.16,1.42A3.54,3.54,0,0,1,187.89,85.25Zm.78-2.32a2.2,2.2,0,0,0,1.63-.67,2.31,2.31,0,0,0,.67-1.72v-.46h-.81a7,7,0,0,0-2.5.31,1.09,1.09,0,0,0-.74,1.07,1.38,1.38,0,0,0,.45,1.06A1.88,1.88,0,0,0,188.67,82.93Zm13.75,2.32q-4.75,0-4.76-4.62V76.31h-1q-1.35,0-1.35-1.29a1.17,1.17,0,0,1,1.35-1.31h1V72a1.74,1.74,0,1,1,3.47,0v1.75h2.19a1.3,1.3,0,1,1,0,2.6h-2.19v4.18a2,2,0,0,0,.45,1.45,1.89,1.89,0,0,0,1.44.48,3.24,3.24,0,0,0,.64-.06,4.44,4.44,0,0,1,.56-.1.62.62,0,0,1,.52.21,1.47,1.47,0,0,1,.21.94,2.38,2.38,0,0,1-.18,1,1.15,1.15,0,0,1-.65.59,4.43,4.43,0,0,1-.81.19A5.21,5.21,0,0,1,202.42,85.25Zm14.81,0a2,2,0,0,1-1.95-1.41l-3.24-8a1.75,1.75,0,0,1,0-1.6,1.5,1.5,0,0,1,1.43-.66,1.58,1.58,0,0,1,1,.29,2.37,2.37,0,0,1,.68,1.09l2.25,6,2.37-6.35a1.47,1.47,0,0,1,1.48-1.08,1.5,1.5,0,0,1,1.49,1.08L225.08,81l2.3-6.23a1.91,1.91,0,0,1,.7-1,1.66,1.66,0,0,1,.95-.28,1.25,1.25,0,0,1,1.29.69,1.93,1.93,0,0,1-.07,1.57l-3.22,8a2.06,2.06,0,0,1-3.91,0l-2-5.22-2,5.2A2,2,0,0,1,217.23,85.21Zm16.91-13.57a2.16,2.16,0,0,1-1.48-.45,1.86,1.86,0,0,1,0-2.58,2.16,2.16,0,0,1,1.48-.45c1.32,0,2,.59,2,1.75S235.46,71.64,234.14,71.64Zm0,13.54a1.66,1.66,0,0,1-1.3-.49,2,2,0,0,1-.45-1.39V75.43c0-1.27.58-1.91,1.75-1.91a1.65,1.65,0,0,1,1.28.5,2.07,2.07,0,0,1,.44,1.41V83.3a2,2,0,0,1-.43,1.39A1.62,1.62,0,0,1,234.14,85.18Zm8.49.07q-4.08,0-4.08-4.53V70.35a1.74,1.74,0,1,1,3.48,0V80.58a2.05,2.05,0,0,0,.4,1.4,1.4,1.4,0,0,0,1.07.44,2.17,2.17,0,0,0,.36,0l.33,0a.5.5,0,0,1,.52.23,2.31,2.31,0,0,1,.15,1c0,.89-.38,1.4-1.13,1.52l-.53.06Zm7.65,0q-4.07,0-4.07-4.53V70.35a1.74,1.74,0,1,1,3.48,0V80.58a2.05,2.05,0,0,0,.4,1.4,1.39,1.39,0,0,0,1.07.44,2.17,2.17,0,0,0,.36,0l.33,0a.51.51,0,0,1,.52.23,2.31,2.31,0,0,1,.15,1c0,.89-.38,1.4-1.13,1.52l-.53.06Z" transform="translate(-2.34 -8.58)" fill="url(#c)"/><path d="M5.08,115.21a1.56,1.56,0,0,1-1.75-1.77v-8.17A1.53,1.53,0,0,1,5,103.52a1.53,1.53,0,0,1,1.7,1.75v.09A3.78,3.78,0,0,1,8.28,104a4.76,4.76,0,0,1,2.16-.48,3.7,3.7,0,0,1,3,1.16,5.41,5.41,0,0,1,1,3.57v5.23a1.55,1.55,0,0,1-1.75,1.77,1.7,1.7,0,0,1-1.27-.46,1.81,1.81,0,0,1-.45-1.31v-5.06a2.59,2.59,0,0,0-.44-1.69,1.58,1.58,0,0,0-1.29-.52,2.33,2.33,0,0,0-1.76.69,2.58,2.58,0,0,0-.65,1.84v4.74A1.55,1.55,0,0,1,5.08,115.21Zm17.37,0a6.65,6.65,0,0,1-3.17-.72,5.13,5.13,0,0,1-2.08-2,6.36,6.36,0,0,1-.73-3.14,6.3,6.3,0,0,1,.73-3.11,5,5,0,0,1,2.08-2,6.65,6.65,0,0,1,3.17-.71,6.61,6.61,0,0,1,3.16.71,5.07,5.07,0,0,1,2.09,2,6.2,6.2,0,0,1,.75,3.11,6.26,6.26,0,0,1-.75,3.14,5.16,5.16,0,0,1-2.09,2A6.61,6.61,0,0,1,22.45,115.25Zm0-2.6a2.27,2.27,0,0,0,1.8-.8,3.74,3.74,0,0,0,.7-2.51,3.64,3.64,0,0,0-.7-2.47,2.29,2.29,0,0,0-1.8-.79,2.27,2.27,0,0,0-1.8.79,3.7,3.7,0,0,0-.69,2.47,3.8,3.8,0,0,0,.69,2.51A2.24,2.24,0,0,0,22.45,112.65Zm18.6,2.6q-4.06,0-4.07-4.53V100.35a1.56,1.56,0,0,1,1.75-1.77,1.55,1.55,0,0,1,1.73,1.77v10.23a2.05,2.05,0,0,0,.4,1.4,1.39,1.39,0,0,0,1.07.44,2,2,0,0,0,.35,0l.34,0a.51.51,0,0,1,.52.23,2.31,2.31,0,0,1,.15,1c0,.89-.38,1.4-1.13,1.52l-.53.06Zm9,0a6.58,6.58,0,0,1-3.16-.72,5.07,5.07,0,0,1-2.08-2,6.37,6.37,0,0,1-.74-3.14,6.3,6.3,0,0,1,.74-3.11,5,5,0,0,1,2.08-2,7.39,7.39,0,0,1,6.32,0,5.1,5.1,0,0,1,2.1,2,6.3,6.3,0,0,1,.74,3.11,6.37,6.37,0,0,1-.74,3.14,5.18,5.18,0,0,1-2.1,2A6.58,6.58,0,0,1,50.07,115.25Zm0-2.6a2.28,2.28,0,0,0,1.81-.8,3.8,3.8,0,0,0,.7-2.51,3.7,3.7,0,0,0-.7-2.47,2.3,2.3,0,0,0-1.81-.79,2.25,2.25,0,0,0-1.79.79,3.7,3.7,0,0,0-.69,2.47,3.8,3.8,0,0,0,.69,2.51A2.22,2.22,0,0,0,50.07,112.65Zm9.87,2.56a1.55,1.55,0,0,1-1.75-1.77v-8.17a1.7,1.7,0,1,1,3.4,0v.09a3.84,3.84,0,0,1,1.54-1.4,4.84,4.84,0,0,1,2.17-.48,3.7,3.7,0,0,1,3,1.16,5.41,5.41,0,0,1,1,3.57v5.23a1.56,1.56,0,0,1-1.75,1.77,1.74,1.74,0,0,1-1.28-.46,1.81,1.81,0,0,1-.45-1.31v-5.06a2.6,2.6,0,0,0-.43-1.69,1.6,1.6,0,0,0-1.29-.52,2.3,2.3,0,0,0-1.76.69,2.55,2.55,0,0,0-.66,1.84v4.74A1.54,1.54,0,0,1,59.94,115.21Zm17.36,4.18a13.86,13.86,0,0,1-2.37-.2,8.86,8.86,0,0,1-2-.62,1.39,1.39,0,0,1-.85-.79,1.35,1.35,0,0,1,0-1,1.42,1.42,0,0,1,.62-.72,1,1,0,0,1,1,0,7.9,7.9,0,0,0,1.87.6,9.67,9.67,0,0,0,1.48.13c2,0,3-.9,3-2.71v-1.29a3.39,3.39,0,0,1-1.45,1.4,4.43,4.43,0,0,1-2.16.53,4.88,4.88,0,0,1-2.65-.7,4.76,4.76,0,0,1-1.75-2,7.38,7.38,0,0,1,0-5.92,4.76,4.76,0,0,1,1.75-2,4.88,4.88,0,0,1,2.65-.7,4.58,4.58,0,0,1,2.13.5,3.33,3.33,0,0,1,1.43,1.34v0a1.75,1.75,0,0,1,.45-1.3,1.72,1.72,0,0,1,1.28-.45,1.53,1.53,0,0,1,1.7,1.75v8.42A5.58,5.58,0,0,1,81.79,118,6.4,6.4,0,0,1,77.3,119.39Zm.07-7.27a2.32,2.32,0,0,0,1.85-.8,3.28,3.28,0,0,0,.7-2.23,3.23,3.23,0,0,0-.7-2.22,2.57,2.57,0,0,0-3.71,0,3.28,3.28,0,0,0-.69,2.22,3.32,3.32,0,0,0,.69,2.23A2.31,2.31,0,0,0,77.37,112.12Zm14.51,3.13a7.55,7.55,0,0,1-3.43-.72,5.17,5.17,0,0,1-2.21-2,6,6,0,0,1-.77-3.12,6.25,6.25,0,0,1,.74-3.07,5.51,5.51,0,0,1,2.05-2.07,6,6,0,0,1,3-.74A5.06,5.06,0,0,1,95.17,105a5.88,5.88,0,0,1,1.45,4.2q0,.87-1.08.87H88.78a2.77,2.77,0,0,0,1,1.94,3.5,3.5,0,0,0,2.19.61,7.59,7.59,0,0,0,1.26-.12,5.42,5.42,0,0,0,1.34-.45,1.35,1.35,0,0,1,1.13-.13,1.08,1.08,0,0,1,.63.66,1.3,1.3,0,0,1,0,1,1.52,1.52,0,0,1-.77.82,6.73,6.73,0,0,1-1.78.65A8.36,8.36,0,0,1,91.88,115.25Zm-.48-9.47a2.45,2.45,0,0,0-1.78.66,3.16,3.16,0,0,0-.84,1.87h5C93.65,106.62,92.87,105.78,91.4,105.78Zm9,9.43a1.57,1.57,0,0,1-1.79-1.77v-8.17a1.7,1.7,0,1,1,3.4,0v.41a3.56,3.56,0,0,1,3.43-2.2,1,1,0,0,1,.88.28,1.69,1.69,0,0,1,.34,1.1,1.57,1.57,0,0,1-.29,1.12,1.6,1.6,0,0,1-1.12.51l-.53.05c-1.71.16-2.57,1-2.57,2.62v4.28A1.55,1.55,0,0,1,100.44,115.21Zm20,0a7.55,7.55,0,0,1-3.43-.72,5.17,5.17,0,0,1-2.21-2,6,6,0,0,1-.77-3.12,6.25,6.25,0,0,1,.74-3.07,5.51,5.51,0,0,1,2-2.07,6,6,0,0,1,3-.74,5.06,5.06,0,0,1,3.91,1.55,5.88,5.88,0,0,1,1.45,4.2q0,.87-1.08.87H117.3a2.77,2.77,0,0,0,1,1.94,3.5,3.5,0,0,0,2.19.61,7.59,7.59,0,0,0,1.26-.12,5.42,5.42,0,0,0,1.34-.45,1.35,1.35,0,0,1,1.13-.13,1.08,1.08,0,0,1,.63.66,1.3,1.3,0,0,1,0,1,1.52,1.52,0,0,1-.77.82,6.73,6.73,0,0,1-1.78.65A8.36,8.36,0,0,1,120.4,115.25Zm-.48-9.47a2.43,2.43,0,0,0-1.78.66,3.16,3.16,0,0,0-.84,1.87h5C122.17,106.62,121.39,105.78,119.92,105.78Zm8.44,9.38a1.45,1.45,0,0,1-1-.36,1.21,1.21,0,0,1-.41-.9,1.84,1.84,0,0,1,.45-1.13l2.92-3.59-2.66-3.26a1.7,1.7,0,0,1-.46-1.16,1.19,1.19,0,0,1,.41-.89,1.51,1.51,0,0,1,1-.35,2.29,2.29,0,0,1,1,.21,2.26,2.26,0,0,1,.78.69l1.84,2.39,1.86-2.39a2.38,2.38,0,0,1,.79-.69,2.25,2.25,0,0,1,1-.21,1.48,1.48,0,0,1,1,.36,1.22,1.22,0,0,1,.4.91,1.72,1.72,0,0,1-.47,1.13l-2.67,3.26,2.94,3.59a1.6,1.6,0,0,1,.46,1.13,1.19,1.19,0,0,1-.42.9,1.52,1.52,0,0,1-1,.36,2.14,2.14,0,0,1-1-.22,2.39,2.39,0,0,1-.8-.68l-2.09-2.66-2.11,2.66a2.91,2.91,0,0,1-.77.67A2.09,2.09,0,0,1,128.36,115.16Zm13.41-13.52a2.18,2.18,0,0,1-1.48-.45,1.86,1.86,0,0,1,0-2.58,2.18,2.18,0,0,1,1.48-.45c1.32,0,2,.59,2,1.75S143.09,101.64,141.77,101.64Zm0,13.54a1.66,1.66,0,0,1-1.3-.49,2,2,0,0,1-.45-1.39v-7.87c0-1.27.59-1.91,1.75-1.91a1.65,1.65,0,0,1,1.28.5,2,2,0,0,1,.45,1.41v7.87a2,2,0,0,1-.44,1.39A1.62,1.62,0,0,1,141.77,115.18Zm8.74.07a12.53,12.53,0,0,1-2.08-.18,6.89,6.89,0,0,1-1.94-.62,1.42,1.42,0,0,1-.75-.76,1.22,1.22,0,0,1,0-.9,1.14,1.14,0,0,1,.57-.65,1.07,1.07,0,0,1,1,0,10,10,0,0,0,1.73.55,7.51,7.51,0,0,0,1.53.16,2.57,2.57,0,0,0,1.43-.31.94.94,0,0,0,.46-.82c0-.53-.39-.87-1.17-1l-2.42-.43a4,4,0,0,1-2.21-1,2.83,2.83,0,0,1-.76-2,3.16,3.16,0,0,1,.65-2,4.14,4.14,0,0,1,1.77-1.28,6.78,6.78,0,0,1,2.6-.46,8,8,0,0,1,3.59.78,1.13,1.13,0,0,1,.65.71,1.32,1.32,0,0,1-.65,1.55,1.09,1.09,0,0,1-1,0,8,8,0,0,0-1.38-.49,5.07,5.07,0,0,0-1.17-.15,2.64,2.64,0,0,0-1.5.33,1,1,0,0,0-.46.84c0,.54.36.87,1.08,1l2.42.44a4.23,4.23,0,0,1,2.27,1,2.69,2.69,0,0,1,.78,2,3.2,3.2,0,0,1-1.37,2.76A6.15,6.15,0,0,1,150.51,115.25Zm12.54,0q-4.77,0-4.77-4.62v-4.32h-1c-.91,0-1.36-.43-1.36-1.29s.45-1.31,1.36-1.31h1V102a1.74,1.74,0,1,1,3.48,0v1.75h2.18a1.17,1.17,0,0,1,1.34,1.31c0,.86-.45,1.29-1.34,1.29h-2.18v4.18a2,2,0,0,0,.45,1.45,1.87,1.87,0,0,0,1.43.48,3.34,3.34,0,0,0,.65-.06,4.31,4.31,0,0,1,.55-.1.65.65,0,0,1,.53.21,1.47,1.47,0,0,1,.21.94,2.38,2.38,0,0,1-.19,1,1.16,1.16,0,0,1-.64.59,4.37,4.37,0,0,1-.82.19A5.1,5.1,0,0,1,163.05,115.25Zm5.42-.14a1.87,1.87,0,0,1-2-2,1.88,1.88,0,0,1,.54-1.39,1.94,1.94,0,0,1,1.46-.54,1.85,1.85,0,0,1,1.44.54,1.9,1.9,0,0,1,.52,1.39,2,2,0,0,1-.52,1.42A1.85,1.85,0,0,1,168.47,115.11Zm5.91-9.26a1.22,1.22,0,0,1-.87-.36,1.6,1.6,0,0,1-.44-1l-.46-3.91a1.79,1.79,0,0,1,.43-1.44,1.69,1.69,0,0,1,1.34-.58,1.72,1.72,0,0,1,1.35.57,1.79,1.79,0,0,1,.43,1.45l-.46,3.91a1.59,1.59,0,0,1-.43,1A1.2,1.2,0,0,1,174.38,105.85Zm5.18,0a1.19,1.19,0,0,1-.87-.36,1.5,1.5,0,0,1-.44-1l-.46-3.91a1.82,1.82,0,0,1,.42-1.44,1.73,1.73,0,0,1,1.35-.58,1.75,1.75,0,0,1,1.35.57,1.82,1.82,0,0,1,.42,1.45l-.46,3.91a1.64,1.64,0,0,1-.42,1A1.21,1.21,0,0,1,179.56,105.85Z" transform="translate(-2.34 -8.58)" fill="url(#d)"/><path d="M4.58,151.43a1.8,1.8,0,0,1-1.42-.55,3,3,0,0,1-.66-1.34A7.51,7.51,0,0,1,2.34,148,10.59,10.59,0,0,1,3,144.29a13.67,13.67,0,0,1,1.85-3.42A13.72,13.72,0,0,1,11,136.21a10.33,10.33,0,0,1,3.71-.69c.1,0,.14,0,.14.12a.1.1,0,0,1-.11.11,7.27,7.27,0,0,0-2.66.52,12.41,12.41,0,0,0-2.59,1.37,15.53,15.53,0,0,0-2.28,1.9,14.23,14.23,0,0,0-1.74,2.12,11.41,11.41,0,0,0-1.35,2.84,10.17,10.17,0,0,0-.49,3.15,9.34,9.34,0,0,0,.12,1.4,3,3,0,0,0,.55,1.34A1.43,1.43,0,0,0,5.5,151a.88.88,0,0,0,.24,0l.21,0c.09,0,.14,0,.14.11s-.11.14-.34.21-.46.11-.7.15Zm10.08,1.37a11,11,0,0,1-1.71-.15,8,8,0,0,1-1.85-.54,4.07,4.07,0,0,1-1.48-1A2.28,2.28,0,0,1,9,149.47a3,3,0,0,1,.54-1.71A8.17,8.17,0,0,1,11,146.23a15.21,15.21,0,0,1,1.7-1.26c.59-.36,1.11-.65,1.56-.88l.5-.22a1.36,1.36,0,0,1,.53-.11l.13,0a.09.09,0,0,1,.07.09.23.23,0,0,1-.15.19l-.24.14c-.24.12-.49.22-.74.33a4.74,4.74,0,0,0-.75.37,11.68,11.68,0,0,0-1.51,1,6.14,6.14,0,0,0-1.31,1.39A2.88,2.88,0,0,0,10.2,149a2,2,0,0,0,.66,1.61,3.77,3.77,0,0,0,1.61.81,7.27,7.27,0,0,0,1.77.24,10.6,10.6,0,0,0,2.15-.22c.73-.15,1.44-.33,2.13-.53a11.54,11.54,0,0,0,1.68-.69c.63-.31,1.29-.67,2-1.08A14.37,14.37,0,0,0,24,147.76a7.66,7.66,0,0,0,1.4-1.6,3.19,3.19,0,0,0,.53-1.7,2.24,2.24,0,0,0-.58-1.57A5,5,0,0,0,24,141.8a9.29,9.29,0,0,0-1.54-.7,7.11,7.11,0,0,0-.95-.34c-.34-.09-.67-.2-1-.31l-1.19-.36a4.36,4.36,0,0,1-1.26-.62,1.41,1.41,0,0,1-.63-1,.77.77,0,0,1,0-.25,3.3,3.3,0,0,1,.63-2,6,6,0,0,1,1.65-1.54,11.08,11.08,0,0,1,2.21-1.09,14.53,14.53,0,0,1,2.35-.65,11.74,11.74,0,0,1,2-.21,8.57,8.57,0,0,1,2.05.27,2.91,2.91,0,0,1,1.71,1.08q.2-.32.36-.63a2.14,2.14,0,0,0,.22-.66,2,2,0,0,1,.09-.3.22.22,0,0,1,.22-.15.16.16,0,0,1,.17.15,1.52,1.52,0,0,1,0,.24,2.55,2.55,0,0,1-.14.53c-.1.28-.2.56-.31.83s-.19.45-.22.55a4.07,4.07,0,0,1,.32.56,1.41,1.41,0,0,1,.18.61,1.8,1.8,0,0,1-.06.37.36.36,0,0,1-.19.3l-.18-.33a2.17,2.17,0,0,0-.24-.39A11.68,11.68,0,0,0,29.8,137a3.79,3.79,0,0,1-.64,1.2.49.49,0,0,1-.24.14,1.09,1.09,0,0,1-.26,0l-.4,0a2.53,2.53,0,0,1-.51-.14q-.24-.1-.24-.24a1.42,1.42,0,0,1,.26-.55c.18-.27.4-.57.65-.91l.71-.95a4.25,4.25,0,0,0,.45-.67,2.7,2.7,0,0,0-1.51-1.15,6.32,6.32,0,0,0-1.93-.31,8.93,8.93,0,0,0-2.55.39,11.22,11.22,0,0,0-1.4.51,10.31,10.31,0,0,0-1.53.82,5.18,5.18,0,0,0-1.23,1.14,2.23,2.23,0,0,0-.49,1.4,1.6,1.6,0,0,0,.41,1.08,3.43,3.43,0,0,0,1,.77,10.66,10.66,0,0,0,1.28.51l1.09.35c.46.15,1,.35,1.59.59a9.81,9.81,0,0,1,1.73.9,5,5,0,0,1,1.35,1.23,2.59,2.59,0,0,1,.54,1.62,3.37,3.37,0,0,1-.56,1.81,8,8,0,0,1-1.46,1.67A16.41,16.41,0,0,1,24,149.68a22.42,22.42,0,0,1-2,1.15c-.66.32-1.24.59-1.72.79a18,18,0,0,1-2.73.86A13.22,13.22,0,0,1,14.66,152.8ZM31,150a1.23,1.23,0,0,1-1.37-1.4,5.34,5.34,0,0,1,.41-1.89,18.48,18.48,0,0,1,1-2.09c.36-.69.67-1.27.91-1.76a7.35,7.35,0,0,0-.91.13,5.34,5.34,0,0,1-.88.09.46.46,0,0,1-.21,0,.15.15,0,0,1-.1-.15.22.22,0,0,1,.17-.23l.4-.25.41-.22a11.57,11.57,0,0,0,1.08-.8c.34-.29.67-.59,1-.91.07-.15.14-.28.21-.41a.58.58,0,0,1,.38-.26,4.19,4.19,0,0,0,.64-.25,1.76,1.76,0,0,1,.62-.2c.09,0,.14,0,.14.11a1.58,1.58,0,0,1-.18.45c-.13.24-.27.52-.44.83s-.32.58-.46.84-.23.4-.27.46h.61l.93,0a4.11,4.11,0,0,1,.87.11c.24.05.37.13.37.22s-.06.13-.16.16a1.65,1.65,0,0,1-.32,0H34.41a11.2,11.2,0,0,0-1.3.1c-.19.34-.41.75-.66,1.25s-.5,1-.76,1.56a16.48,16.48,0,0,0-.63,1.6,4.63,4.63,0,0,0-.25,1.33,1,1,0,0,0,.16.59.6.6,0,0,0,.54.22,1.87,1.87,0,0,0,.87-.25,6,6,0,0,0,.91-.6c.29-.24.54-.44.76-.6a1.21,1.21,0,0,1,.4-.26s0,0,0,0h0a.44.44,0,0,1-.07.24,1.06,1.06,0,0,1-.13.18,6.61,6.61,0,0,1-.92.91,5.63,5.63,0,0,1-1.19.77A2.72,2.72,0,0,1,31,150Zm.28-7.78a2.89,2.89,0,0,1,.49-.07l.46-.05a2,2,0,0,0,.14-.39l.12-.39c-.21.13-.41.28-.61.43S31.44,142.07,31.23,142.22Zm3.81,8a.81.81,0,0,1-1-1,4.61,4.61,0,0,1,.32-1.54c.22-.58.42-1.07.61-1.46a.05.05,0,0,0,0,0s0,0,0,0a.28.28,0,0,1,.1-.23,1.1,1.1,0,0,0,.15-.16,5.05,5.05,0,0,0,.25-.45c.08-.15.15-.29.23-.42a8.17,8.17,0,0,1,1.16-1.46,3.61,3.61,0,0,1,1.55-.95,2.09,2.09,0,0,1,.59-.08h.13s.07,0,.07.07-.06.12-.16.2l-.21.16a5.44,5.44,0,0,0-1,1.12c-.35.51-.62.92-.83,1.24.43-.08.85-.13,1.27-.17a6.53,6.53,0,0,1,1.25,0,5.21,5.21,0,0,0,.57-1.11,3.22,3.22,0,0,0,.27-1.22c0-.2,0-.32-.07-.36a.55.55,0,0,0-.32-.06l-.17,0c-.07,0-.11-.06-.11-.12s.08-.14.25-.19a3.16,3.16,0,0,1,.53-.13l.37,0c.5,0,.75.23.75.7a2.45,2.45,0,0,1-.24.94,4.81,4.81,0,0,1-.58,1,2.71,2.71,0,0,1-.69.65,2.52,2.52,0,0,1,.35.07,4.92,4.92,0,0,1,.5.16c.16,0,.24.12.24.19s-.05.09-.17.1l-.22,0a2.73,2.73,0,0,1-.5-.05,4.38,4.38,0,0,0-.51,0,12.11,12.11,0,0,0-1.58.11c-.53.08-1.06.17-1.58.28q-.28.51-.63,1.29a3.38,3.38,0,0,0-.35,1.4c0,.66.33,1,1,1a2.83,2.83,0,0,0,1.41-.39,7.22,7.22,0,0,0,1.27-.92c.4-.36.71-.67,1-.93s.38-.39.42-.39.08,0,.08.11a1.34,1.34,0,0,1-.39.8,4.5,4.5,0,0,1-.65.66,9,9,0,0,1-2.19,1.23A6.82,6.82,0,0,1,35,150.2Zm6.33.16h-.09s-.05,0-.05,0v-.09c.05-.15.11-.3.18-.47a2.46,2.46,0,0,0,.15-.51,12.91,12.91,0,0,0,.4-2,20.5,20.5,0,0,0,.11-2.07,17.19,17.19,0,0,0-.09-1.77,1.5,1.5,0,0,0,0-.35,1.39,1.39,0,0,1,0-.35c0-.09.06-.15.18-.16l.3,0c.11,0,.29,0,.54.05s.41.13.46.26a.75.75,0,0,1,.07.36l0,.56c0,.19,0,.31,0,.36a15.08,15.08,0,0,1-.42,3.56l1.19-1.78c.47-.72,1-1.44,1.58-2.18a13.82,13.82,0,0,1,1.8-1.91,4.06,4.06,0,0,1,1.81-1h.22a1,1,0,0,1,.3.05.25.25,0,0,1,.15.26.38.38,0,0,1-.33.39.58.58,0,0,1-.19,0l-.18,0a2.63,2.63,0,0,0-.77.38,6.5,6.5,0,0,0-.68.55A16.61,16.61,0,0,0,45.54,145c-.75,1-1.45,1.94-2.1,2.89l-.41.56a3.16,3.16,0,0,0-.35.59.81.81,0,0,0-.12.28,2.11,2.11,0,0,1-.1.3,1.12,1.12,0,0,1-.45.48A1.15,1.15,0,0,1,41.37,150.36Zm6.69-.16a.81.81,0,0,1-1-1,4.61,4.61,0,0,1,.32-1.54c.22-.58.42-1.07.61-1.46a.05.05,0,0,0,0,0s0,0,0,0a.28.28,0,0,1,.1-.23,1.1,1.1,0,0,0,.15-.16,5.05,5.05,0,0,0,.25-.45c.08-.15.15-.29.23-.42a8.17,8.17,0,0,1,1.16-1.46,3.61,3.61,0,0,1,1.55-.95,2.09,2.09,0,0,1,.59-.08h.13s.07,0,.07.07-.06.12-.16.2l-.21.16a5.44,5.44,0,0,0-1,1.12c-.35.51-.62.92-.83,1.24.43-.08.85-.13,1.27-.17a6.53,6.53,0,0,1,1.25,0,5.21,5.21,0,0,0,.57-1.11,3.22,3.22,0,0,0,.27-1.22c0-.2,0-.32-.07-.36a.55.55,0,0,0-.32-.06l-.17,0c-.07,0-.11-.06-.11-.12s.08-.14.25-.19a3.16,3.16,0,0,1,.53-.13l.37,0c.5,0,.75.23.75.7a2.45,2.45,0,0,1-.24.94,4.81,4.81,0,0,1-.58,1,2.71,2.71,0,0,1-.69.65,2.52,2.52,0,0,1,.35.07,4.92,4.92,0,0,1,.5.16c.16,0,.24.12.24.19s0,.09-.17.1l-.22,0a2.73,2.73,0,0,1-.5-.05,4.38,4.38,0,0,0-.51,0,12.11,12.11,0,0,0-1.58.11c-.53.08-1.06.17-1.58.28q-.29.51-.63,1.29a3.38,3.38,0,0,0-.35,1.4c0,.66.33,1,1,1a2.83,2.83,0,0,0,1.41-.39,7.22,7.22,0,0,0,1.27-.92c.4-.36.71-.67,1-.93s.38-.39.42-.39.08,0,.08.11a1.34,1.34,0,0,1-.39.8,4.5,4.5,0,0,1-.65.66,9,9,0,0,1-2.19,1.23A6.82,6.82,0,0,1,48.06,150.2Zm16,4.36a6.2,6.2,0,0,1-2.07-.37,4.55,4.55,0,0,1-1.79-1.14,2.65,2.65,0,0,1-.73-1.93,3.41,3.41,0,0,1,.66-2,6.84,6.84,0,0,1,1.68-1.67,15.89,15.89,0,0,1,2.11-1.29c.73-.36,1.38-.66,2-.88A23.14,23.14,0,0,1,70.15,144a32.55,32.55,0,0,1,4.45-.49c1.37-2.2,2.67-4.45,3.92-6.75a.36.36,0,0,1,0-.11,1,1,0,0,1,.23-.61l.41-.54c-.6,0-1.2,0-1.81-.08s-1.2-.06-1.8-.06a10.78,10.78,0,0,0-2.35.26,8.82,8.82,0,0,0-1.35.47,5.14,5.14,0,0,0-1.37.86,1.6,1.6,0,0,0-.59,1.24,1.41,1.41,0,0,0,.49,1.08,3.65,3.65,0,0,0,1.21.69,12.5,12.5,0,0,0,1.42.39l1.17.22.15,0c.07,0,.1.06.1.11s0,.1-.13.11l-.18,0H74l-.12,0c-.36-.05-.84-.15-1.45-.29a15.37,15.37,0,0,1-1.84-.56,5.48,5.48,0,0,1-1.59-.88,1.63,1.63,0,0,1-.64-1.29,1.57,1.57,0,0,1,.5-1.16,4.48,4.48,0,0,1,1.24-.83,10,10,0,0,1,1.47-.54c.49-.14.91-.24,1.24-.3a15.67,15.67,0,0,1,2.8-.25h.14c.66,0,1.31,0,2,0l1.93,0,.19-.31a1,1,0,0,1,.21-.28,1.29,1.29,0,0,1,.65-.35,2.8,2.8,0,0,1,.75-.13l.26,0c.1,0,.16.07.16.17a1,1,0,0,1-.26.42c-.16.2-.28.34-.33.42l1.22-.07a10.28,10.28,0,0,0,1.49-.2,2.05,2.05,0,0,0,1.07-.49l.12-.11a.25.25,0,0,1,.16-.06s.08,0,.08.06a.32.32,0,0,1-.08.2,2.88,2.88,0,0,1-1.29.82,8.43,8.43,0,0,1-1.75.42,15.62,15.62,0,0,1-1.58.16,45.47,45.47,0,0,0-2.55,3.93c-.78,1.35-1.56,2.71-2.32,4.07h.44a3.56,3.56,0,0,1,.44.07c.21.05.32.13.32.24s-.11.12-.32.14a5.2,5.2,0,0,1-.69,0l-.45,0C75,145,74.4,146,73.78,147s-1.29,2-2,3a15.17,15.17,0,0,1-2.12,2.28,9.85,9.85,0,0,1-2.6,1.67A7.54,7.54,0,0,1,64,154.56Zm-.28-.7a5.61,5.61,0,0,0,2.81-.75A11.34,11.34,0,0,0,69,151.23,20.06,20.06,0,0,0,70.94,149c.59-.82,1.18-1.66,1.75-2.51s1.12-1.7,1.66-2.56a25.62,25.62,0,0,0-4.27.55A18.72,18.72,0,0,0,66,145.86c-.51.24-1.06.54-1.65.89A13.62,13.62,0,0,0,62.63,148a6.7,6.7,0,0,0-1.35,1.54,3.31,3.31,0,0,0-.54,1.82,2.14,2.14,0,0,0,.93,1.88A3.5,3.5,0,0,0,63.74,153.86Zm13.86-3.64a1.81,1.81,0,0,1-1-.23,1.09,1.09,0,0,1-.35-.94,4.89,4.89,0,0,1,.47-1.93,13.18,13.18,0,0,1,1.1-2.06,14.3,14.3,0,0,1,1.21-1.64v-.06a1.36,1.36,0,0,1,.54-1.1,3.69,3.69,0,0,1,1.28-.65,4.59,4.59,0,0,1,1.26-.21,2.11,2.11,0,0,1,1.21.34,1.28,1.28,0,0,1,.49,1.15,4.5,4.5,0,0,1-.36,1.61,12.91,12.91,0,0,1-.94,1.85,14,14,0,0,1-1.22,1.7,10,10,0,0,1-1.17,1.22,1.34,1.34,0,0,0,1.09.51l.14,0c.06,0,.08,0,.08.09a.13.13,0,0,1-.09.14l-.19,0a1.27,1.27,0,0,1-.68-.19,2.14,2.14,0,0,1-.58-.46A3.66,3.66,0,0,1,77.6,150.22Zm2.3-1.31a7.19,7.19,0,0,0,1.21-1.64,14,14,0,0,0,1-2.18,5.87,5.87,0,0,0,.42-2,2,2,0,0,0-.14-.7.57.57,0,0,0-.59-.36,1,1,0,0,0-.65.25,1.54,1.54,0,0,0-.44.56c0,.06.08.13.12.22a.56.56,0,0,1,.07.26.17.17,0,0,1-.05.14,4.73,4.73,0,0,0-.69.43,6.19,6.19,0,0,0-.63.55,8.17,8.17,0,0,0-.17.86,6.79,6.79,0,0,0,0,.9,8.37,8.37,0,0,0,.12,1.37A4.46,4.46,0,0,0,79.9,148.91Zm-1.18.61a1.14,1.14,0,0,0,.52-.12,2.2,2.2,0,0,0,.43-.3,4.7,4.7,0,0,1-.64-1.62,8.45,8.45,0,0,1-.2-1.74c-.24.4-.46.8-.67,1.22a3,3,0,0,0-.31,1.36,1.91,1.91,0,0,0,.18.81A.7.7,0,0,0,78.72,149.52Zm6.64.87a2.72,2.72,0,0,1-.63-.08,1.65,1.65,0,0,1-.58-.28,1.15,1.15,0,0,1-.08.14.21.21,0,0,1-.17.08.46.46,0,0,1-.39-.25.87.87,0,0,1-.17-.45.31.31,0,0,1,0-.1.19.19,0,0,0,0-.07,11.22,11.22,0,0,1,.74-2l.91-2c.77-1.66,1.55-3.32,2.37-5s1.67-3.26,2.59-4.84a.8.8,0,0,1-.09-.39A.39.39,0,0,1,90,135c0-.09.16-.25.31-.49s.29-.46.44-.68l.28-.42a1,1,0,0,1,.55-.26,3.82,3.82,0,0,1,.63-.08,2.93,2.93,0,0,1,.43,0q.3,0,.3.24c0,.06,0,.08,0,.08l-1.41,2.06c-.48.68-.93,1.38-1.36,2.09-.9,1.47-1.72,3-2.48,4.52s-1.46,3.11-2.11,4.72l1.06-1.32c.45-.56.94-1.13,1.48-1.71a12.41,12.41,0,0,1,1.63-1.45,2.58,2.58,0,0,1,1.43-.59.64.64,0,0,1,.49.15.89.89,0,0,1,.12.52,4.29,4.29,0,0,1-.19,1.18,11.51,11.51,0,0,1-.4,1.15l.37-.17a1,1,0,0,1,.36-.11c.08,0,.11,0,.11.08s-.14.24-.42.34l-.58.19c-.17.39-.39.84-.65,1.33a13.32,13.32,0,0,1-.85,1.42,6.41,6.41,0,0,1-1,1.12,2.79,2.79,0,0,1-1,.56,7.64,7.64,0,0,0-1.09.42,2.52,2.52,0,0,0-.47.32A.85.85,0,0,1,85.36,150.39Zm.39-3.08a15.38,15.38,0,0,1,1.86-1.19c.64-.34,1.3-.67,2-1a5.88,5.88,0,0,0,.27-.62c.1-.26.2-.52.29-.78a1.86,1.86,0,0,0,.14-.62c0-.19-.06-.28-.19-.28a1.8,1.8,0,0,0-1,.56,18.49,18.49,0,0,0-1.33,1.33q-.69.76-1.26,1.5C86.16,146.73,85.9,147.09,85.75,147.31Zm-.14,2.47a1.88,1.88,0,0,0,1.2-.48,5.92,5.92,0,0,0,1.09-1.18,13.49,13.49,0,0,0,.91-1.41c.27-.48.48-.87.63-1.19a11.94,11.94,0,0,0-1.72.92,16.17,16.17,0,0,0-1.82,1.35,6.45,6.45,0,0,0-1.3,1.43A1.25,1.25,0,0,0,85.61,149.78Zm5.91.86-.51,0c-.26,0-.39-.11-.39-.26s.07-.2.21-.3l.32-.24a6.35,6.35,0,0,1,2-.65c.79-.14,1.47-.24,2-.3a.59.59,0,0,0,0-.22,1.05,1.05,0,0,0-.42-.81,8.6,8.6,0,0,0-1-.73,4.88,4.88,0,0,1-1-.83,1.56,1.56,0,0,1-.42-1.08.87.87,0,0,1,.06-.32,2.49,2.49,0,0,1,.11-.29,4.39,4.39,0,0,1,1.75-1.82,8.81,8.81,0,0,1,2.39-.9.48.48,0,0,1,.23,0h.22a1,1,0,0,1,.66.21.74.74,0,0,1,.26.63,1.63,1.63,0,0,1-.39,1,1.84,1.84,0,0,1-.89.63h-.09s0,0,0-.06a1.22,1.22,0,0,1,.1-.45,1,1,0,0,0,.1-.44.56.56,0,0,0-.29-.55,1.45,1.45,0,0,0-.66-.15,2.6,2.6,0,0,0-1.5.49,1.51,1.51,0,0,0-.71,1.33,1.58,1.58,0,0,0,.37,1.09,4.62,4.62,0,0,0,.86.73,5.76,5.76,0,0,1,.85.65,1.21,1.21,0,0,1,.38.91,1.13,1.13,0,0,1-.13.54c-.08.16-.17.32-.26.47l.49,0h.49c.11,0,.17,0,.17.08a.19.19,0,0,1-.12.17,1.32,1.32,0,0,1-.19.08,5,5,0,0,0-.56.09l-.59.11a4.45,4.45,0,0,1-1.86,1A7.93,7.93,0,0,1,91.52,150.64Zm5.23,1.52-.19,0c-.1,0-.14,0-.14-.12s0-.14.15-.13h.24a4.83,4.83,0,0,0,1.78-.39,11.71,11.71,0,0,0,1.66-.81,11.08,11.08,0,0,0,2.34-2,15.35,15.35,0,0,0,2-2.66,14.13,14.13,0,0,0,1.34-3,9.91,9.91,0,0,0,.49-3,5.3,5.3,0,0,0-.56-2.44,3.07,3.07,0,0,0-1.9-1.56,2.31,2.31,0,0,0-.48-.12l-.61-.11c-.19,0-.28-.07-.28-.11s.13-.18.39-.2l.5,0a3.82,3.82,0,0,1,3.13,1.28,5,5,0,0,1,1.05,3.28,8.93,8.93,0,0,1-.63,3.21,14.62,14.62,0,0,1-1.7,3.15,18.84,18.84,0,0,1-2.35,2.74,14.19,14.19,0,0,1-2.6,2A7,7,0,0,1,96.75,152.16Z" transform="translate(-2.34 -8.58)" fill="#5b8dfe"/></svg>