<?xml version="1.0" encoding="utf-8" ?>
<svg xmlns="http://www.w3.org/2000/svg" xmlns:xlink="http://www.w3.org/1999/xlink" width="220" height="84">
	<path fill="#FF6347" d="M10.07080078125 20.83984375L9.560546875 48.5009765625L5.93505859375 48.5009765625L5.45166015625 20.83984375L10.07080078125 20.83984375ZM7.81494140625 59.833984375Q6.5795888900756836 59.833984375 5.706787109375 58.974609375Q4.833984375 58.115234375 4.833984375 56.8798828125Q4.833984375 55.64453125 5.706787109375 54.771728515625Q6.5795893669128418 53.89892578125 7.81494140625 53.89892578125Q9.0234375 53.89892578125 9.90966796875 54.771728515625Q10.795896530151367 55.64453125 10.7958984375 56.8798828125Q10.795896530151367 58.115234375 9.90966796875 58.974609375Q9.0234375 59.833984375 7.81494140625 59.833984375ZM29.77685546875 59.7265625L29.23974609375 59.7265625Q26.50048828125 59.7265625 24.795166015625 58.89404296875Q23.08984375 58.0615234375 22.163330078125 56.69189453125Q21.23681640625 55.322265625 20.91455078125 53.57666015625Q20.59228515625 51.8310546875 20.59228515625 49.97802734375L20.59228515625 18.6376953125L24.78173828125 18.6376953125L24.78173828125 48.3935546875Q24.78173828125 50.166015625 24.916015625 51.455078125Q25.05029296875 52.744140625 25.560546875 53.590087890625Q26.07080078125 54.43603515625 27.064453125 54.8388671875Q28.05810546875 55.24169921875 29.77685546875 55.24169921875L29.77685546875 59.7265625ZM43.3740234375 48.3935546875Q43.3740234375 50.19287109375 43.53515625 51.48193359375Q43.6962890625 52.77099609375 44.219970703125 53.603515625Q44.74365234375 54.43603515625 45.7373046875 54.8388671875Q46.73095703125 55.24169921875 48.369140625 55.24169921875L48.369140625 59.7265625L47.7783203125 59.7265625Q45.0927734375 59.7265625 43.4814453125 58.880615234375Q41.8701171875 58.03466796875 41.064453125 56.42333984375L40.95703125 56.42333984375Q40.2587890625 57.36328125 39.385986328125 57.994384765625Q38.51318359375 58.62548828125 37.5732421875 59.014892578125Q36.63330078125 59.404296875 35.679931640625 59.5654296875Q34.7265625 59.7265625 33.84033203125 59.7265625L30 59.7265625Q29.06005859375 59.7265625 28.590087890625 59.0283203125Q28.1201171875 58.330078125 28.1201171875 57.470703125Q28.1201171875 56.611328125 28.590087890625 55.926513671875Q29.06005859375 55.24169921875 30 55.24169921875L34.10888671875 55.24169921875Q34.8876953125 55.24169921875 35.787353515625 55Q36.68701171875 54.75830078125 37.43896484375 54.16748046875Q38.19091796875 53.57666015625 38.687744140625 52.623291015625Q39.1845703125 51.669921875 39.1845703125 50.24658203125L39.1845703125 38.32275390625L43.3740234375 38.32275390625L43.3740234375 48.3935546875ZM37.0361328125 68.642578125L32.06787109375 68.642578125L32.06787109375 63.78173828125L37.0361328125 63.78173828125L37.0361328125 68.642578125ZM45.68359375 68.642578125L40.71533203125 68.642578125L40.71533203125 63.78173828125L45.68359375 63.78173828125L45.68359375 68.642578125ZM52.10888671875 55.24169921875Q53.34423828125 55.24169921875 54.297607421875 55.040283203125Q55.2509765625 54.8388671875 55.8955078125 54.27490234375Q56.5400390625 53.7109375 56.8623046875 52.744140625Q57.1845703125 51.77734375 57.1845703125 50.24658203125L57.1845703125 38.32275390625L61.3740234375 38.32275390625L61.3740234375 50.4345703125Q61.3740234375 52.44873046875 60.998046875 53.92578125Q60.6220703125 55.40283203125 59.964111328125 56.42333984375Q59.30615234375 57.44384765625 58.406494140625 58.101806640625Q57.5068359375 58.759765625 56.446044921875 59.10888671875Q55.38525390625 59.4580078125 54.217041015625 59.59228515625Q53.048828125 59.7265625 51.84033203125 59.7265625L48 59.7265625Q47.06005859375 59.7265625 46.590087890625 59.0283203125Q46.1201171875 58.330078125 46.1201171875 57.470703125Q46.1201171875 56.611328125 46.590087890625 55.926513671875Q47.06005859375 55.24169921875 48 55.24169921875L52.10888671875 55.24169921875ZM61.56201171875 31.93115234375L56.59375 31.93115234375L56.59375 27.0703125L61.56201171875 27.0703125L61.56201171875 31.93115234375ZM68.2021484375 54.81201171875Q70.80712890625 55.107421875 73.0361328125 55.255126953125Q75.26513671875 55.40283203125 76.7958984375 55.40283203125Q78.91748046875 55.40283203125 80.36767578125 55.120849609375Q81.81787109375 54.8388671875 82.7041015625 54.248046875Q83.59033203125 53.6572265625 83.979736328125 52.744140625Q84.369140625 51.8310546875 84.369140625 50.56884765625Q84.369140625 48.6083984375 83.576904296875 46.513671875Q82.78466796875 44.4189453125 81.49560546875 42.283935546875Q80.20654296875 40.14892578125 78.554931640625 37.987060546875Q76.9033203125 35.8251953125 75.1845703125 33.73046875L80.15283203125 33.73046875Q84.4228515625 38.483890533447266 86.517578125 42.794189453125Q88.6123046875 47.1044921875 88.6123046875 50.99853515625Q88.6123046875 53.6572265625 87.6455078125 55.3759765625Q86.6787109375 57.0947265625 85.04052734375 58.115234375Q83.40234375 59.1357421875 81.25390625 59.53857421875Q79.10546875 59.94140625 76.76904296875 59.94140625Q75.21142578125 59.94140625 73.1435546875 59.7802734375Q71.07568359375 59.619140625 69.0615234375 59.3505859375L68.2021484375 54.81201171875ZM127.369140625 40.63232421875Q129.41015625 40.63232421875 131.034912109375 41.746826171875Q132.65966796875 42.861328125 133.801025390625 44.539794921875Q134.9423828125 46.21826171875 135.56005859375 48.165283203125Q136.177734375 50.1123046875 136.177734375 51.77734375Q136.177734375 53.36181640625 135.707763671875 54.81201171875Q135.23779296875 56.26220703125 134.284423828125 57.36328125Q133.3310546875 58.46435546875 131.921142578125 59.10888671875Q130.51123046875 59.75341796875 128.658203125 59.75341796875Q127.34228515625 59.75341796875 125.97265625 59.498291015625Q124.60302734375 59.2431640625 123.300537109375 58.934326171875Q121.998046875 58.62548828125 120.802978515625 58.370361328125Q119.60791015625 58.115234375 118.64111328125 58.115234375Q116.54638671875 58.115234375 115.646728515625 59.444580078125Q114.7470703125 60.77392578125 114.7470703125 63.2177734375Q114.7470703125 64.23828125 114.867919921875 65.487060546875Q114.98876953125 66.73583984375 115.217041015625 68.065185546875Q115.4453125 69.39453125 115.754150390625 70.697021484375Q116.06298828125 71.99951171875 116.43896484375 73.12744140625L111.98095703125 73.12744140625Q111.3095703125 70.361328125 110.920166015625 67.823486328125Q110.53076171875 65.28564453125 110.53076171875 63.4326171875Q110.53076171875 61.4990234375 111.01416015625 59.874267578125Q111.49755859375 58.24951171875 112.3837890625 57.027587890625Q113.27001953125 55.8056640625 114.518798828125 55.040283203125Q115.767578125 54.27490234375 117.3251953125 54.033203125Q117.94287109375 50.99853515625 118.761962890625 48.8232421875Q119.5810546875 46.64794921875 120.507568359375 45.157470703125Q121.43408203125 43.6669921875 122.414306640625 42.767333984375Q123.39453125 41.86767578125 124.3076171875 41.397705078125Q125.220703125 40.927734375 126.012939453125 40.780029296875Q126.80517578125 40.63232421875 127.369140625 40.63232421875ZM128.04052734375 55.2685546875Q128.9267578125 55.2685546875 129.638427734375 55.107421875Q130.35009765625 54.9462890625 130.873779296875 54.5703125Q131.3974609375 54.1943359375 131.679443359375 53.5498046875Q131.96142578125 52.9052734375 131.96142578125 51.96533203125Q131.96142578125 50.9716796875 131.55859375 49.776611328125Q131.15576171875 48.58154296875 130.470947265625 47.5341796875Q129.7861328125 46.48681640625 128.859619140625 45.78857421875Q127.93310546875 45.09033203125 126.8857421875 45.09033203125Q124.87158203125 45.09033203125 123.407958984375 47.29248046875Q121.9443359375 49.49462890625 120.84326171875 54.140625Q121.7294921875 54.27490234375 122.642578125 54.476318359375Q123.5556640625 54.677734375 124.46875 54.852294921875Q125.3818359375 55.02685546875 126.281494140625 55.147705078125Q127.18115234375 55.2685546875 128.04052734375 55.2685546875ZM156.0927734375 58.330078125L144.0615234375 22.6123046875L148.51953125 22.6123046875L160.443359375 58.330078125L156.0927734375 58.330078125ZM142.8330078125 54.8388671875Q146.24365234375 55.24169921875 149.264892578125 55.362548828125Q152.2861328125 55.4833984375 155.21337890625 55.4833984375Q157.3349609375 55.4833984375 158.906005859375 55.40283203125Q160.47705078125 55.322265625 161.5244140625 54.825439453125Q162.57177734375 54.32861328125 163.08203125 53.267822265625Q163.59228515625 52.20703125 163.59228515625 50.24658203125L163.59228515625 18.6376953125L167.78173828125 18.6376953125L167.78173828125 48.3935546875Q167.78173828125 50.30029296875 167.983154296875 51.6162109375Q168.1845703125 52.93212890625 168.74853515625 53.73779296875Q169.3125 54.54345703125 170.279296875 54.892578125Q171.24609375 55.24169921875 172.77685546875 55.24169921875L172.77685546875 59.7265625L172.18603515625 59.7265625Q169.76904296875 59.7265625 168.305419921875 58.934326171875Q166.841796875 58.14208984375 166.0361328125 56.53076171875L165.9287109375 56.53076171875Q165.14990234375 57.7392578125 163.9951171875 58.424072265625Q162.84033203125 59.10888671875 161.376708984375 59.444580078125Q159.9130859375 59.7802734375 158.16748046875 59.86083984375Q156.421875 59.94140625 154.4345703125 59.94140625Q151.82958984375 59.94140625 149.103759765625 59.80712890625Q146.3779296875 59.6728515625 143.6923828125 59.296875L142.8330078125 54.8388671875ZM200.15087890625 48.3935546875Q200.15087890625 50.19287109375 200.298583984375 51.48193359375Q200.4462890625 52.77099609375 200.969970703125 53.603515625Q201.49365234375 54.43603515625 202.46044921875 54.8388671875Q203.42724609375 55.24169921875 205.09228515625 55.24169921875Q206.11279296875 55.24169921875 206.97216796875 55.040283203125Q207.83154296875 54.8388671875 208.44921875 54.27490234375Q209.06689453125 53.7109375 209.402587890625 52.744140625Q209.73828125 51.77734375 209.73828125 50.24658203125L209.73828125 38.32275390625L213.927734375 38.32275390625L213.927734375 50.595703125Q213.927734375 53.49609375 213.162353515625 55.281982421875Q212.39697265625 57.06787109375 211.148193359375 58.0615234375Q209.8994140625 59.05517578125 208.301513671875 59.390869140625Q206.70361328125 59.7265625 205.01171875 59.7265625Q203.830078125 59.7265625 202.769287109375 59.552001953125Q201.70849609375 59.37744140625 200.822265625 59.00146484375Q199.93603515625 58.62548828125 199.23779296875 57.994384765625Q198.53955078125 57.36328125 198.05615234375 56.42333984375L197.94873046875 56.42333984375Q197.25048828125 57.36328125 196.3642578125 57.994384765625Q195.47802734375 58.62548828125 194.524658203125 59.014892578125Q193.5712890625 59.404296875 192.6044921875 59.5654296875Q191.6376953125 59.7265625 190.75146484375 59.7265625Q188.06591796875 59.7265625 186.468017578125 58.880615234375Q184.8701171875 58.03466796875 184.064453125 56.42333984375L183.95703125 56.42333984375Q183.2587890625 57.36328125 182.385986328125 57.994384765625Q181.51318359375 58.62548828125 180.5732421875 59.014892578125Q179.63330078125 59.404296875 178.679931640625 59.5654296875Q177.7265625 59.7265625 176.84033203125 59.7265625L173 59.7265625Q172.06005859375 59.7265625 171.590087890625 59.0283203125Q171.1201171875 58.330078125 171.1201171875 57.470703125Q171.1201171875 56.611328125 171.590087890625 55.926513671875Q172.06005859375 55.24169921875 173 55.24169921875L177.10888671875 55.24169921875Q177.8876953125 55.24169921875 178.787353515625 55Q179.68701171875 54.75830078125 180.43896484375 54.16748046875Q181.19091796875 53.57666015625 181.687744140625 52.623291015625Q182.1845703125 51.669921875 182.1845703125 50.24658203125L182.1845703125 43.076171875L186.3740234375 43.076171875L186.3740234375 48.47412109375Q186.3740234375 50.2197265625 186.521728515625 51.495361328125Q186.66943359375 52.77099609375 187.15283203125 53.603515625Q187.63623046875 54.43603515625 188.54931640625 54.8388671875Q189.46240234375 55.24169921875 190.9931640625 55.24169921875Q191.9599609375 55.24169921875 192.859619140625 55.02685546875Q193.75927734375 54.81201171875 194.444091796875 54.248046875Q195.12890625 53.68408203125 195.545166015625 52.71728515625Q195.96142578125 51.75048828125 195.96142578125 50.24658203125L195.96142578125 43.076171875L200.15087890625 43.076171875L200.15087890625 48.3935546875Z"/>
</svg>
