<svg xmlns="http://www.w3.org/2000/svg" viewBox="0 0 209.09 54.49"><path d="M10.07,20.84,9.56,48.5H5.94L5.45,20.84Zm-2.26,39A2.85,2.85,0,0,1,5.71,59a2.8,2.8,0,0,1-.88-2.09,2.85,2.85,0,0,1,.88-2.11,2.86,2.86,0,0,1,2.1-.87,2.89,2.89,0,0,1,2.1.87,2.86,2.86,0,0,1,.89,2.11A2.8,2.8,0,0,1,9.91,59,2.88,2.88,0,0,1,7.81,59.83Zm22-.1h-.54a10,10,0,0,1-4.44-.84,6.56,6.56,0,0,1-2.64-2.2,8.31,8.31,0,0,1-1.25-3.11,20.34,20.34,0,0,1-.32-3.6V18.64h4.19V48.39a29.83,29.83,0,0,0,.14,3.07,5.14,5.14,0,0,0,.64,2.13,3.05,3.05,0,0,0,1.5,1.25,7.44,7.44,0,0,0,2.72.4ZM43.37,48.39a24.7,24.7,0,0,0,.17,3.09,5,5,0,0,0,.68,2.12,3.08,3.08,0,0,0,1.52,1.24,7.09,7.09,0,0,0,2.63.4v4.49h-.59a9.36,9.36,0,0,1-4.3-.85,5.49,5.49,0,0,1-2.42-2.46H41A7.3,7.3,0,0,1,39.39,58a8.25,8.25,0,0,1-1.82,1,8.69,8.69,0,0,1-1.89.56,11.94,11.94,0,0,1-1.84.16H30a1.59,1.59,0,0,1-1.41-.7,2.78,2.78,0,0,1-.47-1.56,2.67,2.67,0,0,1,.47-1.54A1.58,1.58,0,0,1,30,55.24h4.11A6.54,6.54,0,0,0,35.79,55a4.59,4.59,0,0,0,1.65-.83,4.72,4.72,0,0,0,1.25-1.55,5.08,5.08,0,0,0,.49-2.37V38.32h4.19ZM37,68.64h-5V63.78h5Zm8.64,0h-5V63.78h5Zm6.43-13.4A11,11,0,0,0,54.3,55a3.42,3.42,0,0,0,1.6-.77,3.3,3.3,0,0,0,1-1.53,7.84,7.84,0,0,0,.32-2.49V38.32h4.19V50.43a14.4,14.4,0,0,1-.37,3.5,8.37,8.37,0,0,1-1,2.49,6.11,6.11,0,0,1-1.55,1.68,7,7,0,0,1-2,1,11.47,11.47,0,0,1-2.23.48,20.7,20.7,0,0,1-2.38.14H48a1.59,1.59,0,0,1-1.41-.7,2.78,2.78,0,0,1-.47-1.56,2.67,2.67,0,0,1,.47-1.54A1.58,1.58,0,0,1,48,55.24Zm9.45-23.31h-5V27.07h5ZM68.2,54.81c1.74.2,3.35.35,4.84.45s2.74.14,3.76.14a19,19,0,0,0,3.57-.28,6.52,6.52,0,0,0,2.33-.87A3.44,3.44,0,0,0,84,52.74a5.46,5.46,0,0,0,.39-2.17,11.42,11.42,0,0,0-.79-4.06,27.51,27.51,0,0,0-2.08-4.23,46.43,46.43,0,0,0-3-4.29q-1.65-2.16-3.37-4.26h5a40.31,40.31,0,0,1,6.37,9.06A18.91,18.91,0,0,1,88.61,51a8.93,8.93,0,0,1-1,4.38A7.71,7.71,0,0,1,85,58.12a10.86,10.86,0,0,1-3.79,1.42,24.09,24.09,0,0,1-4.48.4c-1,0-2.25,0-3.63-.16s-2.74-.25-4.08-.43Zm59.17-14.18A6.26,6.26,0,0,1,131,41.75a10.36,10.36,0,0,1,2.77,2.79,13.86,13.86,0,0,1,1.76,3.63,12,12,0,0,1,.62,3.61,9.85,9.85,0,0,1-.47,3,7.26,7.26,0,0,1-1.43,2.55,6.71,6.71,0,0,1-2.36,1.75,7.77,7.77,0,0,1-3.26.64A14.72,14.72,0,0,1,126,59.5q-1.36-.26-2.67-.57l-2.5-.56a10.31,10.31,0,0,0-2.16-.25,3.35,3.35,0,0,0-3,1.32,6.73,6.73,0,0,0-.9,3.78c0,.68,0,1.43.12,2.27s.19,1.69.35,2.58.33,1.76.53,2.63.44,1.68.69,2.43H112c-.45-1.85-.8-3.61-1.06-5.31a29.4,29.4,0,0,1-.39-4.39,12.56,12.56,0,0,1,.48-3.56A9.49,9.49,0,0,1,112.38,57a7.36,7.36,0,0,1,2.14-2,7.49,7.49,0,0,1,2.81-1,35.09,35.09,0,0,1,1.43-5.21,20.92,20.92,0,0,1,1.75-3.66,11.4,11.4,0,0,1,1.9-2.39,8.88,8.88,0,0,1,1.9-1.37,6.1,6.1,0,0,1,1.7-.62A7.48,7.48,0,0,1,127.37,40.63ZM128,55.27a7.81,7.81,0,0,0,1.6-.16,3.44,3.44,0,0,0,1.23-.54,2.43,2.43,0,0,0,.81-1A3.92,3.92,0,0,0,132,52a6.79,6.79,0,0,0-.4-2.19,9.75,9.75,0,0,0-1.09-2.25,6.89,6.89,0,0,0-1.61-1.74,3.21,3.21,0,0,0-2-.7,4.16,4.16,0,0,0-3.48,2.2,22,22,0,0,0-2.57,6.85c.59.09,1.19.2,1.8.34s1.22.26,1.83.37,1.21.22,1.81.3A13.35,13.35,0,0,0,128,55.27Zm28.05,3.06-12-35.72h4.46l11.92,35.72Zm-13.26-3.49q3.42.4,6.43.52t6,.12c1.42,0,2.65,0,3.7-.08a6.85,6.85,0,0,0,2.61-.57,3.24,3.24,0,0,0,1.56-1.56,7.18,7.18,0,0,0,.51-3V18.64h4.19V48.39a22.54,22.54,0,0,0,.2,3.23,5,5,0,0,0,.77,2.12,3.07,3.07,0,0,0,1.53,1.15,7.3,7.3,0,0,0,2.5.35v4.49h-.59a8.09,8.09,0,0,1-3.88-.8,5.29,5.29,0,0,1-2.27-2.4h-.11A5.8,5.8,0,0,1,164,58.42a8.94,8.94,0,0,1-2.62,1,17.32,17.32,0,0,1-3.21.42c-1.17,0-2.41.08-3.74.08-1.73,0-3.51,0-5.33-.13s-3.62-.26-5.41-.51Zm57.32-6.45a27.26,27.26,0,0,0,.15,3.09A5,5,0,0,0,201,53.6a3.14,3.14,0,0,0,1.49,1.24,7,7,0,0,0,2.63.4A8.47,8.47,0,0,0,207,55a3.15,3.15,0,0,0,1.48-.77,3.54,3.54,0,0,0,1-1.53,7.51,7.51,0,0,0,.34-2.49V38.32h4.19V50.6a12,12,0,0,1-.77,4.68,7,7,0,0,1-2,2.78,6.68,6.68,0,0,1-2.85,1.33,16.17,16.17,0,0,1-3.29.34,13.37,13.37,0,0,1-2.24-.18,8.2,8.2,0,0,1-2-.55,5.33,5.33,0,0,1-1.58-1,5.27,5.27,0,0,1-1.18-1.57H198A7,7,0,0,1,196.36,58a8.15,8.15,0,0,1-1.84,1,8.94,8.94,0,0,1-1.92.56,12.07,12.07,0,0,1-1.85.16,9.21,9.21,0,0,1-4.28-.85,5.46,5.46,0,0,1-2.41-2.46H184A7.3,7.3,0,0,1,182.39,58a8.25,8.25,0,0,1-1.82,1,8.69,8.69,0,0,1-1.89.56,11.94,11.94,0,0,1-1.84.16H173a1.59,1.59,0,0,1-1.41-.7,2.78,2.78,0,0,1-.47-1.56,2.67,2.67,0,0,1,.47-1.54,1.58,1.58,0,0,1,1.41-.69h4.11a6.54,6.54,0,0,0,1.68-.24,4.59,4.59,0,0,0,1.65-.83,4.72,4.72,0,0,0,1.25-1.55,5.08,5.08,0,0,0,.49-2.37V43.08h4.19v5.39a26.5,26.5,0,0,0,.15,3,5.42,5.42,0,0,0,.63,2.1,3,3,0,0,0,1.4,1.24,6.11,6.11,0,0,0,2.44.4,8.18,8.18,0,0,0,1.87-.21,4,4,0,0,0,1.58-.78,4,4,0,0,0,1.11-1.53,6.47,6.47,0,0,0,.41-2.47V43.08h4.19Z" transform="translate(-4.83 -18.64)" fill="tomato"/></svg>