<?xml version='1.0' encoding='utf-8'?>
<svg xmlns="http://www.w3.org/2000/svg" enable-background="new -393.4776 -103 2711.3752 1285.4167" version="1.1" viewBox="-393.4776 -103 2711.3752 1285.4167">
	<path d="m339.77-64.927c33.991-4.0469 68.878-2.7839 102 6.2876 25.11 6.8036 48.942 18.048 70.426 32.674 18.469 12.371 34.806 27.54 50.558 43.144 31.614 30.759 60.689 64.179 85.853 100.44 17.002 24.2 32.674 49.323 50.912 72.626 26.549 34.276 58.503 63.962 92.304 90.946 3.2728 2.4987 6.2875 5.4049 9.9134 7.4283 2.5938 0.4482 2.7568-2.5666 3.2457-4.3728 1.0728-7.469 1.3308-15.115 3.7888-22.312 3.4086-11.394 10.076-21.334 16.12-31.424 0.6518-13.648-2.1729-27.269-4.7802-40.618-6.3555-28.504-16.703-57.05-35.933-79.498 17.314 9.1801 31.845 22.882 43.687 38.377 12.195 15.807 22.176 33.203 30.84 51.17 22.135-16.622 49.689-26.114 77.433-25.829 25.3 0.0679 50.002 8.148 71.961 20.37 9.4109-18.17 20.329-35.634 33.285-51.509 10.742-13.01 23.304-25.381 39.341-31.519-25.68 30.378-37.793 70.25-39.98 109.5 14.843 15.984 25.082 36.204 28.953 57.688 2.1187 10.918 2.0779 22.095 1.4125 33.149 5.1061-0.4617 9.2615-3.6666 13.594-6.0838 42.913-24.648 79.674-58.679 112.2-95.685 19.107-21.864 36.707-45.031 53.071-69.014 27.282-40.265 55.841-80.014 89.927-114.89 29.808-30.65 64.288-57.606 103.93-74.31 29.129-12.344 60.866-18.469 92.494-17.736 55.732 2.2135 111.23 12.86 163.41 32.674 47.639 17.518 91.502 43.538 138.57 62.387 54.89 23.602 111.27 44.094 169.48 57.919 63.881 15.468 129.65 23.371 195.4 22.76 13.01-0.1494 26.006-1.0592 39.029-1.0864-50.056 9.1665-99.46 22.991-146.08 43.551-26.793 11.964-52.677 26.468-75.301 45.276-17.084 14.354-32.307 31.397-42.302 51.482-9.7504 19.297-14.49 41.378-11.611 62.944 3.1505 27.404 17.097 52.079 33.108 73.998 18.414 24.946 39.355 47.856 59.793 71.132-41.12-22.366-85.12-39.477-130.67-50.3-33.909-8.0258-68.769-12.453-103.64-11.72-25.979 0.0679-52.12 5.1605-75.722 16.187-22.108 10.321-41.528 26.304-55.692 46.186-21.918 30.596-31.424 68.525-32.796 105.73 0.3259 43.293 1.4124 86.749 7.4825 129.69-18.292-18.537-38.119-35.553-59.222-50.803-18.415-13.146-37.916-25.055-59.032-33.339-20.669-8.0258-43.972-12.792-65.687-6.0974-20.194 6.0159-35.77 22.258-45.194 40.618-11.231 22.828-17.668 47.72-21.755 72.748-6.1111 38.106-6.8851 76.904-4.5087 115.38-23.67-39.246-49.458-78.044-83.531-109.13-16.731-14.626-36.626-28.613-59.684-29.061-19.46-0.1901-36.014 12.996-46.552 28.355-16.88 24.471-26.508 53.071-33.149 81.833-8.0803 35.132-13.377 70.888-16.608 106.78-14.042-23.059-30.161-45.072-49.703-63.785-14.395-13.39-31.248-26.033-51.251-28.749-14.232-1.9962-28.572 3.6259-38.948 13.24-14.246 13.05-23.439 30.555-30.786 48.168-12.018 30.582-19.718 62.672-25.979 94.87-10.823 56.955-16.812 114.76-20.031 172.63-5.0925-63.039-11.516-126.04-22.081-188.41-4.7394-26.834-9.9406-53.709-18.455-79.647-3.1913-9.7369-7.2382-19.202-12.575-27.975-7.4283-15.522-16.364-31.112-30.338-41.65-9.2887-7.211-21.47-10.905-33.162-8.8814-16.554 2.716-30.406 13.336-42.207 24.661-24.458 24.349-42.397 54.212-59.195 84.115-4.3864-37.617-10.226-75.125-19.243-111.93-6.369-25.53-14.015-50.925-25.626-74.622-8.4467-16.649-18.93-33.556-35.403-43.307-11.489-6.9123-26.06-7.3061-38.35-2.3086-17.382 6.9122-31.234 20.207-43.578 33.882-30.8 35.498-53.356 77.148-74.677 118.77 3.3406-29.306 6.5999-58.693 6.8579-88.216 0.3259-30.542-1.3716-61.531-10.076-90.959-5.6765-18.659-14.924-37.264-30.922-49.133-13.662-10.253-31.492-13.431-48.196-11.462-23.738 2.5531-45.941 12.412-66.787 23.575-39.151 21.606-74.188 49.716-108.02 78.751 16.975-39.559 26.943-81.833 32.266-124.47 1.616-13.526 3.2864-27.133 2.5531-40.781-0.937-22.244-8.4468-44.257-21.823-62.088-13.417-18.156-32.185-31.845-52.609-41.148-22.488-10.307-47.191-15.413-71.893-15.929-31.492-2.0778-63.269-2.1728-94.531 2.6753-53.994 8.1344-106.63 23.127-159.05 38.065-7.7135 1.9691-15.155 5.011-23.045 6.274 28.681-13.648 56.466-29.251 82.879-46.892 27.092-18.374 53.329-38.92 73.509-64.926 13.281-17.287 23.887-38.146 23.276-60.458-0.2444-19.134-9.6011-36.965-22.122-50.979-16.092-17.912-36.449-31.411-57.525-42.736-54.374-26.807-112.46-45.371-171.23-59.766-34.208-8.148-68.688-15.345-103.57-19.854 85.826 5.0925 171.87-7.9172 254.49-30.677 32.999-9.1392 65.51-20.003 97.436-32.361 16.133-6.3826 32.307-12.684 47.897-20.275 46.851-21.742 93.784-43.524 142.37-61.164 37.345-13.498 75.831-24.566 115.36-29.224z"/>
</svg>