<?xml version='1.0' encoding='utf-8'?>
<svg xmlns="http://www.w3.org/2000/svg" height="150" stroke-miterlimit="10" style="fill-rule:nonzero;clip-rule:evenodd;stroke-linecap:round;stroke-linejoin:round;" version="1.1" viewBox="0 0 3200 3200" width="150"> <defs/> <g id="Layer-2"> <path d="M3.55271e-13 2.84217e-14L3200 2.84217e-14L3200 3200L3.55271e-13 3200L3.55271e-13 2.84217e-14Z" fill="#fae8e1" fill-rule="evenodd" opacity="1" stroke="none"/> <path d="M152.193 350.068L149.556 349.038L148.464 346.55L149.556 344.062L152.193 343.032L154.83 344.062L155.922 346.55L154.83 349.038L152.193 350.068Z" fill="#dac0a7" fill-rule="evenodd" opacity="1" stroke="none"/> <g opacity="1"> <path d="M430.962 333.78C435.193 300.247 440.541 267.05 446.38 233.678C447.395 227.876 457.473 197.161 459.786 203.506C462.099 209.851 455.631 259.056 455.631 259.056C455.631 259.056 478.084 188.288 488.779 170.232C489.322 169.316 500.012 150.657 503.426 152.609C511.56 157.258 480.936 225.407 480.936 225.407C480.936 225.407 538.478 143.776 545.825 158.248C553.173 172.72 505.154 229.038 492.133 251.859C468.385 293.483 429.494 345.419 430.962 333.78Z" fill="#5bbb8e" fill-rule="evenodd" opacity="1" stroke="none"/> <path d="M383.699 275.958C426.744 273.72 509.303 272.874 536.895 315.59C552.085 339.106 519.588 397.219 508.746 421.069C488.55 465.495 465.443 504.893 440.354 546.252C425.979 569.949 343.256 690.465 324.067 652.278C301.136 606.649 303.475 536.464 315.39 463.015C321.576 424.879 338.295 367.49 352.865 331.453C357.02 321.175 373.01 276.514 383.699 275.958Z" fill="#f5926e" fill-rule="evenodd" opacity="1" stroke="none"/> <path d="M502.866 368.069C499.871 369.122 501.262 368.938 498.744 368.938" fill="#d38365" fill-rule="evenodd" opacity="1" stroke="none"/> <path d="M328.956 380.891C339.429 387.402 398.108 398.855 412.759 392.599C427.41 386.344 365.298 356.784 338.463 358.257C317.34 359.417 318.484 374.379 328.956 380.891Z" fill="#f06635" fill-rule="evenodd" opacity="1" stroke="none"/> <path d="M317.604 437.113C326.148 442.157 373.321 449.99 384.843 444.508C396.366 439.026 345.943 416.505 324.559 418.399C307.726 419.889 309.059 432.07 317.604 437.113Z" fill="#f06635" fill-rule="evenodd" opacity="1" stroke="none"/> <path d="M307.856 496.339C313.978 500.046 347.93 505.704 356.278 501.614C364.626 497.523 328.443 481.007 313.012 482.471C300.864 483.623 301.734 492.632 307.856 496.339Z" fill="#f06635" fill-rule="evenodd" opacity="1" stroke="none"/> </g> <g opacity="1"> <path d="M2236.97 1083.36C2232.74 1049.82 2227.39 1016.63 2221.56 983.256C2220.54 977.454 2210.46 946.74 2208.15 953.084C2205.84 959.429 2212.3 1008.63 2212.3 1008.63C2212.3 1008.63 2189.85 937.866 2179.16 919.811C2178.61 918.894 2167.92 900.235 2164.51 902.187C2156.37 906.836 2187 974.985 2187 974.985C2187 974.985 2129.46 893.354 2122.11 907.826C2114.76 922.298 2162.78 978.616 2175.8 1001.44C2199.55 1043.06 2238.44 1095 2236.97 1083.36Z" fill="#5bbb8e" fill-rule="evenodd" opacity="1" stroke="none"/> <path d="M2284.24 1025.54C2241.19 1023.3 2158.63 1022.45 2131.04 1065.17C2115.85 1088.68 2148.35 1146.8 2159.19 1170.65C2179.39 1215.07 2202.49 1254.47 2227.58 1295.83C2241.96 1319.53 2324.68 1440.04 2343.87 1401.86C2366.8 1356.23 2364.46 1286.04 2352.55 1212.59C2346.36 1174.46 2329.64 1117.07 2315.07 1081.03C2310.92 1070.75 2294.92 1026.09 2284.24 1025.54Z" fill="#f5926e" fill-rule="evenodd" opacity="1" stroke="none"/> <path d="M2165.07 1117.65C2168.06 1118.7 2166.67 1118.52 2169.19 1118.52" fill="#d38365" fill-rule="evenodd" opacity="1" stroke="none"/> <path d="M2338.98 1130.47C2328.51 1136.98 2269.83 1148.43 2255.18 1142.18C2240.53 1135.92 2302.64 1106.36 2329.47 1107.84C2350.6 1109 2349.45 1123.96 2338.98 1130.47Z" fill="#f06635" fill-rule="evenodd" opacity="1" stroke="none"/> <path d="M2350.33 1186.69C2341.79 1191.73 2294.61 1199.57 2283.09 1194.09C2271.57 1188.6 2321.99 1166.08 2343.38 1167.98C2360.21 1169.47 2358.88 1181.65 2350.33 1186.69Z" fill="#f06635" fill-rule="evenodd" opacity="1" stroke="none"/> <path d="M2360.08 1245.92C2353.96 1249.62 2320.01 1255.28 2311.66 1251.19C2303.31 1247.1 2339.49 1230.59 2354.92 1232.05C2367.07 1233.2 2366.2 1242.21 2360.08 1245.92Z" fill="#f06635" fill-rule="evenodd" opacity="1" stroke="none"/> </g> <g opacity="1"> <path d="M1716.22 302.509C1711.99 268.975 1706.64 235.779 1700.8 202.406C1699.79 196.604 1689.71 165.89 1687.4 172.234C1685.09 178.579 1691.55 227.784 1691.55 227.784C1691.55 227.784 1669.1 157.016 1658.41 138.961C1657.86 138.044 1647.17 119.386 1643.76 121.337C1635.62 125.986 1666.25 194.135 1666.25 194.135C1666.25 194.135 1608.71 112.505 1601.36 126.977C1594.01 141.449 1642.03 197.766 1655.05 220.587C1678.8 262.211 1717.69 314.147 1716.22 302.509Z" fill="#5bbb8e" fill-rule="evenodd" opacity="1" stroke="none"/> <path d="M1763.49 244.686C1720.44 242.448 1637.88 241.603 1610.29 284.319C1595.1 307.834 1627.6 365.948 1638.44 389.798C1658.63 434.223 1681.74 473.621 1706.83 514.981C1721.21 538.678 1803.93 659.193 1823.12 621.007C1846.05 575.377 1843.71 505.192 1831.8 431.744C1825.61 393.608 1808.89 336.219 1794.32 300.181C1790.17 289.903 1774.17 245.242 1763.49 244.686Z" fill="#f5926e" fill-rule="evenodd" opacity="1" stroke="none"/> <path d="M1644.32 336.797C1647.31 337.85 1645.92 337.667 1648.44 337.667" fill="#d38365" fill-rule="evenodd" opacity="1" stroke="none"/> <path d="M1818.23 349.619C1807.76 356.13 1749.08 367.583 1734.43 361.327C1719.77 355.072 1781.89 325.512 1808.72 326.986C1829.85 328.145 1828.7 343.108 1818.23 349.619Z" fill="#f06635" fill-rule="evenodd" opacity="1" stroke="none"/> <path d="M1829.58 405.841C1821.04 410.885 1773.86 418.718 1762.34 413.236C1750.82 407.754 1801.24 385.233 1822.63 387.127C1839.46 388.618 1838.13 400.798 1829.58 405.841Z" fill="#f06635" fill-rule="evenodd" opacity="1" stroke="none"/> <path d="M1839.33 465.067C1833.21 468.774 1799.26 474.432 1790.91 470.342C1782.56 466.252 1818.74 449.735 1834.17 451.199C1846.32 452.352 1845.45 461.36 1839.33 465.067Z" fill="#f06635" fill-rule="evenodd" opacity="1" stroke="none"/> </g> <g opacity="1"> <path d="M2822.95 400.649C2827.18 367.115 2832.53 333.919 2838.37 300.546C2839.38 294.744 2849.46 264.03 2851.77 270.375C2854.09 276.719 2847.62 325.924 2847.62 325.924C2847.62 325.924 2870.07 255.157 2880.77 237.101C2881.31 236.184 2892 217.526 2895.41 219.477C2903.55 224.126 2872.92 292.275 2872.92 292.275C2872.92 292.275 2930.46 210.645 2937.81 225.117C2945.16 239.589 2897.14 295.907 2884.12 318.727C2860.37 360.351 2821.48 412.287 2822.95 400.649Z" fill="#5bbb8e" fill-rule="evenodd" opacity="1" stroke="none"/> <path d="M2775.69 342.827C2818.73 340.588 2901.29 339.743 2928.88 382.459C2944.07 405.974 2911.58 464.088 2900.73 487.938C2880.54 532.364 2857.43 571.761 2832.34 613.121C2817.97 636.818 2735.24 757.333 2716.05 719.147C2693.12 673.518 2695.46 603.333 2707.38 529.884C2713.56 491.748 2730.28 434.359 2744.85 398.322C2749.01 388.043 2765 343.382 2775.69 342.827Z" fill="#f5926e" fill-rule="evenodd" opacity="1" stroke="none"/> <path d="M2894.85 434.937C2891.86 435.99 2893.25 435.807 2890.73 435.807" fill="#d38365" fill-rule="evenodd" opacity="1" stroke="none"/> <path d="M2720.94 447.759C2731.42 454.271 2790.1 465.723 2804.75 459.468C2819.4 453.212 2757.29 423.652 2730.45 425.126C2709.33 426.286 2710.47 441.248 2720.94 447.759Z" fill="#f06635" fill-rule="evenodd" opacity="1" stroke="none"/> <path d="M2709.59 503.982C2718.14 509.025 2765.31 516.858 2776.83 511.376C2788.35 505.894 2737.93 483.373 2716.55 485.267C2699.71 486.758 2701.05 498.938 2709.59 503.982Z" fill="#f06635" fill-rule="evenodd" opacity="1" stroke="none"/> <path d="M2699.84 563.207C2705.97 566.914 2739.92 572.572 2748.27 568.482C2756.61 564.392 2720.43 547.875 2705 549.339C2692.85 550.492 2693.72 559.501 2699.84 563.207Z" fill="#f06635" fill-rule="evenodd" opacity="1" stroke="none"/> </g> <g opacity="1"> <path d="M1141.87 860.222C1146.11 826.688 1151.45 793.492 1157.29 760.12C1158.31 754.317 1168.39 723.603 1170.7 729.948C1173.01 736.292 1166.54 785.498 1166.54 785.498C1166.54 785.498 1189 714.73 1199.69 696.674C1200.23 695.757 1210.92 677.099 1214.34 679.05C1222.47 683.7 1191.85 751.849 1191.85 751.849C1191.85 751.849 1249.39 670.218 1256.74 684.69C1264.08 699.162 1216.07 755.48 1203.05 778.3C1179.3 819.925 1140.41 871.861 1141.87 860.222Z" fill="#5bbb8e" fill-rule="evenodd" opacity="1" stroke="none"/> <path d="M1094.61 802.4C1137.66 800.162 1220.22 799.316 1247.81 842.032C1263 865.548 1230.5 923.661 1219.66 947.511C1199.46 991.937 1176.35 1031.33 1151.27 1072.69C1136.89 1096.39 1054.17 1216.91 1034.98 1178.72C1012.05 1133.09 1014.39 1062.91 1026.3 989.457C1032.49 951.321 1049.21 893.932 1063.78 857.895C1067.93 847.617 1083.92 802.956 1094.61 802.4Z" fill="#f5926e" fill-rule="evenodd" opacity="1" stroke="none"/> <path d="M1213.78 894.511C1210.78 895.563 1212.17 895.38 1209.66 895.38" fill="#d38365" fill-rule="evenodd" opacity="1" stroke="none"/> <path d="M1039.87 907.333C1050.34 913.844 1109.02 925.296 1123.67 919.041C1138.32 912.785 1076.21 883.226 1049.37 884.699C1028.25 885.859 1029.4 900.821 1039.87 907.333Z" fill="#f06635" fill-rule="evenodd" opacity="1" stroke="none"/> <path d="M1028.52 963.555C1037.06 968.598 1084.23 976.432 1095.76 970.95C1107.28 965.467 1056.86 942.946 1035.47 944.84C1018.64 946.331 1019.97 958.511 1028.52 963.555Z" fill="#f06635" fill-rule="evenodd" opacity="1" stroke="none"/> <path d="M1018.77 1022.78C1024.89 1026.49 1058.84 1032.15 1067.19 1028.06C1075.54 1023.97 1039.36 1007.45 1023.92 1008.91C1011.78 1010.07 1012.65 1019.07 1018.77 1022.78Z" fill="#f06635" fill-rule="evenodd" opacity="1" stroke="none"/> </g> <g opacity="1"> <path d="M837.656 2091.55C841.887 2058.02 847.234 2024.82 853.073 1991.45C854.089 1985.65 864.167 1954.94 866.479 1961.28C868.792 1967.62 862.324 2016.83 862.324 2016.83C862.324 2016.83 884.777 1946.06 895.473 1928.01C896.016 1927.09 906.705 1908.43 910.12 1910.38C918.254 1915.03 887.63 1983.18 887.63 1983.18C887.63 1983.18 945.171 1901.55 952.519 1916.02C959.866 1930.49 911.847 1986.81 898.827 2009.63C875.078 2051.26 836.187 2103.19 837.656 2091.55Z" fill="#5bbb8e" fill-rule="evenodd" opacity="1" stroke="none"/> <path d="M790.392 2033.73C833.438 2031.49 915.997 2030.65 943.589 2073.36C958.778 2096.88 926.282 2154.99 915.44 2178.84C895.244 2223.27 872.136 2262.67 847.047 2304.03C832.673 2327.72 749.95 2448.24 730.76 2410.05C707.83 2364.42 710.168 2294.24 722.083 2220.79C728.27 2182.65 744.988 2125.26 759.558 2089.23C763.713 2078.95 779.704 2034.29 790.392 2033.73Z" fill="#f5926e" fill-rule="evenodd" opacity="1" stroke="none"/> <path d="M909.56 2125.84C906.565 2126.9 907.956 2126.71 905.437 2126.71" fill="#d38365" fill-rule="evenodd" opacity="1" stroke="none"/> <path d="M735.65 2138.67C746.122 2145.18 804.802 2156.63 819.453 2150.37C834.104 2144.12 771.991 2114.56 745.156 2116.03C724.033 2117.19 725.177 2132.15 735.65 2138.67Z" fill="#f06635" fill-rule="evenodd" opacity="1" stroke="none"/> <path d="M724.297 2194.89C732.841 2199.93 780.015 2207.76 791.537 2202.28C803.059 2196.8 752.637 2174.28 731.252 2176.17C714.419 2177.66 715.753 2189.84 724.297 2194.89Z" fill="#f06635" fill-rule="evenodd" opacity="1" stroke="none"/> <path d="M714.55 2254.11C720.672 2257.82 754.623 2263.48 762.971 2259.39C771.32 2255.3 735.137 2238.78 719.705 2240.25C707.558 2241.4 708.428 2250.41 714.55 2254.11Z" fill="#f06635" fill-rule="evenodd" opacity="1" stroke="none"/> </g> <g opacity="1"> <path d="M409.941 1439.52C405.709 1405.99 400.362 1372.79 394.523 1339.42C393.508 1333.62 383.43 1302.9 381.117 1309.25C378.804 1315.59 385.272 1364.8 385.272 1364.8C385.272 1364.8 362.819 1294.03 352.124 1275.97C351.581 1275.06 340.891 1256.4 337.477 1258.35C329.342 1263 359.967 1331.15 359.967 1331.15C359.967 1331.15 302.425 1249.52 295.078 1263.99C287.73 1278.46 335.749 1334.78 348.769 1357.6C372.518 1399.22 411.409 1451.16 409.941 1439.52Z" fill="#5bbb8e" fill-rule="evenodd" opacity="1" stroke="none"/> <path d="M457.204 1381.7C414.158 1379.46 331.599 1378.62 304.008 1421.33C288.818 1444.85 321.314 1502.96 332.157 1526.81C352.353 1571.24 375.46 1610.63 400.549 1651.99C414.923 1675.69 497.646 1796.21 516.836 1758.02C539.766 1712.39 537.428 1642.21 525.513 1568.76C519.326 1530.62 502.608 1473.23 488.038 1437.19C483.883 1426.92 467.892 1382.26 457.204 1381.7Z" fill="#f5926e" fill-rule="evenodd" opacity="1" stroke="none"/> <path d="M338.036 1473.81C341.031 1474.86 339.641 1474.68 342.159 1474.68" fill="#d38365" fill-rule="evenodd" opacity="1" stroke="none"/> <path d="M511.947 1486.63C501.474 1493.14 442.795 1504.6 428.144 1498.34C413.493 1492.09 475.605 1462.53 502.44 1464C523.563 1465.16 522.419 1480.12 511.947 1486.63Z" fill="#f06635" fill-rule="evenodd" opacity="1" stroke="none"/> <path d="M523.299 1542.85C514.755 1547.9 467.582 1555.73 456.059 1550.25C444.537 1544.77 494.959 1522.25 516.344 1524.14C533.177 1525.63 531.843 1537.81 523.299 1542.85Z" fill="#f06635" fill-rule="evenodd" opacity="1" stroke="none"/> <path d="M533.047 1602.08C526.924 1605.79 492.973 1611.45 484.625 1607.36C476.276 1603.27 512.459 1586.75 527.891 1588.21C540.038 1589.36 539.169 1598.37 533.047 1602.08Z" fill="#f06635" fill-rule="evenodd" opacity="1" stroke="none"/> </g> <g opacity="1"> <path d="M1398.39 1561.83C1394.16 1528.3 1388.81 1495.1 1382.97 1461.73C1381.96 1455.92 1371.88 1425.21 1369.57 1431.56C1367.26 1437.9 1373.72 1487.1 1373.72 1487.1C1373.72 1487.1 1351.27 1416.34 1340.58 1398.28C1340.03 1397.36 1329.34 1378.71 1325.93 1380.66C1317.79 1385.31 1348.42 1453.46 1348.42 1453.46C1348.42 1453.46 1290.88 1371.83 1283.53 1386.3C1276.18 1400.77 1324.2 1457.09 1337.22 1479.91C1360.97 1521.53 1399.86 1573.47 1398.39 1561.83Z" fill="#5bbb8e" fill-rule="evenodd" opacity="1" stroke="none"/> <path d="M1445.66 1504.01C1402.61 1501.77 1320.05 1500.92 1292.46 1543.64C1277.27 1567.16 1309.77 1625.27 1320.61 1649.12C1340.8 1693.54 1363.91 1732.94 1389 1774.3C1403.37 1798 1486.1 1918.51 1505.29 1880.33C1528.22 1834.7 1525.88 1764.51 1513.96 1691.06C1507.78 1652.93 1491.06 1595.54 1476.49 1559.5C1472.33 1549.22 1456.34 1504.56 1445.66 1504.01Z" fill="#f5926e" fill-rule="evenodd" opacity="1" stroke="none"/> <path d="M1326.49 1596.12C1329.48 1597.17 1328.09 1596.99 1330.61 1596.99" fill="#d38365" fill-rule="evenodd" opacity="1" stroke="none"/> <path d="M1500.4 1608.94C1489.93 1615.45 1431.25 1626.9 1416.6 1620.65C1401.94 1614.39 1464.06 1584.83 1490.89 1586.31C1512.01 1587.47 1510.87 1602.43 1500.4 1608.94Z" fill="#f06635" fill-rule="evenodd" opacity="1" stroke="none"/> <path d="M1511.75 1665.16C1503.21 1670.21 1456.03 1678.04 1444.51 1672.56C1432.99 1667.07 1483.41 1644.55 1504.8 1646.45C1521.63 1647.94 1520.29 1660.12 1511.75 1665.16Z" fill="#f06635" fill-rule="evenodd" opacity="1" stroke="none"/> <path d="M1521.5 1724.39C1515.38 1728.09 1481.42 1733.75 1473.08 1729.66C1464.73 1725.57 1500.91 1709.06 1516.34 1710.52C1528.49 1711.67 1527.62 1720.68 1521.5 1724.39Z" fill="#f06635" fill-rule="evenodd" opacity="1" stroke="none"/> </g> <g opacity="1"> <path d="M2801.37 1619.02C2797.13 1585.49 2791.79 1552.29 2785.95 1518.92C2784.93 1513.12 2774.85 1482.4 2772.54 1488.75C2770.23 1495.09 2776.7 1544.3 2776.7 1544.3C2776.7 1544.3 2754.24 1473.53 2743.55 1455.47C2743.01 1454.56 2732.32 1435.9 2728.9 1437.85C2720.77 1442.5 2751.39 1510.65 2751.39 1510.65C2751.39 1510.65 2693.85 1429.02 2686.5 1443.49C2679.15 1457.96 2727.17 1514.28 2740.19 1537.1C2763.94 1578.72 2802.83 1630.66 2801.37 1619.02Z" fill="#5bbb8e" fill-rule="evenodd" opacity="1" stroke="none"/> <path d="M2848.63 1561.2C2805.58 1558.96 2723.02 1558.11 2695.43 1600.83C2680.24 1624.35 2712.74 1682.46 2723.58 1706.31C2743.78 1750.73 2766.88 1790.13 2791.97 1831.49C2806.35 1855.19 2889.07 1975.7 2908.26 1937.52C2931.19 1891.89 2928.85 1821.7 2916.94 1748.26C2910.75 1710.12 2894.03 1652.73 2879.46 1616.69C2875.31 1606.41 2859.32 1561.75 2848.63 1561.2Z" fill="#f5926e" fill-rule="evenodd" opacity="1" stroke="none"/> <path d="M2729.46 1653.31C2732.46 1654.36 2731.07 1654.18 2733.58 1654.18" fill="#d38365" fill-rule="evenodd" opacity="1" stroke="none"/> <path d="M2903.37 1666.13C2892.9 1672.64 2834.22 1684.09 2819.57 1677.84C2804.92 1671.58 2867.03 1642.02 2893.86 1643.5C2914.99 1644.66 2913.84 1659.62 2903.37 1666.13Z" fill="#f06635" fill-rule="evenodd" opacity="1" stroke="none"/> <path d="M2914.72 1722.35C2906.18 1727.4 2859.01 1735.23 2847.48 1729.75C2835.96 1724.27 2886.38 1701.74 2907.77 1703.64C2924.6 1705.13 2923.27 1717.31 2914.72 1722.35Z" fill="#f06635" fill-rule="evenodd" opacity="1" stroke="none"/> <path d="M2924.47 1781.58C2918.35 1785.29 2884.4 1790.94 2876.05 1786.85C2867.7 1782.76 2903.88 1766.25 2919.32 1767.71C2931.46 1768.86 2930.59 1777.87 2924.47 1781.58Z" fill="#f06635" fill-rule="evenodd" opacity="1" stroke="none"/> </g> <g opacity="1"> <path d="M1536.23 2580.04C1532 2546.5 1526.65 2513.31 1520.81 2479.94C1519.79 2474.13 1509.72 2443.42 1507.4 2449.76C1505.09 2456.11 1511.56 2505.31 1511.56 2505.31C1511.56 2505.31 1489.11 2434.55 1478.41 2416.49C1477.87 2415.57 1467.18 2396.92 1463.76 2398.87C1455.63 2403.52 1486.25 2471.67 1486.25 2471.67C1486.25 2471.67 1428.71 2390.03 1421.36 2404.51C1414.02 2418.98 1462.04 2475.3 1475.06 2498.12C1498.8 2539.74 1537.7 2591.68 1536.23 2580.04Z" fill="#5bbb8e" fill-rule="evenodd" opacity="1" stroke="none"/> <path d="M1583.49 2522.22C1540.45 2519.98 1457.89 2519.13 1430.29 2561.85C1415.1 2585.36 1447.6 2643.48 1458.44 2667.33C1478.64 2711.75 1501.75 2751.15 1526.84 2792.51C1541.21 2816.21 1623.93 2936.72 1643.12 2898.54C1666.05 2852.91 1663.71 2782.72 1651.8 2709.27C1645.61 2671.14 1628.89 2613.75 1614.32 2577.71C1610.17 2567.43 1594.18 2522.77 1583.49 2522.22Z" fill="#f5926e" fill-rule="evenodd" opacity="1" stroke="none"/> <path d="M1464.32 2614.33C1467.32 2615.38 1465.93 2615.2 1468.45 2615.2" fill="#d38365" fill-rule="evenodd" opacity="1" stroke="none"/> <path d="M1638.23 2627.15C1627.76 2633.66 1569.08 2645.11 1554.43 2638.86C1539.78 2632.6 1601.89 2603.04 1628.73 2604.52C1649.85 2605.68 1648.71 2620.64 1638.23 2627.15Z" fill="#f06635" fill-rule="evenodd" opacity="1" stroke="none"/> <path d="M1649.59 2683.37C1641.04 2688.41 1593.87 2696.25 1582.35 2690.77C1570.82 2685.28 1621.25 2662.76 1642.63 2664.66C1659.46 2666.15 1658.13 2678.33 1649.59 2683.37Z" fill="#f06635" fill-rule="evenodd" opacity="1" stroke="none"/> <path d="M1659.33 2742.6C1653.21 2746.3 1619.26 2751.96 1610.91 2747.87C1602.56 2743.78 1638.75 2727.27 1654.18 2728.73C1666.33 2729.88 1665.46 2738.89 1659.33 2742.6Z" fill="#f06635" fill-rule="evenodd" opacity="1" stroke="none"/> </g> <g opacity="1"> <path d="M407.227 2758.19C402.995 2724.65 397.648 2691.46 391.809 2658.08C390.794 2652.28 380.716 2621.57 378.403 2627.91C376.09 2634.26 382.558 2683.46 382.558 2683.46C382.558 2683.46 360.105 2612.69 349.41 2594.64C348.867 2593.72 338.177 2575.06 334.763 2577.01C326.628 2581.66 357.253 2649.81 357.253 2649.81C357.253 2649.81 299.711 2568.18 292.364 2582.65C285.016 2597.13 333.035 2653.44 346.055 2676.26C369.804 2717.89 408.695 2769.82 407.227 2758.19Z" fill="#5bbb8e" fill-rule="evenodd" opacity="1" stroke="none"/> <path d="M454.49 2700.36C411.444 2698.12 328.885 2697.28 301.294 2740C286.104 2763.51 318.6 2821.62 329.443 2845.47C349.639 2889.9 372.746 2929.3 397.835 2970.66C412.209 2994.35 494.932 3114.87 514.122 3076.68C537.052 3031.05 534.714 2960.87 522.799 2887.42C516.612 2849.28 499.894 2791.9 485.324 2755.86C481.169 2745.58 465.178 2700.92 454.49 2700.36Z" fill="#f5926e" fill-rule="evenodd" opacity="1" stroke="none"/> <path d="M335.322 2792.47C338.317 2793.53 336.927 2793.34 339.445 2793.34" fill="#d38365" fill-rule="evenodd" opacity="1" stroke="none"/> <path d="M509.233 2805.3C498.76 2811.81 440.081 2823.26 425.43 2817C410.779 2810.75 472.891 2781.19 499.726 2782.66C520.849 2783.82 519.705 2798.78 509.233 2805.3Z" fill="#f06635" fill-rule="evenodd" opacity="1" stroke="none"/> <path d="M520.585 2861.52C512.041 2866.56 464.868 2874.39 453.345 2868.91C441.823 2863.43 492.245 2840.91 513.63 2842.8C530.463 2844.29 529.129 2856.47 520.585 2861.52Z" fill="#f06635" fill-rule="evenodd" opacity="1" stroke="none"/> <path d="M530.333 2920.74C524.21 2924.45 490.259 2930.11 481.911 2926.02C473.562 2921.93 509.745 2905.41 525.177 2906.88C537.324 2908.03 536.455 2917.04 530.333 2920.74Z" fill="#f06635" fill-rule="evenodd" opacity="1" stroke="none"/> </g> <g opacity="1"> <path d="M2676.18 2719.14C2680.41 2685.61 2685.76 2652.41 2691.6 2619.04C2692.62 2613.23 2702.69 2582.52 2705.01 2588.86C2707.32 2595.21 2700.85 2644.41 2700.85 2644.41C2700.85 2644.41 2723.3 2573.65 2734 2555.59C2734.54 2554.67 2745.23 2536.02 2748.65 2537.97C2756.78 2542.62 2726.16 2610.77 2726.16 2610.77C2726.16 2610.77 2783.7 2529.13 2791.05 2543.61C2798.39 2558.08 2750.37 2614.4 2737.35 2637.22C2713.61 2678.84 2674.71 2730.78 2676.18 2719.14Z" fill="#5bbb8e" fill-rule="evenodd" opacity="1" stroke="none"/> <path d="M2628.92 2661.32C2671.96 2659.08 2754.52 2658.23 2782.12 2700.95C2797.31 2724.46 2764.81 2782.58 2753.97 2806.43C2733.77 2850.85 2710.66 2890.25 2685.57 2931.61C2671.2 2955.31 2588.48 3075.82 2569.29 3037.64C2546.36 2992.01 2548.7 2921.82 2560.61 2848.37C2566.8 2810.24 2583.51 2752.85 2598.08 2716.81C2602.24 2706.53 2618.23 2661.87 2628.92 2661.32Z" fill="#f5926e" fill-rule="evenodd" opacity="1" stroke="none"/> <path d="M2748.09 2753.43C2745.09 2754.48 2746.48 2754.3 2743.96 2754.3" fill="#d38365" fill-rule="evenodd" opacity="1" stroke="none"/> <path d="M2574.18 2766.25C2584.65 2772.76 2643.33 2784.21 2657.98 2777.96C2672.63 2771.7 2610.52 2742.14 2583.68 2743.62C2562.56 2744.78 2563.7 2759.74 2574.18 2766.25Z" fill="#f06635" fill-rule="evenodd" opacity="1" stroke="none"/> <path d="M2562.82 2822.47C2571.37 2827.52 2618.54 2835.35 2630.06 2829.87C2641.59 2824.38 2591.16 2801.86 2569.78 2803.76C2552.95 2805.25 2554.28 2817.43 2562.82 2822.47Z" fill="#f06635" fill-rule="evenodd" opacity="1" stroke="none"/> <path d="M2553.08 2881.7C2559.2 2885.4 2593.15 2891.06 2601.5 2886.97C2609.85 2882.88 2573.66 2866.37 2558.23 2867.83C2546.08 2868.98 2546.95 2877.99 2553.08 2881.7Z" fill="#f06635" fill-rule="evenodd" opacity="1" stroke="none"/> </g> <g opacity="1"> <path d="M2199.32 2013.58C2203.55 1980.05 2208.9 1946.85 2214.74 1913.48C2215.76 1907.68 2225.83 1876.96 2228.15 1883.31C2230.46 1889.65 2223.99 1938.86 2223.99 1938.86C2223.99 1938.86 2246.44 1868.09 2257.14 1850.03C2257.68 1849.12 2268.37 1830.46 2271.79 1832.41C2279.92 1837.06 2249.3 1905.21 2249.3 1905.21C2249.3 1905.21 2306.84 1823.58 2314.19 1838.05C2321.53 1852.52 2273.51 1908.84 2260.49 1931.66C2236.75 1973.28 2197.85 2025.22 2199.32 2013.58Z" fill="#5bbb8e" fill-rule="evenodd" opacity="1" stroke="none"/> <path d="M2152.06 1955.76C2195.1 1953.52 2277.66 1952.68 2305.26 1995.39C2320.45 2018.91 2287.95 2077.02 2277.11 2100.87C2256.91 2145.3 2233.8 2184.69 2208.71 2226.05C2194.34 2249.75 2111.62 2370.27 2092.43 2332.08C2069.5 2286.45 2071.84 2216.26 2083.75 2142.82C2089.94 2104.68 2106.66 2047.29 2121.23 2011.25C2125.38 2000.98 2141.37 1956.31 2152.06 1955.76Z" fill="#f5926e" fill-rule="evenodd" opacity="1" stroke="none"/> <path d="M2271.23 2047.87C2268.23 2048.92 2269.62 2048.74 2267.1 2048.74" fill="#d38365" fill-rule="evenodd" opacity="1" stroke="none"/> <path d="M2097.32 2060.69C2107.79 2067.2 2166.47 2078.66 2181.12 2072.4C2195.77 2066.14 2133.66 2036.58 2106.82 2038.06C2085.7 2039.22 2086.84 2054.18 2097.32 2060.69Z" fill="#f06635" fill-rule="evenodd" opacity="1" stroke="none"/> <path d="M2085.96 2116.91C2094.51 2121.96 2141.68 2129.79 2153.2 2124.31C2164.73 2118.83 2114.3 2096.31 2092.92 2098.2C2076.09 2099.69 2077.42 2111.87 2085.96 2116.91Z" fill="#f06635" fill-rule="evenodd" opacity="1" stroke="none"/> <path d="M2076.22 2176.14C2082.34 2179.85 2116.29 2185.5 2124.64 2181.41C2132.99 2177.32 2096.8 2160.81 2081.37 2162.27C2069.22 2163.42 2070.09 2172.43 2076.22 2176.14Z" fill="#f06635" fill-rule="evenodd" opacity="1" stroke="none"/> </g> <path d="M499.586 984.939C499.586 964.685 514.441 948.266 532.766 948.266C551.091 948.266 565.946 964.685 565.946 984.939C565.946 1005.19 551.091 1021.61 532.766 1021.61C514.441 1021.61 499.586 1005.19 499.586 984.939Z" fill="#f06635" fill-rule="evenodd" opacity="1" stroke="none"/> <path d="M157.631 241.167C157.631 220.914 172.486 204.495 190.811 204.495C209.136 204.495 223.991 220.914 223.991 241.167C223.991 261.421 209.136 277.84 190.811 277.84C172.486 277.84 157.631 261.421 157.631 241.167Z" fill="#f06635" fill-rule="evenodd" opacity="1" stroke="none"/> <path d="M945.909 464.218C945.909 429.615 971.313 401.564 1002.65 401.564C1033.99 401.564 1059.39 429.615 1059.39 464.218C1059.39 498.821 1033.99 526.872 1002.65 526.872C971.313 526.872 945.909 498.821 945.909 464.218Z" fill="#f06635" fill-rule="evenodd" opacity="1" stroke="none"/> <path d="M1773.11 1210.44C1773.11 1196.38 1785.05 1184.98 1799.77 1184.98C1814.49 1184.98 1826.42 1196.38 1826.42 1210.44C1826.42 1224.5 1814.49 1235.9 1799.77 1235.9C1785.05 1235.9 1773.11 1224.5 1773.11 1210.44Z" fill="#f06635" fill-rule="evenodd" opacity="1" stroke="none"/> <path d="M1905.73 732.447C1905.73 714.739 1921.52 700.384 1941.01 700.384C1960.5 700.384 1976.29 714.739 1976.29 732.447C1976.29 750.154 1960.5 764.509 1941.01 764.509C1921.52 764.509 1905.73 750.154 1905.73 732.447Z" fill="#f06635" fill-rule="evenodd" opacity="1" stroke="none"/> <path d="M1863.13 1667.84C1863.13 1653.77 1875.07 1642.37 1889.79 1642.37C1904.51 1642.37 1916.44 1653.77 1916.44 1667.84C1916.44 1681.9 1904.51 1693.3 1889.79 1693.3C1875.07 1693.3 1863.13 1681.9 1863.13 1667.84Z" fill="#f06635" fill-rule="evenodd" opacity="1" stroke="none"/> <path d="M2862.64 1169.25C2862.64 1155.18 2874.58 1143.78 2889.3 1143.78C2904.02 1143.78 2915.95 1155.18 2915.95 1169.25C2915.95 1183.31 2904.02 1194.71 2889.3 1194.71C2874.58 1194.71 2862.64 1183.31 2862.64 1169.25Z" fill="#f06635" fill-rule="evenodd" opacity="1" stroke="none"/> <path d="M1174.61 1845.4C1174.61 1828.67 1186.81 1815.11 1201.87 1815.11C1216.93 1815.11 1229.13 1828.67 1229.13 1845.4C1229.13 1862.12 1216.93 1875.68 1201.87 1875.68C1186.81 1875.68 1174.61 1862.12 1174.61 1845.4Z" fill="#f06635" fill-rule="evenodd" opacity="1" stroke="none"/> <path d="M191.692 2189.19C191.692 2154.58 217.096 2126.53 248.434 2126.53C279.771 2126.53 305.175 2154.58 305.175 2189.19C305.175 2223.79 279.771 2251.84 248.434 2251.84C217.096 2251.84 191.692 2223.79 191.692 2189.19Z" fill="#f06635" fill-rule="evenodd" opacity="1" stroke="none"/> <path d="M1658.77 2140.53C1658.77 2105.92 1684.17 2077.87 1715.51 2077.87C1746.84 2077.87 1772.25 2105.92 1772.25 2140.53C1772.25 2175.13 1746.84 2203.18 1715.51 2203.18C1684.17 2203.18 1658.77 2175.13 1658.77 2140.53Z" fill="#f06635" fill-rule="evenodd" opacity="1" stroke="none"/> <path d="M904.549 2906.91C904.549 2872.31 929.953 2844.25 961.29 2844.25C992.628 2844.25 1018.03 2872.31 1018.03 2906.91C1018.03 2941.51 992.628 2969.56 961.29 2969.56C929.953 2969.56 904.549 2941.51 904.549 2906.91Z" fill="#f06635" fill-rule="evenodd" opacity="1" stroke="none"/> <path d="M2176.99 2647.77C2176.99 2629.98 2190.52 2615.56 2207.21 2615.56C2223.9 2615.56 2237.44 2629.98 2237.44 2647.77C2237.44 2665.57 2223.9 2679.99 2207.21 2679.99C2190.52 2679.99 2176.99 2665.57 2176.99 2647.77Z" fill="#f06635" fill-rule="evenodd" opacity="1" stroke="none"/> <path d="M819.395 1484.82C819.395 1467.03 832.928 1452.6 849.621 1452.6C866.314 1452.6 879.846 1467.03 879.846 1484.82C879.846 1502.61 866.314 1517.04 849.621 1517.04C832.928 1517.04 819.395 1502.61 819.395 1484.82Z" fill="#f06635" fill-rule="evenodd" opacity="1" stroke="none"/> <path d="M2880.11 2949.46C2880.11 2931.67 2893.64 2917.24 2910.34 2917.24C2927.03 2917.24 2940.56 2931.67 2940.56 2949.46C2940.56 2967.25 2927.03 2981.68 2910.34 2981.68C2893.64 2981.68 2880.11 2967.25 2880.11 2949.46Z" fill="#f06635" fill-rule="evenodd" opacity="1" stroke="none"/> <path d="M2850.92 2372.85C2850.92 2355.06 2864.45 2340.63 2881.14 2340.63C2897.83 2340.63 2911.37 2355.06 2911.37 2372.85C2911.37 2390.64 2897.83 2405.07 2881.14 2405.07C2864.45 2405.07 2850.92 2390.64 2850.92 2372.85Z" fill="#f06635" fill-rule="evenodd" opacity="1" stroke="none"/> <path d="M2561.39 1970.22C2561.39 1935.62 2586.8 1907.57 2618.13 1907.57C2649.47 1907.57 2674.88 1935.62 2674.88 1970.22C2674.88 2004.82 2649.47 2032.87 2618.13 2032.87C2586.8 2032.87 2561.39 2004.82 2561.39 1970.22Z" fill="#f06635" fill-rule="evenodd" opacity="1" stroke="none"/> <path d="M2456.78 857.89C2456.78 839.669 2471.02 824.899 2488.59 824.899C2506.16 824.899 2520.4 839.669 2520.4 857.89C2520.4 876.11 2506.16 890.88 2488.59 890.88C2471.02 890.88 2456.78 876.11 2456.78 857.89Z" fill="#f06635" fill-rule="evenodd" opacity="1" stroke="none"/> <path d="M2386.22 369.21C2386.22 345.425 2403.12 326.143 2423.96 326.143C2444.81 326.143 2461.7 345.425 2461.7 369.21C2461.7 392.996 2444.81 412.278 2423.96 412.278C2403.12 412.278 2386.22 392.996 2386.22 369.21Z" fill="#f06635" fill-rule="evenodd" opacity="1" stroke="none"/> </g> </svg>
