<svg xmlns="http://www.w3.org/2000/svg" width="1729.8" height="1864.2" viewBox="0 0 1729.8 1864.2"><path d="M1333.63,1534.38c19.06,29.7,37.73,59.58,53.48,91.34,7.12,14.36,5.2,26.4-3.88,38.36-11.72,15.42-27.29,25.61-44.34,33.83-4.31,2.08-8.47,4.47-12.7,6.72a7.06,7.06,0,0,1-4.17-3.9c1.68-2.83.85-5.69.15-8.58-9.21-37.6-19-75-35.24-110.26.7-5.27-3.78-7.85-5.85-11.68l5.93-5.63c13-6.71,24.28-15.79,35-25.69C1326.22,1538.29,1328,1531.29,1333.63,1534.38Z" transform="translate(-21.52 -31.95)" fill="#0b0b0b"/><path d="M940.62,1620.33c-2.32-1.59-3.67-4.64-8-4.73-9.59,17.86-20.36,35.4-45.14,33.59-22.69-1.65-36.17-16.43-47.38-33.8-4.64-.21-5.49,3.52-7.36,5.89-9.44,12-18.82,24-34.69,28.07-5.08,1.3-4.64,5.49-4.64,9.4,0,19.41,3.9,92.35.86,59.69l-45.54,6.29c-18.81-.19-37.62,1.32-56.42-.2,1.86-.49,3.73-1.46,5.57-1.41a482.46,482.46,0,0,0,72.37-3.94c10-1.24,12.41-1.22,17.17-6.45-10.06.56-18.8,4.63-28.23,4.5-7.3-.09-10.92-2.48-10.49-10.15,1.07-19.13-1.92-38-3.74-56.95-2.15-22.41-11.35-42.28-19.88-63.72-15.23,15.25-30.08,31-53.34,27.29-23-3.68-32.2-23.66-44-42.2-6.21,8.44-10.4,16.58-14.67,24.75-3.84,7.33-5,16.21-12.25,21.63-3.61-7.35-11.13-6-17.26-7.76l-23.09-7.73L549.94,1597c4.26-.11,7.14-1.52,8.37-6.26a58.48,58.48,0,0,1,5.46-13.41c3.36-6.09,2.26-9.22-4.19-12.78-18.89-10.42-29.5-26.87-30.21-48.61-.27-8.46-2.75-11.76-11.52-12.58-14-1.3-28.51-2.58-39.3-13.69,0-1.17-.07-2.33-.1-3.49,15.28,7.36,31.06,12.41,48.36,11.87,4.88-.15,6.86,3.25,7.18,8.43a124.83,124.83,0,0,0,3.34,21c4.88,20.51,20.47,34.35,41.31,36.51a82.7,82.7,0,0,0,40.84-5.82c6.3-2.63,9.41-.92,11.76,5.28a95,95,0,0,0,22.59,34.61c7.65,7.48,16.68,10.92,27.25,10.21,12.83-.86,21.94-9,30.85-16.88,5.65-5,10.32-11.16,15.31-16.66,1.3.76,2.16,1,2.31,1.41a38.28,38.28,0,0,1,1.77,6.45c2.68,18,11.3,33,23.41,46,10,10.78,22.33,17.92,37.76,16.5,16-1.47,25.51-12.67,34.63-24.27,4.28-5.45,6.54-12.44,13.2-17.71,4.48,8.85,8.37,17.24,14.42,24.39C867.85,1643,888,1649,905,1641c11.17-5.21,17-15.48,22.14-26.06,1.89-3.91,2.48-8.62,7.28-11.25,4.33,4.13,5.91,9.52,8.63,14.18Z" transform="translate(-21.52 -31.95)" fill="#bfbfbf"/><path d="M1224.73,1826c-7,20.17-23.23,31.83-39.88,43-4.49,3-9.64,5-14.49,7.5-8.44-2.69-4.89-10.14-5.66-15.46-2.54-17.45-.9-35.4-6-52.57-.68-6.38-1.2-12.78-2.07-19.13-3.22-23.51-6.19-47.07-11.54-70.23-3.19-5.14,2.06-4.13,3.93-4.94,11-4.76,23.14-6.67,33-14.1l7.51-4.47,10.61-2c5.36,9.82,5.41,21.12,9.14,31.3.07,2,.13,4,.2,6-.65,4.6.88,8.9,1.67,13.34C1215.93,1771.42,1224.16,1798.06,1224.73,1826Z" transform="translate(-21.52 -31.95)" fill="#0b0b0b"/><path d="M1189.47,1695.56,1182,1700c-4,1.22-8,2.26-11.83,3.68-17.71,6.48-35.37,13.14-54.23,15.62,10.86-6.59,24.52-5.33,36.2-12.9-4.82-1.82-6.38-5.2-7.45-9.47-6.21-24.73-12.35-49.48-21.32-73.43-5-13.3-4.61-13.4-17.88-10a45.66,45.66,0,0,1-5.77.61c-16.76,2-28.88-7-40.63-17-3.74-3.17-6.16-8-11.89-10a92,92,0,0,1-25.83,46.49c-9.16,9.09-19.68,16.85-33.55,17.52.52-1.08,1.71-2.45.11-3.21a3.45,3.45,0,0,0-4.83,1.81,94.11,94.11,0,0,0-2.88,9.09c-.31-4.18-.07-8.24-5.71-9.77-15.67-4.25-25.45-15.73-33.85-28.72l2.45-2.45c4.81,5.22,9.41,10.64,14.48,15.6,12,11.75,25.9,15.61,41.64,8.27,24.6-11.48,36.59-32.47,42.72-57.71.78-3.19-.71-7.36,3.75-9,3.69,1,4.75,4.37,6.72,6.82a81.2,81.2,0,0,0,28.4,23c13,6.23,26.85,3.91,37.68-5.75,9.41-8.39,16.06-18.72,20.77-30.07,4-9.56,8.45-13.36,18.88-8.35,6,2.86,13.07,3.64,19.78,4.49,20.45,2.61,37.72-3.18,50.21-20.4,7.52-10.36,10-22.24,10.15-34.75.06-5.8,1.32-10.29,8.37-10.46,17.15-.41,32.94-5.68,47.92-13.7.75,1.94,1.49,3.89,2.23,5.83-13.56,6.92-27.54,12.52-42.94,13.67-7.26-1.57-9.11,1.64-9.87,8.7-4.15,38.56-28.85,60-68.49,56.1-7.75-.76-14.79-5-24.43-4.76,11,15.67,16.57,32.3,25.53,47.18-4.06,2.4-3.17,5.42-1.64,9.07,8.1,19.28,14,39.33,20.45,59.19C1197.68,1687.93,1196.41,1692.65,1189.47,1695.56Z" transform="translate(-21.52 -31.95)" fill="#c2c2c2"/><path d="M748.75,1724.73l45.54-6.29c3,32.66-2,65.21-1,97.72-1,11.23-2.29,22.46-2.75,33.71-.27,6.4-2.39,10.77-7.77,14.41-15.27,10.34-31.28,19-49.08,24.12l-6.15-.59c-.06-1.21-.13-2.41-.19-3.62,3.33-7.42,4.23-15.45,5.85-23.29a6.79,6.79,0,0,0,.84-1.74c6.76-40.11,9-80.63,10.88-121.17.32-6.85-3.31-9.41-9.63-10.2C740.07,1726.53,744.83,1727.58,748.75,1724.73Z" transform="translate(-21.52 -31.95)" fill="#0b0b0b"/><path d="M391.66,355.47c-2.3-26.86,5.56-49.05,29.29-64.05A37.25,37.25,0,0,1,431.64,287c12-3.13,13.5-5.94,10.14-18-7.52-27,6.49-56.59,32.39-67.13a60,60,0,0,1,33.4-3.24c8.24,1.5,11.66.1,12.29-9.07.89-13,4.39-25.31,13.29-35.67,16.68-19.45,36.9-18.37,58.44-10.86,1.49.52,3,1.06,4.9,1.75,4.09-5.91,4.37-12.82,6.47-19.07,6.37-18.83,17.29-33.37,36.12-41.77,11.14-5,20.18-.29,29.56,3.72,5.24,2.23,10,5.63,14.78,8.4,4.26-3.06,3.62-7.39,4.57-11a59.69,59.69,0,0,1,24.09-34.19c18.64-13,35.73-4,52.6,4.89A24.12,24.12,0,0,1,767,57.6c14.26,10,14,9.72,26.66-2.66,13.4-13.1,28-23.45,48.47-22.65,11,.43,19.3,4.39,26.68,11.58,5.74,5.6,11.16,11.54,17,17.55,7.92-5.1,12.66-12.18,18.81-17.73,13.83-12.48,32.5-15.31,49.32-7.06,11.72,5.75,22.6,12.58,30.37,23.48,3.76,5.28,8,6.59,14,2.58,9.37-6.27,18.92-12.16,29.94-15.62A41.56,41.56,0,0,1,1077,66.63a115.82,115.82,0,0,1,11,28.13c9.69-.77,16.17-7.4,24.13-10.48,11.82-4.56,21.81-2,31.11,4.46,17.34,12,27.84,28.55,29.52,49.86.5,6.43,2.83,6.66,8.09,5,10.72-3.43,21.42-7.55,33.11-5.12,19.54,4.06,34.57,20.07,38,40.53,3.13,18.83,3.13,18.83,22.14,19,42,.3,67.37,32.77,56.89,72.86-2.67,10.2-1.1,12.68,10.65,16.34,17.94,5.58,29.81,17.48,36.35,34.9,4,10.8,4.84,22,3.76,33.4-8.44.49-16.9,1.08-25-2,20.85-.75,20.81-.74,17.9-22.23a40.63,40.63,0,0,0-2.83-11.19c-7.52-17.22-21.48-26.24-38.9-30.63-8.37-2.11-12.66-5.17-8.29-14.68,2.08-4.52,2.39-10.1,2.5-15.23.44-19.92-4.27-39.4-24.66-49.89-11.42-5.47-23.51-6.39-36-5.9-17,.67-17,.44-18.52-17.25-2.62-31.21-22-46.6-52.58-41.55a89.52,89.52,0,0,0-16,3.82c-7.16,2.6-10.72,1.79-11.2-6.93-.53-9.73-3.77-19-8.21-27.73-13.36-26.35-37.39-32.88-62.17-17-3.69,2.37-6.74,6.2-12.19,6.11-3.85-4.64-3.55-10.75-5.27-16.16C1069.12,51.88,1047,40.67,1013.5,58.5c-5.67,3-10.87,7-16,11-5.89,4.62-10.44,4.24-14.16-2.48-5.88-10.65-15.57-17.13-25.63-23.12C936,30.9,912.82,35.83,898,56.54c-11.27,15.77-11.27,15.77-22.94-.35C862,38.12,842.62,32.1,822.24,40.75,810,46,799,53.36,791.3,64.86c-6.9,10.3-7.77,10.21-18.11,2.7-4.7-3.42-9.34-7.1-14.48-9.72-31.63-16.13-54.3-6.77-65,27.67-1.14,3.71-1.9,7.53-2.94,11.27-.68,2.43-.81,5.23-4.81,6.81-5.09-3.11-10.68-6.82-16.54-10C654,85,632.17,86.85,620,103.57a79,79,0,0,0-15,39.35c-.67,6.63-3.11,8.72-9.35,6.21-7.27-2.91-15-4.14-22.65-5.15-22.2-2.94-37.67,7.17-44.43,28.46a68.13,68.13,0,0,0-3.46,22.89c.22,7.41-2.7,10.47-10.67,9.33a110,110,0,0,0-23.22-.78c-18.72,1.31-33.51,9.06-41,27.43-5.06,12.38-5.48,25-3.13,38.09,2.91,16.1,2.72,16.33-13.21,21.41-26.37,8.4-42.67,35.51-35.14,64.6Z" transform="translate(-21.52 -31.95)" fill="#c6c6c6"/><path d="M1221.19,983c-.39,4.33,1.91,6.28,5.82,7.6,7.71,2.61,14.52,7,21.23,11.58,26.6,18,34.38,41.43,23.72,71.53-3.91,11-3.46,11.57,7.55,14.24,17,4.11,32.54,11.52,44.32,24.54,9.73,10.73,11.71,24.1,8.11,38.21-3.65,14.33-10.59,27.14-19.07,39-4.73,6.6-4.69,10.4,2,15.81,11.89,9.57,21.46,21,26.73,36.1,7.56,21.61.38,37.78-15.75,51.69-1.94,1.67-3.88,3.32-5.71,5.1-.37.35-.24,1.22-.45,2.53,12.9,6.55,24.06,15.27,30.51,29.1,13.13,28.18-2.91,62.52-33.07,70.3-2.19.56-4.37,1.16-6.57,1.68-7.06,1.65-8.37,5.2-5.47,12,6.9,16.26,11.16,33.06,6.8,51-2,8-5.08,15.35-11.45,20.92l-3.89-2c12.42-14.29,13.87-30.8,9.59-48.37-1.75-7.22-3.62-14.44-5.85-21.53-4.67-14.84-4.52-15.23,10.78-17.5,23-3.39,38.35-22.65,38-47.51-.37-23.74-16.07-41.09-39.55-43.77-2.42-.28-5.31.64-6.89-2.34.77-3.84,4.34-3.35,6.81-4.42,17.82-7.74,30.8-25.94,29.52-41.86-1.76-21.83-12.23-38.67-30.64-50.1-7.06-4.38-7.92-7.8-2.9-14.37a150.45,150.45,0,0,0,18.37-31.87c8.65-20,3.62-41.09-12.71-53.09-11.14-8.19-23.81-13-37.29-15.47-12.68-2.32-13.17-2.79-8.41-14.63,12.66-31.5,4.45-57.88-23.28-73.42-8.72-4.89-18-8.78-27-13.13Z" transform="translate(-21.52 -31.95)" fill="#c2c2c2"/><path d="M472.84,1485.93c-18.33-21.81-14.38-45.61-5.83-69.59,4.13-11.58,4.2-12.09-8.19-15.61-23.61-6.71-37.72-22.27-40.23-44.39-2.58-22.81,10-42.66,34.91-54.89.87-2.64-.61-4.22-2.55-5.63-28.65-21-27.55-46-9.32-73.57a63,63,0,0,1,18.25-18.58c5.77-3.69,5-6.68,2-11.77-7.4-12.43-15.74-24.26-19.58-38.75-6.23-23.55,3.49-46.06,26.16-56.05,8.53-3.76,17.42-7.22,26.5-9,9.37-1.85,9.69-5.78,7-13.57-4.35-12.49-7.92-25-3.24-38.75,8-23.25,26.14-35.29,46.83-44.8,3.86-1.78,7.16-3,6.59-8l5.78,7.92c-9.29,4.47-18.95,8.33-27.81,13.54-26.79,15.77-35.32,43.1-22.31,69.67q2,4.85,3.89,9.68c-.65,5.91-5.24,6.74-9.8,7.54-11.56,2-21.65,12.72-32,18.14-18.15,9.49-18.5,17-14.84,37.12,2.95,16.31,2.49,32.38,12.54,45.17,5.06,6.44,4.8,10.47-2.45,14.48-13,7.2-15.66,19.54-21.57,32.81-7.56,17-4.63,30.38,8.1,43.86,6.45,6.83,9.9,14.49,17.79,18.78-1.82,3.9-4.37,3.32-6.5,3.61-35.28,4.83-45.23,38.22-35.55,64.34,6.06,16.36,20,23.84,36.31,27.22,13.16,2.73,13.67,3.59,9.55,16.37-7.75,24-15,48.14,3.31,71Z" transform="translate(-21.52 -31.95)" fill="#bfbfbf"/><path d="M1356.65,353.43c8.16,3.1,16.62,2.51,25.06,2,14.39,3.24,29,2.38,43.39,1,53.17-4.94,106.35-9.65,159.78-6.8,38.1,2,75.31,9.48,108.31,29.54,27.82,16.91,45.94,41.93,54.28,74,4.25,16.29,3.86,32.62,3.82,49.08,0,3.59-.32,7.12-2.47,10.2-2.33-.83-3.77.65-5.22,2.06.15-1.28.22-2.58.46-3.84,7.57-41.46-2.34-78.16-31-109.12-26.84-29-63.27-37.73-100.1-43.81-46.89-7.74-94.13-5.1-141,.19-39.06,4.41-78,4.15-117,1.11-3-.71-6-1.36-8.91-2.15-3.57-.95-5.47-2.4-1.19-5.2l4.35,1.21Z" transform="translate(-21.52 -31.95)" fill="#9c9c9c"/><path d="M1459.86,564.71c-3.29,5.18-2.28,11.3-3.61,16.93-3.89,16.44-13.94,28.06-29.3,37.28,21.37,14.61,36.16,31.33,29.13,58.61-6.26,24.29-20.34,40.55-46.47,46.65,2.56,8.12,5.3,15.89,7.45,23.83,3.51,13,5.16,26.31.42,39.1-7.49,20.21-30.62,30-52.22,23-14-4.53-14.46-4.25-16.28,10.1-3.71,29.31-30.4,45-57.86,33.87-2.7-1.1-5.28-2.41-8.25-1.65-3.84,4,.08,10.85-5.38,14.05-.7-7.37-.79-14.69,1.81-21.79,6.09,2.1,12.16,4.25,18.28,6.28,19.19,6.38,37.89-3.15,43.76-22.44a81.48,81.48,0,0,0,3.86-19.94c.47-9.76,1.8-10.37,11.24-6.77a65.28,65.28,0,0,0,30.5,3.9c15.92-1.7,27.5-14.69,28.19-30.72.54-12.51-2.19-24.33-6.17-36.07-2.42-7.13-6.67-13.83-6.61-22.72,27.82,3.17,41.63-13,47.89-36,8.48-31.2-6.65-50.59-35.86-59.52,1.55-4.61,4-4.86,6.1-5.41,12.51-3.23,20.28-11.8,26.53-22.56,5.67-9.74,4.28-20.74,6.63-31Z" transform="translate(-21.52 -31.95)" fill="#c3c3c3"/><path d="M495.7,876.24c-3.42-7.43-2.12-15.87-4.6-23.64-7.43-1.52-13.19,3.21-19.73,4.4-27.12,4.94-42.65-15.13-46.91-35.35a46.11,46.11,0,0,1-.67-5.77c-.69-8.65-5.17-9.92-12.55-7a44.54,44.54,0,0,1-33.94-.19c-16.85-6.71-25.79-22.43-24-40.93,1.19-12.6,3.3-24.91,8.61-36.51,2.4-5.23,1.37-7.68-5-9.31-22-5.65-33.7-21.85-39.21-42.65-6.06-22.93,1.65-41.21,21.14-54.62,2.07-1.43,4-3.13,5.8-4.6-.27-1.08-.23-2-.61-2.24-19.13-11-27.19-28.45-29-49.59-.1-1.2-1-2.34-1.56-3.5l5.92-3.6c.57,4.16,1.23,8.3,1.69,12.47,2.23,20.4,11.76,35.17,31.95,41.88,2,.67,4.58.92,4.89,3.86-34,20.67-42.71,35.21-35.61,59.7,7.76,26.74,21.67,37.71,48.15,37.91,2,3.22-.36,6.21-.58,9.3-5.76,9.6-8.26,20.35-10.55,31.08-7.26,34,11.94,53.65,46.16,47.44,4.74-.86,9.52-1.29,13.9-3.88,5.86-3.46,8.56-.35,8.65,5.45a79.28,79.28,0,0,0,3.87,21.91c4.72,15.65,16.94,24.38,33.14,24.3,10.87-.06,19.79-5.47,29.19-9.68l0,2Z" transform="translate(-21.52 -31.95)" fill="#c3c3c3"/><path d="M391.66,355.47l7.13-.06c7.45,1.93,14.24-2.42,21.51-2.23,3.05.64,6.78-1.05,9.73,2.57l-11.62,3.33c-5.13.62-10.26,1.64-15.41,1.81-41.1,1.35-82.16.33-123-4.25-55.85-6.25-111.12-4.68-165.1,12.2-35.21,11-62.35,31.94-77.44,66.89C31.57,449.29,31,464,26,477.71l-3.59-2c.17-35.56,18-62.39,42.88-85.41,19.53-18,44.1-26.48,69.12-32.58,50.51-12.31,101.95-9.82,153.19-6.35,30.9,2.09,61.65,6.28,92.71,5.74C384.16,357,388.14,357.77,391.66,355.47Z" transform="translate(-21.52 -31.95)" fill="#9e9e9e"/><path d="M22.44,475.71l3.59,2c-.19,15.34-.58,30.71,7.66,44.6,6.28,22.24,21,38.43,38.88,51.64,40.84,30.16,86.67,37.48,136.05,28.75,50.85-9,93.86-33.06,132.69-66.11,11.2-9.52,21.13-20.46,32.53-30.11,3,4.45-.78,6-1.79,8.42-15.82,17.41-34.9,31.09-52.67,46.27l-5.92,3.6c-18.22,10.3-35.62,22.08-55.36,29.61-52.28,19.93-104.62,24.76-157.55,2.18-35.43-15.11-60.18-40.89-75.22-75.72C19.22,506.67,22.24,490.85,22.44,475.71Z" transform="translate(-21.52 -31.95)" fill="#999"/><path d="M792.43,1136.45c-41.84-20.25-117.45-76.93-102-85.71,13.4-7.6,51.58,7,64.63,9.07,6.37,1,12.53,2.17,18.9.69,3.94,3.83,11.5,6,15.43,9.81,12.23,7.79,23,16.31,35.1,24.29,39.44,26,77.33,30.1,118.92,5.27,15-8.94,29.36-18.68,44.09-27.94l11.86-11.41c9.51,3,18.43-1.22,27.57-2.41,43.86-5.74,87.6-11.87,128.7-29.77,21.86-9.51,41.2-22.69,59.42-37.77,9,4.35,18.31,8.24,27,13.13,27.73,15.54,35.94,41.92,23.28,73.42-4.76,11.84-4.27,12.31,8.41,14.63,13.48,2.46,26.15,7.28,37.29,15.47,16.33,12,21.36,33.09,12.71,53.09a150.6,150.6,0,0,1-18.28,31.75c-3.73,4.89-2.36,11.28,2.86,14.52,18.38,11.43,28.83,28.26,30.59,50.07,1.28,15.92-11.7,34.12-29.52,41.86-2.47,1.07-6,.58-6.81,4.42,1.58,3,4.47,2.06,6.89,2.34,23.48,2.68,39.18,20,39.55,43.77.39,24.86-15,44.12-38,47.51-15.3,2.27-15.45,2.66-10.78,17.5,2.23,7.09,4.1,14.31,5.85,21.53,4.39,18,2.75,34.92-10.56,49.46l-1.07.83c-15,8-30.76,13.29-47.91,13.7-7,.17-8.31,4.66-8.37,10.46-.14,12.51-2.63,24.39-10.15,34.75-12.49,17.22-29.76,23-50.21,20.4-6.71-.85-13.83-1.63-19.78-4.49-10.43-5-14.91-1.21-18.88,8.35-4.71,11.35-11.36,21.68-20.77,30.07-10.83,9.66-24.69,12-37.68,5.75a81.2,81.2,0,0,1-28.4-23c-2-2.45-3-5.8-6.72-6.82-4.46,1.6-3,5.77-3.75,9-6.13,25.24-18.12,46.23-42.72,57.71-15.74,7.34-29.63,3.48-41.64-8.27-5.07-5-9.67-10.38-14.48-15.6-2.72-4.66-4.3-10.05-8.63-14.18-4.8,2.63-5.39,7.34-7.28,11.25-5.13,10.58-11,20.85-22.14,26.06-17,7.94-37.17,2-50.28-13.48-6-7.15-9.94-15.54-14.42-24.39-6.66,5.27-8.92,12.26-13.2,17.71-9.12,11.6-18.64,22.8-34.63,24.27-15.43,1.42-27.71-5.72-37.76-16.5-12.11-13-20.73-28.06-23.41-46a38.28,38.28,0,0,0-1.77-6.45c-.15-.44-1-.65-2.31-1.41-5,5.5-9.66,11.63-15.31,16.66-8.91,7.91-18,16-30.85,16.88-10.57.71-19.6-2.73-27.25-10.21a95,95,0,0,1-22.59-34.61c-2.35-6.2-5.46-7.91-11.76-5.28a82.7,82.7,0,0,1-40.84,5.82c-20.84-2.16-36.43-16-41.31-36.51a124.83,124.83,0,0,1-3.34-21c-.32-5.18-2.3-8.58-7.18-8.43-17.3.54-33.08-4.51-48.36-11.87l-.83-.64c-19.72-23.25-12.3-47.82-4.4-72.33a12.51,12.51,0,0,0-9.67-16.39c-16.25-3.4-30.14-10.88-36.19-27.2-9.68-26.12.27-59.51,35.55-64.34,2.13-.29,4.68.29,6.5-3.61-15.29-8.31-31.7-16-34.37-44a40.69,40.69,0,0,1,3.67-21c5.85-12.6,13.88-23.52,26.38-30.44,7.25-4,7.51-8,2.45-14.48-10.34-13.16-18.62-27.61-21.35-44.53-3-18.41,7.25-36.52,23.85-45a111.39,111.39,0,0,1,31.82-10.87c4.56-.8,9.15-1.63,9.8-7.54,1.89,5,5.57,9.26,6.28,14.38-2.57,3.44-6,3.51-9.09,4.26A77.2,77.2,0,0,0,481.11,1116c-14.91,11.09-19,24.76-14.15,42.8,2.91,10.82,8.31,20.36,13.86,29.82,8.14,13.9,8.43,13.81-2.77,25-19.06,19-26.14,57.27-5.6,80.55,4.28,4.84,10.72,7,14.68,12.87-5.33,4.84-12.32,4.58-17.94,7.5-9.88,5.17-15.89,13-17.61,24-1.87,12,1.87,21.35,12.67,28a61.39,61.39,0,0,0,20.73,7.88c8.31,1.6,10.27,5.79,6.25,13-4.62,8.31-6.39,17.55-9,26.54-2.56,8.74-.16,15.52,5.64,22.23,8.48,9.81,20.28,11.18,31.61,12.88,11.65,1.73,21.74,3.29,20.63,18.77-.26,3.63,1.66,7.56,3.13,11.12,6,14.45,14.93,25.31,31.48,28.61,13.28,2.64,25.71.06,38.14-3.63,7-2.08,11.79-1.13,14.42,6.56,1.55,4.54,4.21,8.73,6.64,12.93,14.14,24.32,40.76,32.14,61.38,11.53,4.69-4.69,10-8.79,14.69-12.91,3.75,1.2,4.08,4,4.58,6.45,3,14.54,11.58,25.83,21.14,36.49,14.83,16.53,37.27,19,53.11,6A85.61,85.61,0,0,0,802.66,1556c2.38-3.16,3.86-7.67,8.82-8.38,3.9,2.35,5,6.72,7.44,10C836,1581,868.46,1592,889.2,1555.26c1.77-3.13,3-7.41,8.46-7.58,2.81,4,5.6,8.33,8.7,12.4,5.76,7.56,12.3,14.08,21.87,16.89,19.87,5.84,41.38-4.49,53.49-25.55a154.74,154.74,0,0,0,13-29.81c7.41,3.56,10.83,8.91,15.36,13,17.57,15.68,38.35,15.76,53.68-.27,6.24-6.54,12.24-13.48,15.16-22.3,2.81-8.52,7.57-10.45,16.32-7.69,13.63,4.3,27.79,6.6,41.88,1.49,18.56-6.74,26.26-21.65,29.95-39.81,3.27-16.08,3.6-15.74,19.72-17.1,17-1.45,36.32-9.92,40.6-29,3-13.32.87-26.39-3.14-39.21-5-15.83-5-15.82,10.24-20.81,19.21-6.29,30.07-19.2,31-36.8,1.09-21.53-7.15-35.45-26.13-44.33-2.44-1.14-6-1-6.61-6.36l2.69-1.46c26.88-14.64,24.77-47.38,9.31-66.21-4.42-5.38-10.08-9-14.91-13.77-4.24-4.15-5.52-7.88-1.68-12.8,4.18-5.35,8.12-10.89,10.87-17.1,9.16-20.74,15.9-41.56-10.89-59.74a56.16,56.16,0,0,0-12.68-6.41c-8.66-3.1-17.46-5.91-26.63-9,4.31-8.42,8.11-15.86,11.91-23.3,3.1-6.08,4.64-13,.73-18.49-3.77-5.34-10.79-5.06-17-4.52-13.94,1.19-27.26,5.44-40.6,9.1-32.42,8.9-64.49,19-96.9,28-17.63,4.86-35.1,9.59-50.33,33.57-16.27,25.62-47.21,37.91-68.65,47.1Z" transform="translate(-21.52 -31.95)" fill="#e4e4e4"/><path d="M1459.86,564.71l-6.22-3.1a70.93,70.93,0,0,0-17.26-13.83c-11.27-11.43-24.56-20.7-35.09-32.91-1-2.39-4.79-3.93-1.67-8.55,11.32,10.26,21.78,21.1,33.12,30.95,41.25,35.8,88.18,60.43,142.37,67.55,47,6.18,91.65-3,129.55-33.72,15.88-12.86,29.57-28,34.91-48.8l4-7.76c1.45-1.41,2.89-2.89,5.22-2.06-5.63,26.65-21.24,47.32-41.9,63.44-36.86,28.76-79.43,38.84-125.87,34.52-41.62-3.88-79-18.75-113.62-41.46C1465,567.39,1462.39,566.12,1459.86,564.71Z" transform="translate(-21.52 -31.95)" fill="#989898"/><path d="M727.32,1884.19c.06,1.21.13,2.41.19,3.62-3.31.93-6.69,1.64-9.9,2.82-5.11,1.9-11.63-.68-15.57,4.89-25.33,1.7-25.36,1.7-25.78-23.23-.43-25.21-3.41-50-10.56-75-4.14,1.35-4.51,4.73-5.52,7.54-8.94,24.9-18,49.77-26.69,74.76-2.23,6.41-4.55,8.94-11.83,5.64-9.66-4.39-19.75-7.81-28.59-13.89-.87-2-2.81-3.82-1.67-6.4.57-.12,1.14-.21,1.71-.28,6.8,5.69,15.19,8.38,22.87,12.43,8.6,4.53,12.1,1.39,14.79-6.55,5.48-16.18,11.06-32.34,17.17-48.28,4.86-12.67,7.88-26.24,16.74-38.71,8.77,15.23,11.54,30.66,14.05,46.11,2.89,17.83,4.91,35.75,4.1,53.89-.24,5.48,2.66,9,8.46,7.53C703.18,1888.09,715.83,1889.16,727.32,1884.19Z" transform="translate(-21.52 -31.95)" fill="#242424"/><path d="M549.93,1597q5.3,2.68,10.57,5.39c-5.52,1.44-10.25-4.07-15.86-1.78-19.08-7.16-37-16.61-54.38-27.23L465,1555.65c-5.64-2.65-10.29-6.7-14.81-10.85-4.84-4.45-8.66-4.75-12.39,1.42-15.23,25.15-31.18,49.83-44.73,76-8.51,16.45-7.4,29,7.72,44.36.72,1.25,1.45,2.5,2.18,3.75l-2.6,2.4c-4-4.2-8.42-8.06-11.85-12.66-8.2-11-9.44-22.38-2.88-35.24a873.35,873.35,0,0,1,53.89-90.59c4.24-2.83,6.52,1.49,9.67,2.64C479.22,1562.94,513,1582.64,549.93,1597Z" transform="translate(-21.52 -31.95)" fill="#232323"/><path d="M496.1,1719.09c-4.79-4.75-4.23-11.16-5-17a455.88,455.88,0,0,1-2.94-48.32c-.06-3.06,1.09-6.46-1.74-9.26-4,1.3-4.45,5.17-5.87,8.15-7.47,15.74-14.89,31.49-22.13,47.33-2.16,4.73-4.39,6.38-9.61,3.51-8.16-4.51-17-7.75-24.71-13.16.12-1.5.24-3,.35-4.5l3.32,0c4.7,2.84,9.24,6,14.12,8.44,9.76,5,11.37,4,15.94-5.87,8-17.29,16.34-34.42,24.61-51.58,1.5-3.11,2.75-6.71,7.08-6.72a4.21,4.21,0,0,1,2.4,4.11c-.53,19.11,5.18,37.66,4.44,56.92-.9,23.56,1.35,25.1,24.61,29,8.38,1.4,10.06-1.41,9.18-9.36-1.9-17.36-2.33-34.79,2.86-51.83,1.42,15.79-3.95,31.43-1.12,47.21a48.48,48.48,0,0,1-.37,20.11C519.64,1724.3,508.28,1719.66,496.1,1719.09Z" transform="translate(-21.52 -31.95)" fill="#242424"/><path d="M1209.42,1730.89c-.07-2-.13-4-.2-6,16.38-.9,32.68-2.42,48.74-6s19.89-7.08,19-23.64c-1.16-20.5,4.26-40.35,4.42-60.65,0-2.24.64-4.56,3.66-5.2,2.07.07,3.3,1.58,4.14,3.34,5.17,10.75,9.91,21.72,15.48,32.25,5.81,11,7.66,24.09,17.41,33a7,7,0,0,0,4.17,3.84c-5.68,5.42-9,3.81-12-3.11-6.84-15.62-14.31-31-21.58-46.4-1.34-2.84-2.08-6.14-5.25-7.85-3.37,1.92-2.08,5.11-2.14,7.79-.35,17.09-.42,34.26-3.29,51.11-2.8,16.51-9,20.9-27,21.85-14.07,1.06-28.27,1.13-41.82,5.88l.27-.08Z" transform="translate(-21.52 -31.95)" fill="#262626"/><path d="M1112.21,1800.64c-3.73-5.81-6.78-4.52-7.64,1.44-3.44,23.82-7.4,47.59-7.55,71.79-.14,22.54-.34,22.41-22.35,22.07-12.1-.2-23.43-3.46-34.64-7.5l-1.86-4.31q.84-.12,1.68-.18c11,2.11,22.13,3.56,32.87,6.5,13.63,3.73,18.47,1.15,17.78-12.85-1.19-24.34,4.16-47.83,8.58-71.39,1.41-7.47,4.11-15.26,10.12-22.15l8.61,14.67Z" transform="translate(-21.52 -31.95)" fill="#272727"/><path d="M1112.21,1800.64l5.6-1.91c7.24,25.76,17.59,50.43,26.54,75.59,1.83,5.14,4.53,5.77,9.65,4.11,11.73-3.8,8.45-12.84,8-20.84-1-16.39-2.19-32.78-3.32-49.16,5.14,17.17,3.5,35.12,6,52.57.77,5.32-2.78,12.77,5.66,15.46-6.63,4.88-14.58,6.82-22,10-3.55,1.51-5.85.33-6.94-2.84C1131.94,1855.87,1120.44,1828.83,1112.21,1800.64Z" transform="translate(-21.52 -31.95)" fill="#252525"/><path d="M983.63,1717.54c-6.64,1-.17,57.75.46,82.3.1,3.54,2.79,3.89,2.7,7.43-3.47-13.57-1-23.83-5.4-37.12,2.37-36-4.43-74-1.22-111.33.94-3,1.66-6.17,2.89-9.09a3.45,3.45,0,0,1,4.83-1.81c1.6.76.41,2.13-.11,3.21C983.24,1673.07,983.46,1695.31,983.63,1717.54Z" transform="translate(-21.52 -31.95)" fill="#a6a6a6"/><path d="M1115.9,1719.33c18.86-2.48,36.52-9.14,54.23-15.62,3.87-1.42,7.88-2.46,11.83-3.68-9.84,7.43-22,9.34-33,14.1-1.87.81-7.12-.2-3.93,4.94a617.71,617.71,0,0,1-71,12.5c-8.7,1-17.51,2.44-25.86-.25-7.31-2.36-14.48-2.72-21.9-2.33l-18.84.06a71.82,71.82,0,0,1-7.62-1.34c-15.24-4.31-16-3.76-16.07,11.85q-.06,46.5,3.15,92.89c1.15,16.82,3.83,29.36,20,36.25l2.09,1.85-5.67,1.91c-3-1.8-6-3.77-9.12-5.39-8.2-4.22-12-10.47-12.06-20,0-11.57-1.53-23.12-2.39-34.68.09-3.54-2.42-6.95-2.51-10.48-.64-24.56,1.36-49.24.78-73.8a13.18,13.18,0,0,1,5.5-10.53c8.31,4.33,17.6,3.76,26.45,4.68C1045.44,1725.89,1080.83,1727.53,1115.9,1719.33Z" transform="translate(-21.52 -31.95)" fill="#232323"/><path d="M567.5,1853.4c-16.27-14.46-25-31.27-18.7-53.86,3.29-11.72,4.94-23.89,7.33-35.85,6.64-6.42,2.38-16.54,7.92-23.34l1.9,3.88c-3.87,19.3-7.18,38.73-11.81,57.85-4,16.38-.52,29.91,11.65,41.37a13.26,13.26,0,0,0,6,8Z" transform="translate(-21.52 -31.95)" fill="#1f1f1f"/><path d="M1296.57,1484l3.89,2,33.17,48.44c-5.6-3-7.41,3.84-11.63,4.43,2.48-3.94,4.41-7.6.92-12.32-8.61-11.68-16.46-23.91-26.14-34.78-.75-1.94-1.49-3.89-2.24-5.83Z" transform="translate(-21.52 -31.95)" fill="#949494"/><path d="M449.24,1536.91c-3.15-1.15-5.43-5.47-9.67-2.64l33.27-48.34,3.69-1.72,1.92,2c0,1.16.06,2.32.1,3.49-12.09,11.28-20,25.74-29.44,39C447.15,1531.39,448.29,1534.17,449.24,1536.91Z" transform="translate(-21.52 -31.95)" fill="#969696"/><path d="M564.05,1740.35c-5.54,6.8-1.28,16.92-7.92,23.34,1.87-10,3.73-20.06,5.74-30.86-22.08-4.56-45-4.35-65.77-13.74,12.18.57,23.54,5.21,35.45,7.07,7.3.76,14.59,1.88,21.91,2.19C561.52,1728.69,565.32,1732.11,564.05,1740.35Z" transform="translate(-21.52 -31.95)" fill="#3b3b3b"/><path d="M1209.42,1730.89l3.94.12c-4.22,8.17,1.34,15.46,2.47,23,2.75,18.45,6.92,36.68,10.36,55,1.07,5.71,1.73,11.51-1.46,16.9-.57-27.9-8.8-54.54-13.64-81.73C1210.3,1739.79,1208.77,1735.49,1209.42,1730.89Z" transform="translate(-21.52 -31.95)" fill="#3b3b3b"/><path d="M1038.17,1884.13l1.86,4.31c-13.47-2.42-25.31-8.56-36.6-16l5.67-1.91Z" transform="translate(-21.52 -31.95)" fill="#3c3c3c"/><path d="M567.5,1853.4l4.27-1.94,19.63,13.48c-1.14,2.58.8,4.35,1.67,6.4C583.08,1867.46,575.29,1860.43,567.5,1853.4Z" transform="translate(-21.52 -31.95)" fill="#3b3b3b"/><path d="M424.49,1685.81c-.11,1.5-.23,3-.35,4.5a67,67,0,0,1-23.73-17.55l2.6-2.4Z" transform="translate(-21.52 -31.95)" fill="#3b3b3b"/><path d="M1213.09,1731.09c13.55-4.75,27.75-4.82,41.82-5.88A154.43,154.43,0,0,1,1213.09,1731.09Z" transform="translate(-21.52 -31.95)" fill="#3b3b3b"/><path d="M702,1895.52c3.94-5.57,10.46-3,15.57-4.89,3.21-1.18,6.59-1.89,9.9-2.82l6.15.59C723.42,1892.1,713.23,1896,702,1895.52Z" transform="translate(-21.52 -31.95)" fill="#3b3b3b"/><path d="M1322,1698c-9.75-8.9-11.6-22-17.41-33-5.57-10.53-10.31-21.5-15.48-32.25-.84-1.76-2.07-3.27-4.14-3.34-3,.64-3.64,3-3.66,5.2-.16,20.3-5.58,40.15-4.42,60.65.94,16.56-2.76,20.06-19,23.64s-32.36,5.08-48.74,6c-3.73-10.18-3.78-21.48-9.14-31.3l-10.61,2c6.94-2.91,8.21-7.63,5.91-14.71-6.46-19.86-12.35-39.91-20.45-59.19-1.53-3.65-2.42-6.67,1.64-9.07l11.56-2.17c-1.27,4.59-7.27,2.08-9.16,6,3.15,2.69,6.21.71,9-.18a425,425,0,0,0,85-37.12c5.91-3.43,10-3.71,13.92,1.92,16.29,34.68,26,71.48,35.24,108.45C1322.87,1692.39,1323.7,1695.2,1322,1698Z" transform="translate(-21.52 -31.95)" fill="#3b3b3b"/><path d="M1188.13,1610.42l-11.56,2.17c-9-14.88-14.54-31.51-25.53-47.18,9.64-.28,16.68,4,24.43,4.76,39.64,3.93,64.34-17.54,68.49-56.1.76-7.06,2.61-10.27,9.87-8.7,12.32,18.85,19.91,40.38,33.18,58.7l-5.93,5.54C1251.12,1585.55,1220.51,1600,1188.13,1610.42Z" transform="translate(-21.52 -31.95)" fill="#d2d2d2"/><path d="M1287,1564.07c-13.27-18.32-20.86-39.85-33.18-58.7,15.4-1.15,29.38-6.75,42.94-13.67,9.69,10.87,17.54,23.1,26.15,34.78,3.49,4.72,1.56,8.38-.92,12.32C1311.29,1548.54,1300,1557.47,1287,1564.07Z" transform="translate(-21.52 -31.95)" fill="#c2c2c2"/><path d="M1188.13,1610.42c32.38-10.42,63-24.87,92.95-40.81,2.07,3.77,6.55,6.3,5.85,11.48-4-5.63-8-5.35-13.92-1.92a425,425,0,0,1-85,37.12c-2.82.89-5.88,2.87-9,.18C1180.86,1612.5,1186.86,1615,1188.13,1610.42Z" transform="translate(-21.52 -31.95)" fill="#222"/><path d="M600.85,1617.88c7.22-5.42,8.41-14.3,12.25-21.63,4.27-8.17,8.46-16.31,14.67-24.75,11.79,18.54,21,38.52,44,42.2,23.26,3.73,38.11-12,53.34-27.29,8.53,21.44,17.73,41.31,19.88,63.72,1.82,19,4.81,37.82,3.74,56.95-.43,7.67,3.19,10.06,10.49,10.15,9.43.13,18.17-3.94,28.23-4.5-4.76,5.23-7.15,5.21-17.17,6.45a482.46,482.46,0,0,1-72.37,3.94c-1.84,0-3.71.92-5.57,1.41-4.19,0-8.47.64-12.54,0-13.87-2.3-27.67-5-41.5-7.61A167.71,167.71,0,0,0,601,1703.56c-6.59-1-12.11-4.51-17.78-7.67-1.87-3.32-9-3.57-5.74-9.89,6.35-8.54,7.54-19.08,10.57-28.79,4.11-13.17,11.51-25.27,12.83-39.32Z" transform="translate(-21.52 -31.95)" fill="#d2d2d2"/><path d="M449.24,1536.91c-.95-2.74-2.09-5.52-.13-8.26,9.48-13.24,17.35-27.7,29.44-39,10.79,11.11,25.28,12.39,39.3,13.69,8.77.82,11.25,4.12,11.52,12.58.71,21.74,11.32,38.19,30.21,48.61,6.45,3.56,7.55,6.69,4.19,12.78a58.48,58.48,0,0,0-5.46,13.41c-1.23,4.74-4.11,6.15-8.37,6.26C513,1582.64,479.22,1562.94,449.24,1536.91Z" transform="translate(-21.52 -31.95)" fill="#d2d2d2"/><path d="M583.26,1695.89c5.67,3.16,11.19,6.65,17.78,7.67-6.95,6.41-11.69-1.23-17.14-3-5-1.68-8.76-2.73-10.24,3.85-2.95,13.21-8,26-7.71,39.86l-1.9-3.88c1.27-8.24-2.53-11.66-10.59-12-7.32-.31-14.61-1.43-21.91-2.19a48.32,48.32,0,0,0,.38-20.11c-2.83-15.78,2.54-31.42,1.12-47.21,2.83-16.52,6.5-32.85,12.71-48.46,1.48-3.73,1.58-6.78-1.12-9.77,5.61-2.29,10.34,3.22,15.86,1.78l23.09,7.73c1.29.93,2.49,2.46,3.9,2.7,9.26,1.56,9.15,6.26,6,13.74-7.6,17.84-12.69,36.58-18.57,55C572.2,1690,574.25,1694.76,583.26,1695.89Z" transform="translate(-21.52 -31.95)" fill="#0b0b0b"/><path d="M638.29,1716.89c13.83,2.57,27.63,5.31,41.5,7.61,4.07.67,8.35.06,12.54,0,18.8,1.52,37.61,0,56.42.2-3.92,2.85-8.68,1.8-13.49,3.06,6.32.79,10,3.35,9.63,10.2-1.93,40.54-4.12,81.06-10.88,121.17a6.79,6.79,0,0,1-.84,1.74c-.46-17.22,4.17-33.93,5.05-51,1.19-23.2,3-46.36,4.62-69.54.46-6.73-2-8.87-9.13-8.25-14.16,1.25-28.25-.12-42.47-1.7-18.59-2.08-36.76-5.78-55-9.47l-.06-.05Z" transform="translate(-21.52 -31.95)" fill="#232323"/><path d="M583.26,1695.89c-9-1.13-11.06-5.86-8.38-14.29,5.88-18.46,11-37.2,18.57-55,3.19-7.48,3.3-12.18-6-13.74-1.41-.24-2.61-1.77-3.9-2.7,6.13,1.74,13.65.41,17.26,7.76h.07c-11,21.6-17.91,44.61-23.4,68.11C574.21,1692.32,581.39,1692.57,583.26,1695.89Z" transform="translate(-21.52 -31.95)" fill="#3b3b3b"/><path d="M1158.66,1808.43c1.13,16.38,2.37,32.77,3.32,49.16.47,8,3.75,17-8,20.84-5.12,1.66-7.82,1-9.65-4.11-8.95-25.16-19.3-49.83-26.54-75.59l-8.61-14.67c-6,6.89-8.71,14.68-10.12,22.15-4.42,23.56-9.77,47-8.58,71.39.69,14-4.15,16.58-17.78,12.85-10.74-2.94-21.89-4.39-32.86-6.5,1.89-3.19,2.05-6.72,2.11-10.29.72-40.3,2.8-80.57,2.19-120.9-.29-19,0-19-17.82-23.77,7.42-.39,14.59,0,21.9,2.33,8.35,2.69,17.16,1.22,25.86.25a617.71,617.71,0,0,0,71-12.5c5.35,23.16,8.32,46.72,11.54,70.23C1157.46,1795.65,1158,1802.05,1158.66,1808.43Z" transform="translate(-21.52 -31.95)" fill="#3c3c3c"/><path d="M983.63,1717.54c-.17-22.23-.39-44.47,4.15-66.41,13.87-.67,24.39-8.43,33.55-17.52a92,92,0,0,0,25.83-46.49c5.73,2,8.15,6.86,11.89,10,11.75,10,23.87,19,40.63,17a45.66,45.66,0,0,0,5.77-.61c13.27-3.4,12.9-3.3,17.88,10,9,24,15.11,48.7,21.32,73.43,1.07,4.27,2.63,7.65,7.45,9.47-11.68,7.57-25.34,6.31-36.2,12.9-35.07,8.2-70.46,6.56-105.82,2.89C1001.23,1721.3,991.94,1721.87,983.63,1717.54Z" transform="translate(-21.52 -31.95)" fill="#d2d2d2"/><path d="M636.25,1720.9c18.23,3.69,36.4,7.39,55,9.47,14.22,1.58,28.31,3,42.47,1.7,7.13-.62,9.59,1.52,9.13,8.25-1.6,23.18-3.43,46.34-4.62,69.54-.88,17.11-5.51,33.82-5.05,51-1.62,7.84-2.52,15.87-5.85,23.29-11.49,5-24.14,3.9-36,6.89-5.8,1.45-8.7-2-8.46-7.53.81-18.14-1.21-36.06-4.1-53.89-2.51-15.45-5.28-30.88-14.05-46.11-8.86,12.47-11.88,26-16.74,38.71-6.11,15.94-11.69,32.1-17.17,48.28-2.69,7.94-6.19,11.08-14.79,6.55-7.68-4-16.07-6.74-22.87-12.43.89-4.42,1.4-9,2.72-13.25Q615.93,1786.12,636.25,1720.9Z" transform="translate(-21.52 -31.95)" fill="#3b3b3b"/><path d="M1401.29,514.87c10.53,12.21,23.82,21.48,35.09,32.9-8.27,37-27,65.45-64,79.12-5.74,2.12-7.71,6.29-7.78,12.05-.1,9.51-3,18.45-5.94,27.39-11.35,34.74-51.84,32.51-71.32,16.16-10.65-8.94-23.75-18.22-15.38-35.94.14-.3-.65-1-1-1.58-12.37-7.41-21.8-17.54-25.09-31.73-5.92-25.52,6.42-44.48,25.72-61.19-17.25-7.36-34.68-12.43-39.42-31.75-4.61-18.78,7.58-32.9,15.5-47.47-2.94-3.73-6.56-3.43-9.33-4.92-11.48-6.37-22.61-13.61-26.76-26.73-6.68-21.08,1.74-38.91,16.17-56.4-17.86,2.54-33.61,3.45-43.18-12.85-8.93-15.2-3.8-30.39,1.35-45.92-9.86,6.75-19.6,12.77-30.24,17.4-16.3,7.1-30.39,4-42.76-8a186.21,186.21,0,0,1-15.43-17.4c-4.7-5.86-8.32-6.57-12,.81-3.39,6.69-7.87,12.63-14.21,16.91-10.14,1.31-18.42-2.87-25.6-9.29a132.74,132.74,0,0,1-25.28-30.54c-6-10-6.15-10.11-14.08-1.9-15.68,16.24-41.78,19.16-61.63,8.23-7.91-4.36-12-12.28-19.91-17.95-6.44,17.18-18.33,25.79-36.05,23.85-16.44-1.8-27.72-12.29-36.42-25.48-1.58,1.16-2.28,1.43-2.58,1.93-19.46,32.29-50,38-78.43,14.34-4.62-3.84-6.94-3-11,1.3-8.11,8.68-16.85,17.3-29.88,18-20.62,1.06-32.69-11.53-41.83-27.65-3.48-6.12-6.27-7.9-11.51-2.54-1.81,1.85-3.63,3.7-5.52,5.46-28.56,26.63-62.18,34.74-98.48,14.3-2.62-1.48-4.94-4.4-8.66-3.11,1.16,11.91,1.39,23.68-1.79,35.26-5.91,21.53-19.7,35.25-36.71,36.61-12.79,1-12.75,1.15-6.48,12.76C531.64,412,533.66,446.56,499.25,460c-7.69,3-8.69,7.07-4.62,13.9a70.89,70.89,0,0,1,10,40.84C503.5,534.62,491.36,547,474.12,555c-6.32,2.92-8.11,6-2.86,11.44,2.8,2.89,4,6.6,5,10.38,7.48,29.12-2.75,52.11-25.13,70.38-6.16,5-7.95,8.2-2.59,15.57,19.5,26.78,14.7,52.31-5.57,72.66-21,21.11-49.59,18.51-67.93-4.87-1.34-1.72-3.43-2.86-5.17-4.27.22-3.09,2.55-6.08.58-9.3-26.48-.2-40.39-11.17-48.15-37.91-7.1-24.49,1.58-39,35.61-59.7-.31-2.94-2.88-3.19-4.89-3.86-20.19-6.71-29.72-21.48-31.95-41.88-.46-4.17-1.12-8.31-1.69-12.47,17.77-15.18,36.85-28.86,52.67-46.27,7.37,3,5.83,13.63,14.42,17.36-.72-2.45-1-3.67-1.44-4.84-11.62-31.39-8.61-42.36,18.3-63,6.05-4.63,5.31-8.72,1.36-13.73a43.27,43.27,0,0,1-3.53-5.65c-7.15-16.31-5-32,3.36-47.23l2.24-1.87c8.14-3,15-9.24,23.9-10.19,9.71-1,11.45-4.93,7.83-14.08-7.65-19.33-1.67-37.12,14.75-47.25,3.55-2.2,7.37-4,11.06-5.94-14.82,1.31-26.53,7.62-31.17,21.92-2.31,7.14-6.23,10.83-12.83,12.74-7.27-.19-14.06,4.16-21.51,2.23-7.53-29.09,8.77-56.2,35.14-64.6,15.93-5.08,16.12-5.31,13.21-21.41-2.35-13.06-1.93-25.71,3.13-38.09,7.51-18.37,22.3-26.12,41-27.43a110,110,0,0,1,23.22.78c8,1.14,10.89-1.92,10.67-9.33a68.13,68.13,0,0,1,3.46-22.89c6.76-21.29,22.23-31.4,44.43-28.46,7.69,1,15.38,2.24,22.65,5.15,6.24,2.51,8.68.42,9.35-6.21a79,79,0,0,1,15-39.35C632.17,86.85,654,85,669.46,93.54c5.86,3.23,11.45,6.94,16.54,10,4-1.58,4.13-4.38,4.81-6.81,1-3.74,1.8-7.56,2.94-11.27,10.66-34.44,33.33-43.8,65-27.67,5.14,2.62,9.78,6.3,14.48,9.72,10.34,7.51,11.21,7.6,18.11-2.7C799,53.36,810,46,822.24,40.75c20.38-8.65,39.75-2.63,52.84,15.44,11.67,16.12,11.67,16.12,22.94.35C912.82,35.83,936,30.9,957.76,43.92c10.06,6,19.75,12.47,25.63,23.12,3.72,6.72,8.27,7.1,14.16,2.48,5.08-4,10.28-8,16-11,33.5-17.83,55.62-6.62,66.78,28.53,1.72,5.41,1.42,11.52,5.27,16.16,5.45.09,8.5-3.74,12.19-6.11,24.78-15.92,48.81-9.39,62.17,17,4.44,8.76,7.68,18,8.21,27.73.48,8.72,4,9.53,11.2,6.93a89.52,89.52,0,0,1,16-3.82c30.56-5,50,10.34,52.58,41.55,1.49,17.69,1.5,17.92,18.52,17.25,12.46-.49,24.55.43,36,5.89,12.81,30.45,7.14,60.09-5,88.47,3.4,3.68,6.7,4,9.77,4.94,9.63,2.83,19.41,5.38,28.14,10.48,11,6.41,19.58,15,21.5,28.28.69,4.76,3.17,7.46,9.81,8.29-7.19,2.19-12.67.23-17.42,2.9l-4.35-1.22c-1.29-3.63-2.64-7.24-3.87-10.89-4.29-12.8-20-24-32.31-22.35,1.51.88,2.55,1.54,3.63,2.1s2.36,1.06,3.5,1.66c16.24,8.56,24.79,21.28,21.48,40.23a54,54,0,0,1-3,11.14c-2.55,6.21-2.47,10.11,5.6,11.67,6.58,1.27,12.8,4.35,19.17,6.63l9.13,6.28c4.67,7.23,5.89,15.2,6.44,23.72.8,12.43-5.15,22.88-8.18,34.18-3,6.49,3.06,7.56,6.26,9.93,22.66,16.79,27.45,33.91,16.54,59.74-.78,1.85-2.91,3.65-.69,6.43C1394.83,527.84,1394.2,518.38,1401.29,514.87Z" transform="translate(-21.52 -31.95)" fill="#f6f6f6"/><path d="M1349.17,352.93c4.75-2.67,10.23-.71,17.42-2.9-6.64-.83-9.12-3.53-9.81-8.29-1.92-13.32-10.51-21.87-21.5-28.28-8.73-5.1-18.51-7.65-28.14-10.48-3.07-.91-6.37-1.26-9.77-4.94,12.15-28.38,17.82-58,5-88.47,20.39,10.5,25.1,30,24.66,49.9-.11,5.13-.42,10.71-2.5,15.23-4.37,9.51-.08,12.57,8.29,14.68,17.42,4.39,31.38,13.41,38.9,30.63a40.63,40.63,0,0,1,2.83,11.19c2.91,21.49,3,21.48-17.9,22.23Z" transform="translate(-21.52 -31.95)" fill="#e4e4e4"/><path d="M923.36,1139.14c24.29-10.79,33-17,49.42-28.91,20.66-15,56.28-34.34,74.08-39.25,32.4-8.93,64.54-13.36,97-22.26,13.34-3.66,26.66-7.91,40.6-9.1,6.24-.54,13.26-.82,17,4.52,3.91,5.54,2.37,12.41-.73,18.49-3.8,7.44-7.6,14.88-11.91,23.3,9.3,3.13,18.21,6,27,9.12a51.12,51.12,0,0,1,9.53,4.47c30,18.6,23.16,40.13,13.69,61.56-2.75,6.21-6.69,11.75-10.87,17.1-3.84,4.92-2.56,8.65,1.68,12.8,4.83,4.73,10.49,8.39,14.91,13.77,15.46,18.83,17.57,51.57-9.31,66.21l-2.69,1.46c.6,5.38,4.17,5.22,6.61,6.36,19,8.88,27.22,22.8,26.13,44.33-.89,17.6-11.75,30.51-31,36.8-15.23,5-15.2,5-10.24,20.81,4,12.82,6.14,25.89,3.14,39.21-4.28,19-23.55,27.5-40.6,29-16.12,1.36-16.45,1-19.72,17.1-3.69,18.16-11.39,33.07-29.95,39.81-14.09,5.11-28.25,2.81-41.88-1.49-8.75-2.76-13.51-.83-16.32,7.69-2.92,8.82-8.92,15.76-15.16,22.3-15.33,16-36.11,16-53.68.27-4.53-4-8-9.39-15.36-13a154.74,154.74,0,0,1-13,29.81c-12.11,21.06-33.62,31.39-53.49,25.55-9.57-2.81-16.11-9.33-21.87-16.89-3.1-4.07-5.89-8.37-8.7-12.4-5.42.17-6.69,4.45-8.46,7.58C868.46,1592,836,1581,818.92,1557.62c-2.42-3.32-3.54-7.69-7.44-10-5,.71-6.44,5.22-8.82,8.38a85.61,85.61,0,0,1-13.86,14.89c-15.84,13.06-38.28,10.55-53.11-6-9.56-10.66-18.16-21.95-21.14-36.49-.5-2.43-.83-5.25-4.58-6.45-4.72,4.12-10,8.22-14.69,12.91-20.62,20.61-47.24,12.79-61.38-11.53-2.43-4.2-5.09-8.39-6.64-12.93-2.63-7.69-7.41-8.64-14.42-6.56-12.43,3.69-24.86,6.27-38.14,3.63-16.55-3.3-25.51-14.16-31.48-28.61-1.47-3.56-3.39-7.49-3.13-11.12,1.11-15.48-9-17-20.63-18.77-11.33-1.7-23.13-3.07-31.61-12.88-5.8-6.71-8.2-13.49-5.64-22.23,2.63-9,4.4-18.23,9-26.54,4-7.23,2.06-11.42-6.25-13a61.39,61.39,0,0,1-20.73-7.88c-10.8-6.62-14.54-16-12.67-28,1.72-11,7.73-18.8,17.61-24,5.62-2.92,12.61-2.66,17.94-7.5-4-5.88-10.4-8-14.68-12.87-20.54-23.28-13.46-61.59,5.6-80.55,11.2-11.14,10.91-11,2.77-25-5.55-9.46-10.95-19-13.86-29.82-4.85-18-.76-31.71,14.15-42.8a77.2,77.2,0,0,1,27.74-13.56c3-.75,6.52-.82,9.09-4.26-.71-5.12-4.39-9.4-6.28-14.38q-1.95-4.83-3.89-9.68c4.27-9.09,2.74-19.66,8-28.69,10.45-18,27.49-26.65,45.75-33.74,4.67-1.82,9.13-3.4,10.07-9.11,32,21.77,67.13,36.2,104.86,44.52,4.71,1,9.33,2.44,14,3.67,22.88,8.75,45.66,17.75,68.67,26.12,9.19,3.35,15,10.94,22.7,16.08,2.51,1.68,8.05,7,14,13,12.64,12.68,66.48,38.1,84.38,38.61Z" transform="translate(-21.52 -31.95)" fill="#fff"/><path d="M571.58,1002.55c-.94,5.71-5.4,7.29-10.07,9.11-18.26,7.09-35.3,15.75-45.75,33.74-5.25,9-3.72,19.6-8,28.69-13-26.57-4.48-53.9,22.31-69.67,8.86-5.21,18.52-9.07,27.81-13.54C562.73,994.44,568.31,997.14,571.58,1002.55Z" transform="translate(-21.52 -31.95)" fill="#e4e4e4"/><path d="M1743.6,514.54l-4,7.76a106.63,106.63,0,0,1-51.1,29.52c-30.72,8-61.71,8.9-93.09,5.59-70.83-7.49-135.21-32.26-193.87-72.23-5.58-3.8-12.11-7.57-13.42-15.45,9.22,6,18.34,12.14,27.68,17.95,34.81,21.63,70.83,40.52,112,46.74,30.73,4.63,59.27.3,83.45-21.33,19.64-17.56,20.35-35.63,1.94-54.24a85.51,85.51,0,0,0-22.89-16.14c-32.43-16.24-67.61-21.42-103-25.36-40-4.45-79.17-12.64-116.83-27.21-5.82-4.24-13-5.45-19.36-8.36-5.33-2.43-10.5-4.38-9.11-12.44s5.07-11.33,13-10.27c39,3,77.94,3.3,117-1.11,46.92-5.29,94.16-7.93,141-.19,36.83,6.08,73.26,14.81,100.1,43.81,28.65,31,38.56,67.66,31,109.12C1743.82,512,1743.75,513.26,1743.6,514.54Z" transform="translate(-21.52 -31.95)" fill="#d2d2d2"/><path d="M1354.92,359.07c-7.89-1.06-11.59,2.31-13,10.27s3.78,10,9.11,12.44c6.4,2.91,13.54,4.12,19.36,8.36-3.8.65-8.41-3.91-11.45,1.76-6.37-2.28-12.59-5.36-19.17-6.63-8.07-1.56-8.15-5.46-5.6-11.67a54,54,0,0,0,3-11.14c3.31-18.95-5.24-31.67-21.48-40.23-1.14-.6-2.36-1.06-3.5-1.66s-2.12-1.22-3.63-2.1c12.28-1.63,28,9.55,32.31,22.35,1.23,3.65,2.58,7.26,3.87,10.89-4.28,2.81-2.38,4.26,1.19,5.21C1349,357.71,1352,358.36,1354.92,359.07Z" transform="translate(-21.52 -31.95)" fill="#c3c3c3"/><path d="M1270.93,645c.36.53,1.15,1.28,1,1.58-8.37,17.72,4.73,27,15.38,35.94,19.48,16.35,60,18.58,71.32-16.16,2.92-8.94,5.84-17.88,5.94-27.39.07-5.76,2-9.93,7.78-12.05,37-13.67,55.75-42.16,64-79.12a71.21,71.21,0,0,1,17.26,13.84c-2.35,10.31-1,21.31-6.63,31-6.25,10.76-14,19.33-26.53,22.56-2.14.55-4.55.8-6.1,5.41,29.21,8.93,44.34,28.32,35.86,59.52-6.26,23.07-20.07,39.21-47.89,36-.06,8.89,4.19,15.59,6.61,22.72,4,11.74,6.71,23.56,6.17,36.07-.69,16-12.27,29-28.19,30.72a65.28,65.28,0,0,1-30.5-3.9c-9.44-3.6-10.77-3-11.24,6.77a81.48,81.48,0,0,1-3.86,19.94c-5.87,19.29-24.57,28.82-43.76,22.44-6.12-2-12.19-4.18-18.28-6.28l-.16.08a36.26,36.26,0,0,0-3.71-4.43c-11-9.62-18.73-20.48-15.15-36.27,1-4.26-2.43-6.14-5.69-7.94-9.69-5.35-15.23-13.76-17-24.53-2.56-15.17,1.73-28.84,10.39-41.09,4.61-6.51,5.5-10.52-1.76-16.6-17-14.18-19.36-30.95-8.2-46a43.87,43.87,0,0,1,25.09-17.09C1266.59,649.93,1270.19,649.46,1270.93,645Z" transform="translate(-21.52 -31.95)" fill="#e4e4e4"/><path d="M369.87,726.29c1.74,1.41,3.83,2.55,5.17,4.27,18.34,23.38,46.91,26,67.93,4.87,20.27-20.35,25.07-45.88,5.57-72.66-5.36-7.37-3.57-10.54,2.59-15.57,22.38-18.27,32.61-41.26,25.13-70.38-1-3.78-2.2-7.49-5-10.38-5.25-5.4-3.46-8.52,2.86-11.44,17.24-8,29.38-20.38,30.51-40.31a70.89,70.89,0,0,0-10-40.84c-4.07-6.83-3.07-10.9,4.62-13.9,34.41-13.39,32.39-47.95,20.13-70.63-6.27-11.61-6.31-11.75,6.48-12.76,17-1.36,30.8-15.08,36.71-36.61,3.18-11.58,2.95-23.35,1.79-35.26,3.72-1.29,6,1.63,8.66,3.11,36.3,20.44,69.92,12.33,98.48-14.3,1.89-1.76,3.71-3.61,5.52-5.46,5.24-5.36,8-3.58,11.51,2.54,9.14,16.12,21.21,28.71,41.83,27.65,13-.67,21.77-9.29,29.88-18,4-4.32,6.36-5.14,11-1.3,28.39,23.63,59,18,78.43-14.34.3-.5,1-.77,2.58-1.93,8.7,13.19,20,23.68,36.42,25.48,17.72,1.94,29.61-6.67,36.05-23.85,7.93,5.67,12,13.59,19.91,17.95,19.85,10.93,45.95,8,61.63-8.23,7.93-8.21,8-8.11,14.08,1.9a132.74,132.74,0,0,0,25.28,30.54c7.18,6.42,15.46,10.6,25.6,9.29-14.06,16-43.12,12.63-57.67-6.76-2.57-3.42-3.7-8.49-9.86-9.48-10.49,13.52-22.94,23.81-42.1,22.31-19.51-1.54-29.94-14-39.07-33-4.66,21.34-15.36,33.7-35,32.34-18.51-1.28-31.23-12.1-36.81-33.5-8.19,19.62-18.69,32.19-38.6,34.23s-32.07-10.2-44.63-23.75c-11.11,17.17-23.9,29-44.77,27.48-21.65-1.57-29.32-19.5-39.71-34.73-14.79,12.87-22.64,32.33-43.63,35.31S604,335.4,585.3,324.44c8,16.84,11.72,32.05,3.45,46.68-8.89,15.7-24.56,16.64-42.41,13.86,10.92,16.92,20.38,31.68,16.38,51-4.36,21.12-21.74,27.16-39.45,34.85C534,486,543.86,500.8,540.59,519.56c-3.72,21.3-23,24.76-39.47,32.2,35,31.79,39.14,63.48,1.59,94.77,3.67,4.81,8.3,4.51,12.13,5.93,17.38,6.45,26.92,20.8,26.07,38.73-.48,10.2-6.79,16.8-13.83,22.36s-6.91,10.19-1.84,16.86c5.34,7,8,15.5,10,24,4,16.85-1.79,31.65-16.27,41.11-3.34,2.19-7,4.18-5.94,8.94,3.86,17.81-6.24,28.69-18.79,38.41-9.4,4.21-18.32,9.62-29.19,9.68-16.2.08-28.42-8.65-33.14-24.3A79.28,79.28,0,0,1,428,806.38c-.09-5.8-2.79-8.91-8.65-5.45-4.38,2.59-9.16,3-13.9,3.88-34.22,6.21-53.42-13.43-46.16-47.44C361.61,746.64,364.11,735.89,369.87,726.29Z" transform="translate(-21.52 -31.95)" fill="#e4e4e4"/><path d="M494.23,842.91c12.55-9.72,22.65-20.6,18.79-38.41-1-4.76,2.6-6.75,5.94-8.94,14.48-9.46,20.31-24.26,16.27-41.11-2-8.54-4.65-17-10-24-5.07-6.67-5.24-11.28,1.84-16.86s13.35-12.16,13.83-22.36c.85-17.93-8.69-32.28-26.07-38.73-3.83-1.42-8.46-1.12-12.13-5.93,37.55-31.29,33.44-63-1.59-94.77,16.45-7.44,35.75-10.9,39.47-32.2,3.27-18.76-6.57-33.52-17.32-48.68,17.71-7.69,35.09-13.73,39.45-34.85,4-19.37-5.46-34.13-16.38-51,17.85,2.78,33.52,1.84,42.41-13.86,8.27-14.63,4.59-29.84-3.45-46.68,18.67,11,33.19,24.7,54.09,21.73s28.84-22.44,43.63-35.31c10.39,15.23,18.06,33.16,39.71,34.73,20.87,1.53,33.66-10.31,44.77-27.48,12.56,13.55,24.72,25.78,44.63,23.75s30.41-14.61,38.6-34.23c5.58,21.4,18.3,32.22,36.81,33.5,19.6,1.36,30.3-11,35-32.34,9.13,19.09,19.56,31.51,39.07,33,19.16,1.5,31.61-8.79,42.1-22.31,6.16,1,7.29,6.06,9.86,9.48,14.55,19.39,43.61,22.76,57.67,6.76,6.34-4.28,10.82-10.22,14.21-16.91,3.73-7.38,7.35-6.67,12-.81a186.21,186.21,0,0,0,15.43,17.4c12.37,12,26.46,15.06,42.76,8,10.64-4.63,20.38-10.65,30.24-17.4-5.15,15.53-10.28,30.72-1.35,45.92,9.57,16.3,25.32,15.39,43.18,12.85-14.43,17.49-22.85,35.32-16.17,56.4,4.15,13.12,15.28,20.36,26.76,26.73v3.88c-12.77-4.75-23.34-11.72-29.92-24.5-9.79-19-3.29-36.22,5.42-54.89-32.83-2.37-41.93-22.71-40.08-51.5-1.65.74-2.84,1.15-3.92,1.78-29.64,17.16-47.76,13.76-69-12.75-2.5-3.12-4.47-7.2-10-8.23-10.42,14.22-21.47,29-41.15,30.19-19.32,1.21-33.28-9.72-44.87-24.56C977.12,355.48,950.17,355.55,924,326c-26.23,32.64-51,23.91-74.77-.76-23.09,26.65-47.18,33.88-80.39,3.44-4.75,4.29-4.69,13.86-9.46,18.17-12.45,8.07-30.61,14.69-45.21,10.12s-19.38,2.56-29-8.77c-12.77,10-15.82,8.31-31.72,14.17-17.86,6.58-33.77-11-49.94-14.85,3.9,31,1.34,46.63-31.72,47.92,2.18,3.61-2.64,5.24-1.35,7.42,15.66,26.61,4.27,55.6-23.62,68.84-8.68,4.11-10.06,3.79-4,11.47C558.9,503.84,557.56,535,536,549.31c-4.71,3.12-10.06,4.7-15.52,8.1,27.17,30.34,30.82,55,1.35,85.71,21.39,8.62,30.65,20.77,31.72,43.19.22,4.72-2,8,1.23,6.77,4.7-1.78,9.13-2.22,14.45,2.83-6.19,1.79-11.1,4.57-15.82,4.27-7-.46-9.41,4.16-13.92,7.68-12.64,9.89-13.65,19.53-3.53,31.29.78.91.86,2.42,1.32,3.62,9.17,24.12,5,40.44-14.86,56.66-3.11,2.54-4.27,5.12-3.83,9.15,1,9.09-1.78,17.11-7.51,24.32-4,5.05-7.44,10.56-11.12,15.86l-5.68-3.86Z" transform="translate(-21.52 -31.95)" fill="#b8b8b8"/><path d="M33.69,522.31c-8.24-13.89-7.85-29.26-7.66-44.6,4.95-13.67,5.54-28.42,11.39-42,15.09-35,42.23-55.88,77.44-66.89,54-16.88,109.25-18.45,165.1-12.2,40.88,4.58,81.94,5.6,123,4.25,5.15-.17,10.28-1.19,15.41-1.81,7.91-1.09,11.59,2.32,13,10.27s-3.8,10-9.13,12.44c-6.4,2.91-13.55,4.09-19.35,8.39a436,436,0,0,1-100.48,25.21c-30.13,3.95-60.44,6.59-89.69,15.53-21.59,6.6-42,15.31-57.23,32.91-10.87,12.55-11.77,24.67-2.59,38,15.75,22.94,38.76,32.4,65.54,33.94,29.16,1.67,56.25-6.74,82.71-17.95,30-12.69,57-30.38,84.07-48.13-1.21,6.77-5.82,11.81-10.85,15.17C335.1,511.21,292.94,532,247.72,545.62c-43.26,13.08-87.78,18.87-132.84,12.93C84.63,554.56,55.39,546.37,33.69,522.31Z" transform="translate(-21.52 -31.95)" fill="#d2d2d2"/><path d="M402.89,390.18c5.8-4.3,12.95-5.48,19.35-8.39,5.33-2.43,10.51-4.38,9.13-12.44s-5.05-11.36-13-10.27L430,355.75c-2.95-3.62-6.68-1.93-9.73-2.57,6.6-1.91,10.52-5.6,12.83-12.74,4.64-14.3,16.35-20.61,31.17-21.92-3.69,2-7.51,3.74-11.06,5.94-16.42,10.13-22.4,27.92-14.75,47.25,3.62,9.15,1.88,13.05-7.83,14.08-8.91.95-15.76,7.17-23.9,10.19l5.52-7.1Z" transform="translate(-21.52 -31.95)" fill="#c1c1c1"/><path d="M33.69,522.31c21.7,24.06,50.94,32.25,81.19,36.24,45.06,5.94,89.58.15,132.84-12.93C292.94,532,335.1,511.21,374.37,484.9c5-3.36,9.64-8.4,10.85-15.17l15.66-11.66c8,1.06,2.32-5,3.81-7.34,3.95,5,4.69,9.1-1.36,13.73-26.91,20.6-29.92,31.57-18.3,63,.43,1.17.72,2.39,1.44,4.84-8.59-3.73-7.05-14.33-14.42-17.36,1-2.41,4.74-4,1.79-8.42-11.4,9.65-21.33,20.59-32.53,30.11-38.83,33-81.84,57.12-132.69,66.11-49.38,8.73-95.21,1.41-136-28.75C54.68,560.74,40,544.55,33.69,522.31Z" transform="translate(-21.52 -31.95)" fill="#c4c4c4"/><path d="M1156.16,1016.29c.32.08.24.32-.25.57C1156,1016.86,1156.08,1016.69,1156.16,1016.29Z" transform="translate(-21.52 -31.95)" fill="#d2d2d2"/><path d="M538.65,705.23c4.54-3.57,9.8-9,9.56-13.77-1.06-22.35-13.37-36.28-34.74-45,29.47-30.69,27-61-.17-91.35,5.51-3.4,10.37-6.23,15.07-9.39,21.62-14.25,26.32-40.65,10.12-61.39-6-7.61-5-10.36,3.64-14.49,27.86-13.2,36.37-42.84,20.65-69.41-1.29-2.18-2.59-4.37-4.77-8,33-1.22,44.86-19.68,41-50.62,16.12,3.89,28.92,16.28,46.81,9.72,15.88-5.83,24.14-19.92,36.85-30,9.64,11.33,17.82,24.05,32.4,28.58s28,.41,40.49-7.69c2.18,1.29,8.82-2.11,10.61-.41,24.78,24,48,19.52,78.23,8.83,5-1.78,12,1.14,16.92,3.32,18.79,8.51,31.67,12.47,49.89.73,5.67-3.64,20.16-3.24,25.67.65,17.09,12.15,37.74,13.93,56-8.1,4.86-5.91,17.25.89,21.54,4.7,9,8,47.3-2.68,72.24-2,5.59-3.56,74.26,23.81,78.31,25,3.24,5.67,45.19,88.84,41.14,96.45-2,3.89-12.63,57.9,8.59,68.51,5.59,2.84,4,6.4.81,10.12-8.83,10.45-1,56.61,2.75,65.85-3.4.4-57.82,385.8-62.11,400.14-9.88-2.67-349.94,60.58-367.11,48.18-17.33-5.83-168-47.29-200.59-70.61-41.79-29.81-85.85-129-90.3-128,0-3.89-1.3-15.71-1.3-19.6,3.65-5.26,9.48-11.09,13.45-16.2,5.75-7.2,7.77-11.09,6.8-20.24-.49-4,2.27-10.29,5.34-12.8,19.85-16.19,22-28.5,12.88-52.64a25.11,25.11,0,0,0-3.4-4.69C521.81,727.9,526,715.11,538.65,705.23Z" transform="translate(-21.52 -31.95)" fill="#d2d2d2"/><path d="M561.88,625.92c9.08,4.74,16.19,4.12,23.11-1.69C577,620.28,569.72,621.69,561.88,625.92Z" transform="translate(-21.52 -31.95)" fill="#d2d2d2"/><path d="M500.07,860.33c4.4-1,10.49-2.69,11.62,1.44,14,51.54,45,90.57,86.81,120.4,32.68,23.33,70.21,31.21,109.42,33.69,13.83.88,27.63,2.37,41.38,4.09,8.61,1.08,10.93,9.18,15,15.17,0,.68,0,1.35,0,2l-6.68-6.23c.94,8.78,7.74,14,8.64,22-15.75,1.17-30.58-2-45.52-4-40.28-5.33-80-13.32-116-33-46.41-25.37-81.54-61.29-98.29-112.67C502,889.44,498.68,875.15,500.07,860.33Z" transform="translate(-21.52 -31.95)" fill="#c3c3c3"/><path d="M785.34,1068.28c-3.93-3.82-7.44-4-11.38-7.78,4.07-2.67-.51-5.11-.2-7.68l.45-.29c2.49,2.49,4.92,5,7.49,7.45s5.59,4.2,9.44,1.89c17.32-10.37,33.21-22.75,49.26-34.91.89-.67,1.08-2.27,1.6-3.43l2,0,0,3.57c1.54,5.68-2,7.93-6.3,10.34-11.92,6.65-21.29,16.42-31,25.66,2,5.22,5.92,7.25,10,9.39,26.19,13.7,54,19.19,83.41,17,21.76-1.61,41.32-10.09,60.28-20.14,2.69-1.43,6.78-3.81,3.89-7.34-3.38-4.13-5.58-9.08-10.68-12.23-11.2-6.92-21.68-15-32.46-22.6.23-.56.47-1.11.73-1.66,3.48-1.46,3.53-5.31,5.46-7.84a10,10,0,0,0,4.1,7.26c15,11.84,31.51,16.49,47.89,26.44,4.77,4.63,7.75,10,12,6.23,3-2.7,5.08-6.66,9.79-6.94,1.2,3.59-6.12,5.66-1.76,9.82l-11.86,11.42c.16-1.8,1.86-3.57.08-5.48-3.26-.91-3,6.07-6.19,5.2-9.62,8.8-22.4,12.9-33.4,19.69-36.94,22.82-74.55,27.66-113.42,4.79-14.19-8.35-26-11-38.43-22.12C793,1071.19,784.9,1059.48,785.34,1068.28Z" transform="translate(-21.52 -31.95)" fill="#d1d1d1"/><path d="M1388.09,469.73c1.31,7.88,7.84,11.65,13.42,15.45,58.66,40,123,64.74,193.87,72.23,31.38,3.31,62.37,2.38,93.09-5.59a106.63,106.63,0,0,0,51.1-29.52c-5.34,20.76-19,35.94-34.91,48.8-37.9,30.69-82.58,39.9-129.55,33.72-54.19-7.12-101.12-31.75-142.37-67.55-11.34-9.85-21.8-20.69-33.12-30.95-3.12,4.62.64,6.16,1.67,8.55-7.09,3.51-6.46,13-12.81,17.31-2.22-2.78-.09-4.58.69-6.43,10.91-25.83,6.12-42.95-16.54-59.74-3.2-2.37-9.29-3.44-6.25-9.93,1.72,4.07,4.94,2.63,7.9,2.15Z" transform="translate(-21.52 -31.95)" fill="#c4c4c4"/><path d="M950.82,1072.52c-108.1-2.22-302.19-49.85-296.43-55.66,3.22-3.24,47.44-211.44,38.33-209.92-.6-5.82,453.08-42.94,458.68-52.59,9.64-16.62,15.51-34.82,20.76-55,9.62,11.56,20.7,18.44,33.07,23.36,2.78,5.14.2,10.14-.52,15.14-4.52,31.82-1,60.81,27.81,81.23,2.1,1.49,4.68,3.41,3.67,6.27-4.39,12.46,3.31,21.34,10.73,28.1,9.85,9,7.57,16.82,2.87,26.44-27.38,56-73.19,91.81-128.5,116.8C1091.62,1010.1,993.32,1073.39,950.82,1072.52Z" transform="translate(-21.52 -31.95)" fill="#d2d2d2"/><path d="M866.46,980.3c5-3.81,13.23-13.42,17.32-14.23,7.91-1.55,18.08,11.43,24.73,15.07,7.47,4.1,16.13,4,24.29,6.16,7.28,1.91,12.23,3.44,4.46,11-5.52,5.38-10.71,7.34-18.21,2.14-6.38-4.41-14.29-4.65-22.06-1.54-4.69,1.88-9,5-14.29,5.26-11.41-6.83-22.83-5.14-32.26,2.75-8.57,7.17-14.23,6.2-20.5-2a19.79,19.79,0,0,0-9.1-6.91c-7-2.46,3.2-6.09,2.47-5.8,5.49-2.2,17-1.15,22.92-2.87a83.3,83.3,0,0,0,18.87-8.1A12.11,12.11,0,0,0,866.46,980.3Z" transform="translate(-21.52 -31.95)" fill="#600"/><path d="M495.7,876.24l-1.44-31.34,5.68,3.86q.06,5.79.13,11.57c-1.39,14.82,1.88,29.11,6.38,42.89,16.75,51.38,51.88,87.3,98.29,112.67,36,19.69,75.68,27.68,116,33,14.94,2,29.77,5.16,45.52,4-.9-8-7.7-13.19-8.64-22l6.68,6.23,9.5,15.67c-.31,2.57,4.27,5,.2,7.68-6.37,1.48-12.53.3-18.9-.69-21.49-3.37-43.08-6.1-64.63-9.07-4.66-1.23-9.28-2.63-14-3.67-37.73-8.32-72.85-22.75-104.86-44.52-3.27-5.41-8.85-8.11-13.69-11.67L552.11,983C521.15,953.81,500.24,919.35,495.7,876.24Z" transform="translate(-21.52 -31.95)" fill="#989898"/><path d="M1010.71,1031.38c2.07-7.41,9.12-11.07,16.87-11.92,32.21-3.53,64-9.36,93.71-22.76,55.31-25,101.12-60.82,128.5-116.8,4.7-9.62,7-17.47-2.87-26.44-7.42-6.76-15.12-15.64-10.73-28.1,1-2.86-1.57-4.78-3.67-6.27-28.76-20.42-32.33-49.41-27.81-81.23.72-5,3.3-10,.52-15.14,4.28-.23,8.27,4.12,14.19,1.47l-16-7.65c2.37-.32,5.11.88,7.34-2.19-3.34-5.71-6.71-11.68-10.31-17.51-2.12-3.44-2.29-6.45.88-9.28l11.7,1.69c9.78,3.32,17.08,9.25,20.66,19.27a6.65,6.65,0,0,0,2.48,2.94c10,6.72,9.77,14.66,3.17,23.66-1.49,2-2.21,4.66-3.13,7.07-9.39,24.55-5.3,40.55,14.89,57.45,3,2.53,4.63,5.2,3.88,9.18-2.11,11.25,2.39,20.63,9.89,28.13,6.25,6.25,9.35,12.9,8.47,21.54.17,52.66-24.26,93.55-61.91,127.72-38.82,35.22-86.22,51-136.9,59.23-18.2,3-36.33,6.16-54.75,7.28-3.48.22-7.11.57-10.78-1.34-.94-6.06,4.07-9.87,5.64-14.9C1015.37,1034.29,1015.9,1031.55,1010.71,1031.38Z" transform="translate(-21.52 -31.95)" fill="#c3c3c3"/><path d="M1279.3,844.67c-2.6,7.1-2.51,14.42-1.81,21.79-.32,47.76-23.19,84.64-56.3,116.57l-6.14,7.54c-18.22,15.08-37.56,28.26-59.42,37.77-41.1,17.9-84.84,24-128.7,29.77-9.14,1.19-18.06,5.37-27.57,2.41-4.36-4.16,3-6.23,1.76-9.82,1.76-7.79,8.41-12.59,11.83-19.36,5.19.17,2.42,3,1.73,5.14-1.57,5-6.58,8.84-5.64,14.9,3.67,1.91,7.3,1.56,10.78,1.34,18.42-1.12,36.55-4.33,54.75-7.28,50.68-8.21,98.08-24,136.9-59.23,37.65-34.17,62.08-75.06,61.91-127.72,3-4.13-.23-10.86,5.76-13.74Z" transform="translate(-21.52 -31.95)" fill="#979797"/><path d="M1273.38,858.49c.88-8.64-2.22-15.29-8.47-21.54-7.5-7.5-12-16.88-9.89-28.13.75-4-.85-6.65-3.88-9.18-20.19-16.9-24.28-32.9-14.89-57.45.92-2.41,1.64-5,3.13-7.07,6.6-9,6.86-16.94-3.17-23.66a6.65,6.65,0,0,1-2.48-2.94c-3.58-10-10.88-15.95-20.66-19.27,4.59-4.28-1.59-3.66-2.48-5.45,3.22.17,6.48.14,9.66.56,3.49.47,5.67-.73,6.58-4.1,4.71-17.25,16.82-27.75,32.88-35-4.78-8-12.33-13.33-15.41-21.57-8.22-22-5.55-42.29,9.57-60.84,7.17-8.79,6.84-9.6-3.46-14.55-11.05-5.32-18.78-13.34-23.1-24.88-6.15-16.42,2.38-29.38,9.59-42.72,1.5-2.77,6-5.15,1.41-8.91v-3.88c2.77,1.49,6.39,1.19,9.33,4.92-7.92,14.57-20.11,28.69-15.5,47.47,4.74,19.32,22.17,24.39,39.42,31.75-19.3,16.71-31.64,35.67-25.72,61.19,3.29,14.19,12.72,24.32,25.09,31.73-.74,4.49-4.34,5-7.86,5.83A43.87,43.87,0,0,0,1238,667.89c-11.16,15.05-8.75,31.82,8.2,46,7.26,6.08,6.37,10.09,1.76,16.6-8.66,12.25-13,25.92-10.39,41.09,1.81,10.77,7.35,19.18,17,24.53,3.26,1.8,6.65,3.68,5.69,7.94-3.58,15.79,4.15,26.65,15.15,36.27a36.26,36.26,0,0,1,3.71,4.43C1273.15,847.63,1276.38,854.36,1273.38,858.49Z" transform="translate(-21.52 -31.95)" fill="#b4b4b4"/><path d="M1026.34,1729c17.8,4.76,17.53,4.76,17.82,23.77.61,40.33-1.47,80.6-2.19,120.9-.06,3.57-.22,7.1-2.11,10.29-.57,0-1.13.1-1.69.18l-29.07-13.58-2.09-1.85c1-30.07-.63-60.15,1.56-90.25,1.2-16.35,1.8-33-1.07-49.4Z" transform="translate(-21.52 -31.95)" fill="#737373"/><path d="M1007.5,1729.05c2.87,16.41,2.27,33,1.07,49.4-2.19,30.1-.6,60.18-1.56,90.25-16.22-6.89-18.9-19.43-20-36.25q-3.16-46.47-3.15-92.89c0-15.61.83-16.16,16.07-11.85A71.82,71.82,0,0,0,1007.5,1729.05Z" transform="translate(-21.52 -31.95)" fill="#3b3b3b"/><path d="M636.25,1720.9q-20.24,65.25-40.42,130.51c-1.32,4.29-1.83,8.83-2.72,13.25-.57.07-1.14.16-1.71.28l-19.63-13.48a13.26,13.26,0,0,1-6-8q16.83-63.81,33.61-127.65c1.27-4.84,3.75-6.53,8.44-4.89q14.19,5,28.35,9.94Z" transform="translate(-21.52 -31.95)" fill="#737373"/><path d="M544.64,1600.61c2.7,3,2.6,6,1.12,9.77-6.21,15.61-9.88,31.94-12.71,48.46-5.19,17-4.76,34.47-2.86,51.83.88,7.95-.8,10.76-9.18,9.36-23.26-3.86-25.51-5.4-24.61-29,.74-19.26-5-37.81-4.44-56.92a4.21,4.21,0,0,0-2.4-4.11c-4.33,0-5.58,3.61-7.08,6.72-8.27,17.16-16.61,34.29-24.61,51.58-4.57,9.88-6.18,10.83-15.94,5.87-4.88-2.47-9.42-5.6-14.12-8.44.2-6.76,3.48-12.46,6.72-18,18.47-31.53,37.14-62.94,55.73-94.39C507.62,1584,525.56,1593.45,544.64,1600.61Z" transform="translate(-21.52 -31.95)" fill="#3b3b3b"/><path d="M490.26,1573.38c-18.59,31.45-37.26,62.86-55.73,94.39-3.24,5.54-6.52,11.24-6.72,18l-3.32,0L403,1670.36c-.73-1.25-1.46-2.5-2.18-3.75,16-28.73,31.83-57.58,48.21-86.1,4.89-8.52,7.51-18.63,16-24.86Z" transform="translate(-21.52 -31.95)" fill="#727272"/><path d="M465,1555.65c-8.49,6.23-11.11,16.34-16,24.86-16.38,28.52-32.19,57.37-48.21,86.1-15.12-15.32-16.23-27.91-7.72-44.36,13.55-26.2,29.5-50.88,44.73-76,3.73-6.17,7.55-5.87,12.39-1.42C454.75,1549,459.4,1553,465,1555.65Z" transform="translate(-21.52 -31.95)" fill="#3b3b3b"/><path d="M636.19,1720.85q-14.18-5-28.35-9.94c-4.69-1.64-7.17,0-8.44,4.89q-16.68,63.85-33.61,127.65c-12.17-11.46-15.62-25-11.65-41.37,4.63-19.12,7.94-38.55,11.81-57.85-.26-13.83,4.76-26.65,7.71-39.86,1.48-6.58,5.19-5.53,10.24-3.85,5.45,1.81,10.19,9.45,17.14,3a167.71,167.71,0,0,1,37.25,13.33Z" transform="translate(-21.52 -31.95)" fill="#3b3b3b"/><path d="M774,1061.51c-.5-10.86,4.77-6.78,8.36-3.3,14.11,13.72,30.91,22.8,47,33.1,44.1,28.21,86.8,22.25,128.72-5.9,12.48-8.38,25.3-16.18,36.22-27,2.41-2.39,5-4.78,8.71-3.67,2,2.35.09,4.54-.09,6.76-16.72,11.42-33.06,23.43-50,34.45-47.19,30.63-92.51,26.57-137.28-5.54C801.85,1080.52,787.85,1071.12,774,1061.51Z" transform="translate(-21.52 -31.95)" fill="#969696"/><path d="M577.52,1686c5.49-23.5,12.39-46.51,23.4-68.11-1.32,14-8.72,26.15-12.83,39.32C585.06,1666.92,583.87,1677.46,577.52,1686Z" transform="translate(-21.52 -31.95)" fill="#bfbfbf"/><path d="M1374.28,458.23c-3,.48-6.18,1.92-7.9-2.15,3-11.3,9-21.75,8.17-34.18-.55-8.52-1.77-16.49-6.43-23.72,2.88.25,6-.05,8.62.83,36,11.86,72.61,20.41,110.33,24.28a602.35,602.35,0,0,1,62.07,9.65c-5.1-.35-6.34,2.23-6.65,7.05-.76,11.74-2.13,23.94-13.59,30.56-20,11.55-41,14.44-63.39,6.35-27.45-9.92-48.56-29.22-71.26-46.26-4-3-7.36-7.29-15-8.16,0,10.4-4.12,19.77-5,29.92C1370,454.36,1372.88,456.29,1374.28,458.23Z" transform="translate(-21.52 -31.95)" fill="#e08282"/><path d="M1238.31,471.79c4.63,3.76.09,6.14-1.41,8.91-7.21,13.34-15.74,26.3-9.59,42.72,4.32,11.54,12,19.56,23.1,24.88,10.3,5,10.63,5.76,3.46,14.55-15.12,18.55-17.79,38.83-9.57,60.84,3.08,8.24,10.63,13.57,15.41,21.57-16.06,7.25-28.17,17.75-32.88,35-.91,3.37-3.09,4.57-6.58,4.1-3.18-.42-6.44-.39-9.66-.56l-19-7.93a55.41,55.41,0,0,1-13.24-13.74,51.88,51.88,0,0,1,0-17.36c4.13,2.63,8.4,4.93,13.27,5.86,6.28,1.55,12.42,5.41,19.75,1.75-3.69-4.28-7.91-3.72-11.95-3.78l-1.94-.46c9.11,0,13.07-7.91,19.18-12.49,2.68-2,6.63-4,5.87-8-.91-4.76-5.29-5.84-9.57-6.37,1.53-1.83,1.68-3.22-1-4.06-3.56-1.1-7.06-2.36-10.59-3.55l8.47-1.1c-3.82-9.18-7.94-17.4-8.53-26.9-.88-14.25,4.39-25.88,13.29-36.35,3.16-3.72,4.75-7.29-.88-10.1-21.23-10.58-21.9-29.22-19.16-49.08.61-4.46,1.33-9.22,3.39-13.1,4.06-7.62,1-12.35-5.19-16.13-23.86-14.66-30.58-37.85-32.16-63.73-.36-6,1.48-12.25-1.75-17.92-4-1.23-7.13,1.16-10.51,1.86-14.82,3.08-28.28.75-40-9.36-5.14-4.44-10.18-9-15.5-13.23-4.07-3.22-8.43-6.41-14-2.85-8.31-5.26-15-3.3-21.64,3.63-4.29,4.44-8.88,9.14-15.12,11.25-.66-.67-1.54-2-2-1.91-14.4,4.58-22.78-5.38-31.77-13.35-4.31-3.82-7.81-7-12.73-1-18.25,22-49.79,16.67-66.84,4.49-5.48-3.91-8.6-4.11-14.21-.51C896.28,370,877,368,858.23,359.51c-4.94-2.23-8.39-2.41-13.39-.64-30.22,10.69-58.9,10.5-83.72-13.42-1.78-1.72-4.37-2.59-6.58-3.86l14.28-12.91c33.21,30.44,57.3,23.21,80.39-3.44,23.78,24.67,48.54,33.4,74.77.76,26.19,29.55,53.14,29.48,80.81,1.33,11.59,14.84,25.55,25.77,44.87,24.56,19.68-1.23,30.73-16,41.15-30.19,5.48,1,7.45,5.11,10,8.23,21.29,26.51,39.41,29.91,69,12.75,1.08-.63,2.27-1,3.92-1.78-1.85,28.79,7.25,49.13,40.08,51.5-8.71,18.67-15.21,35.9-5.42,54.89C1215,460.07,1225.54,467,1238.31,471.79Z" transform="translate(-21.52 -31.95)" fill="#c3c3c3"/><path d="M404.69,450.73c-1.49,2.33,4.22,8.4-3.81,7.34,1.18-2.45,1.24-4.54-1.8-5.65-1.87-8.82-3.89-17.63-5.57-26.49-1-5.05-3.69-6.52-8.3-5a96.42,96.42,0,0,0-9.06,3.36c-25.63,11.28-47.37,29-71.19,43.25-19.1,11.44-39.09,21.24-62.08,17.79-23.57-3.55-32.37-18.36-27-39.12.69-2.66,2.75-5.26,1.05-8.77l-6.4-.59c20.48-4.39,40.81-9.42,61.7-11.83,28.15-3.24,56.34-6.37,83.71-14.41,16-4.71,32.35-8.53,48.54-12.74-8.37,15.23-10.51,30.92-3.36,47.23A43.27,43.27,0,0,0,404.69,450.73Z" transform="translate(-21.52 -31.95)" fill="#e08282"/><path d="M1374.28,458.23c-1.4-1.94-4.31-3.87,0-5.83,29.4,22.34,59.9,43.09,93.72,58.05,32.66,14.44,66.29,25.59,103.06,17.76,20.29-4.31,36.47-14.47,47.27-32.35,4.1-6.79,4.08-14.33.42-21.33A52.43,52.43,0,0,0,1603,456.4c-16.23-12-35.06-17.63-53.89-23.46a602.35,602.35,0,0,0-62.07-9.65c-37.72-3.87-74.37-12.42-110.33-24.28-2.67-.88-5.74-.58-8.62-.83L1359,391.9c3-5.67,7.65-1.11,11.45-1.76,37.66,14.57,76.78,22.76,116.83,27.21,35.43,3.94,70.61,9.12,103,25.36a85.51,85.51,0,0,1,22.89,16.14c18.41,18.61,17.7,36.68-1.94,54.24-24.18,21.63-52.72,26-83.45,21.33-41.2-6.22-77.22-25.11-112-46.74-9.34-5.81-18.46-11.95-27.68-17.95Z" transform="translate(-21.52 -31.95)" fill="#929292"/><path d="M404.52,397.85c-16.19,4.21-32.49,8-48.54,12.74-27.37,8-55.56,11.17-83.71,14.41-20.89,2.41-41.22,7.44-61.7,11.83-16.81,6-33.19,12.7-46.58,25.16-11.05,10.28-15.09,23.58-9.1,33.7,9.89,16.74,24.81,27.17,43.41,31.89,25.88,6.58,51.28,2.68,76.24-5.27,46.29-14.75,86.19-40.95,124.54-69.89,3,1.11,3,3.2,1.8,5.65l-15.66,11.66c-27.05,17.75-54.12,35.44-84.07,48.13-26.46,11.21-53.55,19.62-82.71,17.95-26.78-1.54-49.79-11-65.54-33.94-9.18-13.37-8.28-25.49,2.59-38,15.23-17.6,35.64-26.31,57.23-32.91,29.25-8.94,59.56-11.58,89.69-15.53a436,436,0,0,0,100.48-25.21l9.39-1.3-5.52,7.1Z" transform="translate(-21.52 -31.95)" fill="#919191"/><g id="eyes" fill="#000"><path d="M1055.46,794.08c-5.11-.62-8.63,3.55-13.24,4.42-4.83.85-9-2.27-13.67-2.34-16.78-5.91-28.31-18-37-32.8-21.08-35.79-26.1-74.74-20.56-115.29,4.91-36,17.16-68.36,48.09-90.67,15.39-7.18,30.8-8.93,46.64-1,10.73,5.35,18.35,14.1,26.39,22.48,27.22,43.46,32.1,90.58,21.89,139.77-4.63,22.3-12.85,43.28-29.54,59.85a23.47,23.47,0,0,1-17.93,10.84C1062.61,789.7,1058.26,790.46,1055.46,794.08Zm30.94-145.4c0-23.06-10.28-52.61-23.58-67.91-5.08-5.83-10.7-12.88-19.37-10.21-9.1,2.81-9.64,12.06-10.74,20.09a36.51,36.51,0,0,0-.11,7.75c1.77,21.67,7.77,42,20.62,59.73,5.44,7.53,11.65,17,22.2,13.93C1086.82,668.72,1085.19,656.73,1086.4,648.68Zm0,66.12a19,19,0,1,0-19.54,18.59C1077.1,733.71,1086.24,725,1086.41,714.8Z" transform="translate(-21.52 -31.95)"/><path d="M767.94,791.75c-5.79,3.84-11.89,7.29-17.23,11.68-2.75,2.26-4.57,1.34-6.83.35-5.55-2.41-11.06-4.95-16.58-7.44-6.38-5.37-14.52-6.19-22.12-8s-15.1-3.55-20.56-9.76c-16.06-18.18-20.93-41-24.93-63.67-7.28-41.29-1.12-81,17.49-118.65,1.72-2.31,3.51-4.57,5.15-6.94,22.63-32.69,50-38.68,83.43-18.24C819.83,619.83,820.54,741,767.94,791.75ZM689.59,653.43a49.11,49.11,0,0,0,0,5.82c1,8.08,1.45,17.18,10.47,20.23,8.77,3,14.69-3.82,19.36-9.91,16.92-22.07,25.27-47,23-75-.57-7-2.45-14-9.81-16.53-7.63-2.61-12.91,2.89-17.41,7.92C698.09,605.11,691.57,628.46,689.59,653.43Zm37.49,68.67a18.67,18.67,0,0,0-18.94-19,19.38,19.38,0,0,0-18.64,18.59c-.14,10.13,9,19.18,19.19,19.06A18.76,18.76,0,0,0,727.08,722.1Z" transform="translate(-21.52 -31.95)"/></g><path d="M933.71,700.88c-1.32.8-2.33,2.35-4.59,1.71V694.2c-16.18-6-5.61-19.31-7.83-29.23-3.52.43,0,5.29-4.13,5.75-6.06-18.93-9.13-38.66-10.63-58.36-3.85-50.76,2-100.29,26.35-145.86,13.43-25.08,31.66-47.3,57.92-59.46,32.94-15.25,65.78-13.7,96.07,8.63,10.13,7.48,20.22,15,30.59,22.17,8.85,6.1,14.08,15.11,19.69,23.69,22,33.64,37,70.19,43.82,109.89,1.79,10.44,2.36,21.09,3.49,31.68-2.72,1.59-6.93-2.25-8.29,2.61-4.18-9.09-.22-19.9-6-28.65-4.64-19.31-7.31-39.09-15.22-57.6-15.41-36.06-35.8-68.24-70.23-89-32.18-19.43-65.93-21.1-97,.39-43.45,30.1-58.56,76.56-65.78,126.37-3.27,23.91-6.62,47.83-2.21,72-.75,16.16,2.38,31.69,7.52,46.91Q930.49,688.48,933.71,700.88Z" transform="translate(-21.52 -31.95)" fill="#c3c3c3"/><path d="M599.07,617.81c-.27-2.9.65-6-1.25-8.76-4.31.42-1,6.57-5.25,7-2.88-1.85-1.46-4.77-1.23-7.13,5.82-57.84,24.11-111.22,61-155.85,17.22-20.83,40.42-37.61,66.66-44.75,42.61-11.62,79.33,1.63,106.66,35.15,31.69,38.86,47.36,87.26,48.77,137.21.89,31.82-4.77,64.16-12.12,95.21-1.06,4.47-2.57,8.84-3.92,13.24s-1.5,2-3.2,1.86c-2.42,5.13.2,8.75-2,14.08-1.43-.61.35-3.21-1.4-4,.32,4.06-.29,12,0,15.53-3.39,1.36-5.68-4.46-7.41-5.4,6.14-20.41,10.91-41.21,12.92-62.41,1.84-19.51,2.67-39.22-.65-58.77V590c-.53-15.3-.78-30.64-6-45.28-1.49-6.09-2.75-12.24-4.51-18.24-9.28-31.56-23.44-60.18-49.06-81.5-32.13-26.73-75.52-27.64-109.31-4.15-28.34,19.7-47.66,46.34-61.68,77.4-9.18,20.34-16.93,41.31-19.37,63.86C601.37,593.39,603.19,606.26,599.07,617.81Z" transform="translate(-21.52 -31.95)" fill="#c3c3c3"/><path d="M633.48,426.61c5.25-10.44,11.68-16.65,18.43-22.48,24.9-21.51,53.84-33.89,86.33-38.72C748,364,754,366,757.69,375.83c3.45,9.21,8.6,17.77,13.68,28C724.33,405.27,680.28,416.32,633.48,426.61Z" transform="translate(-21.52 -31.95)" fill="#020202"/><path d="M992.12,389.35c4.59-4.73,6.53-11,8.32-16.9,2.79-9.22,7.81-14,17.6-13.11,34.76,4.06,66.94,14.61,94,37.67,5.44,4.62,11.62,8.92,14.47,17.7-45.94-7.06-90.59-15.83-136.17-14.44C989.11,395.77,991,392.63,992.12,389.35Z" transform="translate(-21.52 -31.95)" fill="#020202"/><path d="M767.94,791.75C820.54,741,819.83,619.83,765.76,571c5.74.79,8.66,5.2,11.93,9.22,27.07,33.32,33.21,72.7,33,113.92,0,3.88-2.7,7.82.09,12.58,5.31-8.71-2.62-19.79,6.83-26.59,7.45-5.35,14.61-11.11,21.68-16.53,3.77,2.94,1.68,7,3.9,10.56,1.49-5.43-.94-11.14,4.76-14-2,18.78-7.2,36.8-14.22,54.19-15,37.3-36,70.2-71.64,91.43l-6.35-.93C758.66,798.62,766.22,797.72,767.94,791.75Z" transform="translate(-21.52 -31.95)" fill="#eee"/><path d="M762.1,805.87c35.68-21.23,56.59-54.13,71.64-91.43,7-17.39,12.22-35.41,14.22-54.19,3.47-21.84,6.29-43.57,2.45-65.85-1.43-8.3-4-16.87-2.34-25.61,5-2.41,3.77-6.87,3.36-10.9-.55-5.38-2.72-10.58-1.72-16.13,5.24,14.34,5.48,29.35,6,44.33-4.49,17.29-.9,34.73,0,52.11v-52c3.3,19.14,2.48,38.43.64,57.53,2.19,17.65-2.54,38.57-12.88,61.08-11.39,31-26.44,59.67-50.07,83.3-8.29,8.29-17.6,15.2-27.23,21.75-2,2.52-4.13,4.58-7.71,3.73l-4.42-4Z" transform="translate(-21.52 -31.95)" fill="#585858"/><path d="M1178.35,644.77a51.62,51.62,0,0,0,0,17.36c-1.29-.53-3-2.39-3.8-.08-1.27,3.47,1.67,5.59,3.51,8-6.4,14.64-5.16,22.11,5.55,33.09a60.37,60.37,0,0,0,19.82,13.42l16,7.65c-5.92,2.65-9.91-1.7-14.19-1.47-12.37-4.92-23.45-11.8-33.07-23.36-5.25,20.17-11.12,38.37-20.76,55-5.6,9.65-11.94,18.86-18,28.27-3.51,1.7-7,2.71-10.17-.66,12.08-9.58,20-22.09,25.63-36.26,1.83-3.33,4-6.53,5.43-10,13.94-33.57,19.05-68.64,17.26-104.8-.39-7.69-2.33-15.3-1.39-23.08,3.39,5.63,7.89,7.22,13.77,3.79l9.42,2.25c1.7,1.91,1.92,3.65-1.2,3.54a94.21,94.21,0,0,1-10.39-1.4c-4.15-1.11-5.12,1-4.8,4.63.54,6,1,12.08,1.54,18.13-9.13,1.42-1.53,7.93-3.49,11.54C1176.16,648.45,1177.25,646.61,1178.35,644.77Z" transform="translate(-21.52 -31.95)" fill="#595959"/><path d="M566.42,726.64c6.55-2,12.33-5.49,17.85-9.34,16.05-11.21,18.59-18.09,14.19-38.22-9.5,3.27-16.41,12.16-29.4,14,7.06-8.5,15.42-10.8,21.23-16.42,6.39-6.18,10.87-12.73,7.49-22.6-4.61-.34-8.24,2.58-12.26,4.18-3.34-.51-6.92,1.29-10.68-1.21l3.11-2.43c19.9-5.69,22.35-9.58,20.8-33,6.4-2.45,4.68-9.68,8.16-13.85-2.49,21.17-4.31,42.43-2.23,63.69,1.6,16.32,4.5,32.51,6.83,48.76l-2.64.22c-.21-4.5-3.34-7.44-6-12.62a76.19,76.19,0,0,1-36.55,23.43A4.16,4.16,0,0,1,566.42,726.64Z" transform="translate(-21.52 -31.95)" fill="#595959"/><path d="M602.4,622.81c-3.46.43.66-3.75-2.81-3.65-3.13.09-3.73-.89-2-2.53-2.64,0-12,4.24-14.68,4.2-3.52,1-7,2.11-10.59,3.07-2.7.72-2.56,1.93-1,3.51A104.29,104.29,0,0,0,602.4,622.81Z" transform="translate(-21.52 -31.95)" fill="#595959"/><path d="M933.71,700.88q-3.21-12.4-6.44-24.81c.38-2.46.76-4.93,4-2.22,1.37,4.64,2.66,9.3,4.12,13.91,15,47.42,38.81,88.4,83.45,114.15l7.35,3.74-7.19,4.42-4.11-2.17c0-2.71-2-3.83-3.94-5-35.85-22.08-58.16-54.83-73.47-93.11C936.29,706.78,935,703.84,933.71,700.88Z" transform="translate(-21.52 -31.95)" fill="#515151"/><path d="M756.46,972.94q-1,0-1.92.09c-22.07-20.48-34.84-46-39.93-76.09-9.14,2.31-12.67,11-20.61,13.8,6.23-14.45,26.89-29.49,39.28-26.67-20.67,6.83-12,19.94-8.5,31.13,4.63,14.83,11.2,28.91,21.94,40.57l7.6,7.64,3.92,5.85C757.65,970.49,757.05,971.72,756.46,972.94Z" transform="translate(-21.52 -31.95)" fill="#959595"/><path d="M606.91,607.79c-3.48,4.17-1.76,11.4-8.16,13.85-2.91-.8-5.77,2.49-8.93.1,1.43-4.73,7.69-4.08,9.22-8.46,4.11-11.3,2.29-23.9,7.62-34.94,1.31,5.89-2,11.6-1.2,19.76,2.38-6.6,2.4-11.64,5.42-15.56C611.79,591.31,607.35,599.23,606.91,607.79Z" transform="translate(-21.52 -31.95)" fill="#3a3a3a"/><path d="M1184,611.59c-5.88,3.43-10.38,1.84-13.77-3.79-.94-8.47-4.33-16.56-3.88-25.24,1.28.34,1.42,2.87,3.81,1.68v-7.18c5.81,8.75,1.85,19.56,6,28.65C1178.29,608.32,1180.15,611.26,1184,611.59Z" transform="translate(-21.52 -31.95)" fill="#404040"/><path d="M1181.81,616a94.21,94.21,0,0,0,10.39,1.4c3.12.11,2.9-1.63,1.2-3.54l7.93-.15c3.53,1.19,7,2.45,10.59,3.55,2.71.84,2.56,2.23,1,4.06C1202.24,621.5,1191.52,621.71,1181.81,616Z" transform="translate(-21.52 -31.95)" fill="#a8a8a8"/><path d="M1014.89,807.9l4.11,2.17c-7.18,6.66-17,9.74-23.55,17.27-1.53-1.93-.82-3.9-.12-5.88Z" transform="translate(-21.52 -31.95)" fill="#797979"/><path d="M882.7,1004.19c5.3-.27,9.6-3.38,14.29-5.26,7.77-3.11,15.68-2.87,22.06,1.54,7.5,5.2,12.69,3.24,18.21-2.14.06.69.11,1.38.17,2.08l-5.92,7.76c-4.71-.25-8.47-2.78-12.44-5-9.63-5.33-20.77-3.89-30.26,5.3,13.26-.9,23.94,1.63,32.75,9.27-3,.06-3.9,4.41-6.13,6.83-20.32,21.93-49.41,19-69.35-2.54,8.7-7.32,20.23-16.74,33.6-13.69C882.61,1009,883.62,1007,882.7,1004.19Z" transform="translate(-21.52 -31.95)" fill="#f95f77"/><path d="M921.19,1027.21c10.78,7.61,21.26,15.68,32.46,22.6,5.1,3.15,7.3,8.1,10.68,12.23,2.89,3.53-1.2,5.91-3.89,7.34-19,10-38.52,18.53-60.28,20.14-29.37,2.18-57.22-3.31-83.41-17-4.08-2.14-8-4.17-10-9.39,9.66-9.24,19-19,31-25.66,4.3-2.41,7.84-4.66,6.3-10.34C871.86,1050,895,1050,921.19,1027.21ZM847,1040.5c3.14,15.8,22.78,32.69,36.11,33.47,15.78.92,34.29-14.85,44.81-36.78-13.74,7.24-23.66,18.76-39.84,17.8C873.39,1054.12,859.71,1051.88,847,1040.5Z" transform="translate(-21.52 -31.95)" fill="#d1d1d1"/><path d="M921.92,1025.55a8,8,0,0,0-.36-7.79c-8.81-7.64-19.49-10.17-32.75-9.27,9.49-9.19,20.63-10.63,30.26-5.3,4,2.2,7.73,4.73,12.44,5l-4.13,9.54C925.45,1020.25,925.4,1024.09,921.92,1025.55Z" transform="translate(-21.52 -31.95)" fill="#f95f77"/><path d="M849.67,1021.53l-5.72,2-2,0c-5.58-9.73-14.46-16.57-21.76-24.79l.6-.75a19.79,19.79,0,0,1,9.1,6.91c6.27,8.24,11.93,9.21,20.5,2,9.43-7.89,20.85-9.58,32.26-2.75.92,2.81-.09,4.85-3,4.17C866.31,1005.31,858.37,1014.21,849.67,1021.53Z" transform="translate(-21.52 -31.95)" fill="#f95f77"/><path d="M923.62,1028c-27,21.74-50.88,21.71-79.61-.09.49-1.51-28-28.82-25.26-30.68,2-3.54,24.8,16.71,26.83,18.73,20.56,20.49,49.56,27,70.52,6.09,2.31-2.3,22.29-30.88,25.35-30.93,3.84,1.56-15.91,32.77-17.08,35.3C924.1,1027,923.85,1027.49,923.62,1028Z" transform="translate(-21.52 -31.95)" fill="#959595"/><path d="M1016.91,965.36c22.29-17,29.75-42.09,36.49-67.53,2.16-8.15-6.11-9.39-10.31-14.24,5.4-2.05,8.52,2.63,12.52,2.19,8.33,7.66,19.32,12.71,25.12,26.67L1059.4,895.6c-5.88,29.71-17.44,55.3-38.66,75.64a6.25,6.25,0,0,1-4.15-4.15C1016.72,966.52,1016.82,965.94,1016.91,965.36Z" transform="translate(-21.52 -31.95)" fill="#949494"/><path d="M1055.46,794.08c2.8-3.62,7.15-4.38,11.07-4.78a23.47,23.47,0,0,0,17.93-10.84c1.64,4.1,5.08,2.93,8.19,2.84,10.22-.28,20.46-1.29,30.63.66,3.19,3.37,6.66,2.36,10.17.66a38.25,38.25,0,0,1,17.56,5.17A267.56,267.56,0,0,0,1055.46,794.08Z" transform="translate(-21.52 -31.95)" fill="#838383"/><path d="M1028.55,796.16c4.68.07,8.84,3.19,13.67,2.34-4.82,3.54-10,6.36-16,7.15l-7.35-3.74C1023.26,802,1028.88,804.09,1028.55,796.16Z" transform="translate(-21.52 -31.95)" fill="#777"/><path d="M1203.46,716.54a60.37,60.37,0,0,1-19.82-13.42c-10.71-11-12-18.45-5.55-33.09,4,2.36,6,7.43,11.18,8.1l12.1,9.43c-3.17,2.83-3,5.84-.88,9.28,3.6,5.83,7,11.8,10.31,17.51C1208.57,717.42,1205.83,716.22,1203.46,716.54Z" transform="translate(-21.52 -31.95)" fill="#d1d1d1"/><path d="M1201.37,687.56l-12.1-9.43,2.35-2.26,19,7.93c.89,1.79,7.07,1.17,2.48,5.45Z" transform="translate(-21.52 -31.95)" fill="#595959"/><path d="M1549.14,432.94c18.83,5.83,37.66,11.48,53.89,23.46a52.43,52.43,0,0,1,15.69,18.13c3.66,7,3.68,14.54-.42,21.33-10.8,17.88-27,28-47.27,32.35-36.77,7.83-70.4-3.32-103.06-17.76-33.82-15-64.32-35.71-93.72-58.05.91-10.15,5.08-19.52,5-29.92,7.61.87,11,5.14,15,8.16,22.7,17,43.81,36.34,71.26,46.26,22.39,8.09,43.39,5.2,63.39-6.35,11.46-6.62,12.83-18.82,13.59-30.56C1542.8,435.17,1544,432.59,1549.14,432.94Z" transform="translate(-21.52 -31.95)" fill="#eaa9a9"/><path d="M399.08,452.42c-38.35,28.94-78.25,55.14-124.54,69.89-25,8-50.36,11.85-76.24,5.27-18.6-4.72-33.52-15.15-43.41-31.89-6-10.12-1.95-23.42,9.1-33.7,13.39-12.46,29.77-19.16,46.58-25.16l6.4.59c1.7,3.51-.36,6.11-1.05,8.77-5.41,20.76,3.39,35.57,27,39.12,23,3.45,43-6.35,62.08-17.79,23.82-14.27,45.56-32,71.19-43.25a96.42,96.42,0,0,1,9.06-3.36c4.61-1.5,7.34,0,8.3,5C395.19,434.79,397.21,443.6,399.08,452.42Z" transform="translate(-21.52 -31.95)" fill="#eaa9a9"/><path d="M1181.81,616c9.71,5.73,20.43,5.52,31.14,5.32,4.28.53,8.66,1.61,9.57,6.37.76,4-3.19,6-5.87,8-6.11,4.58-10.07,12.53-19.18,12.49-7.72-.3-12.55-6.4-18.92-9.4-.51-6-1-12.09-1.54-18.13C1176.69,617,1177.66,614.87,1181.81,616Z" transform="translate(-21.52 -31.95)" fill="#d1d1d1"/><path d="M1178.55,638.74c6.37,3,11.2,9.1,18.92,9.4l1.94.46-7.8,2c-4.87-.93-9.14-3.23-13.27-5.86q-1.63,2.76-3.28,5.51C1177,646.67,1169.42,640.16,1178.55,638.74Z" transform="translate(-21.52 -31.95)" fill="#414141"/><path d="M1191.62,675.87l-2.35,2.26c-5.2-.67-7.21-5.74-11.18-8.1-1.84-2.39-4.78-4.51-3.51-8,.84-2.31,2.51-.45,3.8.08A55.41,55.41,0,0,0,1191.62,675.87Z" transform="translate(-21.52 -31.95)" fill="#414141"/><path d="M1191.61,650.63l7.8-2c4,.06,8.26-.5,11.95,3.78C1204,656,1197.89,652.18,1191.61,650.63Z" transform="translate(-21.52 -31.95)" fill="#7b7b7b"/><path d="M606.91,607.79c.44-8.56,4.88-16.48,4-25.25,1.32-11.62,6.87-21.81,11.1-32.42,12.89-32.34,31-61.08,59-82.61,43.2-33.2,94.3-28,129.53,13.54,21.45,25.29,33.53,54.86,37.55,87.74-1.7,8.74.91,17.31,2.34,25.61,3.84,22.28,1,44-2.45,65.85-5.7,2.81-3.27,8.52-4.76,14-2.22-3.52-.13-7.62-3.9-10.56-7.07,5.42-14.23,11.18-21.68,16.53-9.45,6.8-1.52,17.88-6.83,26.59-2.79-4.76-.11-8.7-.09-12.58.2-41.22-5.94-80.6-33-113.92-3.27-4-6.19-8.43-11.93-9.22-33.47-20.44-60.8-14.45-83.43,18.24-1.64,2.37-3.43,4.63-5.15,6.94-4.46,2.66-6.42,7-8.23,11.61-5.55,14.09-10.12,28.26-12.85,43.39-4.87,27-3.2,53.19,3.84,79.33,2.48,9.2,5.53,18.25,8.32,27.36-10.8-16.23-30.76-17.41-40.63-2q-8.07-17.82-16.12-35.64c-2.33-16.25-5.23-32.44-6.83-48.76C602.6,650.22,604.42,629,606.91,607.79Z" transform="translate(-21.52 -31.95)" fill="#fefefe"/><path d="M689.59,653.43c2-25,8.5-48.32,25.63-67.49,4.5-5,9.78-10.53,17.41-7.92,7.36,2.51,9.24,9.55,9.81,16.53,2.29,28-6.06,53-23,75-4.67,6.09-10.59,12.88-19.36,9.91-9-3.05-9.52-12.15-10.47-20.23A49.11,49.11,0,0,1,689.59,653.43Z" transform="translate(-21.52 -31.95)" fill="#fdfdfd"/><path d="M627.63,755.88c9.87-15.38,29.83-14.2,40.63,2-2.79-9.11-5.84-18.16-8.32-27.36-7-26.14-8.71-52.35-3.84-79.33,2.73-15.13,7.3-29.3,12.85-43.39,1.81-4.57,3.77-9,8.23-11.61-18.61,37.67-24.77,77.36-17.49,118.65,4,22.69,8.87,45.49,24.93,63.67l-.24,2.09c-10.73,4.88-25.57,4.88-40.42,0C636.79,773.51,632.15,764.73,627.63,755.88Z" transform="translate(-21.52 -31.95)" fill="#eee"/><path d="M608.87,720.46l2.64-.22q8.06,17.82,16.12,35.64c4.52,8.85,9.16,17.63,16.33,24.73,16.87,2.88,27.67,3.55,40.42,0l.24-2.09c5.46,6.21,12.91,7.9,20.56,9.76,13-.09,69.7,23.53,67.68,33-44.56-24-91.11-35.77-120.1-35.27-10.4.76-16-2.8-20.94-11.68C622.27,757.11,611.72,740.48,608.87,720.46Z" transform="translate(-21.52 -31.95)" fill="#575757"/><path d="M727.08,722.1a18.76,18.76,0,0,1-18.39,18.63c-10.22.12-19.33-8.93-19.19-19.06a19.38,19.38,0,0,1,18.64-18.59A18.67,18.67,0,0,1,727.08,722.1Z" transform="translate(-21.52 -31.95)" fill="#f9f9f9"/><path d="M944.94,872h2c18.7,19.65,20.72,56.32,4.56,82.43-5.5,8.89-11.94,17-20.79,22.74-3.51,2.28-4.63,4.35-1.2,7.46l-6.06.12c-6-2.18-10.5-7.53-17.32-7.86-5.85-3.74-11.57-7.63-15.63-13.45l0-25.38c3.6,5.74.74,12.68,3,19.68,2-4.9-.66-9.5,3.24-13.78l12.12,9.25c14.64,11.16,25,10.59,35.3-1.84,2.54-3.07,3.65-6.77,5.33-10.25,7.24-15,5.27-30.48,1.7-45.49-1.56-6.59-3.78-14.92-12.2-17.83A7.61,7.61,0,0,1,944.94,872Z" transform="translate(-21.52 -31.95)" fill="#d2d2d2"/><path d="M865.5,979c-6.9-3.26-19.47,16.31-21.78-.45-4.43-2.11-5.05-10.24-3.77-5.38-29.05-21.86-37.39-67.74-17.34-95.39l5.71,5.93c-.53.36-1.4.63-1.54,1.11-7.66,25.19-9.95,49.54,8.71,71.79,4.67,5.57,9.75,8.52,15.75,5.93,13-5.59,24.5-13.45,31.52-26.4-.15,12.61,2.38,25.64-5.76,37L873.1,977Z" transform="translate(-21.52 -31.95)" fill="#d2d2d2"/><path d="M828.32,883.69l-5.71-5.93a15.85,15.85,0,0,0-.18-1.81c4.66-6.36,6.51,1.41,9.8,2,9.68,12.42,22.67,20.21,37.16,25.4,12.42,4.45,24.81,3.89,36.37-3.35,12.53-7.83,22.59-18.25,31.36-30,3.68-3.42,6.8-4.67,7.82,2a7.61,7.61,0,0,0-6,5.79c-10.78,11.94-21.22,24.35-36.62,30.68-13.11,5.4-14.32,7-13.15,21,.24,2.88.86,5.73,1.31,8.59l0,25.38c-6.31.7-8.13,7.66-13.48,9.69,8.14-11.36,5.61-24.39,5.76-37,0-5.77.1-11.55.1-17.32,0-4-1.79-6.87-5.94-7.51C857.21,908.23,842.4,896.61,828.32,883.69Z" transform="translate(-21.52 -31.95)" fill="#959595"/><path d="M1170.14,577.06v7.18c-2.39,1.19-2.53-1.34-3.81-1.68-3.52-12.78-6.67-25.67-11.65-38-14.93-37-35.47-69.81-70.24-91.52-36-22.49-77.44-19.14-108.3,9.61-26.89,25-42.46,56.53-48.88,92.6-1.46,1.5-3,2.76-5.3,1.93,7.22-49.81,22.33-96.27,65.78-126.37,31-21.49,64.77-19.82,97-.39,34.43,20.8,54.82,53,70.23,89C1162.83,538,1165.5,557.75,1170.14,577.06Z" transform="translate(-21.52 -31.95)" fill="#030303"/><path d="M922,557.18c2.3.83,3.84-.43,5.3-1.93-3.28,24.43-7.43,48.82-3.49,73.6-.25,4.44-.51,8.88-.9,15.81-2-6.78-.43-11.55-3.12-15.5C915.34,605,918.69,581.09,922,557.18Z" transform="translate(-21.52 -31.95)" fill="#474747"/><path d="M919.75,629.16c2.69,4,1.09,8.72,3.12,15.5.39-6.93.65-11.37.9-15.81q2.65,14.83,5.3,29.67,1.09,7.66,2.2,15.33c-3.24-2.71-3.62-.24-4,2.22C922.13,660.85,919,645.32,919.75,629.16Z" transform="translate(-21.52 -31.95)" fill="#696969"/><path d="M749.91,967.73c.6-1.23,2.45-4.17,3-5.4,4.31,1.15,13.5,11.13,17.13,12.66,25.5,13.6,43.89,12.55,74.32,5.56,15.52-1.35,23.62-6.07,31-11.47,10.12-8.78,7-11.55,11.47-9.45,5.42,2.57,3.9,10.39-2.7,14.17-1.86,1.07-6,4-7.72,5.22-12.27,8.75-36.65,11.9-48.91,13.43-3.13.39-9-1.7-6.74,5.54l-.61.76A65.3,65.3,0,0,0,806,993.44c-15.17-3.77-30.74-6.68-43.62-16.54C760.37,975.58,751.26,972.11,749.91,967.73Z" transform="translate(-21.52 -31.95)" fill="#959595"/><path d="M848.07,568.79c-4-32.88-16.1-62.45-37.55-87.74-35.23-41.53-86.33-46.74-129.53-13.54-28,21.53-46.12,50.27-59,82.61-4.23,10.61-9.78,20.8-11.1,32.42-3,3.92-3,9-5.42,15.56-.84-8.16,2.51-13.87,1.2-19.76,2.42-22.07,10.15-42.6,19.3-62.51,14-30.4,33.22-56.47,61.46-75.75,33.67-23,76.9-22.11,108.91,4.06C821.86,465,836,493,845.22,523.91c1.76,5.87,3,11.89,4.49,17.85-1,5.55,1.17,10.75,1.72,16.13C851.84,561.92,853.12,566.38,848.07,568.79Z" transform="translate(-21.52 -31.95)" fill="#030303"/><path d="M855.74,586.16v52c-.92-17.38-4.51-34.82,0-52.11Z" transform="translate(-21.52 -31.95)" fill="#555"/><path d="M929.07,658.52q-2.66-14.84-5.3-29.67c-3.94-24.78.21-49.17,3.49-73.6,6.42-36.07,22-67.56,48.88-92.6,30.86-28.75,72.25-32.1,108.3-9.61,34.77,21.71,55.31,54.49,70.24,91.52,5,12.33,8.13,25.22,11.65,38-.45,8.68,2.94,16.77,3.88,25.24-.94,7.78,1,15.39,1.39,23.08,1.79,36.16-3.32,71.23-17.26,104.8-1.45,3.49-3.6,6.69-5.43,10-4.92-9.6-14.19-4.47-21.27-6.64-10-3.07-14.76,1.11-17.6,11.56-1.78-4.63-.56-6.27.16-8A177.6,177.6,0,0,0,1123,672.71c-.33-21.29-3.33-43.21-12-63.2-4.76-10.92-7.89-23.35-18.83-30.67-8-8.38-15.66-17.13-26.39-22.48-15.84-7.89-31.25-6.14-46.64,1-5.19.41-8.8,3.59-12.36,7-26.8,25.39-37.16,58-40.2,93.47-1.32,15.34-.22,30.88-.22,46.33l-3.18,1c7.09-22-4.46-34.34-20.5-44.41a11.55,11.55,0,0,1-2.78-2.67C936,653.11,932.45,653.9,929.07,658.52Z" transform="translate(-21.52 -31.95)" fill="#fefefe"/><path d="M1092.11,578.84c10.94,7.32,14.07,19.75,18.83,30.67,8.71,20,11.71,41.91,12,63.2a177.6,177.6,0,0,1-12.78,69.88c-.72,1.76-1.94,3.4-.16,8,2.84-10.45,7.56-14.63,17.6-11.56,7.08,2.17,16.35-3,21.27,6.64-5.59,14.17-13.55,26.68-25.63,36.26-10.17-2-20.41-.94-30.63-.66-3.11.09-6.55,1.26-8.19-2.84,16.69-16.57,24.91-37.55,29.54-59.85C1124.21,669.42,1119.33,622.3,1092.11,578.84Z" transform="translate(-21.52 -31.95)" fill="#eee"/><path d="M929.07,658.52c3.38-4.62,6.91-5.41,10.77-.49a11.55,11.55,0,0,0,2.78,2.67c16,10.07,27.59,22.42,20.5,44.41l3.18-1c0-15.45-1.1-31,.22-46.33,3-35.42,13.4-68.08,40.2-93.47,3.56-3.37,7.17-6.55,12.36-7-30.93,22.31-43.18,54.68-48.09,90.67-5.54,40.55-.52,79.5,20.56,115.29,8.69,14.75,20.22,26.89,37,32.8.33,7.93-5.29,5.82-9.71,5.75-44.64-25.75-68.46-66.73-83.45-114.15-1.46-4.61-2.75-9.27-4.12-13.91Q930.16,666.19,929.07,658.52Z" transform="translate(-21.52 -31.95)" fill="#eee"/><path d="M847,1040.5c12.68,11.38,26.36,13.62,41.08,14.49,16.18,1,26.1-10.56,39.84-17.8-10.52,21.93-29,37.7-44.81,36.78C869.81,1073.19,850.17,1056.3,847,1040.5Z" transform="translate(-21.52 -31.95)" fill="#e4e4e4"/><path d="M1086.4,648.68c-1.21,8.05.42,20-11,23.38-10.55,3.09-16.76-6.4-22.2-13.93-12.85-17.77-18.85-38.06-20.62-59.73a36.51,36.51,0,0,1,.11-7.75c1.1-8,1.64-17.28,10.74-20.09,8.67-2.67,14.29,4.38,19.37,10.21C1076.12,596.07,1086.44,625.62,1086.4,648.68Z" transform="translate(-21.52 -31.95)" fill="#fbfbfb"/><path d="M1086.41,714.8c-.17,10.22-9.31,18.91-19.54,18.59a18.89,18.89,0,1,1,19.54-18.59Z" transform="translate(-21.52 -31.95)" fill="#f4f4f4"/><path d="M937.12,870c-8.77,11.76-18.83,22.18-31.36,30-11.56,7.24-24,7.8-36.37,3.35-14.49-5.19-27.48-13-37.16-25.4,4.84-11.38,12.86-19,25.29-21.43-1.77,1.39-3.53,2.79-5.31,4.17-2.74,2.12-6.6,3.74-5.1,8.23a9.67,9.67,0,0,0,7.83,6.49c17.58,3.22,35.19,3.8,52.75-.11,4.15-.92,8.57-2.69,8.93-7.59.37-5.17-4.45-6.71-8.21-8.23a30.73,30.73,0,0,0-10.32-2.33c-13.51-.42-27-.45-40.56-.62,15-10.78,32.15-8.88,48.5-6.17C918.38,852.36,930,858.37,937.12,870Z" transform="translate(-21.52 -31.95)" fill="#d2d2d2"/><path d="M857.53,856.49c13.52.17,27.05.2,40.56.62a30.73,30.73,0,0,1,10.32,2.33c3.76,1.52,8.58,3.06,8.21,8.23-.36,4.9-4.78,6.67-8.93,7.59-17.56,3.91-35.17,3.33-52.75.11a9.67,9.67,0,0,1-7.83-6.49c-1.5-4.49,2.36-6.11,5.1-8.23,1.78-1.38,3.54-2.78,5.31-4.17Z" transform="translate(-21.52 -31.95)" fill="#e4e4e4"/><path d="M1022.56,969.08c-.59-1.23-1.43-4.85-2-6.08-4.31,1.16-19.57,12.49-24.64,15.53-25.5,13.6-49.54,5-80-2-8.36-2.7-10.12-5.4-17.54-10.8-10.13-8.77-6.75-7.42-11.14-12.82-1.69,7.42-1.69,8.77,0,14.51.61,2.06,4,4.49,5.74,5.74,12.27,8.74,27.42,15.77,39.68,17.3,3.13.38,9-1.71,6.74,5.53.2.26.4.51.61.76a66.34,66.34,0,0,1,14.28-5.31c16-.4,33.45,2.72,46.33-7.15C1002.59,982.94,1021.21,973.46,1022.56,969.08Z" transform="translate(-21.52 -31.95)" fill="#959595"/></svg>
