<svg xmlns="http://www.w3.org/2000/svg" width="40" height="40"><path d="M23.12,7.91,20,11.72,16.88,7.91A27.78,27.78,0,0,0,6.26,10.52a8.74,8.74,0,0,0,4.05,3c.06-1.54,1.39-1.95,2.8-2.1a22,22,0,0,1,2.64-.1L20,35l4.25-23.67a22,22,0,0,1,2.64.1c1.41.15,2.74.56,2.8,2.1a8.74,8.74,0,0,0,4.05-3A27.78,27.78,0,0,0,23.12,7.91Z"/><path d="M20,5A43.14,43.14,0,0,0,4.94,7.91a10.32,10.32,0,0,0,.83,1.77A34.56,34.56,0,0,1,20,6.86,34.56,34.56,0,0,1,34.23,9.68a10.32,10.32,0,0,0,.83-1.77A43.14,43.14,0,0,0,20,5Z"/></svg>
