<?xml version="1.0" encoding="UTF-8"?>
<svg xmlns="http://www.w3.org/2000/svg"
     width="7.28889in" height="7.28889in"
     viewBox="0 0 656 656">
  <defs>
    <linearGradient id="a" x1="101.39" y1="223.15" x2="977.77" y2="223.15" gradientUnits="userSpaceOnUse">
      <stop offset="0" stop-color="#f37133"/>
      <stop offset="0.18" stop-color="#f06035"/>
      <stop offset="0.44" stop-color="#ec4d38"/>
      <stop offset="0.71" stop-color="#ea4239"/>
      <stop offset="1" stop-color="#e93e3a"/>
    </linearGradient>
  </defs>
  <path fill="url(#a)"
        d="M 280.13,392.56
           C 280.13,418.74 270.82,439.36 252.20,454.44
             233.71,469.51 207.93,477.04 174.86,477.04
             144.39,477.04 117.44,471.23 94.00,459.60
             94.00,459.60 94.00,402.48 94.00,402.48
             113.27,411.21 129.54,417.36 142.82,420.93
             156.23,424.50 168.48,426.28 179.54,426.28
             192.82,426.28 202.98,423.70 210.01,418.55
             217.18,413.39 220.76,405.72 220.76,395.55
             220.76,395.40 220.76,395.24 220.76,395.08
             220.76,389.63 219.04,384.59 216.10,380.47
             212.97,375.98 208.35,371.68 202.23,367.58
             196.24,363.48 183.93,356.94 165.32,347.95
             147.87,339.62 134.78,331.62 126.06,323.95
             117.50,316.49 110.38,307.42 105.14,297.22
             99.93,287.02 97.33,275.11 97.34,261.49
             97.34,235.84 105.86,215.68 122.92,201.00
             140.11,186.34 163.81,179.01 194.02,179.01
             194.28,179.01 194.56,179.01 194.83,179.01
             209.19,179.01 223.12,180.85 236.40,184.32
             251.02,188.19 265.18,193.26 278.78,199.36
             278.78,199.36 259.25,247.22 259.25,247.22
             244.00,240.90 231.37,236.47 221.35,233.93
             212.06,231.50 202.21,230.19 192.05,230.16
             180.59,230.16 171.80,232.87 165.68,238.28
             159.56,243.70 156.50,250.78 156.49,259.51
             156.49,259.70 156.49,259.90 156.49,260.10
             156.49,265.10 157.84,269.77 160.21,273.79
             162.68,277.78 166.58,281.68 171.93,285.48
             177.38,289.18 190.21,295.93 210.40,305.72
             237.10,318.67 255.39,331.70 265.29,344.79
             275.18,357.74 280.13,373.66 280.13,392.56 Z
           M 561.58,473.07
           C 561.58,473.07 492.83,473.07 492.83,473.07
             492.83,473.07 420.20,353.96 420.20,353.96
             420.20,353.96 392.44,385.53 392.44,385.53
             392.44,385.53 392.44,473.07 392.44,473.07
             392.44,473.07 331.89,473.07 331.89,473.07
             331.89,473.07 331.89,183.15 331.89,183.15
             331.89,183.15 392.44,183.15 392.44,183.15
             392.44,183.15 392.44,311.84 392.44,311.84
             392.44,311.84 493.61,183.16 493.61,183.16
             493.61,183.16 560.80,183.16 560.80,183.16
             560.80,183.16 461.19,311.47 461.19,311.47
             461.19,311.47 443.88,332.71 443.88,332.71
             443.88,332.71 466.79,320.71 466.79,320.71
             466.79,320.71 561.58,473.07 561.58,473.07 Z" />
</svg>
