<svg xmlns="http://www.w3.org/2000/svg" viewBox="0 0 876.37 427.11"><path d="M194.06,223.87q0,39.27-27.94,61.89-27.75,22.61-77.38,22.61-45.72,0-80.89-17.45V233.79q28.91,13.1,48.84,18.45,20.13,5.36,36.74,5.35,19.93,0,30.48-7.73,10.76-7.74,10.75-23A25.22,25.22,0,0,0,130,211.77q-4.69-6.74-13.87-12.89-9-6.15-36.93-19.64-26.19-12.5-39.28-24A89.77,89.77,0,0,1,19,128.46q-7.82-15.27-7.81-35.7,0-38.48,25.59-60.5,25.8-22,71.13-22a164.26,164.26,0,0,1,42.4,5.35,287.39,287.39,0,0,1,42.4,15.08l-19.54,47.8Q150.29,69,135.25,65.19a118.94,118.94,0,0,0-29.31-3.77q-17.2,0-26.38,8.13T70.37,90.78a27,27,0,0,0,3.72,14.28q3.7,6,11.72,11.7Q94,122.31,124.3,137q40.06,19.44,54.91,39.08Q194.06,195.51,194.06,223.87Z" transform="translate(-7.85 -10.25)" fill="#010101"/><path d="M475.63,304.4H406.85L334.19,185.26l-27.77,31.57V304.4H245.84v-290h60.58V143.12L407.63,14.41h67.22L375.2,142.75,357.88,164l22.92-12Z" transform="translate(-7.85 -10.25)" fill="#010101"/><path d="M511.59,304.4v-290h60.57v290Z" transform="translate(-7.85 -10.25)" fill="#010101"/><path d="M819,304.4l-20.71-69H694.09l-20.71,69H608.11L708.94,13.22H783L884.21,304.4ZM783.78,183.8Q755.06,90,751.34,77.69q-3.51-12.3-5.08-19.44-6.45,25.38-36.93,125.55Z" transform="translate(-7.85 -10.25)" fill="#010101"/><path d="M82.07,411.59H69.87V351.34H103.4V361.8H82.07v15.54h19.85v10.43H82.07Z" transform="translate(-7.85 -10.25)" fill="#010101"/><path d="M192.52,381.38q0,15-7.2,23t-20.65,8q-13.44,0-20.64-8t-7.21-23.08q0-15,7.21-23t20.72-7.95q13.49,0,20.61,8T192.52,381.38Zm-42.69,0q0,10.1,3.72,15.21t11.12,5.11q14.85,0,14.85-20.32T164.75,361q-7.4,0-11.16,5.15T149.83,381.38Z" transform="translate(-7.85 -10.25)" fill="#010101"/><path d="M241.63,378.08h4q5.88,0,8.68-2c1.87-1.34,2.8-3.46,2.8-6.34s-1-4.89-2.88-6.1-4.84-1.82-8.84-1.82h-3.76Zm0,10.39v23.12H229.22V351.34h17.05q11.92,0,17.64,4.49t5.73,13.56a16.42,16.42,0,0,1-2.84,9.47,19,19,0,0,1-8.05,6.48Q272,405.65,276,411.59H262.19l-14-23.12Z" transform="translate(-7.85 -10.25)" fill="#010101"/><path d="M477.32,380.81q0,15.31-8,23.46t-23.13,8.14H430v-62h17.9q13.95,0,21.68,8T477.32,380.81Zm-12.56.34q0-20-16.22-20h-6.43v40.39h5.19Q464.76,401.55,464.76,381.15Z" transform="translate(-7.85 -10.25)" fill="#010101"/><path d="M545.92,412.41H513.09v-62h32.83v10.77H525.17v13.62h19.3v10.78h-19.3v16h20.75Z" transform="translate(-7.85 -10.25)" fill="#010101"/><path d="M581.8,412.41v-62h12.09v51.16H617v10.86Z" transform="translate(-7.85 -10.25)" fill="#010101"/><path d="M663,379.58h4c3.72,0,6.5-.8,8.35-2.38s2.77-3.94,2.77-7-.79-5.36-2.34-6.83-4-2.21-7.26-2.21H663Zm27.29-9.85q0,10-5.77,15.32t-16.34,5.3H663v22.06H650.91v-62h18.21q10.36,0,15.75,4.88T690.29,369.73Z" transform="translate(-7.85 -10.25)" fill="#010101"/><path d="M771.72,412.41H759.67V385.64H737.09v26.77H725v-62h12.08V374.7h22.58V350.39h12.05Z" transform="translate(-7.85 -10.25)" fill="#010101"/><path d="M810.1,412.41v-62h12.09v62Z" transform="translate(-7.85 -10.25)" fill="#010101"/><path d="M317.05,402a3.58,3.58,0,0,0,3.95-3.95,42.15,42.15,0,0,1-.26-8,35.26,35.26,0,0,1,54.58-25.5,2.78,2.78,0,0,0,3.2-.07l12.73-9.4a2.12,2.12,0,0,0,0-3.4,49.38,49.38,0,0,0-78.08,48.64,1.76,1.76,0,0,0,1.56,1.43Z" transform="translate(-7.85 -10.25)" fill="#231f20"/><path d="M308.89,400.23a1.34,1.34,0,0,0,1.25-1.55,51,51,0,0,1-.58-7.67,51.5,51.5,0,0,1,84.68-39.42,1.37,1.37,0,0,0,1.84-.06h0a2.89,2.89,0,0,0-.08-4.25,54.29,54.29,0,0,0-89.93,41,54.74,54.74,0,0,0,1.05,10.63,1.74,1.74,0,0,0,1.77,1.37Z" transform="translate(-7.85 -10.25)" fill="#231f20"/><path d="M354.26,390c.32,0,16.92,2.35,21.78,4.18s6.67,6.47,7.68,8.42c.64,1.23,2.1,5.15,3.27,8.08a11,11,0,0,0,4.88,6.66c-1.38-5.08-4.85-17.25-6.89-19.87a22.58,22.58,0,0,0-5.38-5.26l-.28-.21c-1.27-.92-21.64-4.15-24.74-4.51a5.35,5.35,0,0,0-3.74,1.16,3.81,3.81,0,0,0-1.47,2.59c-.29,2.74.12,4,1.82,5.66,1.23,1.19,7,2.77,10.17,3.62,1.21.33,2.09.57,2.5.72s1.24.31,2.26.52c3.26.65,8.18,1.64,9.83,3.57,1.86,2.18,10,25.25,9.32,26.53-.15.3-.4.8-7.9,1.71-1,.12-5.29.62-7.14.62a2.28,2.28,0,0,1-.8-.08c-.36-.18-1-1.06-3.44-4.77-2.07-3.1-4.63-6.95-6.38-9.06a31.78,31.78,0,0,0-12.32-8.75c-4.22-1.47-10.82-2.68-15.3-2.14a40.09,40.09,0,0,0-4.46.76c.37.88.76,1.75,1.2,2.58q1.68-.15,3.42-.15c13.37,0,24.94,6.95,30.56,17.08,1.6,2.33,3.55,5,4.7,6.51a3,3,0,0,0,2.61,1.18l17.32-1.42a1.91,1.91,0,0,0,1.68-2.42c-1.3-4.52-4.19-14.54-5.08-17.36a48,48,0,0,0-4.35-11.62c-3.29-5.78-17.81-5.88-26.08-10.09a2.1,2.1,0,0,1-.61-.32h0a2.28,2.28,0,0,1,1.36-4.12Z" transform="translate(-7.85 -10.25)" fill="#231f20"/><path d="M395.29,417.57c-1.23-4.17-5.3-18-5.63-19.7-1.58-7.87-5.09-19.72-14.14-26.6a31.09,31.09,0,0,0-18.16-5.75,32.29,32.29,0,0,0-30.21,43.69,43.22,43.22,0,0,1,4.72-.82c4.63-.55,11.43.69,15.75,2.2a32.89,32.89,0,0,1,12.76,9.05c1.78,2.15,4.36,6,6.44,9.15,1.31,2,2.67,4,3.05,4.41,1.42.14,12.82-1.15,14.45-1.82-.31-2.45-7.15-23.08-9.13-25.4-1.42-1.66-6.33-2.65-9.26-3.24a23.24,23.24,0,0,1-2.42-.56c-.36-.14-1.27-.38-2.41-.69-4.65-1.27-9.3-2.61-10.61-3.87-1.92-1.87-2.43-3.44-2.12-6.48a4.74,4.74,0,0,1,1.85-3.27,6.35,6.35,0,0,1,4.47-1.37c1.69.19,23.54,3.48,25.21,4.69l.28.2a23.51,23.51,0,0,1,5.59,5.46c2.32,3,6.13,16.72,7.32,21.13a11,11,0,0,0,1.3.49A.73.73,0,0,0,395.29,417.57Z" transform="translate(-7.85 -10.25)" fill="#231f20"/></svg>